<svg xmlns="http://www.w3.org/2000/svg" xmlns:xlink="http://www.w3.org/1999/xlink" width="108" height="108" viewBox="0 0 108 108">
  <defs>
    <filter id="Trazado_904820" x="0" y="0" width="108" height="108" filterUnits="userSpaceOnUse">
      <feOffset dy="3" input="SourceAlpha"/>
      <feGaussianBlur stdDeviation="3" result="blur"/>
      <feFlood flood-opacity="0.161"/>
      <feComposite operator="in" in2="blur"/>
      <feComposite in="SourceGraphic"/>
    </filter>
    <clipPath id="clip-path">
      <rect id="Rectángulo_408324" data-name="Rectángulo 408324" width="59" height="59" transform="translate(0 0.359)" fill="none"/>
    </clipPath>
  </defs>
  <g id="Grupo_1151906" data-name="Grupo 1151906" transform="translate(-200 -541.663)">
    <g id="Grupo_1143771" data-name="Grupo 1143771" transform="translate(-522 -4585.337)">
      <g id="Icono" transform="translate(731 5133)">
        <g transform="matrix(1, 0, 0, 1, -9, -6)" filter="url(#Trazado_904820)">
          <g id="Trazado_904820-2" data-name="Trazado 904820" transform="translate(9 6)" fill="#dbe7fc">
            <path d="M 45 88.5 C 39.12687683105469 88.5 33.43022537231445 87.35007476806641 28.06830024719238 85.08217620849609 C 22.88852500915527 82.89131164550781 18.23629951477051 79.75458526611328 14.2408504486084 75.75914764404297 C 10.24541282653809 71.76370239257812 7.108687400817871 67.11147308349609 4.917825222015381 61.93170166015625 C 2.649924993515015 56.56977462768555 1.5 50.87312316894531 1.5 45 C 1.5 39.12687683105469 2.649924993515015 33.43022537231445 4.917825222015381 28.06830024719238 C 7.108687400817871 22.88852500915527 10.24541282653809 18.23629951477051 14.2408504486084 14.2408504486084 C 18.23629951477051 10.24541282653809 22.88852500915527 7.108687400817871 28.06830024719238 4.917825222015381 C 33.43022537231445 2.649924993515015 39.12687683105469 1.5 45 1.5 C 50.87312316894531 1.5 56.56977462768555 2.649924993515015 61.93170166015625 4.917825222015381 C 67.11147308349609 7.108687400817871 71.76370239257812 10.24541282653809 75.75914764404297 14.2408504486084 C 79.75458526611328 18.23629951477051 82.89131164550781 22.88852500915527 85.08217620849609 28.06830024719238 C 87.35007476806641 33.43022537231445 88.5 39.12687683105469 88.5 45 C 88.5 50.87312316894531 87.35007476806641 56.56977462768555 85.08217620849609 61.93170166015625 C 82.89131164550781 67.11147308349609 79.75458526611328 71.76370239257812 75.75914764404297 75.75914764404297 C 71.76370239257812 79.75458526611328 67.11147308349609 82.89131164550781 61.93170166015625 85.08217620849609 C 56.56977462768555 87.35007476806641 50.87312316894531 88.5 45 88.5 Z" stroke="none"/>
            <path d="M 45 3 C 39.32871246337891 3 33.82865524291992 4.110054016113281 28.65262985229492 6.299339294433594 C 23.65165710449219 8.414573669433594 19.15968322753906 11.44334411621094 15.301513671875 15.301513671875 C 11.44334411621094 19.15968322753906 8.414573669433594 23.65165710449219 6.299339294433594 28.65262985229492 C 4.110054016113281 33.82865524291992 3 39.32871246337891 3 45 C 3 50.67128753662109 4.110054016113281 56.17134475708008 6.299339294433594 61.34737396240234 C 8.414573669433594 66.34834289550781 11.44334411621094 70.84031677246094 15.301513671875 74.698486328125 C 19.15968322753906 78.55665588378906 23.65165710449219 81.58542633056641 28.65262985229492 83.70066070556641 C 33.82865524291992 85.88994598388672 39.32871246337891 87 45 87 C 50.67128753662109 87 56.17134475708008 85.88994598388672 61.34737396240234 83.70066070556641 C 66.34834289550781 81.58542633056641 70.84031677246094 78.55665588378906 74.698486328125 74.698486328125 C 78.55665588378906 70.84031677246094 81.58542633056641 66.34834289550781 83.70066070556641 61.34737396240234 C 85.88994598388672 56.17134475708008 87 50.67128753662109 87 45 C 87 39.32871246337891 85.88994598388672 33.82865524291992 83.70066070556641 28.65262985229492 C 81.58542633056641 23.65165710449219 78.55665588378906 19.15968322753906 74.698486328125 15.301513671875 C 70.84031677246094 11.44334411621094 66.34834289550781 8.414573669433594 61.34737396240234 6.299339294433594 C 56.17134475708008 4.110054016113281 50.67128753662109 3 45 3 M 45 0 C 69.85281372070312 0 90 20.14718627929688 90 45 C 90 69.85281372070312 69.85281372070312 90 45 90 C 20.14718627929688 90 0 69.85281372070312 0 45 C 0 20.14718627929688 20.14718627929688 0 45 0 Z" stroke="none" fill="#0d5d91"/>
          </g>
        </g>
      </g>
    </g>
    <g id="Grupo_1151872" data-name="Grupo 1151872" transform="translate(225 562.641)">
      <path id="Trazado_978946" data-name="Trazado 978946" d="M64,69.765v30.669h43.53V69.765L85.765,48Z" transform="translate(-56.085 -42.064)" fill="#fbc250"/>
      <path id="Trazado_978947" data-name="Trazado 978947" d="M56.477,27.786V8H46.584v9.893L36.69,8,8,36.69l2.968,2.968L36.69,13.936,62.413,39.658l2.968-2.968Z" transform="translate(-7.011 -7.011)" fill="#901c09"/>
      <g id="Grupo_1151871" data-name="Grupo 1151871">
        <g id="Grupo_1151870" data-name="Grupo 1151870" clip-path="url(#clip-path)">
          <path id="Trazado_978948" data-name="Trazado 978948" d="M176,205.851h3.957v-7.915a1.979,1.979,0,0,1,1.979-1.979h3.957a1.979,1.979,0,0,1,1.979,1.979v7.915h3.957v-7.915A5.936,5.936,0,0,0,185.893,192h-3.957A5.936,5.936,0,0,0,176,197.936Z" transform="translate(-154.235 -168.256)" fill="#a6adb9"/>
          <path id="Trazado_978949" data-name="Trazado 978949" d="M160,297.979v13.851a1.979,1.979,0,0,0,1.979,1.979h15.829a1.979,1.979,0,0,0,1.979-1.979V297.979A1.979,1.979,0,0,0,177.808,296H161.979A1.979,1.979,0,0,0,160,297.979" transform="translate(-140.214 -259.395)" fill="#9bb249"/>
          <path id="Trazado_978950" data-name="Trazado 978950" d="M221.936,330.968a2.967,2.967,0,1,0-4.947,2.2v2.749a1.979,1.979,0,0,0,3.957,0v-2.749a2.949,2.949,0,0,0,.989-2.2" transform="translate(-189.288 -287.438)" fill="#a6adb9"/>
          <path id="Trazado_978951" data-name="Trazado 978951" d="M50.456,20.366V.99A.989.989,0,0,0,49.466,0H39.573a.989.989,0,0,0-.989.989v7.5l-8.2-8.2a.989.989,0,0,0-1.4,0L.29,28.98a.989.989,0,0,0,0,1.4l2.968,2.968a.989.989,0,0,0,1.4,0l2.269-2.269V58.37a.989.989,0,0,0,.989.989h43.53a.989.989,0,0,0,.989-.989V31.079L54.7,33.347a.989.989,0,0,0,1.4,0l2.968-2.968a.989.989,0,0,0,0-1.4Zm0,37.014H8.9V29.1L29.68,8.325,50.456,29.1ZM55.4,31.249,30.379,6.226a.989.989,0,0,0-1.4,0L3.958,31.249,2.389,29.68,29.68,2.389l9.194,9.194a.989.989,0,0,0,1.689-.7v-8.9h7.915v18.8a.989.989,0,0,0,.29.7l8.2,8.2Z" transform="translate(0 0)"/>
          <path id="Trazado_978952" data-name="Trazado 978952" d="M153.979,190.925v6.118A2.963,2.963,0,0,0,152,199.829V213.68a2.971,2.971,0,0,0,2.968,2.968H170.8a2.971,2.971,0,0,0,2.968-2.968V199.829a2.963,2.963,0,0,0-1.979-2.786v-6.118A6.934,6.934,0,0,0,164.861,184H160.9a6.934,6.934,0,0,0-6.925,6.925m17.808,22.754a.99.99,0,0,1-.989.989H154.968a.99.99,0,0,1-.989-.989V199.829a.99.99,0,0,1,.989-.989H170.8a.99.99,0,0,1,.989.989Zm-5.936-16.818h-5.936v-5.936a.99.99,0,0,1,.989-.989h3.957a.99.99,0,0,1,.989.989Zm3.957-5.936v5.936h-1.979v-5.936a2.971,2.971,0,0,0-2.968-2.968H160.9a2.971,2.971,0,0,0-2.968,2.968v5.936h-1.979v-5.936a4.952,4.952,0,0,1,4.947-4.947h3.957a4.952,4.952,0,0,1,4.947,4.947" transform="translate(-133.203 -161.246)"/>
          <path id="Trazado_978953" data-name="Trazado 978953" d="M211.26,320.058a3.991,3.991,0,0,0-3.2,3.2,3.942,3.942,0,0,0,.928,3.3V328.9a2.968,2.968,0,1,0,5.936,0v-2.345a3.952,3.952,0,0,0-3.669-6.5m2.017,5.36a.989.989,0,0,0-.327.734V328.9a.989.989,0,1,1-1.979,0v-2.749a.989.989,0,0,0-.327-.735,1.952,1.952,0,0,1-.63-1.82,2.006,2.006,0,0,1,1.584-1.589,2.141,2.141,0,0,1,.365-.032,1.951,1.951,0,0,1,1.27.464,1.963,1.963,0,0,1,.044,2.979" transform="translate(-182.282 -280.424)"/>
        </g>
      </g>
    </g>
  </g>
</svg>
