<svg xmlns="http://www.w3.org/2000/svg" xmlns:xlink="http://www.w3.org/1999/xlink" width="108" height="108" viewBox="0 0 108 108">
  <defs>
    <filter id="Fondo" x="0" y="0" width="108" height="108" filterUnits="userSpaceOnUse">
      <feOffset dy="3" input="SourceAlpha"/>
      <feGaussianBlur stdDeviation="3" result="blur"/>
      <feFlood flood-opacity="0.161"/>
      <feComposite operator="in" in2="blur"/>
      <feComposite in="SourceGraphic"/>
    </filter>
    <clipPath id="clip-path">
      <rect id="Rectángulo_408331" data-name="Rectángulo 408331" width="52" height="52" fill="none"/>
    </clipPath>
  </defs>
  <g id="Grupo_1151907" data-name="Grupo 1151907" transform="translate(-589 -2886)">
    <g id="Icono" transform="translate(597.5 2197)">
      <g transform="matrix(1, 0, 0, 1, -8.5, 689)" filter="url(#Fondo)">
        <g id="Fondo-2" data-name="Fondo" transform="translate(9 6)" fill="#f5e9a1" stroke="#48452f" stroke-width="3">
          <circle cx="45" cy="45" r="45" stroke="none"/>
          <circle cx="45" cy="45" r="43.5" fill="none"/>
        </g>
      </g>
    </g>
    <g id="Grupo_1151882" data-name="Grupo 1151882" transform="translate(617 2912)">
      <path id="Trazado_978959" data-name="Trazado 978959" d="M88,256h18.3l-3.485,13.942H92.357Z" transform="translate(-78.415 -228.117)" fill="#fbc250"/>
      <rect id="Rectángulo_408329" data-name="Rectángulo 408329" width="5" height="8" transform="translate(17 22)" fill="#e1b494"/>
      <g id="Grupo_1151881" data-name="Grupo 1151881">
        <g id="Grupo_1151880" data-name="Grupo 1151880" clip-path="url(#clip-path)">
          <path id="Trazado_978960" data-name="Trazado 978960" d="M354.456,144h-6.971A3.485,3.485,0,0,0,344,147.485V150.1h5.228v-.871a1.743,1.743,0,0,1,1.743-1.743A3.485,3.485,0,0,0,354.456,144" transform="translate(-306.532 -128.316)" fill="#f2cba7"/>
          <path id="Trazado_978961" data-name="Trazado 978961" d="M256,115.485h2.614a1.743,1.743,0,0,0,0-3.485H256Z" transform="translate(-228.117 -99.801)" fill="#e1b494"/>
          <path id="Trazado_978962" data-name="Trazado 978962" d="M153.743,304.871h0A5.95,5.95,0,0,0,152,309.079V322.3h5.228v-13.22a5.95,5.95,0,0,0-1.743-4.207l-.871-.871Z" transform="translate(-135.444 -270.889)" fill="#d63909"/>
          <path id="Trazado_978963" data-name="Trazado 978963" d="M60.357,115.485H57.743a1.743,1.743,0,0,1,0-3.485h2.614Z" transform="translate(-49.901 -99.801)" fill="#e1b494"/>
          <path id="Trazado_978964" data-name="Trazado 978964" d="M107.17,79.842V72H88v7.842a9.585,9.585,0,1,0,19.17,0" transform="translate(-78.415 -64.158)" fill="#f2cba7"/>
          <path id="Trazado_978965" data-name="Trazado 978965" d="M88,14.971h19.17V8h-12.2A6.971,6.971,0,0,0,88,14.971" transform="translate(-78.415 -7.129)" fill="#da9d41"/>
          <path id="Trazado_978966" data-name="Trazado 978966" d="M144,264l2.614,5.228h1.743L150.971,264l-3.485.871Z" transform="translate(-128.316 -235.246)" fill="#901c09"/>
          <path id="Trazado_978967" data-name="Trazado 978967" d="M120,259.485l6.1-1.743L123.485,256H120Z" transform="translate(-106.93 -228.117)" fill="#fed993"/>
          <path id="Trazado_978968" data-name="Trazado 978968" d="M176,257.743l6.1,1.743V256h-3.485Z" transform="translate(-156.83 -228.117)" fill="#fed993"/>
          <path id="Trazado_978969" data-name="Trazado 978969" d="M328,29.942h15.684v-6.1L335.842,16,328,23.842Z" transform="translate(-292.275 -14.257)" fill="#9bb249"/>
          <rect id="Rectángulo_408330" data-name="Rectángulo 408330" width="4" height="5" transform="translate(42 11)" fill="#738520"/>
          <path id="Trazado_978970" data-name="Trazado 978970" d="M13.228,256A5.228,5.228,0,0,0,8,261.228v18.3H26.3L20.2,256Z" transform="translate(-7.129 -228.117)" fill="#a6adb9"/>
          <path id="Trazado_978971" data-name="Trazado 978971" d="M193.427,192v6.971H182.1L176,222.5h13.07V205.942h6.1a5.228,5.228,0,0,0,5.228-5.228V192Z" transform="translate(-156.83 -171.088)" fill="#a6adb9"/>
          <path id="Trazado_978972" data-name="Trazado 978972" d="M112,112.871h0a2.614,2.614,0,0,0,2.614,2.614h.871a1.743,1.743,0,0,0,1.743-1.743v-.871a.871.871,0,0,0-.871-.871h-3.485a.871.871,0,0,0-.871.871" transform="translate(-99.801 -99.801)" fill="#5fd1d0"/>
          <path id="Trazado_978973" data-name="Trazado 978973" d="M192,112.871v.871a1.743,1.743,0,0,0,1.743,1.743h.871a2.614,2.614,0,0,0,2.614-2.614.871.871,0,0,0-.871-.871h-3.485a.871.871,0,0,0-.871.871" transform="translate(-171.088 -99.801)" fill="#5fd1d0"/>
          <path id="Trazado_978974" data-name="Trazado 978974" d="M84.357,256,80,260.357l1.743,1.743L80,263.842l10.456,15.684Z" transform="translate(-71.287 -228.117)" fill="#4c4c4c"/>
          <path id="Trazado_978975" data-name="Trazado 978975" d="M182.1,256l4.357,4.357-1.743,1.743,1.743,1.743L176,279.526Z" transform="translate(-156.83 -228.117)" fill="#4c4c4c"/>
          <path id="Trazado_978976" data-name="Trazado 978976" d="M150.971,168.871V168h-1.743v.871a1.743,1.743,0,1,1-3.485,0V168H144v.871a3.485,3.485,0,0,0,6.971,0" transform="translate(-128.316 -149.702)"/>
          <path id="Trazado_978977" data-name="Trazado 978977" d="M44.183,1.127a.871.871,0,0,0-1.232,0L35.109,8.969a.871.871,0,0,0-.255.616v6.1a.871.871,0,0,0,.871.871H37.49A4.314,4.314,0,0,0,36.6,19.17v.871a.871.871,0,0,0-.871.871v6.1H22.655V25.53a10.467,10.467,0,0,0,6.927-8.975H30.5a2.614,2.614,0,0,0,0-5.228h-.871V.871A.871.871,0,0,0,28.754,0h-12.2A7.851,7.851,0,0,0,8.713,7.842v3.485H7.842a2.614,2.614,0,0,0,0,5.228h.915a10.467,10.467,0,0,0,6.927,8.975v1.481H6.1a6.107,6.107,0,0,0-6.1,6.1v18.3a.871.871,0,0,0,.871.871H32.24a.871.871,0,0,0,.871-.871V35.725h5.228a6.107,6.107,0,0,0,6.1-6.1V20.912A.859.859,0,0,0,44,20.175a.846.846,0,0,1,.435-.134,4.364,4.364,0,0,0,4.269-3.485h2.7a.871.871,0,0,0,.871-.871v-6.1a.871.871,0,0,0-.255-.616Zm.255,13.686H42.7V12.2h1.743ZM27.267,34.6,28.5,35.836l-7.2,10.793,4.432-17.042,2.653,2.653-1.127,1.127a.871.871,0,0,0,0,1.232M11.072,33.366,9.946,32.24,12.6,29.587,17.03,46.629l-7.2-10.793L11.072,34.6a.871.871,0,0,0,0-1.232m10.975-4.612h2.1l-.384,1.483-1.7-.566h0l-.924-.308Zm.228,7.2a6.762,6.762,0,0,0-1.189-2.119l1.139-2.277,1.1.365Zm-7.256-4.031,1.1-.365,1.139,2.277a6.762,6.762,0,0,0-1.189,2.119Zm2.766-.922,1.385-.462,1.385.462L19.5,33.111h-.665Zm-.58-1.644-.924.308h0l-1.7.566L14.2,28.754h2.1Zm.223,11.854V38.19a5.04,5.04,0,0,1,1.249-3.336h.987a5.04,5.04,0,0,1,1.249,3.336v3.026L19.17,47.938ZM26.769,12.2a1.737,1.737,0,0,0-1.5-.871H21.784a1.737,1.737,0,0,0-1.5.871H18.056a1.737,1.737,0,0,0-1.5-.871H13.07a1.737,1.737,0,0,0-1.5.871H10.456V8.713H27.883V12.2Zm-1.5.871a1.745,1.745,0,0,1-1.743,1.743h-.871a.872.872,0,0,1-.871-.871V13.07Zm-8.713,0v.871a.872.872,0,0,1-.871.871h-.871A1.745,1.745,0,0,1,13.07,13.07Zm13.942,0a.871.871,0,0,1,0,1.743h-.871V13.07ZM16.556,1.743H27.883V6.971H10.518a6.109,6.109,0,0,1,6.037-5.228m-9.585,12.2a.872.872,0,0,1,.871-.871h.871v1.743H7.842a.872.872,0,0,1-.871-.871m3.485,1.743V13.942h1a3.482,3.482,0,0,0,3.362,2.614h.871A2.617,2.617,0,0,0,18.3,13.942h1.743a2.617,2.617,0,0,0,2.614,2.614h.871a3.482,3.482,0,0,0,3.362-2.614h1v1.743a8.713,8.713,0,1,1-17.427,0M19.17,26.14a10.445,10.445,0,0,0,1.743-.157v1.434L19.17,28.579l-1.743-1.162V25.983a10.445,10.445,0,0,0,1.743.157M1.743,33.111A4.362,4.362,0,0,1,6.1,28.754h4.867L8.1,31.624a.871.871,0,0,0,0,1.232l1.127,1.127L8.1,35.109a.871.871,0,0,0-.109,1.1l9.553,14.33H8.713V40.953a.871.871,0,1,0-1.743,0v9.585H1.743ZM42.7,29.626a4.362,4.362,0,0,1-4.357,4.357h-6.1a.871.871,0,0,0-.871.871V50.538H20.8l9.553-14.33a.871.871,0,0,0-.109-1.1l-1.127-1.127,1.127-1.127a.871.871,0,0,0,0-1.232l-2.869-2.869H36.6a.871.871,0,0,0,.871-.871v-6.1H42.7ZM44.439,18.3a2.62,2.62,0,0,0-2.465,1.743H38.339V19.17a2.617,2.617,0,0,1,2.614-2.614H46.9A2.62,2.62,0,0,1,44.439,18.3m6.1-3.485H46.181V11.327a.871.871,0,0,0-.871-.871H41.825a.871.871,0,0,0-.871.871v3.485H36.6V9.946l6.971-6.971,6.971,6.971Z"/>
        </g>
      </g>
    </g>
  </g>
</svg>
