<svg xmlns="http://www.w3.org/2000/svg" xmlns:xlink="http://www.w3.org/1999/xlink" width="123" height="123" viewBox="0 0 123 123">
  <defs>
    <filter id="Trazado_978965" x="0" y="0" width="123" height="123" filterUnits="userSpaceOnUse">
      <feOffset dy="3" input="SourceAlpha"/>
      <feGaussianBlur stdDeviation="3" result="blur"/>
      <feFlood flood-opacity="0.161"/>
      <feComposite operator="in" in2="blur"/>
      <feComposite in="SourceGraphic"/>
    </filter>
    <clipPath id="clip-path">
      <rect id="Rectángulo_408301" data-name="Rectángulo 408301" width="49.751" height="55.75" fill="none"/>
    </clipPath>
  </defs>
  <g id="Grupo_1144404" data-name="Grupo 1144404" transform="translate(9 6)">
    <g transform="matrix(1, 0, 0, 1, -9, -6)" filter="url(#Trazado_978965)">
      <g id="Trazado_978965-2" data-name="Trazado 978965" transform="translate(9 6)" fill="#dbe7fc">
        <path d="M 52.5 103.5 C 45.61438751220703 103.5 38.93552780151367 102.1517715454102 32.64895629882812 99.49278259277344 C 26.57609939575195 96.92418670654297 21.12178611755371 93.24668884277344 16.43755722045898 88.56244659423828 C 11.75331401824951 83.87821197509766 8.075828552246094 78.42391204833984 5.507214069366455 72.35104370117188 C 2.848228454589844 66.06446838378906 1.5 59.38561248779297 1.5 52.5 C 1.5 45.61438751220703 2.848228454589844 38.93552780151367 5.507214069366455 32.64895629882812 C 8.075828552246094 26.57609939575195 11.75331401824951 21.12178611755371 16.43755722045898 16.43755722045898 C 21.12178611755371 11.75331401824951 26.57609939575195 8.075828552246094 32.64895629882812 5.507214069366455 C 38.93552780151367 2.848228454589844 45.61438751220703 1.5 52.5 1.5 C 59.38561248779297 1.5 66.06446838378906 2.848228454589844 72.35104370117188 5.507214069366455 C 78.42391204833984 8.075828552246094 83.87821197509766 11.75331401824951 88.56244659423828 16.43755722045898 C 93.24668884277344 21.12178611755371 96.92418670654297 26.57609939575195 99.49278259277344 32.64895629882812 C 102.1517715454102 38.93552780151367 103.5 45.61438751220703 103.5 52.5 C 103.5 59.38561248779297 102.1517715454102 66.06446838378906 99.49278259277344 72.35104370117188 C 96.92418670654297 78.42391204833984 93.24668884277344 83.87821197509766 88.56244659423828 88.56244659423828 C 83.87821197509766 93.24668884277344 78.42391204833984 96.92418670654297 72.35104370117188 99.49278259277344 C 66.06446838378906 102.1517715454102 59.38561248779297 103.5 52.5 103.5 Z" stroke="none"/>
        <path d="M 52.5 3 C 45.81621551513672 3 39.33396911621094 4.308349609375 33.23328399658203 6.888717651367188 C 27.33921813964844 9.381698608398438 22.04518127441406 12.95124816894531 17.49821472167969 17.49821472167969 C 12.95124816894531 22.04518127441406 9.381698608398438 27.33921813964844 6.888717651367188 33.23328399658203 C 4.308349609375 39.33396911621094 3 45.81621551513672 3 52.5 C 3 59.18378448486328 4.308349609375 65.66603088378906 6.888717651367188 71.76671600341797 C 9.381698608398438 77.66078186035156 12.95124816894531 82.95481872558594 17.49821472167969 87.50178527832031 C 22.04518127441406 92.04875183105469 27.33921813964844 95.61830139160156 33.23328399658203 98.11128234863281 C 39.33396911621094 100.691650390625 45.81621551513672 102 52.5 102 C 59.18378448486328 102 65.66603088378906 100.691650390625 71.76671600341797 98.11128234863281 C 77.66078186035156 95.61830139160156 82.95481872558594 92.04875183105469 87.50178527832031 87.50178527832031 C 92.04875183105469 82.95481872558594 95.61830139160156 77.66078186035156 98.11128234863281 71.76671600341797 C 100.691650390625 65.66603088378906 102 59.18378448486328 102 52.5 C 102 45.81621551513672 100.691650390625 39.33396911621094 98.11128234863281 33.23328399658203 C 95.61830139160156 27.33921813964844 92.04875183105469 22.04518127441406 87.50178527832031 17.49821472167969 C 82.95481872558594 12.95124816894531 77.66078186035156 9.381698608398438 71.76671600341797 6.888717651367188 C 65.66603088378906 4.308349609375 59.18378448486328 3 52.5 3 M 52.5 0 C 81.49494934082031 0 105 23.50505065917969 105 52.5 C 105 81.49494934082031 81.49494934082031 105 52.5 105 C 23.50505065917969 105 0 81.49494934082031 0 52.5 C 0 23.50505065917969 23.50505065917969 0 52.5 0 Z" stroke="none" fill="#0d5d91"/>
      </g>
    </g>
    <g id="Grupo_1151806" data-name="Grupo 1151806" transform="translate(27.624 24.625)">
      <g id="Grupo_1151805" data-name="Grupo 1151805" clip-path="url(#clip-path)">
        <path id="Trazado_978966" data-name="Trazado 978966" d="M39.875,52.875h-37a2,2,0,0,1-2-2V9.7a2,2,0,0,1,.586-1.414L8.289,1.461A2,2,0,0,1,9.7.875H39.875a2,2,0,0,1,2,2v48a2,2,0,0,1-2,2" fill="#e8eaf6"/>
        <path id="Trazado_978967" data-name="Trazado 978967" d="M31.223,14.107,21.375,5.7l-9.848,8.4H13.5V24.94H29.253V14.107Z" fill="#e8eaf6"/>
        <rect id="Rectángulo_408298" data-name="Rectángulo 408298" width="15.757" height="2.748" transform="translate(13.497 22.192)" fill="#c5cae9"/>
        <rect id="Rectángulo_408299" data-name="Rectángulo 408299" width="4.648" height="7.017" transform="translate(19.051 17.923)" fill="#c17b3f"/>
        <rect id="Rectángulo_408300" data-name="Rectángulo 408300" width="4.648" height="2.748" transform="translate(19.051 22.192)" fill="#a26535"/>
        <path id="Trazado_978968" data-name="Trazado 978968" d="M11.527,14.107h19.7L21.375,5.7Z" fill="#ef5350"/>
        <path id="Trazado_978969" data-name="Trazado 978969" d="M39.875,47.875h-37a2,2,0,0,1-2-2v5a2,2,0,0,0,2,2h37a2,2,0,0,0,2-2v-5a2,2,0,0,1-2,2" fill="#c5cae9"/>
        <path id="Trazado_978970" data-name="Trazado 978970" d="M35.513,50.821l-4.1,4.054-.785-5.71a3.987,3.987,0,0,1,.175-1.83L43.033,11.3a3,3,0,1,1,5.682,1.928L36.488,49.263a4.013,4.013,0,0,1-.975,1.558" fill="#64b5f6"/>
        <path id="Trazado_978971" data-name="Trazado 978971" d="M47.14,9.557a2.964,2.964,0,0,1-.144.86L34.769,46.455a3.991,3.991,0,0,1-.974,1.558l-2.924,2.893.545,3.969,4.1-4.054a4,4,0,0,0,.974-1.559L48.715,13.224A2.989,2.989,0,0,0,47.14,9.557" fill="#1e88e5"/>
        <path id="Trazado_978972" data-name="Trazado 978972" d="M.875,35.779A.875.875,0,0,1,0,34.9V9.7A2.858,2.858,0,0,1,.842,7.67L7.67.841A2.862,2.862,0,0,1,9.7,0H39.875A2.879,2.879,0,0,1,42.75,2.875V7.208a.875.875,0,0,1-1.75,0V2.875A1.127,1.127,0,0,0,39.875,1.75H9.7a1.115,1.115,0,0,0-.8.33L2.08,8.908a1.129,1.129,0,0,0-.33.8V34.9a.875.875,0,0,1-.875.875" fill="#1a237e"/>
        <path id="Trazado_978973" data-name="Trazado 978973" d="M32.517,30.955H6.875a.875.875,0,0,1,0-1.75H32.517a.875.875,0,0,1,0,1.75" fill="#1a237e"/>
        <path id="Trazado_978974" data-name="Trazado 978974" d="M16.087,38.687H6.875a.875.875,0,0,1,0-1.75h9.212a.875.875,0,0,1,0,1.75" fill="#1a237e"/>
        <path id="Trazado_978975" data-name="Trazado 978975" d="M30.806,34.82H6.875a.875.875,0,0,1,0-1.75H30.806a.875.875,0,0,1,0,1.75" fill="#1a237e"/>
        <path id="Trazado_978976" data-name="Trazado 978976" d="M29.253,25.815H13.5a.875.875,0,0,1-.875-.875V14.107a.875.875,0,0,1,1.75,0v9.958H28.378V14.107a.875.875,0,0,1,1.75,0V24.94a.875.875,0,0,1-.875.875" fill="#1a237e"/>
        <path id="Trazado_978977" data-name="Trazado 978977" d="M23.7,25.815a.875.875,0,0,1-.875-.875V18.8h-2.9V24.94a.875.875,0,0,1-1.75,0V17.922a.875.875,0,0,1,.875-.875H23.7a.875.875,0,0,1,.875.875V24.94a.875.875,0,0,1-.875.875" fill="#1a237e"/>
        <path id="Trazado_978978" data-name="Trazado 978978" d="M31.223,14.982h-19.7a.875.875,0,0,1-.568-1.541l9.848-8.4a.873.873,0,0,1,1.136,0l9.848,8.4a.875.875,0,0,1-.568,1.541M13.9,13.232H28.85L21.375,6.853Z" fill="#1a237e"/>
        <path id="Trazado_978979" data-name="Trazado 978979" d="M31.416,55.75a.878.878,0,0,1-.867-.756l-.784-5.71a4.889,4.889,0,0,1,.213-2.23L42.205,11.016a3.875,3.875,0,1,1,7.339,2.49l-2.935,8.65a.875.875,0,0,1-1.657-.562l2.935-8.651a2.125,2.125,0,0,0-4.025-1.365L31.635,47.616a3.138,3.138,0,0,0-.137,1.43l.546,3.976L34.9,50.2a3.146,3.146,0,0,0,.761-1.218l7.6-22.387a.875.875,0,0,1,1.658.562l-7.6,22.388a4.876,4.876,0,0,1-1.188,1.9l-4.1,4.054a.871.871,0,0,1-.615.253" fill="#1a237e"/>
        <path id="Trazado_978980" data-name="Trazado 978980" d="M36.488,50.138a.863.863,0,0,1-.281-.047l-5.682-1.928a.875.875,0,1,1,.563-1.656l5.681,1.928a.875.875,0,0,1-.281,1.7" fill="#1a237e"/>
        <path id="Trazado_978981" data-name="Trazado 978981" d="M27.462,53.75H2.875A2.878,2.878,0,0,1,0,50.875v-11.8a.875.875,0,0,1,1.75,0v11.8A1.126,1.126,0,0,0,2.875,52H27.462a.875.875,0,0,1,0,1.75" fill="#1a237e"/>
        <path id="Trazado_978982" data-name="Trazado 978982" d="M8.532,11.407H.875a.875.875,0,0,1,0-1.75H8.532A1.127,1.127,0,0,0,9.657,8.532V.875a.875.875,0,1,1,1.75,0V8.532a2.879,2.879,0,0,1-2.875,2.875" fill="#1a237e"/>
        <path id="Trazado_978983" data-name="Trazado 978983" d="M39.875,53.75H37.656a.875.875,0,0,1,0-1.75h2.219A1.127,1.127,0,0,0,41,50.875V33.385a.875.875,0,0,1,1.75,0v17.49a2.879,2.879,0,0,1-2.875,2.875" fill="#1a237e"/>
        <path id="Trazado_978984" data-name="Trazado 978984" d="M6.874,46.749a.86.86,0,0,1-.408-.1A.873.873,0,0,1,6.1,45.468c.071-.135,1.759-3.332,4.462-3.212a2.21,2.21,0,0,1,2.1,1.94,3.454,3.454,0,0,0,.132.415,2.931,2.931,0,0,0,1-.341c1.893-.9,2.657-.77,3.656-.13a3.747,3.747,0,0,0,2.762.531.874.874,0,0,1,.132,1.744,5.362,5.362,0,0,1-3.839-.8c-.441-.282-.624-.4-1.956.237a2.973,2.973,0,0,1-2.514.362,2.11,2.11,0,0,1-1.06-1.547c-.18-.649-.219-.65-.472-.66h-.054c-1.3,0-2.457,1.64-2.8,2.281a.876.876,0,0,1-.774.465" fill="#1a237e"/>
        <path id="Trazado_978985" data-name="Trazado 978985" d="M37.106,4.828H29.875a.875.875,0,0,0,0,1.75h7.231a.875.875,0,0,0,0-1.75" fill="#fff"/>
        <path id="Trazado_978986" data-name="Trazado 978986" d="M42.443,22.561a.878.878,0,0,0-1.11.548l-1.264,3.727a.877.877,0,0,0,.547,1.111.9.9,0,0,0,.282.046.875.875,0,0,0,.828-.594l1.264-3.728a.873.873,0,0,0-.547-1.11" fill="#fff"/>
        <path id="Trazado_978987" data-name="Trazado 978987" d="M25.781,39.886H21.595a.875.875,0,0,0,0,1.75h4.186a.875.875,0,0,0,0-1.75" fill="#fff"/>
      </g>
    </g>
  </g>
</svg>
