<svg xmlns="http://www.w3.org/2000/svg" xmlns:xlink="http://www.w3.org/1999/xlink" width="108" height="108" viewBox="0 0 108 108">
  <defs>
    <filter id="Fondo" x="0" y="0" width="108" height="108" filterUnits="userSpaceOnUse">
      <feOffset dy="3" input="SourceAlpha"/>
      <feGaussianBlur stdDeviation="3" result="blur"/>
      <feFlood flood-opacity="0.161"/>
      <feComposite operator="in" in2="blur"/>
      <feComposite in="SourceGraphic"/>
    </filter>
    <clipPath id="clip-path">
      <rect id="Rectángulo_408291" data-name="Rectángulo 408291" width="55.75" height="55.75" transform="translate(0 0.001)" fill="none"/>
    </clipPath>
  </defs>
  <g id="Icono" transform="translate(-325.719 -689)">
    <g transform="matrix(1, 0, 0, 1, 325.72, 689)" filter="url(#Fondo)">
      <g id="Fondo-2" data-name="Fondo" transform="translate(9 6)" fill="#f5e9a1">
        <path d="M 45 88.5 C 39.12687683105469 88.5 33.43022537231445 87.35007476806641 28.06830024719238 85.08217620849609 C 22.88852500915527 82.89131164550781 18.23629951477051 79.75458526611328 14.2408504486084 75.75914764404297 C 10.24541282653809 71.76370239257812 7.108687400817871 67.11147308349609 4.917825222015381 61.93170166015625 C 2.649924993515015 56.56977462768555 1.5 50.87312316894531 1.5 45 C 1.5 39.12687683105469 2.649924993515015 33.43022537231445 4.917825222015381 28.06830024719238 C 7.108687400817871 22.88852500915527 10.24541282653809 18.23629951477051 14.2408504486084 14.2408504486084 C 18.23629951477051 10.24541282653809 22.88852500915527 7.108687400817871 28.06830024719238 4.917825222015381 C 33.43022537231445 2.649924993515015 39.12687683105469 1.5 45 1.5 C 50.87312316894531 1.5 56.56977462768555 2.649924993515015 61.93170166015625 4.917825222015381 C 67.11147308349609 7.108687400817871 71.76370239257812 10.24541282653809 75.75914764404297 14.2408504486084 C 79.75458526611328 18.23629951477051 82.89131164550781 22.88852500915527 85.08217620849609 28.06830024719238 C 87.35007476806641 33.43022537231445 88.5 39.12687683105469 88.5 45 C 88.5 50.87312316894531 87.35007476806641 56.56977462768555 85.08217620849609 61.93170166015625 C 82.89131164550781 67.11147308349609 79.75458526611328 71.76370239257812 75.75914764404297 75.75914764404297 C 71.76370239257812 79.75458526611328 67.11147308349609 82.89131164550781 61.93170166015625 85.08217620849609 C 56.56977462768555 87.35007476806641 50.87312316894531 88.5 45 88.5 Z" stroke="none"/>
        <path d="M 45 3 C 39.32871246337891 3 33.82865524291992 4.110054016113281 28.65262985229492 6.299339294433594 C 23.65165710449219 8.414573669433594 19.15968322753906 11.44334411621094 15.301513671875 15.301513671875 C 11.44334411621094 19.15968322753906 8.414573669433594 23.65165710449219 6.299339294433594 28.65262985229492 C 4.110054016113281 33.82865524291992 3 39.32871246337891 3 45 C 3 50.67128753662109 4.110054016113281 56.17134475708008 6.299339294433594 61.34737396240234 C 8.414573669433594 66.34834289550781 11.44334411621094 70.84031677246094 15.301513671875 74.698486328125 C 19.15968322753906 78.55665588378906 23.65165710449219 81.58542633056641 28.65262985229492 83.70066070556641 C 33.82865524291992 85.88994598388672 39.32871246337891 87 45 87 C 50.67128753662109 87 56.17134475708008 85.88994598388672 61.34737396240234 83.70066070556641 C 66.34834289550781 81.58542633056641 70.84031677246094 78.55665588378906 74.698486328125 74.698486328125 C 78.55665588378906 70.84031677246094 81.58542633056641 66.34834289550781 83.70066070556641 61.34737396240234 C 85.88994598388672 56.17134475708008 87 50.67128753662109 87 45 C 87 39.32871246337891 85.88994598388672 33.82865524291992 83.70066070556641 28.65262985229492 C 81.58542633056641 23.65165710449219 78.55665588378906 19.15968322753906 74.698486328125 15.301513671875 C 70.84031677246094 11.44334411621094 66.34834289550781 8.414573669433594 61.34737396240234 6.299339294433594 C 56.17134475708008 4.110054016113281 50.67128753662109 3 45 3 M 45 0 C 69.85281372070312 0 90 20.14718627929688 90 45 C 90 69.85281372070312 69.85281372070312 90 45 90 C 20.14718627929688 90 0 69.85281372070312 0 45 C 0 20.14718627929688 20.14718627929688 0 45 0 Z" stroke="none" fill="#48452f"/>
      </g>
    </g>
    <g id="Grupo_1151801" data-name="Grupo 1151801" transform="translate(351.845 711.125)">
      <path id="Trazado_978921" data-name="Trazado 978921" d="M.875,19.876v7l27-19,27,19v-7l-27-19Z" fill="#ef5350"/>
      <path id="Trazado_978922" data-name="Trazado 978922" d="M51.875,24.874l-24-17-24,17v25h48Z" fill="#e8eaf6"/>
      <path id="Trazado_978923" data-name="Trazado 978923" d="M3.875,24.874v3.89l24-16.889,24,16.889v-3.89l-24-17Z" fill="#c5cae9"/>
      <rect id="Rectángulo_408282" data-name="Rectángulo 408282" width="48" height="6" transform="translate(3.875 43.876)" fill="#c5cae9"/>
      <path id="Trazado_978924" data-name="Trazado 978924" d="M47.875,14.95V.876h-8V9.32Z" fill="#ef5350"/>
      <g id="Grupo_1151800" data-name="Grupo 1151800">
        <g id="Grupo_1151799" data-name="Grupo 1151799" clip-path="url(#clip-path)">
          <path id="Trazado_978925" data-name="Trazado 978925" d="M52.875,49.876h-50a2,2,0,0,0-2,2v3h54v-3a2,2,0,0,0-2-2" fill="#7cb342"/>
          <rect id="Rectángulo_408283" data-name="Rectángulo 408283" width="5.333" height="10.556" transform="translate(11.875 39.32)" fill="#64b5f6"/>
          <rect id="Rectángulo_408284" data-name="Rectángulo 408284" width="5.333" height="16.683" transform="translate(20.764 33.193)" fill="#64b5f6"/>
          <rect id="Rectángulo_408285" data-name="Rectángulo 408285" width="5.333" height="12" transform="translate(29.653 37.876)" fill="#64b5f6"/>
          <rect id="Rectángulo_408286" data-name="Rectángulo 408286" width="5.333" height="19.336" transform="translate(38.542 30.54)" fill="#64b5f6"/>
          <rect id="Rectángulo_408287" data-name="Rectángulo 408287" width="5.333" height="6" transform="translate(11.875 43.876)" fill="#1e88e5"/>
          <rect id="Rectángulo_408288" data-name="Rectángulo 408288" width="5.333" height="6" transform="translate(20.764 43.876)" fill="#1e88e5"/>
          <rect id="Rectángulo_408289" data-name="Rectángulo 408289" width="5.333" height="6" transform="translate(29.653 43.876)" fill="#1e88e5"/>
          <rect id="Rectángulo_408290" data-name="Rectángulo 408290" width="5.333" height="6" transform="translate(38.542 43.876)" fill="#1e88e5"/>
          <path id="Trazado_978926" data-name="Trazado 978926" d="M54.875,27.751a.875.875,0,0,1-.5-.159L27.875,8.946,1.378,27.592A.876.876,0,0,1,0,26.876v-7a.876.876,0,0,1,.372-.716l27-19a.872.872,0,0,1,1.006,0l27,19a.876.876,0,0,1,.372.716v7a.874.874,0,0,1-.472.776.861.861,0,0,1-.4.1M27.875,7a.872.872,0,0,1,.5.159L54,25.19V20.33L27.875,1.946,1.75,20.33v4.86L27.372,7.16a.872.872,0,0,1,.5-.159" fill="#1a237e"/>
          <path id="Trazado_978927" data-name="Trazado 978927" d="M51.875,39.751A.875.875,0,0,1,51,38.876v-14a.875.875,0,0,1,1.75,0v14a.875.875,0,0,1-.875.875" fill="#1a237e"/>
          <path id="Trazado_978928" data-name="Trazado 978928" d="M51.875,50.75A.875.875,0,0,1,51,49.875v-6a.875.875,0,0,1,1.75,0v6a.875.875,0,0,1-.875.875" fill="#1a237e"/>
          <path id="Trazado_978929" data-name="Trazado 978929" d="M3.875,50.75A.875.875,0,0,1,3,49.875V28.765a.875.875,0,1,1,1.75,0v21.11a.875.875,0,0,1-.875.875" fill="#1a237e"/>
          <path id="Trazado_978930" data-name="Trazado 978930" d="M39.875,10.195A.875.875,0,0,1,39,9.32V.876A.875.875,0,0,1,39.875,0h8a.875.875,0,0,1,0,1.75H40.75V9.32a.875.875,0,0,1-.875.875" fill="#1a237e"/>
          <path id="Trazado_978931" data-name="Trazado 978931" d="M47.875,15.825A.875.875,0,0,1,47,14.95V5.876a.875.875,0,0,1,1.75,0V14.95a.875.875,0,0,1-.875.875" fill="#1a237e"/>
          <path id="Trazado_978932" data-name="Trazado 978932" d="M54.875,55.751h-20a.875.875,0,0,1,0-1.75H54V51.876a1.127,1.127,0,0,0-1.125-1.125h-50A1.127,1.127,0,0,0,1.75,51.876V54H29.875a.875.875,0,1,1,0,1.75h-29A.875.875,0,0,1,0,54.876v-3A2.879,2.879,0,0,1,2.875,49h50a2.879,2.879,0,0,1,2.875,2.875v3a.875.875,0,0,1-.875.875" fill="#1a237e"/>
          <path id="Trazado_978933" data-name="Trazado 978933" d="M17.208,50.751a.876.876,0,0,1-.875-.875V40.195H12.75v9.681a.875.875,0,0,1-1.75,0V39.32a.875.875,0,0,1,.875-.875h5.333a.875.875,0,0,1,.875.875V49.876a.875.875,0,0,1-.875.875" fill="#1a237e"/>
          <path id="Trazado_978934" data-name="Trazado 978934" d="M26.1,50.751a.875.875,0,0,1-.875-.875V34.068H21.639V49.876a.875.875,0,0,1-1.75,0V33.193a.875.875,0,0,1,.875-.875H26.1a.875.875,0,0,1,.875.875V49.876a.875.875,0,0,1-.875.875" fill="#1a237e"/>
          <path id="Trazado_978935" data-name="Trazado 978935" d="M34.986,50.751a.875.875,0,0,1-.875-.875V38.751H30.528V49.876a.875.875,0,0,1-1.75,0v-12A.875.875,0,0,1,29.653,37h5.333a.875.875,0,0,1,.875.875v12a.875.875,0,0,1-.875.875" fill="#1a237e"/>
          <path id="Trazado_978936" data-name="Trazado 978936" d="M43.875,50.751A.875.875,0,0,1,43,49.876V31.415H39.417V49.876a.875.875,0,1,1-1.75,0V30.54a.875.875,0,0,1,.875-.875h5.333a.875.875,0,0,1,.875.875V49.876a.875.875,0,0,1-.875.875" fill="#1a237e"/>
          <path id="Trazado_978937" data-name="Trazado 978937" d="M12.875,34.751a.875.875,0,0,1-.526-1.574l10.722-8.064a.879.879,0,0,1,.985-.047L31.9,29.884l8.729-7.63a.876.876,0,1,1,1.153,1.318l-9.216,8.054a.879.879,0,0,1-1.034.087L23.646,26.87,13.4,34.575a.873.873,0,0,1-.525.176" fill="#1a237e"/>
          <path id="Trazado_978938" data-name="Trazado 978938" d="M41.208,27.751a.875.875,0,0,1-.875-.875V23.788H37.208a.875.875,0,0,1,0-1.75h4a.875.875,0,0,1,.875.875v3.963a.875.875,0,0,1-.875.875" fill="#1a237e"/>
          <path id="Trazado_978939" data-name="Trazado 978939" d="M20.085,8.6l-5.427,3.819a.875.875,0,0,0,1.007,1.432l5.427-3.819A.875.875,0,0,0,20.085,8.6" fill="#fff"/>
          <path id="Trazado_978940" data-name="Trazado 978940" d="M33.664,18.333H29.275a.875.875,0,0,0,0,1.75h4.389a.875.875,0,0,0,0-1.75" fill="#fff"/>
        </g>
      </g>
    </g>
  </g>
</svg>
