<svg xmlns="http://www.w3.org/2000/svg" xmlns:xlink="http://www.w3.org/1999/xlink" width="108" height="108" viewBox="0 0 108 108">
  <defs>
    <filter id="Fondo" x="0" y="0" width="108" height="108" filterUnits="userSpaceOnUse">
      <feOffset dy="3" input="SourceAlpha"/>
      <feGaussianBlur stdDeviation="3" result="blur"/>
      <feFlood flood-opacity="0.161"/>
      <feComposite operator="in" in2="blur"/>
      <feComposite in="SourceGraphic"/>
    </filter>
    <clipPath id="clip-path">
      <rect id="Rectángulo_408297" data-name="Rectángulo 408297" width="55.75" height="55.75" fill="none"/>
    </clipPath>
  </defs>
  <g id="Icono" transform="translate(-325.719 -689)">
    <g transform="matrix(1, 0, 0, 1, 325.72, 689)" filter="url(#Fondo)">
      <g id="Fondo-2" data-name="Fondo" transform="translate(9 6)" fill="#f5e9a1">
        <path d="M 45 88.5 C 39.12687683105469 88.5 33.43022537231445 87.35007476806641 28.06830024719238 85.08217620849609 C 22.88852500915527 82.89131164550781 18.23629951477051 79.75458526611328 14.2408504486084 75.75914764404297 C 10.24541282653809 71.76370239257812 7.108687400817871 67.11147308349609 4.917825222015381 61.93170166015625 C 2.649924993515015 56.56977462768555 1.5 50.87312316894531 1.5 45 C 1.5 39.12687683105469 2.649924993515015 33.43022537231445 4.917825222015381 28.06830024719238 C 7.108687400817871 22.88852500915527 10.24541282653809 18.23629951477051 14.2408504486084 14.2408504486084 C 18.23629951477051 10.24541282653809 22.88852500915527 7.108687400817871 28.06830024719238 4.917825222015381 C 33.43022537231445 2.649924993515015 39.12687683105469 1.5 45 1.5 C 50.87312316894531 1.5 56.56977462768555 2.649924993515015 61.93170166015625 4.917825222015381 C 67.11147308349609 7.108687400817871 71.76370239257812 10.24541282653809 75.75914764404297 14.2408504486084 C 79.75458526611328 18.23629951477051 82.89131164550781 22.88852500915527 85.08217620849609 28.06830024719238 C 87.35007476806641 33.43022537231445 88.5 39.12687683105469 88.5 45 C 88.5 50.87312316894531 87.35007476806641 56.56977462768555 85.08217620849609 61.93170166015625 C 82.89131164550781 67.11147308349609 79.75458526611328 71.76370239257812 75.75914764404297 75.75914764404297 C 71.76370239257812 79.75458526611328 67.11147308349609 82.89131164550781 61.93170166015625 85.08217620849609 C 56.56977462768555 87.35007476806641 50.87312316894531 88.5 45 88.5 Z" stroke="none"/>
        <path d="M 45 3 C 39.32871246337891 3 33.82865524291992 4.110054016113281 28.65262985229492 6.299339294433594 C 23.65165710449219 8.414573669433594 19.15968322753906 11.44334411621094 15.301513671875 15.301513671875 C 11.44334411621094 19.15968322753906 8.414573669433594 23.65165710449219 6.299339294433594 28.65262985229492 C 4.110054016113281 33.82865524291992 3 39.32871246337891 3 45 C 3 50.67128753662109 4.110054016113281 56.17134475708008 6.299339294433594 61.34737396240234 C 8.414573669433594 66.34834289550781 11.44334411621094 70.84031677246094 15.301513671875 74.698486328125 C 19.15968322753906 78.55665588378906 23.65165710449219 81.58542633056641 28.65262985229492 83.70066070556641 C 33.82865524291992 85.88994598388672 39.32871246337891 87 45 87 C 50.67128753662109 87 56.17134475708008 85.88994598388672 61.34737396240234 83.70066070556641 C 66.34834289550781 81.58542633056641 70.84031677246094 78.55665588378906 74.698486328125 74.698486328125 C 78.55665588378906 70.84031677246094 81.58542633056641 66.34834289550781 83.70066070556641 61.34737396240234 C 85.88994598388672 56.17134475708008 87 50.67128753662109 87 45 C 87 39.32871246337891 85.88994598388672 33.82865524291992 83.70066070556641 28.65262985229492 C 81.58542633056641 23.65165710449219 78.55665588378906 19.15968322753906 74.698486328125 15.301513671875 C 70.84031677246094 11.44334411621094 66.34834289550781 8.414573669433594 61.34737396240234 6.299339294433594 C 56.17134475708008 4.110054016113281 50.67128753662109 3 45 3 M 45 0 C 69.85281372070312 0 90 20.14718627929688 90 45 C 90 69.85281372070312 69.85281372070312 90 45 90 C 20.14718627929688 90 0 69.85281372070312 0 45 C 0 20.14718627929688 20.14718627929688 0 45 0 Z" stroke="none" fill="#48452f"/>
      </g>
    </g>
    <g id="Grupo_1151804" data-name="Grupo 1151804" transform="translate(352.845 712.125)">
      <path id="Trazado_978941" data-name="Trazado 978941" d="M.875,17.764v6.223l24-16.89,24,16.89V17.764L24.875.875Z" fill="#ef5350"/>
      <path id="Trazado_978942" data-name="Trazado 978942" d="M46.208,22.207,24.875,7.1,3.541,22.207V44.429H46.208Z" fill="#e8eaf6"/>
      <path id="Trazado_978943" data-name="Trazado 978943" d="M3.542,22.207v3.458L24.875,10.652,46.209,25.665V22.207L24.875,7.1Z" fill="#c5cae9"/>
      <rect id="Rectángulo_408292" data-name="Rectángulo 408292" width="42.667" height="5.333" transform="translate(3.541 39.097)" fill="#c5cae9"/>
      <path id="Trazado_978944" data-name="Trazado 978944" d="M42.653,13.385V.875H35.542V8.381Z" fill="#ef5350"/>
      <rect id="Rectángulo_408293" data-name="Rectángulo 408293" width="13.333" height="19.556" transform="translate(8.875 24.875)" fill="#c17b3f"/>
      <rect id="Rectángulo_408294" data-name="Rectángulo 408294" width="13.333" height="5.333" transform="translate(8.875 39.098)" fill="#a26535"/>
      <rect id="Rectángulo_408295" data-name="Rectángulo 408295" width="14.222" height="14.222" transform="translate(26.653 24.875)" fill="#64b5f6"/>
      <rect id="Rectángulo_408296" data-name="Rectángulo 408296" width="14.222" height="4.444" transform="translate(26.653 34.653)" fill="#7cb342"/>
      <g id="Grupo_1151803" data-name="Grupo 1151803">
        <g id="Grupo_1151802" data-name="Grupo 1151802" clip-path="url(#clip-path)">
          <path id="Trazado_978945" data-name="Trazado 978945" d="M46.875,44.431h-44a2,2,0,0,0-2,2v2.444h48V46.431a2,2,0,0,0-2-2" fill="#7cb342"/>
          <path id="Trazado_978946" data-name="Trazado 978946" d="M54.875,42.628A12.247,12.247,0,1,1,42.628,30.381,12.247,12.247,0,0,1,54.875,42.628" fill="#bcdd58"/>
          <path id="Trazado_978947" data-name="Trazado 978947" d="M17.9,7.666l-4.824,3.395a.874.874,0,1,0,1.007,1.43L18.9,9.1A.875.875,0,0,0,17.9,7.666" fill="#fff"/>
          <path id="Trazado_978948" data-name="Trazado 978948" d="M32.1,19H27.264a.875.875,0,0,0,0,1.75H32.1a.875.875,0,0,0,0-1.75" fill="#fff"/>
          <path id="Trazado_978949" data-name="Trazado 978949" d="M14.326,27H12.017a.875.875,0,0,0,0,1.75h2.309a.875.875,0,0,0,0-1.75" fill="#fff"/>
          <path id="Trazado_978950" data-name="Trazado 978950" d="M48.875,24.861a.869.869,0,0,1-.5-.16L24.875,8.167,1.378,24.7A.874.874,0,0,1,0,23.986V17.764a.876.876,0,0,1,.372-.716l24-16.889a.875.875,0,0,1,1.006,0l24,16.889a.876.876,0,0,1,.372.716v6.222a.874.874,0,0,1-.875.875m-24-18.639a.866.866,0,0,1,.5.16L48,22.3V18.218L24.875,1.945,1.75,18.218V22.3L24.372,6.382a.866.866,0,0,1,.5-.16" fill="#1a237e"/>
          <path id="Trazado_978951" data-name="Trazado 978951" d="M46.208,28.75a.875.875,0,0,1-.875-.875V22.208a.875.875,0,0,1,1.75,0v5.667a.875.875,0,0,1-.875.875" fill="#1a237e"/>
          <path id="Trazado_978952" data-name="Trazado 978952" d="M3.542,45.305a.875.875,0,0,1-.875-.875V25.665a.875.875,0,1,1,1.75,0V44.43a.876.876,0,0,1-.875.875" fill="#1a237e"/>
          <path id="Trazado_978953" data-name="Trazado 978953" d="M35.542,9.256a.875.875,0,0,1-.875-.875V.875A.874.874,0,0,1,35.542,0h7.111a.875.875,0,0,1,0,1.75H36.417V8.381a.875.875,0,0,1-.875.875" fill="#1a237e"/>
          <path id="Trazado_978954" data-name="Trazado 978954" d="M42.653,14.26a.875.875,0,0,1-.875-.875V5.319a.875.875,0,0,1,1.75,0v8.066a.875.875,0,0,1-.875.875" fill="#1a237e"/>
          <path id="Trazado_978955" data-name="Trazado 978955" d="M22.208,45.306a.876.876,0,0,1-.875-.875V25.75H9.75V44.431a.875.875,0,0,1-1.75,0V24.875A.875.875,0,0,1,8.875,24H22.208a.875.875,0,0,1,.875.875V44.431a.875.875,0,0,1-.875.875" fill="#1a237e"/>
          <path id="Trazado_978956" data-name="Trazado 978956" d="M30.905,39.97h-4.25a.875.875,0,0,1-.875-.875V24.875A.875.875,0,0,1,26.655,24h14.22a.874.874,0,0,1,.875.875v5.64a.875.875,0,0,1-1.75,0V25.75H27.53V38.22h3.375a.875.875,0,1,1,0,1.75" fill="#1a237e"/>
          <path id="Trazado_978957" data-name="Trazado 978957" d="M33.345,35.53h-6.69a.875.875,0,0,1,0-1.75h6.69a.875.875,0,0,1,0,1.75" fill="#1a237e"/>
          <path id="Trazado_978958" data-name="Trazado 978958" d="M33.765,35.07a.875.875,0,0,1-.875-.875v-9.32a.875.875,0,0,1,1.75,0v9.32a.875.875,0,0,1-.875.875" fill="#1a237e"/>
          <path id="Trazado_978959" data-name="Trazado 978959" d="M40.875,30.639H26.653a.875.875,0,0,1,0-1.75H40.875a.875.875,0,0,1,0,1.75" fill="#1a237e"/>
          <path id="Trazado_978960" data-name="Trazado 978960" d="M19.542,37.306H17.764a.875.875,0,1,1,0-1.75h1.778a.875.875,0,0,1,0,1.75" fill="#1a237e"/>
          <path id="Trazado_978961" data-name="Trazado 978961" d="M27.875,49.75h-27A.875.875,0,0,1,0,48.875V46.208a2.656,2.656,0,0,1,2.653-2.652h27.86a.875.875,0,0,1,0,1.75H2.653a.9.9,0,0,0-.9.9V48H27.875a.875.875,0,0,1,0,1.75" fill="#1a237e"/>
          <path id="Trazado_978962" data-name="Trazado 978962" d="M42.628,55.75a13.109,13.109,0,1,1,12.225-8.343.875.875,0,0,1-1.63-.638,11.388,11.388,0,1,0-2.188,3.517.875.875,0,0,1,1.293,1.179,13.153,13.153,0,0,1-9.7,4.285" fill="#1a237e"/>
          <path id="Trazado_978963" data-name="Trazado 978963" d="M42.628,51.75a9.122,9.122,0,1,1,9.122-9.122,9.133,9.133,0,0,1-9.122,9.122m0-16.494A7.372,7.372,0,1,0,50,42.628a7.38,7.38,0,0,0-7.372-7.372" fill="#1a237e"/>
          <path id="Trazado_978964" data-name="Trazado 978964" d="M41.828,46.239a.867.867,0,0,1-.524-.175l-3.2-2.4a.875.875,0,0,1,1.05-1.4l2.552,1.914,4.266-4.862a.875.875,0,1,1,1.315,1.154l-4.8,5.471a.874.874,0,0,1-.658.3" fill="#1a237e"/>
        </g>
      </g>
    </g>
  </g>
</svg>
