<svg xmlns="http://www.w3.org/2000/svg" xmlns:xlink="http://www.w3.org/1999/xlink" width="108" height="108" viewBox="0 0 108 108">
  <defs>
    <filter id="Fondo" x="0" y="0" width="108" height="108" filterUnits="userSpaceOnUse">
      <feOffset dy="3" input="SourceAlpha"/>
      <feGaussianBlur stdDeviation="3" result="blur"/>
      <feFlood flood-opacity="0.161"/>
      <feComposite operator="in" in2="blur"/>
      <feComposite in="SourceGraphic"/>
    </filter>
    <clipPath id="clip-path">
      <rect id="Rectángulo_408323" data-name="Rectángulo 408323" width="45" height="62" fill="none"/>
    </clipPath>
  </defs>
  <g id="Grupo_1151904" data-name="Grupo 1151904" transform="translate(-1061 -7551)">
    <g id="Icono" transform="translate(1070 6862)">
      <g transform="matrix(1, 0, 0, 1, -9, 689)" filter="url(#Fondo)">
        <g id="Fondo-2" data-name="Fondo" transform="translate(9 6)" fill="#f5e9a1" stroke="#48452f" stroke-width="3">
          <circle cx="45" cy="45" r="45" stroke="none"/>
          <circle cx="45" cy="45" r="43.5" fill="none"/>
        </g>
      </g>
    </g>
    <g id="Grupo_1151857" data-name="Grupo 1151857" transform="translate(1092 7571)">
      <rect id="Rectángulo_408319" data-name="Rectángulo 408319" width="43" height="60" transform="translate(1 1)" fill="#fbebe3"/>
      <path id="Trazado_978941" data-name="Trazado 978941" d="M106.315,40,96,50.315h4.126v8.252H112.5V50.315h4.126Z" transform="translate(-83.622 -34.842)" fill="#4c4c4c"/>
      <rect id="Rectángulo_408320" data-name="Rectángulo 408320" width="3" height="6" transform="translate(21 18)" fill="#5fd1d0"/>
      <path id="Trazado_978942" data-name="Trazado 978942" d="M134.441,294.441l-2.063,6.189H122.063L120,294.441,127.221,280Z" transform="translate(-104.527 -243.897)" fill="#fbc250"/>
      <g id="Grupo_1151856" data-name="Grupo 1151856">
        <g id="Grupo_1151855" data-name="Grupo 1151855" clip-path="url(#clip-path)">
          <path id="Trazado_978943" data-name="Trazado 978943" d="M1.032,61.891H44.355a1.031,1.031,0,0,0,1.032-1.032V1.032A1.031,1.031,0,0,0,44.355,0H1.032A1.031,1.031,0,0,0,0,1.032V60.859a1.031,1.031,0,0,0,1.032,1.032M2.063,2.063H43.324V59.828H2.063Z"/>
          <path id="Trazado_978944" data-name="Trazado 978944" d="M100.074,32.3a1.031,1.031,0,0,0-1.459,0L88.3,42.618a1.031,1.031,0,0,0,.729,1.761h3.095V51.6a1.031,1.031,0,0,0,1.032,1.032h12.378a1.031,1.031,0,0,0,1.032-1.032V44.378h3.095a1.031,1.031,0,0,0,.729-1.761ZM98.314,46.441h2.063v4.126H98.314Zm7.221-4.126a1.031,1.031,0,0,0-1.032,1.032v7.221H102.44V45.41a1.031,1.031,0,0,0-1.032-1.032H97.282A1.031,1.031,0,0,0,96.25,45.41v5.158H94.187V43.347a1.031,1.031,0,0,0-1.032-1.032H91.52l7.825-7.825,7.825,7.825Z" transform="translate(-76.652 -27.874)"/>
          <rect id="Rectángulo_408321" data-name="Rectángulo 408321" width="19" height="2" transform="translate(13 31)"/>
          <path id="Trazado_978945" data-name="Trazado 978945" d="M121.177,272.88a1.074,1.074,0,0,0-1.846,0l-7.221,14.441a1.033,1.033,0,0,0-.055.788l2.063,6.189a1.03,1.03,0,0,0,.978.705h10.315a1.031,1.031,0,0,0,.978-.705l2.063-6.189a1.034,1.034,0,0,0-.055-.788Zm3.491,20.06H115.84l-1.692-5.079,5.075-10.151v8.009h2.063v-8.009l5.075,10.151Z" transform="translate(-97.561 -237.238)"/>
          <rect id="Rectángulo_408322" data-name="Rectángulo 408322" width="15" height="3" transform="translate(15 26)"/>
        </g>
      </g>
    </g>
  </g>
</svg>
