<svg xmlns="http://www.w3.org/2000/svg" xmlns:xlink="http://www.w3.org/1999/xlink" width="295.001" height="675.596" viewBox="0 0 295.001 675.596">
  <defs>
    <clipPath id="clip-path">
      <rect id="Rectángulo_408320" data-name="Rectángulo 408320" width="85.792" height="85.792" fill="none"/>
    </clipPath>
  </defs>
  <g id="Grupo_1151864" data-name="Grupo 1151864" transform="translate(-495 -2369.949)">
    <path id="Trazado_979204" data-name="Trazado 979204" d="M0,0H295V528H0Z" transform="translate(495.001 2517.545)" fill="#fdfcf5"/>
    <path id="Trazado_979205" data-name="Trazado 979205" d="M8.332,19H1.652V6.4h6.4V7.732H3.129v4.192H7.682v1.327H3.129v4.412h5.2Zm9.7,0H16.6V13.867Q16.6,11,14.5,11a2.269,2.269,0,0,0-1.789.813,3.013,3.013,0,0,0-.708,2.052V19H10.566V10h1.441v1.494h.035A3.248,3.248,0,0,1,15,9.789a2.753,2.753,0,0,1,2.259.954,4.248,4.248,0,0,1,.782,2.755Zm14.927,0H31.523V17.576h-.035a2.96,2.96,0,0,1-2.777,1.635q-3.217,0-3.217-3.832V10h1.433v5.15q0,2.848,2.18,2.848a2.205,2.205,0,0,0,1.736-.778,2.976,2.976,0,0,0,.681-2.035V10h1.441Zm10.382,0H41.9V13.867Q41.9,11,39.813,11a2.269,2.269,0,0,0-1.789.813,3.013,3.013,0,0,0-.708,2.052V19H35.875V10h1.441v1.494h.035a3.248,3.248,0,0,1,2.953-1.705,2.753,2.753,0,0,1,2.259.954,4.248,4.248,0,0,1,.782,2.755Zm14.927,0H56.832V17.576H56.8a2.96,2.96,0,0,1-2.777,1.635q-3.217,0-3.217-3.832V10h1.433v5.15q0,2.848,2.18,2.848a2.205,2.205,0,0,0,1.736-.778,2.976,2.976,0,0,0,.681-2.035V10h1.441Zm2.366-.325V17.128a4.266,4.266,0,0,0,2.593.87q1.9,0,1.9-1.266a1.1,1.1,0,0,0-.163-.611,1.621,1.621,0,0,0-.439-.444,3.383,3.383,0,0,0-.65-.347q-.374-.154-.8-.321a10.357,10.357,0,0,1-1.05-.479,3.173,3.173,0,0,1-.756-.545,2.028,2.028,0,0,1-.457-.69,2.441,2.441,0,0,1-.154-.905,2.15,2.15,0,0,1,.29-1.121,2.572,2.572,0,0,1,.773-.817,3.607,3.607,0,0,1,1.1-.5A4.893,4.893,0,0,1,64.1,9.789a5.164,5.164,0,0,1,2.092.4v1.459A4.077,4.077,0,0,0,63.909,11a2.671,2.671,0,0,0-.729.092,1.786,1.786,0,0,0-.558.259,1.2,1.2,0,0,0-.36.4,1.053,1.053,0,0,0-.127.514,1.233,1.233,0,0,0,.127.589,1.3,1.3,0,0,0,.374.422,2.855,2.855,0,0,0,.6.334q.352.149.8.325a11.131,11.131,0,0,1,1.072.47,3.678,3.678,0,0,1,.809.545,2.129,2.129,0,0,1,.514.7,2.254,2.254,0,0,1,.18.94,2.217,2.217,0,0,1-.294,1.16,2.524,2.524,0,0,1-.787.817,3.6,3.6,0,0,1-1.134.483,5.6,5.6,0,0,1-1.345.158A5.106,5.106,0,0,1,60.64,18.675ZM76.1,19H74.66V17.576h-.035a2.96,2.96,0,0,1-2.777,1.635q-3.217,0-3.217-3.832V10h1.433v5.15q0,2.848,2.18,2.848a2.205,2.205,0,0,0,1.736-.778,2.976,2.976,0,0,0,.681-2.035V10H76.1ZM83.46,6.941A1.92,1.92,0,0,0,82.5,6.7q-1.512,0-1.512,1.907V10H83.1v1.23H80.99V19H79.557V11.23H78.019V10h1.538V8.541A3.032,3.032,0,0,1,80.375,6.3a2.759,2.759,0,0,1,2.039-.822,2.824,2.824,0,0,1,1.046.158Zm5.882,4.518a1.763,1.763,0,0,0-1.09-.29,1.839,1.839,0,0,0-1.542.87,4.023,4.023,0,0,0-.62,2.373V19H84.648V10h1.441v1.854h.035a3.143,3.143,0,0,1,.94-1.481,2.144,2.144,0,0,1,1.415-.532,2.353,2.353,0,0,1,.861.123ZM98.185,19H96.743V17.576h-.035a2.96,2.96,0,0,1-2.777,1.635q-3.217,0-3.217-3.832V10h1.433v5.15q0,2.848,2.18,2.848a2.205,2.205,0,0,0,1.736-.778,2.976,2.976,0,0,0,.681-2.035V10h1.441Zm9.046-.413a4.684,4.684,0,0,1-2.461.624,4.074,4.074,0,0,1-3.107-1.252,4.539,4.539,0,0,1-1.182-3.248,4.99,4.99,0,0,1,1.274-3.573,4.458,4.458,0,0,1,3.4-1.349,4.735,4.735,0,0,1,2.092.439v1.477A3.665,3.665,0,0,0,105.1,11a2.9,2.9,0,0,0-2.263.989,3.752,3.752,0,0,0-.883,2.6,3.573,3.573,0,0,0,.831,2.5,2.863,2.863,0,0,0,2.228.914,3.613,3.613,0,0,0,2.215-.782Zm6.356.325a2.779,2.779,0,0,1-1.345.281q-2.364,0-2.364-2.637V11.23h-1.547V10h1.547V7.8l1.441-.466V10h2.268v1.23h-2.268V16.3a2.1,2.1,0,0,0,.308,1.292,1.228,1.228,0,0,0,1.02.387,1.515,1.515,0,0,0,.94-.3Zm5.688.3a4.175,4.175,0,0,1-3.186-1.261,4.672,4.672,0,0,1-1.191-3.344,4.867,4.867,0,0,1,1.239-3.542,4.455,4.455,0,0,1,3.349-1.274,4.037,4.037,0,0,1,3.142,1.239,4.914,4.914,0,0,1,1.129,3.437,4.835,4.835,0,0,1-1.217,3.45A4.265,4.265,0,0,1,119.275,19.211ZM119.381,11a2.742,2.742,0,0,0-2.2.945,3.88,3.88,0,0,0-.809,2.606,3.67,3.67,0,0,0,.817,2.522,2.778,2.778,0,0,0,2.188.923,2.635,2.635,0,0,0,2.149-.905,3.928,3.928,0,0,0,.751-2.575,4,4,0,0,0-.751-2.6A2.623,2.623,0,0,0,119.381,11Zm18.689-1-3.586,9h-1.415l-3.41-9h1.582l2.285,6.539a5.869,5.869,0,0,1,.316,1.257h.035a5.943,5.943,0,0,1,.281-1.222L136.549,10Zm2.287-2.285a.913.913,0,0,1-.659-.264.89.89,0,0,1-.272-.668.923.923,0,0,1,.932-.94.931.931,0,0,1,.672.268.939.939,0,0,1,0,1.332A.923.923,0,0,1,140.357,7.715ZM141.06,19h-1.441V10h1.441Zm7.095-.088a2.779,2.779,0,0,1-1.345.281q-2.364,0-2.364-2.637V11.23H142.9V10h1.547V7.8l1.441-.466V10h2.268v1.23h-2.268V16.3a2.1,2.1,0,0,0,.308,1.292,1.228,1.228,0,0,0,1.02.387,1.515,1.515,0,0,0,.94-.3Zm8.369.088h-1.441V17.594h-.035a3.018,3.018,0,0,1-2.769,1.617,2.959,2.959,0,0,1-2.1-.712,2.466,2.466,0,0,1-.76-1.89q0-2.522,2.971-2.936l2.7-.378q0-2.294-1.854-2.294a4.431,4.431,0,0,0-2.936,1.107V10.633a5.577,5.577,0,0,1,3.059-.844q3.173,0,3.173,3.357Zm-1.441-4.553-2.171.3a3.525,3.525,0,0,0-1.512.5,1.432,1.432,0,0,0-.51,1.261,1.374,1.374,0,0,0,.47,1.077,1.817,1.817,0,0,0,1.252.417,2.314,2.314,0,0,0,1.771-.751,2.685,2.685,0,0,0,.7-1.9Zm5.6,4.553h-1.441V5.676h1.441Zm3.658-11.285a.913.913,0,0,1-.659-.264.89.89,0,0,1-.272-.668.923.923,0,0,1,.932-.94.931.931,0,0,1,.672.268.939.939,0,0,1,0,1.332A.923.923,0,0,1,164.341,7.715Zm.7,11.285H163.6V10h1.441Zm9.055-.413a4.684,4.684,0,0,1-2.461.624,4.074,4.074,0,0,1-3.107-1.252,4.539,4.539,0,0,1-1.182-3.248,4.99,4.99,0,0,1,1.274-3.573,4.458,4.458,0,0,1,3.4-1.349,4.735,4.735,0,0,1,2.092.439v1.477a3.665,3.665,0,0,0-2.145-.7,2.9,2.9,0,0,0-2.263.989,3.752,3.752,0,0,0-.883,2.6,3.573,3.573,0,0,0,.831,2.5,2.863,2.863,0,0,0,2.228.914,3.613,3.613,0,0,0,2.215-.782Zm2.92-10.872a.913.913,0,0,1-.659-.264.89.89,0,0,1-.272-.668.923.923,0,0,1,.932-.94.931.931,0,0,1,.672.268.939.939,0,0,1,0,1.332A.923.923,0,0,1,177.018,7.715Zm.7,11.285H176.28V10h1.441Zm6.681.211a4.175,4.175,0,0,1-3.186-1.261,4.672,4.672,0,0,1-1.191-3.344,4.867,4.867,0,0,1,1.239-3.542,4.455,4.455,0,0,1,3.349-1.274,4.037,4.037,0,0,1,3.142,1.239,4.914,4.914,0,0,1,1.129,3.437,4.835,4.835,0,0,1-1.217,3.45A4.265,4.265,0,0,1,184.4,19.211ZM184.508,11a2.742,2.742,0,0,0-2.2.945,3.88,3.88,0,0,0-.809,2.606,3.67,3.67,0,0,0,.817,2.522,2.778,2.778,0,0,0,2.188.923,2.635,2.635,0,0,0,2.149-.905,3.928,3.928,0,0,0,.751-2.575,4,4,0,0,0-.751-2.6A2.623,2.623,0,0,0,184.508,11Zm8,5.994L191.1,21.32h-1.028L191.1,17ZM207.26,14.86h-6.354a3.366,3.366,0,0,0,.809,2.32,2.788,2.788,0,0,0,2.127.817,4.422,4.422,0,0,0,2.795-1V18.35a5.224,5.224,0,0,1-3.138.861,3.8,3.8,0,0,1-3-1.226,5.018,5.018,0,0,1-1.09-3.45,4.921,4.921,0,0,1,1.191-3.423,3.819,3.819,0,0,1,2.958-1.323,3.384,3.384,0,0,1,2.733,1.143,4.764,4.764,0,0,1,.967,3.173Zm-1.477-1.222a2.933,2.933,0,0,0-.6-1.942A2.051,2.051,0,0,0,203.533,11a2.328,2.328,0,0,0-1.731.729,3.31,3.31,0,0,0-.879,1.907Zm3.113,5.036V17.128a4.266,4.266,0,0,0,2.593.87q1.9,0,1.9-1.266a1.1,1.1,0,0,0-.163-.611,1.62,1.62,0,0,0-.439-.444,3.383,3.383,0,0,0-.65-.347q-.374-.154-.8-.321a10.357,10.357,0,0,1-1.05-.479,3.173,3.173,0,0,1-.756-.545,2.028,2.028,0,0,1-.457-.69,2.441,2.441,0,0,1-.154-.905,2.15,2.15,0,0,1,.29-1.121,2.572,2.572,0,0,1,.773-.817,3.607,3.607,0,0,1,1.1-.5,4.893,4.893,0,0,1,1.279-.167,5.164,5.164,0,0,1,2.092.4v1.459a4.077,4.077,0,0,0-2.285-.65,2.671,2.671,0,0,0-.729.092,1.786,1.786,0,0,0-.558.259,1.2,1.2,0,0,0-.36.4,1.053,1.053,0,0,0-.127.514,1.233,1.233,0,0,0,.127.589,1.3,1.3,0,0,0,.374.422,2.855,2.855,0,0,0,.6.334q.352.149.8.325a11.131,11.131,0,0,1,1.072.47,3.678,3.678,0,0,1,.809.545,2.129,2.129,0,0,1,.514.7,2.254,2.254,0,0,1,.18.94,2.217,2.217,0,0,1-.294,1.16,2.523,2.523,0,0,1-.787.817,3.6,3.6,0,0,1-1.134.483,5.6,5.6,0,0,1-1.345.158A5.106,5.106,0,0,1,208.9,18.675Zm12.359.237a2.779,2.779,0,0,1-1.345.281q-2.364,0-2.364-2.637V11.23H216V10h1.547V7.8l1.441-.466V10h2.268v1.23h-2.268V16.3a2.1,2.1,0,0,0,.308,1.292,1.228,1.228,0,0,0,1.02.387,1.515,1.515,0,0,0,.94-.3Zm9.16-4.052h-6.354a3.366,3.366,0,0,0,.809,2.32A2.788,2.788,0,0,0,227,18a4.422,4.422,0,0,0,2.795-1V18.35a5.224,5.224,0,0,1-3.138.861,3.8,3.8,0,0,1-3-1.226,5.018,5.018,0,0,1-1.09-3.45,4.921,4.921,0,0,1,1.191-3.423,3.819,3.819,0,0,1,2.958-1.323,3.384,3.384,0,0,1,2.733,1.143,4.764,4.764,0,0,1,.967,3.173Zm-1.477-1.222a2.933,2.933,0,0,0-.6-1.942A2.051,2.051,0,0,0,226.689,11a2.328,2.328,0,0,0-1.731.729,3.31,3.31,0,0,0-.879,1.907ZM9.141,46H7.7V44.471H7.664a3.327,3.327,0,0,1-3.094,1.74A3.362,3.362,0,0,1,1.859,45,4.958,4.958,0,0,1,.844,41.711a5.394,5.394,0,0,1,1.125-3.577,3.71,3.71,0,0,1,3-1.345,2.885,2.885,0,0,1,2.7,1.459H7.7V32.676H9.141ZM7.7,41.931V40.6a2.575,2.575,0,0,0-.721-1.846A2.417,2.417,0,0,0,5.15,38a2.489,2.489,0,0,0-2.074.967,4.237,4.237,0,0,0-.756,2.672A3.81,3.81,0,0,0,3.045,44.1a2.37,2.37,0,0,0,1.947.9,2.462,2.462,0,0,0,1.956-.87A3.242,3.242,0,0,0,7.7,41.931Zm11.595-.07H12.939a3.366,3.366,0,0,0,.809,2.32A2.788,2.788,0,0,0,15.875,45a4.422,4.422,0,0,0,2.795-1V45.35a5.224,5.224,0,0,1-3.138.861,3.8,3.8,0,0,1-3-1.226,5.018,5.018,0,0,1-1.09-3.45,4.921,4.921,0,0,1,1.191-3.423,3.819,3.819,0,0,1,2.958-1.323,3.384,3.384,0,0,1,2.733,1.143,4.764,4.764,0,0,1,.967,3.173Zm-1.477-1.222a2.933,2.933,0,0,0-.6-1.942A2.051,2.051,0,0,0,15.567,38a2.328,2.328,0,0,0-1.731.729,3.31,3.31,0,0,0-.879,1.907Zm8.351-2.18a1.763,1.763,0,0,0-1.09-.29,1.839,1.839,0,0,0-1.542.87,4.023,4.023,0,0,0-.62,2.373V46H21.475V37h1.441v1.854h.035a3.143,3.143,0,0,1,.94-1.481,2.144,2.144,0,0,1,1.415-.532,2.353,2.353,0,0,1,.861.123Zm8.8,3.4H28.614a3.366,3.366,0,0,0,.809,2.32A2.788,2.788,0,0,0,31.549,45a4.422,4.422,0,0,0,2.795-1V45.35a5.224,5.224,0,0,1-3.138.861,3.8,3.8,0,0,1-3-1.226,5.018,5.018,0,0,1-1.09-3.45,4.921,4.921,0,0,1,1.191-3.423,3.819,3.819,0,0,1,2.958-1.323A3.384,3.384,0,0,1,34,37.932a4.764,4.764,0,0,1,.967,3.173Zm-1.477-1.222a2.933,2.933,0,0,0-.6-1.942A2.051,2.051,0,0,0,31.242,38a2.328,2.328,0,0,0-1.731.729,3.31,3.31,0,0,0-.879,1.907Zm9.793,4.948a4.684,4.684,0,0,1-2.461.624,4.074,4.074,0,0,1-3.107-1.252,4.539,4.539,0,0,1-1.182-3.248,4.99,4.99,0,0,1,1.274-3.573,4.458,4.458,0,0,1,3.4-1.349,4.735,4.735,0,0,1,2.092.439v1.477a3.665,3.665,0,0,0-2.145-.7,2.9,2.9,0,0,0-2.263.989,3.752,3.752,0,0,0-.883,2.6,3.573,3.573,0,0,0,.831,2.5A2.863,2.863,0,0,0,41.07,45a3.613,3.613,0,0,0,2.215-.782ZM52.937,46H51.5V40.814Q51.5,38,49.4,38a2.28,2.28,0,0,0-1.775.813,3.03,3.03,0,0,0-.721,2.087V46H45.466V32.676h1.441v5.818h.035A3.273,3.273,0,0,1,49.9,36.789q3.041,0,3.041,3.665Zm6.479.211A4.175,4.175,0,0,1,56.23,44.95a4.672,4.672,0,0,1-1.191-3.344,4.867,4.867,0,0,1,1.239-3.542,4.455,4.455,0,0,1,3.349-1.274,4.037,4.037,0,0,1,3.142,1.239A4.914,4.914,0,0,1,63.9,41.465a4.835,4.835,0,0,1-1.217,3.45A4.265,4.265,0,0,1,59.416,46.211ZM59.522,38a2.742,2.742,0,0,0-2.2.945,3.88,3.88,0,0,0-.809,2.606,3.67,3.67,0,0,0,.817,2.522A2.778,2.778,0,0,0,59.522,45a2.635,2.635,0,0,0,2.149-.905,3.928,3.928,0,0,0,.751-2.575,4,4,0,0,0-.751-2.6A2.623,2.623,0,0,0,59.522,38Zm11.069,7.673V44.128a4.266,4.266,0,0,0,2.593.87q1.9,0,1.9-1.266a1.1,1.1,0,0,0-.163-.611,1.62,1.62,0,0,0-.439-.444,3.383,3.383,0,0,0-.65-.347q-.374-.154-.8-.321a10.357,10.357,0,0,1-1.05-.479,3.173,3.173,0,0,1-.756-.545,2.028,2.028,0,0,1-.457-.69,2.441,2.441,0,0,1-.154-.905,2.15,2.15,0,0,1,.29-1.121,2.572,2.572,0,0,1,.773-.817,3.607,3.607,0,0,1,1.1-.5,4.893,4.893,0,0,1,1.279-.167,5.164,5.164,0,0,1,2.092.4v1.459A4.077,4.077,0,0,0,73.86,38a2.671,2.671,0,0,0-.729.092,1.786,1.786,0,0,0-.558.259,1.2,1.2,0,0,0-.36.4,1.053,1.053,0,0,0-.127.514,1.233,1.233,0,0,0,.127.589,1.3,1.3,0,0,0,.374.422,2.855,2.855,0,0,0,.6.334q.352.149.8.325a11.131,11.131,0,0,1,1.072.47,3.678,3.678,0,0,1,.809.545,2.129,2.129,0,0,1,.514.7,2.254,2.254,0,0,1,.18.94,2.217,2.217,0,0,1-.294,1.16,2.523,2.523,0,0,1-.787.817,3.6,3.6,0,0,1-1.134.483A5.6,5.6,0,0,1,73,46.211,5.106,5.106,0,0,1,70.591,45.675ZM86.008,41.86H79.654a3.366,3.366,0,0,0,.809,2.32A2.788,2.788,0,0,0,82.589,45a4.422,4.422,0,0,0,2.795-1V45.35a5.224,5.224,0,0,1-3.138.861,3.8,3.8,0,0,1-3-1.226,5.018,5.018,0,0,1-1.09-3.45,4.921,4.921,0,0,1,1.191-3.423,3.819,3.819,0,0,1,2.958-1.323,3.384,3.384,0,0,1,2.733,1.143,4.764,4.764,0,0,1,.967,3.173Zm-1.477-1.222a2.933,2.933,0,0,0-.6-1.942A2.051,2.051,0,0,0,82.282,38a2.328,2.328,0,0,0-1.731.729,3.31,3.31,0,0,0-.879,1.907Zm15.824,1.222H94a3.366,3.366,0,0,0,.809,2.32A2.788,2.788,0,0,0,96.937,45a4.422,4.422,0,0,0,2.795-1V45.35a5.224,5.224,0,0,1-3.138.861,3.8,3.8,0,0,1-3-1.226,5.018,5.018,0,0,1-1.09-3.45A4.921,4.921,0,0,1,93.7,38.112a3.819,3.819,0,0,1,2.958-1.323,3.384,3.384,0,0,1,2.733,1.143,4.764,4.764,0,0,1,.967,3.173Zm-1.477-1.222a2.933,2.933,0,0,0-.6-1.942A2.051,2.051,0,0,0,96.629,38a2.328,2.328,0,0,0-1.731.729,3.31,3.31,0,0,0-.879,1.907ZM109.111,37l-3.023,4.553L109.059,46H107.38l-1.767-2.918q-.167-.272-.4-.686h-.035q-.044.079-.413.686L102.968,46h-1.661l3.067-4.412L101.439,37h1.679l1.74,3.076q.193.343.378.7h.035L107.521,37Zm5.864,8.912a2.779,2.779,0,0,1-1.345.281q-2.364,0-2.364-2.637V38.23H109.72V37h1.547V34.8l1.441-.466V37h2.268v1.23h-2.268V43.3a2.1,2.1,0,0,0,.308,1.292,1.228,1.228,0,0,0,1.02.387,1.515,1.515,0,0,0,.94-.3Zm2.665-11.2a.913.913,0,0,1-.659-.264.89.89,0,0,1-.272-.668.923.923,0,0,1,.932-.94.931.931,0,0,1,.672.268.939.939,0,0,1,0,1.332A.923.923,0,0,1,117.64,34.715Zm.7,11.285H116.9V37h1.441Zm10.39,0h-1.441V40.867Q127.293,38,125.2,38a2.269,2.269,0,0,0-1.789.813,3.013,3.013,0,0,0-.708,2.052V46h-1.441V37H122.7v1.494h.035a3.248,3.248,0,0,1,2.953-1.705,2.753,2.753,0,0,1,2.259.954,4.248,4.248,0,0,1,.782,2.755Zm10.4-.721q0,4.957-4.746,4.957a6.372,6.372,0,0,1-2.918-.633V48.162a5.993,5.993,0,0,0,2.9.844q3.322,0,3.322-3.533v-.984h-.035a3.641,3.641,0,0,1-5.8.523,4.8,4.8,0,0,1-1.024-3.221,5.6,5.6,0,0,1,1.1-3.647,3.685,3.685,0,0,1,3.019-1.354,2.934,2.934,0,0,1,2.7,1.459h.035V37h1.441Zm-1.441-3.349V40.6a2.575,2.575,0,0,0-.725-1.837A2.387,2.387,0,0,0,135.161,38a2.5,2.5,0,0,0-2.092.971,4.335,4.335,0,0,0-.756,2.72,3.721,3.721,0,0,0,.725,2.4,2.343,2.343,0,0,0,1.92.9,2.509,2.509,0,0,0,1.973-.861A3.21,3.21,0,0,0,137.692,41.931ZM149.33,46h-1.441V44.576h-.035a2.96,2.96,0,0,1-2.777,1.635q-3.217,0-3.217-3.832V37h1.433v5.15q0,2.848,2.18,2.848a2.205,2.205,0,0,0,1.736-.778,2.976,2.976,0,0,0,.681-2.035V37h1.441Zm10.144-4.14H153.12a3.366,3.366,0,0,0,.809,2.32,2.788,2.788,0,0,0,2.127.817,4.422,4.422,0,0,0,2.795-1V45.35a5.224,5.224,0,0,1-3.138.861,3.8,3.8,0,0,1-3-1.226,5.018,5.018,0,0,1-1.09-3.45,4.921,4.921,0,0,1,1.191-3.423,3.819,3.819,0,0,1,2.958-1.323,3.384,3.384,0,0,1,2.733,1.143,4.764,4.764,0,0,1,.967,3.173ZM158,40.639a2.933,2.933,0,0,0-.6-1.942A2.051,2.051,0,0,0,155.748,38a2.328,2.328,0,0,0-1.731.729,3.31,3.31,0,0,0-.879,1.907Zm14.725,4.948a4.684,4.684,0,0,1-2.461.624,4.074,4.074,0,0,1-3.107-1.252,4.539,4.539,0,0,1-1.182-3.248,4.99,4.99,0,0,1,1.274-3.573,4.458,4.458,0,0,1,3.4-1.349,4.735,4.735,0,0,1,2.092.439v1.477A3.665,3.665,0,0,0,170.6,38a2.9,2.9,0,0,0-2.263.989,3.752,3.752,0,0,0-.883,2.6,3.573,3.573,0,0,0,.831,2.5,2.863,2.863,0,0,0,2.228.914,3.613,3.613,0,0,0,2.215-.782Zm5.943.624a4.175,4.175,0,0,1-3.186-1.261,4.672,4.672,0,0,1-1.191-3.344,4.867,4.867,0,0,1,1.239-3.542,4.455,4.455,0,0,1,3.349-1.274,4.037,4.037,0,0,1,3.142,1.239,4.914,4.914,0,0,1,1.129,3.437,4.835,4.835,0,0,1-1.217,3.45A4.265,4.265,0,0,1,178.667,46.211ZM178.772,38a2.742,2.742,0,0,0-2.2.945,3.88,3.88,0,0,0-.809,2.606,3.67,3.67,0,0,0,.817,2.522,2.778,2.778,0,0,0,2.188.923,2.635,2.635,0,0,0,2.149-.905,3.928,3.928,0,0,0,.751-2.575,4,4,0,0,0-.751-2.6A2.623,2.623,0,0,0,178.772,38Zm14.152,8h-1.441V40.867q0-2.865-2.092-2.865a2.269,2.269,0,0,0-1.789.813,3.013,3.013,0,0,0-.708,2.052V46h-1.441V37H186.9v1.494h.035a3.248,3.248,0,0,1,2.953-1.705,2.753,2.753,0,0,1,2.259.954,4.248,4.248,0,0,1,.782,2.755Zm14.883-4.14h-6.354a3.366,3.366,0,0,0,.809,2.32,2.788,2.788,0,0,0,2.127.817,4.422,4.422,0,0,0,2.795-1V45.35a5.224,5.224,0,0,1-3.138.861,3.8,3.8,0,0,1-3-1.226,5.018,5.018,0,0,1-1.09-3.45,4.921,4.921,0,0,1,1.191-3.423,3.819,3.819,0,0,1,2.958-1.323,3.384,3.384,0,0,1,2.733,1.143,4.764,4.764,0,0,1,.967,3.173Zm-1.477-1.222a2.933,2.933,0,0,0-.6-1.942A2.051,2.051,0,0,0,204.081,38a2.328,2.328,0,0,0-1.731.729,3.31,3.31,0,0,0-.879,1.907Zm5.1,5.361h-1.441V32.676h1.441ZM5.906,60.941a1.92,1.92,0,0,0-.958-.237q-1.512,0-1.512,1.907V64H5.546v1.23H3.437V73H2V65.23H.466V64H2V62.541A3.032,3.032,0,0,1,2.821,60.3a2.759,2.759,0,0,1,2.039-.822,2.824,2.824,0,0,1,1.046.158ZM13.537,73H12.1V71.594H12.06a3.018,3.018,0,0,1-2.769,1.617,2.959,2.959,0,0,1-2.1-.712,2.466,2.466,0,0,1-.76-1.89q0-2.522,2.971-2.936l2.7-.378Q12.1,65,10.241,65a4.431,4.431,0,0,0-2.936,1.107V64.633a5.577,5.577,0,0,1,3.059-.844q3.173,0,3.173,3.357ZM12.1,68.447l-2.171.3a3.525,3.525,0,0,0-1.512.5A1.432,1.432,0,0,0,7.9,70.5a1.374,1.374,0,0,0,.47,1.077A1.817,1.817,0,0,0,9.626,72a2.314,2.314,0,0,0,1.771-.751,2.685,2.685,0,0,0,.7-1.9ZM17.7,73H16.255V59.676H17.7Zm4.361,0H20.616V59.676h1.441ZM32.21,68.86H25.856a3.366,3.366,0,0,0,.809,2.32A2.788,2.788,0,0,0,28.791,72a4.422,4.422,0,0,0,2.795-1V72.35a5.224,5.224,0,0,1-3.138.861,3.8,3.8,0,0,1-3-1.226,5.018,5.018,0,0,1-1.09-3.45,4.921,4.921,0,0,1,1.191-3.423,3.819,3.819,0,0,1,2.958-1.323,3.384,3.384,0,0,1,2.733,1.143A4.764,4.764,0,0,1,32.21,68.1Zm-1.477-1.222a2.933,2.933,0,0,0-.6-1.942A2.051,2.051,0,0,0,28.484,65a2.328,2.328,0,0,0-1.731.729,3.31,3.31,0,0,0-.879,1.907Zm9.793,4.948a4.684,4.684,0,0,1-2.461.624,4.074,4.074,0,0,1-3.107-1.252,4.539,4.539,0,0,1-1.182-3.248,4.99,4.99,0,0,1,1.274-3.573,4.458,4.458,0,0,1,3.4-1.349,4.735,4.735,0,0,1,2.092.439v1.477A3.665,3.665,0,0,0,38.4,65a2.9,2.9,0,0,0-2.263.989,3.752,3.752,0,0,0-.883,2.6,3.573,3.573,0,0,0,.831,2.5A2.863,2.863,0,0,0,38.312,72a3.613,3.613,0,0,0,2.215-.782Zm2.92-10.872a.913.913,0,0,1-.659-.264.89.89,0,0,1-.272-.668.923.923,0,0,1,.932-.94.931.931,0,0,1,.672.268.939.939,0,0,1,0,1.332A.923.923,0,0,1,43.446,61.715ZM44.149,73H42.708V64h1.441Zm15.7,0H58.407V67.832a3.9,3.9,0,0,0-.461-2.162A1.75,1.75,0,0,0,56.394,65a1.921,1.921,0,0,0-1.569.844,3.228,3.228,0,0,0-.646,2.021V73H52.738V67.656Q52.738,65,50.69,65a1.9,1.9,0,0,0-1.564.8,3.288,3.288,0,0,0-.615,2.07V73H47.069V64h1.441v1.424h.035a3.058,3.058,0,0,1,2.795-1.635,2.6,2.6,0,0,1,2.549,1.863,3.212,3.212,0,0,1,2.988-1.863q2.971,0,2.971,3.665Zm3.465-11.285a.913.913,0,0,1-.659-.264.89.89,0,0,1-.272-.668.923.923,0,0,1,.932-.94.931.931,0,0,1,.672.268.939.939,0,0,1,0,1.332A.923.923,0,0,1,63.313,61.715ZM64.016,73H62.575V64h1.441ZM74.17,68.86H67.815a3.366,3.366,0,0,0,.809,2.32A2.788,2.788,0,0,0,70.751,72a4.422,4.422,0,0,0,2.795-1V72.35a5.224,5.224,0,0,1-3.138.861,3.8,3.8,0,0,1-3-1.226,5.018,5.018,0,0,1-1.09-3.45,4.921,4.921,0,0,1,1.191-3.423,3.819,3.819,0,0,1,2.958-1.323A3.384,3.384,0,0,1,73.2,64.932,4.764,4.764,0,0,1,74.17,68.1Zm-1.477-1.222a2.933,2.933,0,0,0-.6-1.942A2.051,2.051,0,0,0,70.443,65a2.328,2.328,0,0,0-1.731.729,3.31,3.31,0,0,0-.879,1.907ZM83.822,73H82.38V67.867Q82.38,65,80.289,65a2.269,2.269,0,0,0-1.789.813,3.013,3.013,0,0,0-.708,2.052V73H76.351V64h1.441v1.494h.035a3.248,3.248,0,0,1,2.953-1.705,2.753,2.753,0,0,1,2.259.954,4.248,4.248,0,0,1,.782,2.755Zm6.892-.088a2.779,2.779,0,0,1-1.345.281q-2.364,0-2.364-2.637V65.23H85.458V64h1.547V61.8l1.441-.466V64h2.268v1.23H88.447V70.3a2.1,2.1,0,0,0,.308,1.292,1.228,1.228,0,0,0,1.02.387,1.515,1.515,0,0,0,.94-.3Zm5.688.3a4.175,4.175,0,0,1-3.186-1.261,4.672,4.672,0,0,1-1.191-3.344,4.867,4.867,0,0,1,1.239-3.542,4.455,4.455,0,0,1,3.349-1.274,4.037,4.037,0,0,1,3.142,1.239,4.914,4.914,0,0,1,1.129,3.437,4.835,4.835,0,0,1-1.217,3.45A4.265,4.265,0,0,1,96.4,73.211ZM96.508,65a2.742,2.742,0,0,0-2.2.945,3.88,3.88,0,0,0-.809,2.606,3.67,3.67,0,0,0,.817,2.522A2.778,2.778,0,0,0,96.508,72a2.635,2.635,0,0,0,2.149-.905,3.928,3.928,0,0,0,.751-2.575,4,4,0,0,0-.751-2.6A2.623,2.623,0,0,0,96.508,65Zm19.3,8h-1.441V71.471h-.035a3.327,3.327,0,0,1-3.094,1.74A3.362,3.362,0,0,1,108.522,72a4.958,4.958,0,0,1-1.015-3.292,5.394,5.394,0,0,1,1.125-3.577,3.71,3.71,0,0,1,3-1.345,2.885,2.885,0,0,1,2.7,1.459h.035V59.676H115.8Zm-1.441-4.069V67.6a2.575,2.575,0,0,0-.721-1.846A2.417,2.417,0,0,0,111.813,65a2.489,2.489,0,0,0-2.074.967,4.237,4.237,0,0,0-.756,2.672,3.81,3.81,0,0,0,.725,2.457,2.37,2.37,0,0,0,1.947.9,2.462,2.462,0,0,0,1.956-.87A3.242,3.242,0,0,0,114.362,68.931Zm11.595-.07H119.6a3.366,3.366,0,0,0,.809,2.32,2.788,2.788,0,0,0,2.127.817,4.422,4.422,0,0,0,2.795-1V72.35a5.224,5.224,0,0,1-3.138.861,3.8,3.8,0,0,1-3-1.226,5.018,5.018,0,0,1-1.09-3.45,4.921,4.921,0,0,1,1.191-3.423,3.819,3.819,0,0,1,2.958-1.323,3.384,3.384,0,0,1,2.733,1.143,4.764,4.764,0,0,1,.967,3.173Zm-1.477-1.222a2.933,2.933,0,0,0-.6-1.942A2.051,2.051,0,0,0,122.23,65a2.328,2.328,0,0,0-1.731.729,3.31,3.31,0,0,0-.879,1.907ZM129.58,73h-1.441V59.676h1.441Zm15.13,0h-1.441V71.576h-.035a2.96,2.96,0,0,1-2.777,1.635q-3.217,0-3.217-3.832V64h1.433v5.15q0,2.848,2.18,2.848a2.205,2.205,0,0,0,1.736-.778,2.976,2.976,0,0,0,.681-2.035V64h1.441Zm2.366-.325V71.128a4.266,4.266,0,0,0,2.593.87q1.9,0,1.9-1.266a1.1,1.1,0,0,0-.163-.611,1.62,1.62,0,0,0-.439-.444,3.383,3.383,0,0,0-.65-.347q-.374-.154-.8-.321a10.357,10.357,0,0,1-1.05-.479,3.173,3.173,0,0,1-.756-.545,2.028,2.028,0,0,1-.457-.69,2.441,2.441,0,0,1-.154-.905,2.15,2.15,0,0,1,.29-1.121,2.572,2.572,0,0,1,.773-.817,3.607,3.607,0,0,1,1.1-.5,4.893,4.893,0,0,1,1.279-.167,5.164,5.164,0,0,1,2.092.4v1.459a4.077,4.077,0,0,0-2.285-.65,2.671,2.671,0,0,0-.729.092,1.786,1.786,0,0,0-.558.259,1.2,1.2,0,0,0-.36.4,1.053,1.053,0,0,0-.127.514,1.233,1.233,0,0,0,.127.589,1.3,1.3,0,0,0,.374.422,2.855,2.855,0,0,0,.6.334q.352.149.8.325a11.131,11.131,0,0,1,1.072.47,3.678,3.678,0,0,1,.809.545,2.129,2.129,0,0,1,.514.7,2.254,2.254,0,0,1,.18.94,2.217,2.217,0,0,1-.294,1.16,2.523,2.523,0,0,1-.787.817,3.6,3.6,0,0,1-1.134.483,5.6,5.6,0,0,1-1.345.158A5.106,5.106,0,0,1,147.075,72.675ZM162.537,73H161.1V71.576h-.035a2.96,2.96,0,0,1-2.777,1.635q-3.217,0-3.217-3.832V64H156.5v5.15q0,2.848,2.18,2.848a2.205,2.205,0,0,0,1.736-.778,2.976,2.976,0,0,0,.681-2.035V64h1.441ZM169.9,60.941a1.92,1.92,0,0,0-.958-.237q-1.512,0-1.512,1.907V64h2.109v1.23h-2.109V73h-1.433V65.23h-1.538V64h1.538V62.541a3.032,3.032,0,0,1,.817-2.237,2.759,2.759,0,0,1,2.039-.822,2.824,2.824,0,0,1,1.046.158Zm5.882,4.518a1.763,1.763,0,0,0-1.09-.29,1.839,1.839,0,0,0-1.542.87,4.023,4.023,0,0,0-.62,2.373V73h-1.441V64h1.441v1.854h.035a3.143,3.143,0,0,1,.94-1.481,2.144,2.144,0,0,1,1.415-.532,2.353,2.353,0,0,1,.861.123ZM184.62,73h-1.441V71.576h-.035a2.96,2.96,0,0,1-2.777,1.635q-3.217,0-3.217-3.832V64h1.433v5.15q0,2.848,2.18,2.848a2.205,2.205,0,0,0,1.736-.778,2.976,2.976,0,0,0,.681-2.035V64h1.441Zm9.046-.413a4.684,4.684,0,0,1-2.461.624,4.074,4.074,0,0,1-3.107-1.252,4.539,4.539,0,0,1-1.182-3.248,4.99,4.99,0,0,1,1.274-3.573,4.458,4.458,0,0,1,3.4-1.349,4.735,4.735,0,0,1,2.092.439v1.477a3.665,3.665,0,0,0-2.145-.7,2.9,2.9,0,0,0-2.263.989,3.752,3.752,0,0,0-.883,2.6,3.573,3.573,0,0,0,.831,2.5,2.863,2.863,0,0,0,2.228.914,3.613,3.613,0,0,0,2.215-.782Zm6.356.325a2.779,2.779,0,0,1-1.345.281q-2.364,0-2.364-2.637V65.23h-1.547V64h1.547V61.8l1.441-.466V64h2.268v1.23h-2.268V70.3a2.1,2.1,0,0,0,.308,1.292,1.228,1.228,0,0,0,1.02.387,1.515,1.515,0,0,0,.94-.3Zm9.2.088h-1.441V71.576h-.035a2.96,2.96,0,0,1-2.777,1.635q-3.217,0-3.217-3.832V64h1.433v5.15q0,2.848,2.18,2.848a2.205,2.205,0,0,0,1.736-.778,2.976,2.976,0,0,0,.681-2.035V64h1.441Zm9.353,0h-1.441V71.594H217.1a3.018,3.018,0,0,1-2.769,1.617,2.959,2.959,0,0,1-2.1-.712,2.466,2.466,0,0,1-.76-1.89q0-2.522,2.971-2.936l2.7-.378q0-2.294-1.854-2.294a4.431,4.431,0,0,0-2.936,1.107V64.633a5.577,5.577,0,0,1,3.059-.844q3.173,0,3.173,3.357Zm-1.441-4.553-2.171.3a3.525,3.525,0,0,0-1.512.5,1.432,1.432,0,0,0-.51,1.261,1.374,1.374,0,0,0,.47,1.077,1.817,1.817,0,0,0,1.252.417,2.314,2.314,0,0,0,1.771-.751,2.685,2.685,0,0,0,.7-1.9Zm8.852-2.988a1.763,1.763,0,0,0-1.09-.29,1.839,1.839,0,0,0-1.542.87,4.023,4.023,0,0,0-.62,2.373V73H221.3V64h1.441v1.854h.035a3.143,3.143,0,0,1,.94-1.481,2.144,2.144,0,0,1,1.415-.532,2.353,2.353,0,0,1,.861.123Zm2.3-3.744a.913.913,0,0,1-.659-.264.89.89,0,0,1-.272-.668.923.923,0,0,1,.932-.94.931.931,0,0,1,.672.268.939.939,0,0,1,0,1.332A.923.923,0,0,1,228.3,61.715ZM229,73h-1.441V64H229Zm6.681.211a4.175,4.175,0,0,1-3.186-1.261,4.672,4.672,0,0,1-1.191-3.344,4.867,4.867,0,0,1,1.239-3.542,4.455,4.455,0,0,1,3.349-1.274,4.037,4.037,0,0,1,3.142,1.239,4.914,4.914,0,0,1,1.129,3.437,4.835,4.835,0,0,1-1.217,3.45A4.265,4.265,0,0,1,235.68,73.211ZM235.785,65a2.742,2.742,0,0,0-2.2.945,3.88,3.88,0,0,0-.809,2.606,3.67,3.67,0,0,0,.817,2.522,2.778,2.778,0,0,0,2.188.923,2.635,2.635,0,0,0,2.149-.905,3.928,3.928,0,0,0,.751-2.575,4,4,0,0,0-.751-2.6A2.623,2.623,0,0,0,235.785,65Zm7.182,8.191a.933.933,0,0,1-.69-.29.955.955,0,0,1-.286-.694.969.969,0,0,1,.286-.7.926.926,0,0,1,.69-.294.95.95,0,0,1,.7.294.962.962,0,0,1,.29.7.947.947,0,0,1-.29.694A.958.958,0,0,1,242.968,73.193ZM9,127H1.441V114.4H8.71v2.312H4.28v2.8H8.4v2.3H4.28V124.7H9Zm3.157-10.424a1.622,1.622,0,0,1-1.151-.417,1.345,1.345,0,0,1-.448-1.024,1.3,1.3,0,0,1,.448-1.02,1.676,1.676,0,0,1,1.151-.4,1.672,1.672,0,0,1,1.156.4,1.3,1.3,0,0,1,.444,1.02,1.34,1.34,0,0,1-.444,1.037A1.65,1.65,0,0,1,12.157,116.576Zm1.371,10.266a4.892,4.892,0,0,1-.976,3.19,3.421,3.421,0,0,1-2.813,1.2,3.889,3.889,0,0,1-1.327-.264v-2.18a2.163,2.163,0,0,0,1.028.325q1.31,0,1.31-2.057V118h2.777Zm10.426-3.551H18.083q.141,1.96,2.47,1.96a4.822,4.822,0,0,0,2.61-.7v2a6.858,6.858,0,0,1-3.243.668,4.565,4.565,0,0,1-3.384-1.208,4.566,4.566,0,0,1-1.2-3.371,4.816,4.816,0,0,1,1.3-3.551,4.334,4.334,0,0,1,3.2-1.31,3.933,3.933,0,0,1,3.045,1.169,4.5,4.5,0,0,1,1.077,3.173Zm-2.575-1.705q0-1.934-1.564-1.934a1.494,1.494,0,0,0-1.156.554,2.513,2.513,0,0,0-.593,1.38ZM39.9,127H37.13v-5.133q0-1.96-1.441-1.96a1.324,1.324,0,0,0-1.116.589,2.42,2.42,0,0,0-.431,1.468V127H31.365v-5.186q0-1.907-1.415-1.907a1.356,1.356,0,0,0-1.138.563A2.475,2.475,0,0,0,28.385,122v5H25.608v-9h2.777v1.406h.035a3.41,3.41,0,0,1,2.909-1.626,2.592,2.592,0,0,1,2.61,1.679,3.329,3.329,0,0,1,3.023-1.679q2.936,0,2.936,3.621Zm5.012-1.046h-.035v5.186H42.1V118h2.777v1.354h.035a3.534,3.534,0,0,1,5.594-.374,5.108,5.108,0,0,1,.954,3.265,5.537,5.537,0,0,1-1.112,3.612,3.625,3.625,0,0,1-2.958,1.362A2.8,2.8,0,0,1,44.911,125.954Zm-.079-3.691v.721a2.291,2.291,0,0,0,.492,1.521,1.6,1.6,0,0,0,1.292.589,1.7,1.7,0,0,0,1.472-.734,3.543,3.543,0,0,0,.523-2.079q0-2.373-1.846-2.373a1.733,1.733,0,0,0-1.393.646A2.576,2.576,0,0,0,44.831,122.263ZM56.039,127H53.262V113.676h2.777Zm6.629.22a4.838,4.838,0,0,1-3.538-1.261,5.216,5.216,0,0,1,.048-6.917,5.048,5.048,0,0,1,3.612-1.261,4.78,4.78,0,0,1,3.516,1.261,4.483,4.483,0,0,1,1.274,3.335,4.759,4.759,0,0,1-1.314,3.542A4.892,4.892,0,0,1,62.668,127.22Zm.07-7.312a1.852,1.852,0,0,0-1.529.677,2.984,2.984,0,0,0-.545,1.916q0,2.593,2.092,2.593,2,0,2-2.663Q64.751,119.907,62.738,119.907Zm7.886.879a1.63,1.63,0,0,1-1.143-.417,1.343,1.343,0,0,1-.457-1.033,1.306,1.306,0,0,1,.47-1.037,1.736,1.736,0,0,1,1.173-.4,1.671,1.671,0,0,1,1.165.409,1.41,1.41,0,0,1-.009,2.079A1.754,1.754,0,0,1,70.624,120.786Zm0,6.434a1.62,1.62,0,0,1-1.143-.422,1.356,1.356,0,0,1-.457-1.037,1.306,1.306,0,0,1,.47-1.037,1.736,1.736,0,0,1,1.173-.4,1.671,1.671,0,0,1,1.165.409,1.415,1.415,0,0,1-.009,2.083A1.742,1.742,0,0,1,70.624,127.22Zm16.1-4.359H80.366a3.366,3.366,0,0,0,.809,2.32A2.788,2.788,0,0,0,83.3,126a4.422,4.422,0,0,0,2.795-1v1.354a5.224,5.224,0,0,1-3.138.861,3.8,3.8,0,0,1-3-1.226,5.018,5.018,0,0,1-1.09-3.45,4.921,4.921,0,0,1,1.191-3.423,3.819,3.819,0,0,1,2.958-1.323,3.384,3.384,0,0,1,2.733,1.143,4.764,4.764,0,0,1,.967,3.173Zm-1.477-1.222a2.933,2.933,0,0,0-.6-1.942A2.051,2.051,0,0,0,82.994,119a2.328,2.328,0,0,0-1.731.729,3.31,3.31,0,0,0-.879,1.907Zm5.1,5.361H88.9V113.676h1.441Zm15.13,0h-1.441v-1.424H104a2.96,2.96,0,0,1-2.777,1.635q-3.217,0-3.217-3.832V118h1.433v5.15q0,2.848,2.18,2.848a2.205,2.205,0,0,0,1.736-.778,2.976,2.976,0,0,0,.681-2.035V118h1.441Zm2.366-.325v-1.547a4.266,4.266,0,0,0,2.593.87q1.9,0,1.9-1.266a1.1,1.1,0,0,0-.163-.611,1.62,1.62,0,0,0-.439-.444,3.383,3.383,0,0,0-.65-.347q-.374-.154-.8-.321a10.357,10.357,0,0,1-1.05-.479,3.173,3.173,0,0,1-.756-.545,2.028,2.028,0,0,1-.457-.69,2.441,2.441,0,0,1-.154-.905,2.15,2.15,0,0,1,.29-1.121,2.572,2.572,0,0,1,.773-.817,3.607,3.607,0,0,1,1.1-.5,4.893,4.893,0,0,1,1.279-.167,5.164,5.164,0,0,1,2.092.4v1.459a4.077,4.077,0,0,0-2.285-.65,2.671,2.671,0,0,0-.729.092,1.786,1.786,0,0,0-.558.259,1.2,1.2,0,0,0-.36.4,1.053,1.053,0,0,0-.127.514,1.233,1.233,0,0,0,.127.589,1.3,1.3,0,0,0,.374.422,2.855,2.855,0,0,0,.6.334q.352.149.8.325a11.131,11.131,0,0,1,1.072.47,3.678,3.678,0,0,1,.809.545,2.129,2.129,0,0,1,.514.7,2.254,2.254,0,0,1,.18.94,2.217,2.217,0,0,1-.294,1.16,2.523,2.523,0,0,1-.787.817,3.6,3.6,0,0,1-1.134.483,5.6,5.6,0,0,1-1.345.158A5.106,5.106,0,0,1,107.839,126.675ZM123.3,127h-1.441v-1.424h-.035a2.96,2.96,0,0,1-2.777,1.635q-3.217,0-3.217-3.832V118h1.433v5.15q0,2.848,2.18,2.848a2.205,2.205,0,0,0,1.736-.778,2.976,2.976,0,0,0,.681-2.035V118H123.3Zm7.358-12.059a1.92,1.92,0,0,0-.958-.237q-1.512,0-1.512,1.907V118H130.3v1.23h-2.109V127h-1.433v-7.77h-1.538V118h1.538v-1.459a3.032,3.032,0,0,1,.817-2.237,2.759,2.759,0,0,1,2.039-.822,2.824,2.824,0,0,1,1.046.158Zm5.882,4.518a1.763,1.763,0,0,0-1.09-.29,1.839,1.839,0,0,0-1.542.87,4.023,4.023,0,0,0-.62,2.373V127h-1.441v-9h1.441v1.854h.035a3.143,3.143,0,0,1,.94-1.481,2.144,2.144,0,0,1,1.415-.532,2.353,2.353,0,0,1,.861.123ZM145.384,127h-1.441v-1.424h-.035a2.96,2.96,0,0,1-2.777,1.635q-3.217,0-3.217-3.832V118h1.433v5.15q0,2.848,2.18,2.848a2.205,2.205,0,0,0,1.736-.778,2.976,2.976,0,0,0,.681-2.035V118h1.441Zm9.046-.413a4.684,4.684,0,0,1-2.461.624,4.074,4.074,0,0,1-3.107-1.252,4.539,4.539,0,0,1-1.182-3.248,4.99,4.99,0,0,1,1.274-3.573,4.458,4.458,0,0,1,3.4-1.349,4.735,4.735,0,0,1,2.092.439v1.477a3.665,3.665,0,0,0-2.145-.7,2.9,2.9,0,0,0-2.263.989,3.752,3.752,0,0,0-.883,2.6,3.573,3.573,0,0,0,.831,2.5,2.863,2.863,0,0,0,2.228.914,3.613,3.613,0,0,0,2.215-.782Zm6.356.325a2.779,2.779,0,0,1-1.345.281q-2.364,0-2.364-2.637V119.23H155.53V118h1.547v-2.2l1.441-.466V118h2.268v1.23h-2.268V124.3a2.1,2.1,0,0,0,.308,1.292,1.228,1.228,0,0,0,1.02.387,1.515,1.515,0,0,0,.94-.3Zm5.688.3a4.175,4.175,0,0,1-3.186-1.261,4.672,4.672,0,0,1-1.191-3.344,4.867,4.867,0,0,1,1.239-3.542,4.455,4.455,0,0,1,3.349-1.274,4.037,4.037,0,0,1,3.142,1.239,4.914,4.914,0,0,1,1.129,3.437,4.835,4.835,0,0,1-1.217,3.45A4.265,4.265,0,0,1,166.474,127.211ZM166.58,119a2.742,2.742,0,0,0-2.2.945,3.88,3.88,0,0,0-.809,2.606,3.67,3.67,0,0,0,.817,2.522,2.778,2.778,0,0,0,2.188.923,2.635,2.635,0,0,0,2.149-.905,3.928,3.928,0,0,0,.751-2.575,4,4,0,0,0-.751-2.6A2.623,2.623,0,0,0,166.58,119Zm19.3,8h-1.441v-1.529H184.4a3.327,3.327,0,0,1-3.094,1.74A3.362,3.362,0,0,1,178.594,126a4.958,4.958,0,0,1-1.015-3.292,5.394,5.394,0,0,1,1.125-3.577,3.71,3.71,0,0,1,3-1.345,2.885,2.885,0,0,1,2.7,1.459h.035v-5.572h1.441Zm-1.441-4.069V121.6a2.575,2.575,0,0,0-.721-1.846,2.417,2.417,0,0,0-1.828-.756,2.489,2.489,0,0,0-2.074.967,4.237,4.237,0,0,0-.756,2.672,3.81,3.81,0,0,0,.725,2.457,2.37,2.37,0,0,0,1.947.9,2.462,2.462,0,0,0,1.956-.87A3.242,3.242,0,0,0,184.434,122.931Zm11.595-.07h-6.354a3.366,3.366,0,0,0,.809,2.32,2.788,2.788,0,0,0,2.127.817,4.422,4.422,0,0,0,2.795-1v1.354a5.224,5.224,0,0,1-3.138.861,3.8,3.8,0,0,1-3-1.226,5.018,5.018,0,0,1-1.09-3.45,4.921,4.921,0,0,1,1.191-3.423,3.819,3.819,0,0,1,2.958-1.323,3.384,3.384,0,0,1,2.733,1.143,4.764,4.764,0,0,1,.967,3.173Zm-1.477-1.222a2.933,2.933,0,0,0-.6-1.942A2.051,2.051,0,0,0,192.3,119a2.328,2.328,0,0,0-1.731.729,3.31,3.31,0,0,0-.879,1.907ZM210.42,127h-1.441v-1.424h-.035a2.96,2.96,0,0,1-2.777,1.635q-3.217,0-3.217-3.832V118h1.433v5.15q0,2.848,2.18,2.848a2.205,2.205,0,0,0,1.736-.778,2.976,2.976,0,0,0,.681-2.035V118h1.441Zm10.382,0H219.36v-5.133q0-2.865-2.092-2.865a2.269,2.269,0,0,0-1.789.813,3.013,3.013,0,0,0-.708,2.052V127h-1.441v-9h1.441v1.494h.035a3.248,3.248,0,0,1,2.953-1.705,2.753,2.753,0,0,1,2.259.954,4.248,4.248,0,0,1,.782,2.755Zm9.16,0H228.52v-1.406h-.035a3.018,3.018,0,0,1-2.769,1.617,2.959,2.959,0,0,1-2.1-.712,2.466,2.466,0,0,1-.76-1.89q0-2.522,2.971-2.936l2.7-.378q0-2.294-1.854-2.294a4.431,4.431,0,0,0-2.936,1.107v-1.477a5.577,5.577,0,0,1,3.059-.844q3.173,0,3.173,3.357Zm-1.441-4.553-2.171.3a3.525,3.525,0,0,0-1.512.5,1.432,1.432,0,0,0-.51,1.261,1.374,1.374,0,0,0,.47,1.077,1.817,1.817,0,0,0,1.252.417,2.314,2.314,0,0,0,1.771-.751,2.685,2.685,0,0,0,.7-1.9ZM8.534,145l-3.586,9H3.533l-3.41-9H1.705l2.285,6.539a5.869,5.869,0,0,1,.316,1.257h.035a5.943,5.943,0,0,1,.281-1.222L7.014,145Zm2.287-2.285a.913.913,0,0,1-.659-.264.89.89,0,0,1-.272-.668.923.923,0,0,1,.932-.94.931.931,0,0,1,.672.268.939.939,0,0,1,0,1.332A.923.923,0,0,1,10.821,142.715Zm.7,11.285H10.083v-9h1.441Zm9.995-9-3.586,9H16.518l-3.41-9H14.69l2.285,6.539a5.869,5.869,0,0,1,.316,1.257h.035a5.943,5.943,0,0,1,.281-1.222L20,145Zm2.287-2.285a.913.913,0,0,1-.659-.264.89.89,0,0,1-.272-.668.923.923,0,0,1,.932-.94.931.931,0,0,1,.672.268.939.939,0,0,1,0,1.332A.923.923,0,0,1,23.806,142.715Zm.7,11.285H23.068v-9h1.441Zm10.153-4.14H28.308a3.366,3.366,0,0,0,.809,2.32,2.788,2.788,0,0,0,2.127.817,4.422,4.422,0,0,0,2.795-1v1.354a5.224,5.224,0,0,1-3.138.861,3.8,3.8,0,0,1-3-1.226,5.018,5.018,0,0,1-1.09-3.45A4.921,4.921,0,0,1,28,146.112a3.819,3.819,0,0,1,2.958-1.323,3.384,3.384,0,0,1,2.733,1.143,4.764,4.764,0,0,1,.967,3.173Zm-1.477-1.222a2.933,2.933,0,0,0-.6-1.942A2.051,2.051,0,0,0,30.936,146a2.328,2.328,0,0,0-1.731.729,3.31,3.31,0,0,0-.879,1.907ZM44.315,154H42.873v-5.133q0-2.865-2.092-2.865a2.269,2.269,0,0,0-1.789.813,3.013,3.013,0,0,0-.708,2.052V154H36.844v-9h1.441v1.494h.035a3.248,3.248,0,0,1,2.953-1.705,2.753,2.753,0,0,1,2.259.954,4.248,4.248,0,0,1,.782,2.755Zm10.4,0H53.273v-1.529h-.035a3.327,3.327,0,0,1-3.094,1.74A3.362,3.362,0,0,1,47.432,153a4.958,4.958,0,0,1-1.015-3.292,5.394,5.394,0,0,1,1.125-3.577,3.71,3.71,0,0,1,3-1.345,2.885,2.885,0,0,1,2.7,1.459h.035v-5.572h1.441Zm-1.441-4.069V148.6a2.575,2.575,0,0,0-.721-1.846A2.417,2.417,0,0,0,50.724,146a2.489,2.489,0,0,0-2.074.967,4.237,4.237,0,0,0-.756,2.672,3.81,3.81,0,0,0,.725,2.457,2.37,2.37,0,0,0,1.947.9,2.462,2.462,0,0,0,1.956-.87A3.242,3.242,0,0,0,53.273,149.931ZM64.076,154H62.635v-1.406H62.6a3.018,3.018,0,0,1-2.769,1.617,2.959,2.959,0,0,1-2.1-.712,2.466,2.466,0,0,1-.76-1.89q0-2.522,2.971-2.936l2.7-.378q0-2.294-1.854-2.294a4.431,4.431,0,0,0-2.936,1.107v-1.477a5.577,5.577,0,0,1,3.059-.844q3.173,0,3.173,3.357Zm-1.441-4.553-2.171.3a3.525,3.525,0,0,0-1.512.5,1.432,1.432,0,0,0-.51,1.261,1.374,1.374,0,0,0,.47,1.077,1.817,1.817,0,0,0,1.252.417,2.314,2.314,0,0,0,1.771-.751,2.685,2.685,0,0,0,.7-1.9Zm12.853,4.764A4.175,4.175,0,0,1,72.3,152.95a4.672,4.672,0,0,1-1.191-3.344,4.867,4.867,0,0,1,1.239-3.542,4.455,4.455,0,0,1,3.349-1.274,4.037,4.037,0,0,1,3.142,1.239,4.914,4.914,0,0,1,1.129,3.437,4.835,4.835,0,0,1-1.217,3.45A4.265,4.265,0,0,1,75.488,154.211ZM75.593,146a2.742,2.742,0,0,0-2.2.945,3.88,3.88,0,0,0-.809,2.606,3.67,3.67,0,0,0,.817,2.522,2.778,2.778,0,0,0,2.188.923,2.635,2.635,0,0,0,2.149-.905,3.928,3.928,0,0,0,.751-2.575,4,4,0,0,0-.751-2.6A2.623,2.623,0,0,0,75.593,146Zm10.856,7.91a2.779,2.779,0,0,1-1.345.281q-2.364,0-2.364-2.637V146.23H81.194V145h1.547v-2.2l1.441-.466V145H86.45v1.23H84.182V151.3a2.1,2.1,0,0,0,.308,1.292,1.228,1.228,0,0,0,1.02.387,1.515,1.515,0,0,0,.94-.3Zm5.688.3a4.175,4.175,0,0,1-3.186-1.261,4.672,4.672,0,0,1-1.191-3.344A4.867,4.867,0,0,1,89,146.063a4.455,4.455,0,0,1,3.349-1.274,4.037,4.037,0,0,1,3.142,1.239,4.914,4.914,0,0,1,1.129,3.437,4.835,4.835,0,0,1-1.217,3.45A4.265,4.265,0,0,1,92.138,154.211ZM92.243,146a2.742,2.742,0,0,0-2.2.945,3.88,3.88,0,0,0-.809,2.606,3.67,3.67,0,0,0,.817,2.522,2.778,2.778,0,0,0,2.188.923,2.635,2.635,0,0,0,2.149-.905,3.928,3.928,0,0,0,.751-2.575,4,4,0,0,0-.751-2.6A2.623,2.623,0,0,0,92.243,146Zm11.375.457a1.763,1.763,0,0,0-1.09-.29,1.839,1.839,0,0,0-1.542.87,4.023,4.023,0,0,0-.62,2.373V154H98.925v-9h1.441v1.854h.035a3.143,3.143,0,0,1,.94-1.481,2.144,2.144,0,0,1,1.415-.532,2.353,2.353,0,0,1,.861.123Zm9.248,6.82q0,4.957-4.746,4.957a6.372,6.372,0,0,1-2.918-.633v-1.441a5.993,5.993,0,0,0,2.9.844q3.322,0,3.322-3.533v-.984h-.035a3.641,3.641,0,0,1-5.8.523,4.8,4.8,0,0,1-1.024-3.221,5.6,5.6,0,0,1,1.1-3.647,3.685,3.685,0,0,1,3.019-1.354,2.934,2.934,0,0,1,2.7,1.459h.035V145h1.441Zm-1.441-3.349V148.6a2.575,2.575,0,0,0-.725-1.837,2.387,2.387,0,0,0-1.806-.765,2.5,2.5,0,0,0-2.092.971,4.335,4.335,0,0,0-.756,2.72,3.721,3.721,0,0,0,.725,2.4,2.343,2.343,0,0,0,1.92.9,2.509,2.509,0,0,0,1.973-.861A3.21,3.21,0,0,0,111.425,149.931Zm10.8,4.069h-1.441v-1.406h-.035a3.018,3.018,0,0,1-2.769,1.617,2.959,2.959,0,0,1-2.1-.712,2.466,2.466,0,0,1-.76-1.89q0-2.522,2.971-2.936l2.7-.378q0-2.294-1.854-2.294A4.431,4.431,0,0,0,116,147.109v-1.477a5.577,5.577,0,0,1,3.059-.844q3.173,0,3.173,3.357Zm-1.441-4.553-2.171.3a3.525,3.525,0,0,0-1.512.5,1.432,1.432,0,0,0-.51,1.261,1.374,1.374,0,0,0,.47,1.077,1.817,1.817,0,0,0,1.252.417,2.314,2.314,0,0,0,1.771-.751,2.685,2.685,0,0,0,.7-1.9ZM132.628,154h-1.441v-1.529h-.035a3.327,3.327,0,0,1-3.094,1.74A3.362,3.362,0,0,1,125.346,153a4.958,4.958,0,0,1-1.015-3.292,5.394,5.394,0,0,1,1.125-3.577,3.71,3.71,0,0,1,3-1.345,2.885,2.885,0,0,1,2.7,1.459h.035v-5.572h1.441Zm-1.441-4.069V148.6a2.575,2.575,0,0,0-.721-1.846,2.417,2.417,0,0,0-1.828-.756,2.489,2.489,0,0,0-2.074.967,4.237,4.237,0,0,0-.756,2.672,3.81,3.81,0,0,0,.725,2.457,2.37,2.37,0,0,0,1.947.9,2.462,2.462,0,0,0,1.956-.87A3.242,3.242,0,0,0,131.186,149.931Zm8.123,4.28a4.175,4.175,0,0,1-3.186-1.261,4.672,4.672,0,0,1-1.191-3.344,4.867,4.867,0,0,1,1.239-3.542,4.455,4.455,0,0,1,3.349-1.274,4.037,4.037,0,0,1,3.142,1.239,4.914,4.914,0,0,1,1.129,3.437,4.835,4.835,0,0,1-1.217,3.45A4.265,4.265,0,0,1,139.309,154.211Zm.105-8.209a2.742,2.742,0,0,0-2.2.945,3.88,3.88,0,0,0-.809,2.606,3.67,3.67,0,0,0,.817,2.522,2.778,2.778,0,0,0,2.188.923,2.635,2.635,0,0,0,2.149-.905,3.928,3.928,0,0,0,.751-2.575,4,4,0,0,0-.751-2.6A2.623,2.623,0,0,0,139.415,146Zm18.056,8h-1.441v-1.406h-.035a3.018,3.018,0,0,1-2.769,1.617,2.959,2.959,0,0,1-2.1-.712,2.466,2.466,0,0,1-.76-1.89q0-2.522,2.971-2.936l2.7-.378q0-2.294-1.854-2.294a4.431,4.431,0,0,0-2.936,1.107v-1.477a5.577,5.577,0,0,1,3.059-.844q3.173,0,3.173,3.357Zm-1.441-4.553-2.171.3a3.525,3.525,0,0,0-1.512.5,1.432,1.432,0,0,0-.51,1.261,1.374,1.374,0,0,0,.47,1.077,1.817,1.817,0,0,0,1.252.417,2.314,2.314,0,0,0,1.771-.751,2.685,2.685,0,0,0,.7-1.9ZM172.4,154h-1.441v-1.424h-.035a2.96,2.96,0,0,1-2.777,1.635q-3.217,0-3.217-3.832V145h1.433v5.15q0,2.848,2.18,2.848a2.205,2.205,0,0,0,1.736-.778,2.976,2.976,0,0,0,.681-2.035V145H172.4Zm10.382,0h-1.441v-5.133q0-2.865-2.092-2.865a2.269,2.269,0,0,0-1.789.813,3.013,3.013,0,0,0-.708,2.052V154h-1.441v-9h1.441v1.494h.035a3.248,3.248,0,0,1,2.953-1.705,2.753,2.753,0,0,1,2.259.954,4.248,4.248,0,0,1,.782,2.755Zm9.16,0H190.5v-1.406h-.035a3.018,3.018,0,0,1-2.769,1.617,2.959,2.959,0,0,1-2.1-.712,2.466,2.466,0,0,1-.76-1.89q0-2.522,2.971-2.936l2.7-.378q0-2.294-1.854-2.294a4.431,4.431,0,0,0-2.936,1.107v-1.477a5.577,5.577,0,0,1,3.059-.844q3.173,0,3.173,3.357Zm-1.441-4.553-2.171.3a3.525,3.525,0,0,0-1.512.5,1.432,1.432,0,0,0-.51,1.261,1.374,1.374,0,0,0,.47,1.077,1.817,1.817,0,0,0,1.252.417,2.314,2.314,0,0,0,1.771-.751,2.685,2.685,0,0,0,.7-1.9ZM2.936,179.7H2.9v5.44H1.459V172H2.9v1.582h.035a3.408,3.408,0,0,1,3.111-1.793A3.3,3.3,0,0,1,8.763,173a5.005,5.005,0,0,1,.976,3.239,5.578,5.578,0,0,1-1.1,3.617,3.658,3.658,0,0,1-3.006,1.358A3.011,3.011,0,0,1,2.936,179.7Zm-.035-3.63v1.257a2.676,2.676,0,0,0,.725,1.894A2.408,2.408,0,0,0,5.467,180a2.413,2.413,0,0,0,2.052-1,4.6,4.6,0,0,0,.743-2.786,3.629,3.629,0,0,0-.694-2.355A2.3,2.3,0,0,0,5.687,173a2.554,2.554,0,0,0-2.021.875A3.211,3.211,0,0,0,2.9,176.069Zm16.376.791H12.922a3.366,3.366,0,0,0,.809,2.32,2.788,2.788,0,0,0,2.127.817,4.422,4.422,0,0,0,2.795-1v1.354a5.224,5.224,0,0,1-3.138.861,3.8,3.8,0,0,1-3-1.226,5.018,5.018,0,0,1-1.09-3.45,4.921,4.921,0,0,1,1.191-3.423,3.819,3.819,0,0,1,2.958-1.323,3.384,3.384,0,0,1,2.733,1.143,4.764,4.764,0,0,1,.967,3.173ZM17.8,175.639a2.933,2.933,0,0,0-.6-1.942A2.051,2.051,0,0,0,15.55,173a2.328,2.328,0,0,0-1.731.729,3.31,3.31,0,0,0-.879,1.907Zm8.351-2.18a1.763,1.763,0,0,0-1.09-.29,1.839,1.839,0,0,0-1.542.87,4.023,4.023,0,0,0-.62,2.373V181H21.458v-9H22.9v1.854h.035a3.143,3.143,0,0,1,.94-1.481,2.144,2.144,0,0,1,1.415-.532,2.353,2.353,0,0,1,.861.123Zm1.021,7.216v-1.547a4.266,4.266,0,0,0,2.593.87q1.9,0,1.9-1.266a1.1,1.1,0,0,0-.163-.611,1.62,1.62,0,0,0-.439-.444,3.383,3.383,0,0,0-.65-.347q-.374-.154-.8-.321a10.357,10.357,0,0,1-1.05-.479,3.173,3.173,0,0,1-.756-.545,2.028,2.028,0,0,1-.457-.69,2.441,2.441,0,0,1-.154-.905,2.15,2.15,0,0,1,.29-1.121,2.572,2.572,0,0,1,.773-.817,3.607,3.607,0,0,1,1.1-.5,4.893,4.893,0,0,1,1.279-.167,5.164,5.164,0,0,1,2.092.4v1.459a4.077,4.077,0,0,0-2.285-.65,2.671,2.671,0,0,0-.729.092,1.786,1.786,0,0,0-.558.259,1.2,1.2,0,0,0-.36.4,1.053,1.053,0,0,0-.127.514,1.233,1.233,0,0,0,.127.589,1.3,1.3,0,0,0,.374.422,2.855,2.855,0,0,0,.6.334q.352.149.8.325a11.131,11.131,0,0,1,1.072.47,3.678,3.678,0,0,1,.809.545,2.129,2.129,0,0,1,.514.7,2.254,2.254,0,0,1,.18.94,2.217,2.217,0,0,1-.294,1.16,2.523,2.523,0,0,1-.787.817,3.6,3.6,0,0,1-1.134.483,5.6,5.6,0,0,1-1.345.158A5.106,5.106,0,0,1,27.172,180.675Zm11.946.536a4.175,4.175,0,0,1-3.186-1.261,4.672,4.672,0,0,1-1.191-3.344,4.867,4.867,0,0,1,1.239-3.542,4.455,4.455,0,0,1,3.349-1.274,4.037,4.037,0,0,1,3.142,1.239,4.914,4.914,0,0,1,1.129,3.437,4.835,4.835,0,0,1-1.217,3.45A4.265,4.265,0,0,1,39.119,181.211ZM39.224,173a2.742,2.742,0,0,0-2.2.945,3.88,3.88,0,0,0-.809,2.606,3.67,3.67,0,0,0,.817,2.522,2.778,2.778,0,0,0,2.188.923,2.635,2.635,0,0,0,2.149-.905,3.928,3.928,0,0,0,.751-2.575,4,4,0,0,0-.751-2.6A2.623,2.623,0,0,0,39.224,173Zm14.152,8H51.935v-5.133q0-2.865-2.092-2.865a2.269,2.269,0,0,0-1.789.813,3.013,3.013,0,0,0-.708,2.052V181H45.905v-9h1.441v1.494h.035a3.248,3.248,0,0,1,2.953-1.705,2.753,2.753,0,0,1,2.259.954,4.248,4.248,0,0,1,.782,2.755Zm9.16,0H61.095v-1.406H61.06a3.018,3.018,0,0,1-2.769,1.617,2.959,2.959,0,0,1-2.1-.712,2.466,2.466,0,0,1-.76-1.89q0-2.522,2.971-2.936l2.7-.378q0-2.294-1.854-2.294a4.431,4.431,0,0,0-2.936,1.107v-1.477a5.577,5.577,0,0,1,3.059-.844q3.173,0,3.173,3.357Zm-1.441-4.553-2.171.3a3.525,3.525,0,0,0-1.512.5,1.432,1.432,0,0,0-.51,1.261,1.374,1.374,0,0,0,.47,1.077,1.817,1.817,0,0,0,1.252.417,2.314,2.314,0,0,0,1.771-.751,2.685,2.685,0,0,0,.7-1.9ZM77.657,181H76.216v-5.186q0-2.812-2.092-2.812a2.28,2.28,0,0,0-1.775.813,3.03,3.03,0,0,0-.721,2.087V181H70.186V167.676h1.441v5.818h.035a3.273,3.273,0,0,1,2.953-1.705q3.041,0,3.041,3.665Zm9.16,0H85.376v-1.406H85.34a3.018,3.018,0,0,1-2.769,1.617,2.959,2.959,0,0,1-2.1-.712,2.466,2.466,0,0,1-.76-1.89q0-2.522,2.971-2.936l2.7-.378q0-2.294-1.854-2.294a4.431,4.431,0,0,0-2.936,1.107v-1.477a5.577,5.577,0,0,1,3.059-.844q3.173,0,3.173,3.357Zm-1.441-4.553-2.171.3a3.525,3.525,0,0,0-1.512.5,1.432,1.432,0,0,0-.51,1.261,1.374,1.374,0,0,0,.47,1.077,1.817,1.817,0,0,0,1.252.417,2.314,2.314,0,0,0,1.771-.751,2.685,2.685,0,0,0,.7-1.9Zm3.614,4.228v-1.547a4.266,4.266,0,0,0,2.593.87q1.9,0,1.9-1.266a1.1,1.1,0,0,0-.163-.611,1.62,1.62,0,0,0-.439-.444,3.383,3.383,0,0,0-.65-.347q-.374-.154-.8-.321a10.357,10.357,0,0,1-1.05-.479,3.173,3.173,0,0,1-.756-.545,2.028,2.028,0,0,1-.457-.69,2.441,2.441,0,0,1-.154-.905,2.15,2.15,0,0,1,.29-1.121,2.572,2.572,0,0,1,.773-.817,3.607,3.607,0,0,1,1.1-.5,4.893,4.893,0,0,1,1.279-.167,5.164,5.164,0,0,1,2.092.4v1.459a4.077,4.077,0,0,0-2.285-.65,2.671,2.671,0,0,0-.729.092,1.786,1.786,0,0,0-.558.259,1.2,1.2,0,0,0-.36.4,1.053,1.053,0,0,0-.127.514,1.233,1.233,0,0,0,.127.589,1.3,1.3,0,0,0,.374.422,2.855,2.855,0,0,0,.6.334q.352.149.8.325a11.131,11.131,0,0,1,1.072.47,3.678,3.678,0,0,1,.809.545,2.129,2.129,0,0,1,.514.7,2.254,2.254,0,0,1,.18.94,2.217,2.217,0,0,1-.294,1.16,2.523,2.523,0,0,1-.787.817,3.6,3.6,0,0,1-1.134.483,5.6,5.6,0,0,1-1.345.158A5.106,5.106,0,0,1,88.99,180.675Zm12.359.237a2.779,2.779,0,0,1-1.345.281q-2.364,0-2.364-2.637V173.23H96.093V172H97.64v-2.2l1.441-.466V172h2.268v1.23H99.081V178.3a2.1,2.1,0,0,0,.308,1.292,1.228,1.228,0,0,0,1.02.387,1.515,1.515,0,0,0,.94-.3Zm8.369.088h-1.441v-1.406h-.035a3.018,3.018,0,0,1-2.769,1.617,2.959,2.959,0,0,1-2.1-.712,2.466,2.466,0,0,1-.76-1.89q0-2.522,2.971-2.936l2.7-.378q0-2.294-1.854-2.294a4.431,4.431,0,0,0-2.936,1.107v-1.477a5.577,5.577,0,0,1,3.059-.844q3.173,0,3.173,3.357Zm-1.441-4.553-2.171.3a3.525,3.525,0,0,0-1.512.5,1.432,1.432,0,0,0-.51,1.261,1.374,1.374,0,0,0,.47,1.077,1.817,1.817,0,0,0,1.252.417,2.314,2.314,0,0,0,1.771-.751,2.685,2.685,0,0,0,.7-1.9Zm8.547,4.228v-1.547a4.266,4.266,0,0,0,2.593.87q1.9,0,1.9-1.266a1.1,1.1,0,0,0-.163-.611,1.62,1.62,0,0,0-.439-.444,3.383,3.383,0,0,0-.65-.347q-.374-.154-.8-.321a10.357,10.357,0,0,1-1.05-.479,3.173,3.173,0,0,1-.756-.545,2.028,2.028,0,0,1-.457-.69,2.441,2.441,0,0,1-.154-.905,2.15,2.15,0,0,1,.29-1.121,2.572,2.572,0,0,1,.773-.817,3.607,3.607,0,0,1,1.1-.5,4.893,4.893,0,0,1,1.279-.167,5.164,5.164,0,0,1,2.092.4v1.459a4.077,4.077,0,0,0-2.285-.65,2.671,2.671,0,0,0-.729.092,1.786,1.786,0,0,0-.558.259,1.2,1.2,0,0,0-.36.4,1.053,1.053,0,0,0-.127.514,1.233,1.233,0,0,0,.127.589,1.3,1.3,0,0,0,.374.422,2.855,2.855,0,0,0,.6.334q.352.149.8.325a11.131,11.131,0,0,1,1.072.47,3.678,3.678,0,0,1,.809.545,2.129,2.129,0,0,1,.514.7,2.254,2.254,0,0,1,.18.94,2.217,2.217,0,0,1-.294,1.16,2.523,2.523,0,0,1-.787.817,3.6,3.6,0,0,1-1.134.483,5.6,5.6,0,0,1-1.345.158A5.106,5.106,0,0,1,116.823,180.675Zm15.462.325h-1.441v-1.424h-.035a2.96,2.96,0,0,1-2.777,1.635q-3.217,0-3.217-3.832V172h1.433v5.15q0,2.848,2.18,2.848a2.205,2.205,0,0,0,1.736-.778,2.976,2.976,0,0,0,.681-2.035V172h1.441Zm20.623,0h-1.441v-5.168A3.9,3.9,0,0,0,151,173.67a1.75,1.75,0,0,0-1.551-.668,1.921,1.921,0,0,0-1.569.844,3.228,3.228,0,0,0-.646,2.021V181H145.8v-5.344q0-2.654-2.048-2.654a1.9,1.9,0,0,0-1.564.8,3.288,3.288,0,0,0-.615,2.07V181h-1.441v-9h1.441v1.424h.035a3.058,3.058,0,0,1,2.795-1.635,2.6,2.6,0,0,1,2.549,1.863,3.212,3.212,0,0,1,2.988-1.863q2.971,0,2.971,3.665Zm10,0H161.47v-1.424h-.035a2.96,2.96,0,0,1-2.777,1.635q-3.217,0-3.217-3.832V172h1.433v5.15q0,2.848,2.18,2.848a2.205,2.205,0,0,0,1.736-.778,2.976,2.976,0,0,0,.681-2.035V172h1.441Zm10.144-4.14H166.7a3.366,3.366,0,0,0,.809,2.32,2.788,2.788,0,0,0,2.127.817,4.422,4.422,0,0,0,2.795-1v1.354a5.224,5.224,0,0,1-3.138.861,3.8,3.8,0,0,1-3-1.226,5.018,5.018,0,0,1-1.09-3.45,4.921,4.921,0,0,1,1.191-3.423,3.819,3.819,0,0,1,2.958-1.323,3.384,3.384,0,0,1,2.733,1.143,4.764,4.764,0,0,1,.967,3.173Zm-1.477-1.222a2.933,2.933,0,0,0-.6-1.942,2.051,2.051,0,0,0-1.648-.694,2.328,2.328,0,0,0-1.731.729,3.31,3.31,0,0,0-.879,1.907Zm8.351-2.18a1.763,1.763,0,0,0-1.09-.29,1.839,1.839,0,0,0-1.542.87,4.023,4.023,0,0,0-.62,2.373V181h-1.441v-9h1.441v1.854h.035a3.143,3.143,0,0,1,.94-1.481,2.144,2.144,0,0,1,1.415-.532,2.353,2.353,0,0,1,.861.123Zm5.741,7.453a2.779,2.779,0,0,1-1.345.281q-2.364,0-2.364-2.637V173.23h-1.547V172h1.547v-2.2l1.441-.466V172h2.268v1.23H183.4V178.3a2.1,2.1,0,0,0,.308,1.292,1.228,1.228,0,0,0,1.02.387,1.515,1.515,0,0,0,.94-.3Zm9.16-4.052h-6.354a3.366,3.366,0,0,0,.809,2.32,2.788,2.788,0,0,0,2.127.817,4.422,4.422,0,0,0,2.795-1v1.354a5.224,5.224,0,0,1-3.138.861,3.8,3.8,0,0,1-3-1.226,5.018,5.018,0,0,1-1.09-3.45,4.921,4.921,0,0,1,1.191-3.423,3.819,3.819,0,0,1,2.958-1.323,3.384,3.384,0,0,1,2.733,1.143,4.764,4.764,0,0,1,.967,3.173Zm-1.477-1.222a2.933,2.933,0,0,0-.6-1.942,2.051,2.051,0,0,0-1.648-.694,2.328,2.328,0,0,0-1.731.729,3.31,3.31,0,0,0-.879,1.907ZM198.331,179l-1.406,4.324H195.9L196.925,179ZM7.594,207.587a4.684,4.684,0,0,1-2.461.624,4.074,4.074,0,0,1-3.107-1.252,4.539,4.539,0,0,1-1.182-3.248,4.99,4.99,0,0,1,1.274-3.573,4.458,4.458,0,0,1,3.4-1.349,4.735,4.735,0,0,1,2.092.439v1.477a3.665,3.665,0,0,0-2.145-.7,2.9,2.9,0,0,0-2.263.989,3.752,3.752,0,0,0-.883,2.6,3.573,3.573,0,0,0,.831,2.5A2.863,2.863,0,0,0,5.379,207a3.613,3.613,0,0,0,2.215-.782Zm5.943.624a4.175,4.175,0,0,1-3.186-1.261,4.672,4.672,0,0,1-1.191-3.344,4.867,4.867,0,0,1,1.239-3.542,4.455,4.455,0,0,1,3.349-1.274,4.037,4.037,0,0,1,3.142,1.239,4.914,4.914,0,0,1,1.129,3.437,4.835,4.835,0,0,1-1.217,3.45A4.265,4.265,0,0,1,13.537,208.211ZM13.642,200a2.742,2.742,0,0,0-2.2.945,3.88,3.88,0,0,0-.809,2.606,3.67,3.67,0,0,0,.817,2.522,2.778,2.778,0,0,0,2.188.923,2.635,2.635,0,0,0,2.149-.905,3.928,3.928,0,0,0,.751-2.575,4,4,0,0,0-.751-2.6A2.623,2.623,0,0,0,13.642,200Zm14.152,8H26.353v-5.133q0-2.865-2.092-2.865a2.269,2.269,0,0,0-1.789.813,3.013,3.013,0,0,0-.708,2.052V208H20.324v-9h1.441v1.494H21.8a3.248,3.248,0,0,1,2.953-1.705,2.753,2.753,0,0,1,2.259.954,4.248,4.248,0,0,1,.782,2.755Zm8.852-.413a4.684,4.684,0,0,1-2.461.624,4.074,4.074,0,0,1-3.107-1.252,4.539,4.539,0,0,1-1.182-3.248,4.99,4.99,0,0,1,1.274-3.573,4.458,4.458,0,0,1,3.4-1.349,4.735,4.735,0,0,1,2.092.439v1.477a3.665,3.665,0,0,0-2.145-.7,2.9,2.9,0,0,0-2.263.989,3.752,3.752,0,0,0-.883,2.6,3.573,3.573,0,0,0,.831,2.5,2.863,2.863,0,0,0,2.228.914,3.613,3.613,0,0,0,2.215-.782ZM40.27,208H38.828V194.676H40.27Zm10.2,0H49.026v-1.424H48.99a2.96,2.96,0,0,1-2.777,1.635q-3.217,0-3.217-3.832V199h1.433v5.15q0,2.848,2.18,2.848a2.205,2.205,0,0,0,1.736-.778,2.976,2.976,0,0,0,.681-2.035V199h1.441Zm10.074-9L56.4,209.441q-1.107,2.795-3.111,2.795a3.3,3.3,0,0,1-.94-.114V210.83a2.672,2.672,0,0,0,.853.158,1.767,1.767,0,0,0,1.635-1.3l.721-1.705L52.042,199h1.6l2.435,6.926q.044.132.185.686h.053q.044-.211.176-.668L59.047,199Zm8.782,4.86H62.969a3.366,3.366,0,0,0,.809,2.32A2.788,2.788,0,0,0,65.9,207a4.422,4.422,0,0,0,2.795-1v1.354a5.224,5.224,0,0,1-3.138.861,3.8,3.8,0,0,1-3-1.226,5.018,5.018,0,0,1-1.09-3.45,4.921,4.921,0,0,1,1.191-3.423,3.819,3.819,0,0,1,2.958-1.323,3.384,3.384,0,0,1,2.733,1.143,4.764,4.764,0,0,1,.967,3.173Zm-1.477-1.222a2.933,2.933,0,0,0-.6-1.942A2.051,2.051,0,0,0,65.6,200a2.328,2.328,0,0,0-1.731.729,3.31,3.31,0,0,0-.879,1.907Zm14.725,4.948a4.684,4.684,0,0,1-2.461.624A4.074,4.074,0,0,1,77,206.958a4.539,4.539,0,0,1-1.182-3.248,4.99,4.99,0,0,1,1.274-3.573,4.458,4.458,0,0,1,3.4-1.349,4.735,4.735,0,0,1,2.092.439v1.477a3.665,3.665,0,0,0-2.145-.7,2.9,2.9,0,0,0-2.263.989,3.752,3.752,0,0,0-.883,2.6,3.573,3.573,0,0,0,.831,2.5,2.863,2.863,0,0,0,2.228.914,3.613,3.613,0,0,0,2.215-.782Zm5.943.624a4.175,4.175,0,0,1-3.186-1.261,4.672,4.672,0,0,1-1.191-3.344,4.867,4.867,0,0,1,1.239-3.542,4.455,4.455,0,0,1,3.349-1.274,4.037,4.037,0,0,1,3.142,1.239A4.914,4.914,0,0,1,93,203.465a4.835,4.835,0,0,1-1.217,3.45A4.265,4.265,0,0,1,88.515,208.211ZM88.621,200a2.742,2.742,0,0,0-2.2.945,3.88,3.88,0,0,0-.809,2.606,3.67,3.67,0,0,0,.817,2.522,2.778,2.778,0,0,0,2.188.923,2.635,2.635,0,0,0,2.149-.905,3.928,3.928,0,0,0,.751-2.575,4,4,0,0,0-.751-2.6A2.623,2.623,0,0,0,88.621,200Zm14.152,8h-1.441v-5.133q0-2.865-2.092-2.865a2.269,2.269,0,0,0-1.789.813,3.013,3.013,0,0,0-.708,2.052V208H95.3v-9h1.441v1.494h.035a3.248,3.248,0,0,1,2.953-1.705,2.753,2.753,0,0,1,2.259.954,4.248,4.248,0,0,1,.782,2.755Zm7.105-.325v-1.547a4.266,4.266,0,0,0,2.593.87q1.9,0,1.9-1.266a1.1,1.1,0,0,0-.163-.611,1.62,1.62,0,0,0-.439-.444,3.383,3.383,0,0,0-.65-.347q-.374-.154-.8-.321a10.357,10.357,0,0,1-1.05-.479,3.173,3.173,0,0,1-.756-.545,2.028,2.028,0,0,1-.457-.69,2.441,2.441,0,0,1-.154-.905,2.15,2.15,0,0,1,.29-1.121,2.572,2.572,0,0,1,.773-.817,3.607,3.607,0,0,1,1.1-.5,4.893,4.893,0,0,1,1.279-.167,5.164,5.164,0,0,1,2.092.4v1.459a4.077,4.077,0,0,0-2.285-.65,2.671,2.671,0,0,0-.729.092,1.786,1.786,0,0,0-.558.259,1.2,1.2,0,0,0-.36.4,1.053,1.053,0,0,0-.127.514,1.233,1.233,0,0,0,.127.589,1.3,1.3,0,0,0,.374.422,2.855,2.855,0,0,0,.6.334q.352.149.8.325a11.131,11.131,0,0,1,1.072.47,3.678,3.678,0,0,1,.809.545,2.129,2.129,0,0,1,.514.7,2.254,2.254,0,0,1,.18.94,2.217,2.217,0,0,1-.294,1.16,2.523,2.523,0,0,1-.787.817,3.6,3.6,0,0,1-1.134.483,5.6,5.6,0,0,1-1.345.158A5.106,5.106,0,0,1,109.878,207.675ZM125.34,208H123.9v-1.424h-.035a2.96,2.96,0,0,1-2.777,1.635q-3.217,0-3.217-3.832V199H119.3v5.15q0,2.848,2.18,2.848a2.205,2.205,0,0,0,1.736-.778,2.976,2.976,0,0,0,.681-2.035V199h1.441Zm15.525,0h-1.441v-1.529h-.035a3.327,3.327,0,0,1-3.094,1.74A3.362,3.362,0,0,1,133.583,207a4.958,4.958,0,0,1-1.015-3.292,5.394,5.394,0,0,1,1.125-3.577,3.71,3.71,0,0,1,3-1.345,2.885,2.885,0,0,1,2.7,1.459h.035v-5.572h1.441Zm-1.441-4.069V202.6a2.575,2.575,0,0,0-.721-1.846,2.417,2.417,0,0,0-1.828-.756,2.489,2.489,0,0,0-2.074.967,4.237,4.237,0,0,0-.756,2.672,3.81,3.81,0,0,0,.725,2.457,2.37,2.37,0,0,0,1.947.9,2.462,2.462,0,0,0,1.956-.87A3.242,3.242,0,0,0,139.423,203.931Zm11.595-.07h-6.354a3.366,3.366,0,0,0,.809,2.32A2.788,2.788,0,0,0,147.6,207a4.422,4.422,0,0,0,2.795-1v1.354a5.224,5.224,0,0,1-3.138.861,3.8,3.8,0,0,1-3-1.226,5.018,5.018,0,0,1-1.09-3.45,4.921,4.921,0,0,1,1.191-3.423,3.819,3.819,0,0,1,2.958-1.323,3.384,3.384,0,0,1,2.733,1.143,4.764,4.764,0,0,1,.967,3.173Zm-1.477-1.222a2.933,2.933,0,0,0-.6-1.942,2.051,2.051,0,0,0-1.648-.694,2.328,2.328,0,0,0-1.731.729,3.31,3.31,0,0,0-.879,1.907Zm9.793,4.948a4.684,4.684,0,0,1-2.461.624,4.074,4.074,0,0,1-3.107-1.252,4.539,4.539,0,0,1-1.182-3.248,4.99,4.99,0,0,1,1.274-3.573,4.458,4.458,0,0,1,3.4-1.349,4.735,4.735,0,0,1,2.092.439v1.477a3.665,3.665,0,0,0-2.145-.7,2.9,2.9,0,0,0-2.263.989,3.752,3.752,0,0,0-.883,2.6,3.573,3.573,0,0,0,.831,2.5,2.863,2.863,0,0,0,2.228.914,3.613,3.613,0,0,0,2.215-.782Zm9.415-3.727h-6.354a3.366,3.366,0,0,0,.809,2.32,2.788,2.788,0,0,0,2.127.817,4.422,4.422,0,0,0,2.795-1v1.354a5.224,5.224,0,0,1-3.138.861,3.8,3.8,0,0,1-3-1.226,5.018,5.018,0,0,1-1.09-3.45,4.921,4.921,0,0,1,1.191-3.423,3.819,3.819,0,0,1,2.958-1.323,3.384,3.384,0,0,1,2.733,1.143,4.764,4.764,0,0,1,.967,3.173Zm-1.477-1.222a2.933,2.933,0,0,0-.6-1.942,2.051,2.051,0,0,0-1.648-.694,2.328,2.328,0,0,0-1.731.729,3.31,3.31,0,0,0-.879,1.907Zm3.113,5.036v-1.547a4.266,4.266,0,0,0,2.593.87q1.9,0,1.9-1.266a1.1,1.1,0,0,0-.163-.611,1.62,1.62,0,0,0-.439-.444,3.383,3.383,0,0,0-.65-.347q-.374-.154-.8-.321a10.357,10.357,0,0,1-1.05-.479,3.173,3.173,0,0,1-.756-.545,2.028,2.028,0,0,1-.457-.69,2.441,2.441,0,0,1-.154-.905,2.15,2.15,0,0,1,.29-1.121,2.572,2.572,0,0,1,.773-.817,3.607,3.607,0,0,1,1.1-.5,4.893,4.893,0,0,1,1.279-.167,5.164,5.164,0,0,1,2.092.4v1.459a4.077,4.077,0,0,0-2.285-.65,2.671,2.671,0,0,0-.729.092,1.786,1.786,0,0,0-.558.259,1.2,1.2,0,0,0-.36.4,1.053,1.053,0,0,0-.127.514,1.233,1.233,0,0,0,.127.589,1.3,1.3,0,0,0,.374.422,2.855,2.855,0,0,0,.6.334q.352.149.8.325a11.131,11.131,0,0,1,1.072.47,3.678,3.678,0,0,1,.809.545,2.129,2.129,0,0,1,.514.7,2.254,2.254,0,0,1,.18.94,2.217,2.217,0,0,1-.294,1.16,2.523,2.523,0,0,1-.787.817,3.6,3.6,0,0,1-1.134.483,5.6,5.6,0,0,1-1.345.158A5.106,5.106,0,0,1,170.386,207.675Zm11.946.536a4.175,4.175,0,0,1-3.186-1.261,4.672,4.672,0,0,1-1.191-3.344,4.867,4.867,0,0,1,1.239-3.542,4.455,4.455,0,0,1,3.349-1.274,4.037,4.037,0,0,1,3.142,1.239,4.914,4.914,0,0,1,1.129,3.437,4.835,4.835,0,0,1-1.217,3.45A4.265,4.265,0,0,1,182.332,208.211Zm.105-8.209a2.742,2.742,0,0,0-2.2.945,3.88,3.88,0,0,0-.809,2.606,3.67,3.67,0,0,0,.817,2.522,2.778,2.778,0,0,0,2.188.923,2.635,2.635,0,0,0,2.149-.905,3.928,3.928,0,0,0,.751-2.575,4,4,0,0,0-.751-2.6A2.623,2.623,0,0,0,182.437,200Zm7.182,8.191a.933.933,0,0,1-.69-.29.955.955,0,0,1-.286-.694.969.969,0,0,1,.286-.7.926.926,0,0,1,.69-.294.95.95,0,0,1,.7.294.962.962,0,0,1,.29.7.947.947,0,0,1-.29.694A.958.958,0,0,1,189.62,208.193Z" transform="translate(511.688 2700.847)" fill="#212429"/>
    <path id="Trazado_978885" data-name="Trazado 978885" d="M43.2,43.2a147.5,147.5,0,1,1,0,208.6,147.5,147.5,0,0,1,0-208.6" transform="translate(495 2664.949) rotate(-90)" fill="#f5e9a1"/>
    <path id="Trazado_978886" data-name="Trazado 978886" d="M147.5,295V0a147.5,147.5,0,1,0,0,295" transform="translate(495 2664.949) rotate(-90)" fill="#48452f"/>
    <path id="Trazado_979206" data-name="Trazado 979206" d="M44.646,28H40.6V17.107q0-1.765.152-3.9h-.1a19.179,19.179,0,0,1-.571,2.412L35.81,28H32.458L28.117,15.749a23.839,23.839,0,0,1-.571-2.539h-.114q.165,2.691.165,4.723V28H23.9V9.795h6l3.72,10.791a15.194,15.194,0,0,1,.647,2.6h.076a26.206,26.206,0,0,1,.724-2.628l3.72-10.766h5.853Zm16.1,0h-4V26.02h-.063a4.537,4.537,0,0,1-3.974,2.3q-4.52,0-4.52-5.472V15h4v7.49q0,2.755,2.184,2.755A2.16,2.16,0,0,0,56.1,24.49a3.046,3.046,0,0,0,.647-2.05V15h4ZM75.8,22.643H67.32q.2,2.831,3.567,2.831a6.965,6.965,0,0,0,3.771-1.016v2.895a9.9,9.9,0,0,1-4.685.965,6.594,6.594,0,0,1-4.888-1.746A6.6,6.6,0,0,1,63.346,21.7a6.957,6.957,0,0,1,1.879-5.129,6.26,6.26,0,0,1,4.621-1.892,5.681,5.681,0,0,1,4.4,1.688A6.5,6.5,0,0,1,75.8,20.954ZM72.08,20.18q0-2.793-2.26-2.793a2.158,2.158,0,0,0-1.669.8,3.63,3.63,0,0,0-.857,1.993Zm14.587-1.562a3.48,3.48,0,0,0-1.688-.394,2.433,2.433,0,0,0-2.044.958,4.182,4.182,0,0,0-.736,2.609V28H78.187V15H82.2v2.412h.051a3.47,3.47,0,0,1,3.428-2.641,2.583,2.583,0,0,1,.99.152Zm10.474,9.229a5.93,5.93,0,0,1-2.679.47q-4.24,0-4.24-4.405V17.958H88.115V15h2.107V12.194l4-1.143V15h2.92v2.958h-2.92v5.256q0,2.031,1.612,2.031a2.718,2.718,0,0,0,1.308-.368Zm13.838-5.205H102.5q.2,2.831,3.567,2.831a6.965,6.965,0,0,0,3.771-1.016v2.895a9.9,9.9,0,0,1-4.685.965,6.594,6.594,0,0,1-4.888-1.746A6.6,6.6,0,0,1,98.525,21.7a6.957,6.957,0,0,1,1.879-5.129,6.26,6.26,0,0,1,4.621-1.892,5.681,5.681,0,0,1,4.4,1.688,6.5,6.5,0,0,1,1.555,4.583Zm-3.72-2.463q0-2.793-2.26-2.793a2.158,2.158,0,0,0-1.669.8,3.63,3.63,0,0,0-.857,1.993Zm26,7.82h-4.012V26.21H129.2a4.5,4.5,0,0,1-4.024,2.107,4.929,4.929,0,0,1-3.923-1.72,7.121,7.121,0,0,1-1.485-4.805,7.751,7.751,0,0,1,1.638-5.167,5.342,5.342,0,0,1,4.291-1.942,3.65,3.65,0,0,1,3.5,1.8h.051V8.754h4.012Zm-3.936-6.322V20.7a3.076,3.076,0,0,0-.736-2.107,2.6,2.6,0,0,0-4,.209,4.864,4.864,0,0,0-.749,2.875,4.209,4.209,0,0,0,.724,2.641,2.569,2.569,0,0,0,3.993-.051A4.075,4.075,0,0,0,129.324,21.678Zm18.992.965h-8.48q.2,2.831,3.567,2.831a6.965,6.965,0,0,0,3.771-1.016v2.895a9.9,9.9,0,0,1-4.685.965,6.594,6.594,0,0,1-4.888-1.746,6.6,6.6,0,0,1-1.739-4.869,6.957,6.957,0,0,1,1.879-5.129,6.26,6.26,0,0,1,4.621-1.892,5.681,5.681,0,0,1,4.4,1.688,6.5,6.5,0,0,1,1.555,4.583ZM144.6,20.18q0-2.793-2.26-2.793a2.158,2.158,0,0,0-1.669.8,3.63,3.63,0,0,0-.857,1.993ZM154.714,28H150.7V8.754h4.012ZM20.62,59h-4V57.02h-.063a4.537,4.537,0,0,1-3.974,2.3q-4.52,0-4.52-5.472V46h4v7.49q0,2.755,2.184,2.755a2.16,2.16,0,0,0,1.727-.755,3.046,3.046,0,0,0,.647-2.05V46h4Zm2.526-.343v-3.25a8.541,8.541,0,0,0,1.974.889,6.546,6.546,0,0,0,1.86.292,3.989,3.989,0,0,0,1.682-.292.943.943,0,0,0,.616-.889A.822.822,0,0,0,29,54.772a2.6,2.6,0,0,0-.717-.444,8.14,8.14,0,0,0-.958-.343q-.521-.152-1-.343a9.609,9.609,0,0,1-1.365-.628,3.945,3.945,0,0,1-.99-.781,3.069,3.069,0,0,1-.609-1.028,4.1,4.1,0,0,1-.209-1.384,3.562,3.562,0,0,1,.476-1.879,3.889,3.889,0,0,1,1.27-1.289,5.8,5.8,0,0,1,1.815-.736,9.466,9.466,0,0,1,2.126-.235,11.8,11.8,0,0,1,1.752.133,13.076,13.076,0,0,1,1.752.387v3.1a6.331,6.331,0,0,0-1.631-.667A6.881,6.881,0,0,0,29,48.412a3.783,3.783,0,0,0-.743.07,2.446,2.446,0,0,0-.616.2,1.131,1.131,0,0,0-.419.343.789.789,0,0,0-.152.476.879.879,0,0,0,.229.609,1.985,1.985,0,0,0,.6.438,5.89,5.89,0,0,0,.819.33q.451.146.9.3a11.637,11.637,0,0,1,1.447.609,4.627,4.627,0,0,1,1.111.774,3.041,3.041,0,0,1,.711,1.041,4.165,4.165,0,0,1-.254,3.4,4.015,4.015,0,0,1-1.333,1.333,6.045,6.045,0,0,1-1.917.749,10.627,10.627,0,0,1-2.253.235A11.617,11.617,0,0,1,23.146,58.657ZM47.788,59h-4V57.02h-.063a4.537,4.537,0,0,1-3.974,2.3q-4.52,0-4.52-5.472V46h4v7.49q0,2.755,2.184,2.755a2.16,2.16,0,0,0,1.727-.755,3.046,3.046,0,0,0,.647-2.05V46h4ZM59.645,42.826a4.053,4.053,0,0,0-1.485-.3q-1.93,0-1.93,2.095V46H59.2v2.958H56.23V59h-4V48.958H50.048V46h2.184V44.388a4.681,4.681,0,0,1,1.447-3.58,5.52,5.52,0,0,1,3.936-1.358,6.912,6.912,0,0,1,2.031.254Zm9.966,6.792a3.48,3.48,0,0,0-1.688-.394,2.433,2.433,0,0,0-2.044.958,4.181,4.181,0,0,0-.736,2.609V59H61.131V46h4.012v2.412h.051a3.47,3.47,0,0,1,3.428-2.641,2.583,2.583,0,0,1,.99.152ZM83.906,59h-4V57.02h-.063a4.537,4.537,0,0,1-3.974,2.3q-4.52,0-4.52-5.472V46h4v7.49q0,2.755,2.184,2.755a2.16,2.16,0,0,0,1.727-.755,3.046,3.046,0,0,0,.647-2.05V46h4Zm13.229-.47a7.932,7.932,0,0,1-3.923.787,6.634,6.634,0,0,1-4.85-1.815,6.27,6.27,0,0,1-1.854-4.685A6.907,6.907,0,0,1,88.5,47.593a7.343,7.343,0,0,1,5.313-1.911,6.817,6.817,0,0,1,3.326.609v3.4a4.573,4.573,0,0,0-2.806-.939,3.7,3.7,0,0,0-2.736,1.009,3.766,3.766,0,0,0-1.009,2.787,3.7,3.7,0,0,0,.965,2.71,3.546,3.546,0,0,0,2.653.984,5.3,5.3,0,0,0,2.933-.939Zm10.486.317a5.93,5.93,0,0,1-2.679.47q-4.24,0-4.24-4.405V48.958H98.595V46H100.7V43.194l4-1.143V46h2.92v2.958H104.7v5.256q0,2.031,1.612,2.031a2.718,2.718,0,0,0,1.308-.368ZM122.233,59h-4V57.02h-.063a4.537,4.537,0,0,1-3.974,2.3q-4.52,0-4.52-5.472V46h4v7.49q0,2.755,2.184,2.755a2.16,2.16,0,0,0,1.727-.755,3.046,3.046,0,0,0,.647-2.05V46h4Zm14.193,0h-3.8V57.134h-.051a4.237,4.237,0,0,1-3.872,2.184,4.05,4.05,0,0,1-2.977-1.073,3.844,3.844,0,0,1-1.085-2.863q0-3.783,4.481-4.367l3.529-.47q0-2.133-2.311-2.133a7.887,7.887,0,0,0-4.418,1.384V46.774a9.939,9.939,0,0,1,2.291-.762,12.046,12.046,0,0,1,2.647-.33q5.561,0,5.561,5.548Zm-3.771-5.281v-.876l-2.361.3q-1.955.254-1.955,1.765a1.458,1.458,0,0,0,.476,1.124,1.829,1.829,0,0,0,1.289.438,2.375,2.375,0,0,0,1.841-.781A2.82,2.82,0,0,0,132.656,53.719Zm15.425-4.1a3.48,3.48,0,0,0-1.688-.394,2.433,2.433,0,0,0-2.044.958,4.181,4.181,0,0,0-.736,2.609V59H139.6V46h4.012v2.412h.051a3.47,3.47,0,0,1,3.428-2.641,2.583,2.583,0,0,1,.99.152Zm4-5.675a2.343,2.343,0,0,1-1.663-.6,1.943,1.943,0,0,1-.647-1.479,1.874,1.874,0,0,1,.647-1.473,2.716,2.716,0,0,1,3.333,0,1.882,1.882,0,0,1,.641,1.473,1.935,1.935,0,0,1-.641,1.5A2.383,2.383,0,0,1,152.08,43.943ZM154.06,59h-4.012V46h4.012Zm9.572.317a6.988,6.988,0,0,1-5.11-1.822,6.6,6.6,0,0,1-1.86-4.945,6.6,6.6,0,0,1,1.93-5.046,7.291,7.291,0,0,1,5.218-1.822,6.9,6.9,0,0,1,5.078,1.822,6.476,6.476,0,0,1,1.841,4.818,6.874,6.874,0,0,1-1.9,5.116A7.066,7.066,0,0,1,163.633,59.317Zm.1-10.562a2.676,2.676,0,0,0-2.209.978,4.311,4.311,0,0,0-.787,2.768q0,3.745,3.021,3.745,2.882,0,2.882-3.847Q166.641,48.755,163.734,48.755Z" transform="translate(553.073 2559.221)" fill="#fff"/>
    <g id="Grupo_1151856" data-name="Grupo 1151856" transform="translate(600.946 2409.289)" clip-path="url(#clip-path)">
      <path id="Trazado_979150" data-name="Trazado 979150" d="M60.891,80.9H3.953A3.077,3.077,0,0,1,.875,77.819V14.46a3.079,3.079,0,0,1,.9-2.176L12.284,1.777a3.079,3.079,0,0,1,2.176-.9H60.891a3.077,3.077,0,0,1,3.078,3.078V77.819A3.077,3.077,0,0,1,60.891,80.9" transform="translate(0.472 0.472)" fill="#e8eaf6"/>
      <path id="Trazado_979151" data-name="Trazado 979151" d="M60.891,48.953H3.953A3.077,3.077,0,0,1,.875,45.875v7.694a3.077,3.077,0,0,0,3.078,3.078H60.891a3.077,3.077,0,0,0,3.078-3.078V45.875a3.077,3.077,0,0,1-3.078,3.078" transform="translate(0.472 24.721)" fill="#c5cae9"/>
      <path id="Trazado_979152" data-name="Trazado 979152" d="M68.886,46.553,48.88,29.482,28.875,46.553h4V68.559H64.885V46.553Z" transform="translate(15.56 15.887)" fill="#e8eaf6"/>
      <rect id="Rectángulo_408317" data-name="Rectángulo 408317" width="32.009" height="5.583" transform="translate(48.436 78.863)" fill="#c5cae9"/>
      <rect id="Rectángulo_408318" data-name="Rectángulo 408318" width="9.441" height="14.255" transform="translate(59.721 70.191)" fill="#c17b3f"/>
      <rect id="Rectángulo_408319" data-name="Rectángulo 408319" width="9.441" height="5.583" transform="translate(59.721 78.863)" fill="#a26535"/>
      <path id="Trazado_979153" data-name="Trazado 979153" d="M28.875,46.553H68.886L48.88,29.482Z" transform="translate(15.56 15.887)" fill="#ef5350"/>
      <path id="Trazado_979154" data-name="Trazado 979154" d="M1.347,55.06A1.347,1.347,0,0,1,0,53.713V14.932A4.4,4.4,0,0,1,1.3,11.8L11.8,1.3A4.4,4.4,0,0,1,14.933,0h46.43a4.429,4.429,0,0,1,4.424,4.424V39.818a1.347,1.347,0,1,1-2.693,0V4.424a1.734,1.734,0,0,0-1.731-1.731H14.933a1.721,1.721,0,0,0-1.225.506L3.2,13.707a1.722,1.722,0,0,0-.508,1.225V53.713A1.347,1.347,0,0,1,1.347,55.06" fill="#1a237e"/>
      <path id="Trazado_979155" data-name="Trazado 979155" d="M53.013,19.708H6.847a1.347,1.347,0,0,1,0-2.693H53.013a1.347,1.347,0,1,1,0,2.693" transform="translate(2.964 9.169)" fill="#1a237e"/>
      <path id="Trazado_979156" data-name="Trazado 979156" d="M53.013,24.693H6.847a1.347,1.347,0,1,1,0-2.693H53.013a1.347,1.347,0,1,1,0,2.693" transform="translate(2.964 11.855)" fill="#1a237e"/>
      <path id="Trazado_979157" data-name="Trazado 979157" d="M53.013,29.678H6.847a1.347,1.347,0,0,1,0-2.693H53.013a1.347,1.347,0,1,1,0,2.693" transform="translate(2.964 14.542)" fill="#1a237e"/>
      <path id="Trazado_979158" data-name="Trazado 979158" d="M33.007,34.664H6.847a1.347,1.347,0,1,1,0-2.693H33.007a1.347,1.347,0,1,1,0,2.693" transform="translate(2.964 17.228)" fill="#1a237e"/>
      <path id="Trazado_979159" data-name="Trazado 979159" d="M28.391,48.387c-3.273,0-4.3-1.545-4.977-2.568-.514-.774-.851-1.285-5.194.888-2.085,1.04-4.192,1.859-5.477.78-1.256-1.054-.722-2.845-.2-4.578a10.725,10.725,0,0,0,.5-2.216H13c-3.4,0-4.821,6.548-4.835,6.614a1.347,1.347,0,0,1-2.641-.529C5.6,46.419,7.347,38,13,38a2.6,2.6,0,0,1,2.218.986c.926,1.243.4,3-.1,4.692-.132.445-.328,1.1-.414,1.564a11.988,11.988,0,0,0,2.311-.945c5.506-2.752,7.173-2.182,8.641.034.525.791.9,1.363,2.733,1.363a1.347,1.347,0,0,1,0,2.693" transform="translate(2.964 20.477)" fill="#1a237e"/>
      <path id="Trazado_979160" data-name="Trazado 979160" d="M48.436,62.129H4.424A4.429,4.429,0,0,1,0,57.7V39.548a1.347,1.347,0,0,1,2.693,0V57.7a1.734,1.734,0,0,0,1.731,1.731H48.436a1.347,1.347,0,0,1,0,2.693" transform="translate(0 20.586)" fill="#1a237e"/>
      <path id="Trazado_979161" data-name="Trazado 979161" d="M13.13,17.554H1.347a1.347,1.347,0,1,1,0-2.693H13.13a1.734,1.734,0,0,0,1.731-1.731V1.347a1.347,1.347,0,1,1,2.693,0V13.13a4.43,4.43,0,0,1-4.424,4.424" fill="#1a237e"/>
      <path id="Trazado_979162" data-name="Trazado 979162" d="M25.771,17.342a6.271,6.271,0,1,1,6.271-6.271,6.278,6.278,0,0,1-6.271,6.271m0-9.849a3.578,3.578,0,1,0,3.578,3.578,3.582,3.582,0,0,0-3.578-3.578" transform="translate(10.508 2.587)" fill="#1a237e"/>
      <path id="Trazado_979163" data-name="Trazado 979163" d="M42.735,15.617a1.347,1.347,0,0,1-1.347-1.347V10.693H27.347a1.347,1.347,0,0,1,0-2.693H42.735a1.346,1.346,0,0,1,1.347,1.347v4.924a1.347,1.347,0,0,1-1.347,1.347" transform="translate(14.011 4.311)" fill="#1a237e"/>
      <path id="Trazado_979164" data-name="Trazado 979164" d="M32.762,15.617a1.347,1.347,0,0,1-1.347-1.347V9.347a1.347,1.347,0,0,1,2.693,0v4.924a1.347,1.347,0,0,1-1.347,1.347" transform="translate(16.929 4.311)" fill="#1a237e"/>
      <path id="Trazado_979165" data-name="Trazado 979165" d="M63.955,64.4H31.947A1.347,1.347,0,0,1,30.6,63.052V41.047a1.347,1.347,0,0,1,2.693,0V61.706H62.609V41.047a1.347,1.347,0,0,1,2.693,0V63.052A1.347,1.347,0,0,1,63.955,64.4" transform="translate(16.49 21.393)" fill="#1a237e"/>
      <path id="Trazado_979166" data-name="Trazado 979166" d="M48.72,61.685a1.347,1.347,0,0,1-1.347-1.347V47.43H40.625V60.338a1.347,1.347,0,0,1-2.693,0V46.084a1.346,1.346,0,0,1,1.347-1.347H48.72a1.346,1.346,0,0,1,1.347,1.347V60.338a1.347,1.347,0,0,1-1.347,1.347" transform="translate(20.441 24.108)" fill="#1a237e"/>
      <path id="Trazado_979167" data-name="Trazado 979167" d="M69.357,48.371H29.346A1.347,1.347,0,0,1,28.474,46L48.479,28.929a1.345,1.345,0,0,1,1.747,0L70.231,46a1.347,1.347,0,0,1-.874,2.371M33,45.678H65.705L49.352,31.723Z" transform="translate(15.089 15.416)" fill="#1a237e"/>
      <path id="Trazado_979168" data-name="Trazado 979168" d="M39.5,4H33.347a1.347,1.347,0,0,0,0,2.693H39.5A1.347,1.347,0,1,0,39.5,4" transform="translate(17.244 2.156)" fill="#fff"/>
      <path id="Trazado_979169" data-name="Trazado 979169" d="M28.139,36H17.31a1.347,1.347,0,0,0,0,2.693H28.139a1.347,1.347,0,1,0,0-2.693" transform="translate(8.602 19.4)" fill="#fff"/>
      <path id="Trazado_979170" data-name="Trazado 979170" d="M47.491,37.417l-3.346-3.045a1.346,1.346,0,0,0-1.813,1.991l3.346,3.045a1.346,1.346,0,1,0,1.813-1.991" transform="translate(22.575 18.334)" fill="#fff"/>
    </g>
  </g>
</svg>
