<svg xmlns="http://www.w3.org/2000/svg" xmlns:xlink="http://www.w3.org/1999/xlink" width="295" height="674.193" viewBox="0 0 295 674.193">
  <defs>
    <clipPath id="clip-path">
      <rect id="Rectángulo_408312" data-name="Rectángulo 408312" width="93.043" height="98.331" fill="none"/>
    </clipPath>
  </defs>
  <g id="Grupo_1151865" data-name="Grupo 1151865" transform="translate(-810.001 -2371.352)">
    <path id="Trazado_979207" data-name="Trazado 979207" d="M0,0H295V528H0Z" transform="translate(810.001 2517.545)" fill="#f7f4ed"/>
    <path id="Trazado_979208" data-name="Trazado 979208" d="M1.063,18.49V16.75a3.38,3.38,0,0,0,.716.475,5.8,5.8,0,0,0,.879.356,7,7,0,0,0,.927.224,5.17,5.17,0,0,0,.861.079,3.374,3.374,0,0,0,2.035-.505,1.9,1.9,0,0,0,.448-2.342,2.525,2.525,0,0,0-.62-.69,6.148,6.148,0,0,0-.936-.6q-.541-.286-1.165-.6-.659-.334-1.23-.677a5.332,5.332,0,0,1-.993-.756,3.153,3.153,0,0,1-.664-.936,2.9,2.9,0,0,1-.242-1.226,2.883,2.883,0,0,1,.378-1.5A3.242,3.242,0,0,1,2.452,7a4.5,4.5,0,0,1,1.4-.615,6.419,6.419,0,0,1,1.6-.2,6.147,6.147,0,0,1,2.716.448V8.295a4.923,4.923,0,0,0-2.865-.773,4.712,4.712,0,0,0-.967.1,2.731,2.731,0,0,0-.861.33,1.908,1.908,0,0,0-.615.589,1.563,1.563,0,0,0-.237.879,1.809,1.809,0,0,0,.18.835,2.046,2.046,0,0,0,.532.642,5.3,5.3,0,0,0,.857.563q.505.272,1.165.6.677.334,1.283.7a5.865,5.865,0,0,1,1.063.817,3.632,3.632,0,0,1,.725.993A2.792,2.792,0,0,1,8.7,15.818,3.165,3.165,0,0,1,8.336,17.4a2.993,2.993,0,0,1-.984,1.05,4.3,4.3,0,0,1-1.428.584,7.822,7.822,0,0,1-1.705.18,6.948,6.948,0,0,1-.738-.048q-.439-.048-.9-.141a7.315,7.315,0,0,1-.866-.229A2.694,2.694,0,0,1,1.063,18.49Zm10.7-10.775a.913.913,0,0,1-.659-.264.89.89,0,0,1-.272-.668.923.923,0,0,1,.932-.94.931.931,0,0,1,.672.268.939.939,0,0,1,0,1.332A.923.923,0,0,1,11.762,7.715ZM12.465,19H11.023V10h1.441ZM27.55,14.86H21.2A3.366,3.366,0,0,0,22,17.181,2.788,2.788,0,0,0,24.131,18a4.422,4.422,0,0,0,2.795-1V18.35a5.224,5.224,0,0,1-3.138.861,3.8,3.8,0,0,1-3-1.226,5.018,5.018,0,0,1-1.09-3.45,4.921,4.921,0,0,1,1.191-3.423A3.819,3.819,0,0,1,23.85,9.789a3.384,3.384,0,0,1,2.733,1.143A4.764,4.764,0,0,1,27.55,14.1Zm-1.477-1.222a2.933,2.933,0,0,0-.6-1.942A2.051,2.051,0,0,0,23.824,11a2.328,2.328,0,0,0-1.731.729,3.31,3.31,0,0,0-.879,1.907ZM31.173,19H29.732V5.676h1.441ZM40.5,17.7h-.035V19H39.025V5.676h1.441v5.906H40.5a3.408,3.408,0,0,1,3.111-1.793A3.3,3.3,0,0,1,46.325,11a4.99,4.99,0,0,1,.98,3.239,5.578,5.578,0,0,1-1.1,3.617A3.658,3.658,0,0,1,43.2,19.211,2.96,2.96,0,0,1,40.5,17.7Zm-.035-3.63v1.257a2.676,2.676,0,0,0,.725,1.894A2.587,2.587,0,0,0,45.086,17a4.6,4.6,0,0,0,.743-2.786,3.629,3.629,0,0,0-.694-2.355A2.3,2.3,0,0,0,43.253,11a2.554,2.554,0,0,0-2.021.875A3.211,3.211,0,0,0,40.467,14.069Zm9.881-6.354a.913.913,0,0,1-.659-.264.89.89,0,0,1-.272-.668.923.923,0,0,1,.932-.94.931.931,0,0,1,.672.268.939.939,0,0,1,0,1.332A.923.923,0,0,1,50.348,7.715ZM51.051,19H49.609V10h1.441ZM61.2,14.86H54.849a3.366,3.366,0,0,0,.809,2.32A2.788,2.788,0,0,0,57.785,18a4.422,4.422,0,0,0,2.795-1V18.35a5.224,5.224,0,0,1-3.138.861,3.8,3.8,0,0,1-3-1.226,5.018,5.018,0,0,1-1.09-3.45,4.921,4.921,0,0,1,1.191-3.423A3.819,3.819,0,0,1,57.5,9.789a3.384,3.384,0,0,1,2.733,1.143A4.764,4.764,0,0,1,61.2,14.1Zm-1.477-1.222a2.933,2.933,0,0,0-.6-1.942A2.051,2.051,0,0,0,57.477,11a2.328,2.328,0,0,0-1.731.729,3.31,3.31,0,0,0-.879,1.907ZM70.856,19H69.415V13.867Q69.415,11,67.323,11a2.269,2.269,0,0,0-1.789.813,3.013,3.013,0,0,0-.708,2.052V19H63.385V10h1.441v1.494h.035a3.248,3.248,0,0,1,2.953-1.705,2.753,2.753,0,0,1,2.259.954,4.248,4.248,0,0,1,.782,2.755Zm15.332,0H84.746V17.471h-.035a3.327,3.327,0,0,1-3.094,1.74A3.362,3.362,0,0,1,78.906,18a4.958,4.958,0,0,1-1.015-3.292,5.394,5.394,0,0,1,1.125-3.577,3.71,3.71,0,0,1,3-1.345,2.885,2.885,0,0,1,2.7,1.459h.035V5.676h1.441Zm-1.441-4.069V13.6a2.575,2.575,0,0,0-.721-1.846A2.417,2.417,0,0,0,82.2,11a2.489,2.489,0,0,0-2.074.967,4.237,4.237,0,0,0-.756,2.672,3.81,3.81,0,0,0,.725,2.457,2.37,2.37,0,0,0,1.947.9,2.462,2.462,0,0,0,1.956-.87A3.242,3.242,0,0,0,84.746,14.931Zm11.595-.07H89.986a3.366,3.366,0,0,0,.809,2.32A2.788,2.788,0,0,0,92.922,18a4.422,4.422,0,0,0,2.795-1V18.35a5.224,5.224,0,0,1-3.138.861,3.8,3.8,0,0,1-3-1.226,5.018,5.018,0,0,1-1.09-3.45,4.921,4.921,0,0,1,1.191-3.423,3.819,3.819,0,0,1,2.958-1.323,3.384,3.384,0,0,1,2.733,1.143,4.764,4.764,0,0,1,.967,3.173Zm-1.477-1.222a2.933,2.933,0,0,0-.6-1.942A2.051,2.051,0,0,0,92.614,11a2.328,2.328,0,0,0-1.731.729A3.31,3.31,0,0,0,90,13.639Zm3.113,5.036V17.128a4.266,4.266,0,0,0,2.593.87q1.9,0,1.9-1.266a1.1,1.1,0,0,0-.163-.611,1.62,1.62,0,0,0-.439-.444,3.383,3.383,0,0,0-.65-.347q-.374-.154-.8-.321a10.357,10.357,0,0,1-1.05-.479,3.173,3.173,0,0,1-.756-.545,2.028,2.028,0,0,1-.457-.69A2.441,2.441,0,0,1,98,12.391a2.15,2.15,0,0,1,.29-1.121,2.572,2.572,0,0,1,.773-.817,3.607,3.607,0,0,1,1.1-.5,4.893,4.893,0,0,1,1.279-.167,5.164,5.164,0,0,1,2.092.4v1.459a4.077,4.077,0,0,0-2.285-.65,2.671,2.671,0,0,0-.729.092,1.786,1.786,0,0,0-.558.259,1.2,1.2,0,0,0-.36.4,1.053,1.053,0,0,0-.127.514,1.233,1.233,0,0,0,.127.589,1.3,1.3,0,0,0,.374.422,2.855,2.855,0,0,0,.6.334q.352.149.8.325a11.131,11.131,0,0,1,1.072.47,3.678,3.678,0,0,1,.809.545,2.129,2.129,0,0,1,.514.7,2.254,2.254,0,0,1,.18.94,2.217,2.217,0,0,1-.294,1.16,2.523,2.523,0,0,1-.787.817,3.6,3.6,0,0,1-1.134.483,5.6,5.6,0,0,1-1.345.158A5.106,5.106,0,0,1,97.978,18.675ZM112.6,19h-1.441V17.594h-.035a3.018,3.018,0,0,1-2.769,1.617,2.959,2.959,0,0,1-2.1-.712,2.466,2.466,0,0,1-.76-1.89q0-2.522,2.971-2.936l2.7-.378q0-2.294-1.854-2.294a4.431,4.431,0,0,0-2.936,1.107V10.633a5.577,5.577,0,0,1,3.059-.844q3.173,0,3.173,3.357Zm-1.441-4.553-2.171.3a3.525,3.525,0,0,0-1.512.5,1.432,1.432,0,0,0-.51,1.261,1.374,1.374,0,0,0,.47,1.077,1.817,1.817,0,0,0,1.252.417,2.314,2.314,0,0,0,1.771-.751,2.685,2.685,0,0,0,.7-1.9ZM116.8,17.7h-.035v5.44h-1.441V10h1.441v1.582h.035a3.408,3.408,0,0,1,3.111-1.793A3.3,3.3,0,0,1,122.626,11a5.005,5.005,0,0,1,.976,3.239,5.578,5.578,0,0,1-1.1,3.617,3.658,3.658,0,0,1-3.006,1.358A3.011,3.011,0,0,1,116.8,17.7Zm-.035-3.63v1.257a2.676,2.676,0,0,0,.725,1.894A2.587,2.587,0,0,0,121.382,17a4.6,4.6,0,0,0,.743-2.786,3.629,3.629,0,0,0-.694-2.355A2.3,2.3,0,0,0,119.549,11a2.554,2.554,0,0,0-2.021.875A3.211,3.211,0,0,0,116.763,14.069ZM132.348,19h-1.441V17.594h-.035a3.018,3.018,0,0,1-2.769,1.617A2.959,2.959,0,0,1,126,18.5a2.466,2.466,0,0,1-.76-1.89q0-2.522,2.971-2.936l2.7-.378q0-2.294-1.854-2.294a4.431,4.431,0,0,0-2.936,1.107V10.633a5.577,5.577,0,0,1,3.059-.844q3.173,0,3.173,3.357Zm-1.441-4.553-2.171.3a3.525,3.525,0,0,0-1.512.5,1.432,1.432,0,0,0-.51,1.261,1.374,1.374,0,0,0,.47,1.077,1.817,1.817,0,0,0,1.252.417,2.314,2.314,0,0,0,1.771-.751,2.685,2.685,0,0,0,.7-1.9Zm8.852-2.988a1.763,1.763,0,0,0-1.09-.29,1.839,1.839,0,0,0-1.542.87,4.023,4.023,0,0,0-.62,2.373V19h-1.441V10h1.441v1.854h.035a3.143,3.143,0,0,1,.94-1.481,2.144,2.144,0,0,1,1.415-.532,2.353,2.353,0,0,1,.861.123Zm8.8,3.4H142.2a3.366,3.366,0,0,0,.809,2.32A2.788,2.788,0,0,0,145.14,18a4.422,4.422,0,0,0,2.795-1V18.35a5.224,5.224,0,0,1-3.138.861,3.8,3.8,0,0,1-3-1.226,5.018,5.018,0,0,1-1.09-3.45,4.921,4.921,0,0,1,1.191-3.423,3.819,3.819,0,0,1,2.958-1.323,3.384,3.384,0,0,1,2.733,1.143,4.764,4.764,0,0,1,.967,3.173Zm-1.477-1.222a2.933,2.933,0,0,0-.6-1.942A2.051,2.051,0,0,0,144.832,11a2.328,2.328,0,0,0-1.731.729,3.31,3.31,0,0,0-.879,1.907Zm9.793,4.948a4.684,4.684,0,0,1-2.461.624,4.074,4.074,0,0,1-3.107-1.252,4.539,4.539,0,0,1-1.182-3.248,4.99,4.99,0,0,1,1.274-3.573,4.458,4.458,0,0,1,3.4-1.349,4.735,4.735,0,0,1,2.092.439v1.477a3.665,3.665,0,0,0-2.145-.7,2.9,2.9,0,0,0-2.263.989,3.752,3.752,0,0,0-.883,2.6,3.573,3.573,0,0,0,.831,2.5A2.863,2.863,0,0,0,154.66,18a3.613,3.613,0,0,0,2.215-.782Zm9.415-3.727h-6.354a3.366,3.366,0,0,0,.809,2.32,2.788,2.788,0,0,0,2.127.817,4.422,4.422,0,0,0,2.795-1V18.35a5.224,5.224,0,0,1-3.138.861,3.8,3.8,0,0,1-3-1.226,5.018,5.018,0,0,1-1.09-3.45,4.921,4.921,0,0,1,1.191-3.423,3.819,3.819,0,0,1,2.958-1.323,3.384,3.384,0,0,1,2.733,1.143,4.764,4.764,0,0,1,.967,3.173Zm-1.477-1.222a2.933,2.933,0,0,0-.6-1.942A2.051,2.051,0,0,0,162.563,11a2.328,2.328,0,0,0-1.731.729,3.31,3.31,0,0,0-.879,1.907Zm12.352,5.572a4.175,4.175,0,0,1-3.186-1.261,4.672,4.672,0,0,1-1.191-3.344,4.867,4.867,0,0,1,1.239-3.542,4.455,4.455,0,0,1,3.349-1.274,4.037,4.037,0,0,1,3.142,1.239,4.914,4.914,0,0,1,1.129,3.437,4.835,4.835,0,0,1-1.217,3.45A4.265,4.265,0,0,1,177.166,19.211ZM177.271,11a2.742,2.742,0,0,0-2.2.945,3.88,3.88,0,0,0-.809,2.606,3.67,3.67,0,0,0,.817,2.522,2.778,2.778,0,0,0,2.188.923,2.635,2.635,0,0,0,2.149-.905,3.928,3.928,0,0,0,.751-2.575,4,4,0,0,0-.751-2.6A2.623,2.623,0,0,0,177.271,11Zm13.091,6.7h-.035v5.44h-1.441V10h1.441v1.582h.035a3.408,3.408,0,0,1,3.111-1.793A3.3,3.3,0,0,1,196.189,11a5.005,5.005,0,0,1,.976,3.239,5.578,5.578,0,0,1-1.1,3.617,3.658,3.658,0,0,1-3.006,1.358A3.011,3.011,0,0,1,190.362,17.7Zm-.035-3.63v1.257a2.676,2.676,0,0,0,.725,1.894A2.587,2.587,0,0,0,194.945,17a4.6,4.6,0,0,0,.743-2.786,3.629,3.629,0,0,0-.694-2.355A2.3,2.3,0,0,0,193.113,11a2.554,2.554,0,0,0-2.021.875A3.211,3.211,0,0,0,190.326,14.069Zm9.881-6.354a.913.913,0,0,1-.659-.264.89.89,0,0,1-.272-.668.923.923,0,0,1,.932-.94.931.931,0,0,1,.672.268.939.939,0,0,1,0,1.332A.923.923,0,0,1,200.207,7.715ZM200.91,19h-1.441V10h1.441Zm10.153-4.14h-6.354a3.366,3.366,0,0,0,.809,2.32,2.788,2.788,0,0,0,2.127.817,4.422,4.422,0,0,0,2.795-1V18.35a5.224,5.224,0,0,1-3.138.861,3.8,3.8,0,0,1-3-1.226,5.018,5.018,0,0,1-1.09-3.45,4.921,4.921,0,0,1,1.191-3.423,3.819,3.819,0,0,1,2.958-1.323,3.384,3.384,0,0,1,2.733,1.143,4.764,4.764,0,0,1,.967,3.173Zm-1.477-1.222a2.933,2.933,0,0,0-.6-1.942A2.051,2.051,0,0,0,207.337,11a2.328,2.328,0,0,0-1.731.729,3.31,3.31,0,0,0-.879,1.907Zm8.351-2.18a1.763,1.763,0,0,0-1.09-.29,1.839,1.839,0,0,0-1.542.87,4.023,4.023,0,0,0-.62,2.373V19h-1.441V10h1.441v1.854h.035a3.143,3.143,0,0,1,.94-1.481,2.144,2.144,0,0,1,1.415-.532,2.353,2.353,0,0,1,.861.123ZM227.186,19h-1.441V17.471h-.035a3.327,3.327,0,0,1-3.094,1.74A3.362,3.362,0,0,1,219.9,18a4.958,4.958,0,0,1-1.015-3.292,5.394,5.394,0,0,1,1.125-3.577,3.71,3.71,0,0,1,3-1.345,2.885,2.885,0,0,1,2.7,1.459h.035V5.676h1.441Zm-1.441-4.069V13.6a2.575,2.575,0,0,0-.721-1.846A2.417,2.417,0,0,0,223.2,11a2.489,2.489,0,0,0-2.074.967,4.237,4.237,0,0,0-.756,2.672,3.81,3.81,0,0,0,.725,2.457,2.37,2.37,0,0,0,1.947.9,2.462,2.462,0,0,0,1.956-.87A3.242,3.242,0,0,0,225.745,14.931Zm11.595-.07h-6.354a3.366,3.366,0,0,0,.809,2.32A2.788,2.788,0,0,0,233.92,18a4.422,4.422,0,0,0,2.795-1V18.35a5.224,5.224,0,0,1-3.138.861,3.8,3.8,0,0,1-3-1.226,5.018,5.018,0,0,1-1.09-3.45,4.921,4.921,0,0,1,1.191-3.423,3.819,3.819,0,0,1,2.958-1.323,3.384,3.384,0,0,1,2.733,1.143,4.764,4.764,0,0,1,.967,3.173Zm-1.477-1.222a2.933,2.933,0,0,0-.6-1.942A2.051,2.051,0,0,0,233.613,11a2.328,2.328,0,0,0-1.731.729A3.31,3.31,0,0,0,231,13.639Zm8.046,5.036V17.128A4.266,4.266,0,0,0,246.5,18q1.9,0,1.9-1.266a1.1,1.1,0,0,0-.163-.611,1.62,1.62,0,0,0-.439-.444,3.383,3.383,0,0,0-.65-.347q-.374-.154-.8-.321a10.357,10.357,0,0,1-1.05-.479,3.173,3.173,0,0,1-.756-.545,2.028,2.028,0,0,1-.457-.69,2.441,2.441,0,0,1-.154-.905,2.15,2.15,0,0,1,.29-1.121,2.572,2.572,0,0,1,.773-.817,3.607,3.607,0,0,1,1.1-.5,4.893,4.893,0,0,1,1.279-.167,5.164,5.164,0,0,1,2.092.4v1.459a4.077,4.077,0,0,0-2.285-.65,2.671,2.671,0,0,0-.729.092,1.786,1.786,0,0,0-.558.259,1.2,1.2,0,0,0-.36.4,1.053,1.053,0,0,0-.127.514,1.233,1.233,0,0,0,.127.589,1.3,1.3,0,0,0,.374.422,2.855,2.855,0,0,0,.6.334q.352.149.8.325a11.131,11.131,0,0,1,1.072.47,3.678,3.678,0,0,1,.809.545,2.129,2.129,0,0,1,.514.7,2.254,2.254,0,0,1,.18.94,2.217,2.217,0,0,1-.294,1.16,2.523,2.523,0,0,1-.787.817,3.6,3.6,0,0,1-1.134.483,5.6,5.6,0,0,1-1.345.158A5.106,5.106,0,0,1,243.908,18.675ZM259.37,19h-1.441V17.576h-.035a2.96,2.96,0,0,1-2.777,1.635q-3.217,0-3.217-3.832V10h1.433v5.15q0,2.848,2.18,2.848a2.205,2.205,0,0,0,1.736-.778,2.976,2.976,0,0,0,.681-2.035V10h1.441ZM8.736,46H7.295V44.576H7.26a2.96,2.96,0,0,1-2.777,1.635q-3.217,0-3.217-3.832V37H2.7v5.15Q2.7,45,4.878,45a2.205,2.205,0,0,0,1.736-.778,2.976,2.976,0,0,0,.681-2.035V37H8.736Zm7.086-.088a2.779,2.779,0,0,1-1.345.281q-2.364,0-2.364-2.637V38.23H10.566V37h1.547V34.8l1.441-.466V37h2.268v1.23H13.555V43.3a2.1,2.1,0,0,0,.308,1.292,1.228,1.228,0,0,0,1.02.387,1.515,1.515,0,0,0,.94-.3Zm2.665-11.2a.913.913,0,0,1-.659-.264.89.89,0,0,1-.272-.668.923.923,0,0,1,.932-.94.931.931,0,0,1,.672.268.939.939,0,0,1,0,1.332A.923.923,0,0,1,18.487,34.715ZM19.19,46H17.749V37H19.19Zm4.361,0H22.11V32.676h1.441Zm3.658-11.285a.913.913,0,0,1-.659-.264.89.89,0,0,1-.272-.668.923.923,0,0,1,.932-.94.931.931,0,0,1,.672.268.939.939,0,0,1,0,1.332A.923.923,0,0,1,27.209,34.715ZM27.912,46H26.471V37h1.441Zm10.6,0H37.072V44.471h-.035a3.327,3.327,0,0,1-3.094,1.74A3.362,3.362,0,0,1,31.232,45a4.958,4.958,0,0,1-1.015-3.292,5.394,5.394,0,0,1,1.125-3.577,3.71,3.71,0,0,1,3-1.345,2.885,2.885,0,0,1,2.7,1.459h.035V32.676h1.441Zm-1.441-4.069V40.6a2.575,2.575,0,0,0-.721-1.846A2.417,2.417,0,0,0,34.524,38a2.489,2.489,0,0,0-2.074.967,4.237,4.237,0,0,0-.756,2.672,3.81,3.81,0,0,0,.725,2.457,2.37,2.37,0,0,0,1.947.9,2.462,2.462,0,0,0,1.956-.87A3.242,3.242,0,0,0,37.072,41.931ZM47.876,46H46.435V44.594H46.4a3.018,3.018,0,0,1-2.769,1.617,2.959,2.959,0,0,1-2.1-.712,2.466,2.466,0,0,1-.76-1.89q0-2.522,2.971-2.936l2.7-.378Q46.435,38,44.58,38a4.431,4.431,0,0,0-2.936,1.107V37.633a5.577,5.577,0,0,1,3.059-.844q3.173,0,3.173,3.357Zm-1.441-4.553-2.171.3a3.525,3.525,0,0,0-1.512.5,1.432,1.432,0,0,0-.51,1.261,1.374,1.374,0,0,0,.47,1.077A1.817,1.817,0,0,0,43.965,45a2.314,2.314,0,0,0,1.771-.751,2.685,2.685,0,0,0,.7-1.9ZM58.275,46H56.834V44.471H56.8a3.327,3.327,0,0,1-3.094,1.74A3.362,3.362,0,0,1,50.994,45a4.958,4.958,0,0,1-1.015-3.292A5.394,5.394,0,0,1,51.1,38.134a3.71,3.71,0,0,1,3-1.345,2.885,2.885,0,0,1,2.7,1.459h.035V32.676h1.441Zm-1.441-4.069V40.6a2.575,2.575,0,0,0-.721-1.846A2.417,2.417,0,0,0,54.285,38a2.489,2.489,0,0,0-2.074.967,4.237,4.237,0,0,0-.756,2.672A3.81,3.81,0,0,0,52.18,44.1a2.37,2.37,0,0,0,1.947.9,2.462,2.462,0,0,0,1.956-.87A3.242,3.242,0,0,0,56.834,41.931ZM62.513,44,61.107,48.32H60.079L61.107,44ZM77.265,41.86H70.911a3.366,3.366,0,0,0,.809,2.32A2.788,2.788,0,0,0,73.846,45a4.422,4.422,0,0,0,2.795-1V45.35a5.224,5.224,0,0,1-3.138.861,3.8,3.8,0,0,1-3-1.226,5.018,5.018,0,0,1-1.09-3.45,4.921,4.921,0,0,1,1.191-3.423,3.819,3.819,0,0,1,2.958-1.323A3.384,3.384,0,0,1,76.3,37.932a4.764,4.764,0,0,1,.967,3.173Zm-1.477-1.222a2.933,2.933,0,0,0-.6-1.942A2.051,2.051,0,0,0,73.539,38a2.328,2.328,0,0,0-1.731.729,3.31,3.31,0,0,0-.879,1.907ZM80.888,46H79.447V32.676h1.441Zm15.13,0H94.576V44.576h-.035a2.96,2.96,0,0,1-2.777,1.635q-3.217,0-3.217-3.832V37h1.433v5.15q0,2.848,2.18,2.848a2.205,2.205,0,0,0,1.736-.778,2.976,2.976,0,0,0,.681-2.035V37h1.441Zm2.366-.325V44.128a4.266,4.266,0,0,0,2.593.87q1.9,0,1.9-1.266a1.1,1.1,0,0,0-.163-.611,1.62,1.62,0,0,0-.439-.444,3.383,3.383,0,0,0-.65-.347q-.374-.154-.8-.321a10.357,10.357,0,0,1-1.05-.479,3.173,3.173,0,0,1-.756-.545,2.028,2.028,0,0,1-.457-.69,2.441,2.441,0,0,1-.154-.905,2.15,2.15,0,0,1,.29-1.121,2.572,2.572,0,0,1,.773-.817,3.607,3.607,0,0,1,1.1-.5,4.893,4.893,0,0,1,1.279-.167,5.164,5.164,0,0,1,2.092.4v1.459a4.077,4.077,0,0,0-2.285-.65,2.671,2.671,0,0,0-.729.092,1.786,1.786,0,0,0-.558.259,1.2,1.2,0,0,0-.36.4,1.053,1.053,0,0,0-.127.514,1.233,1.233,0,0,0,.127.589,1.3,1.3,0,0,0,.374.422,2.855,2.855,0,0,0,.6.334q.352.149.8.325a11.131,11.131,0,0,1,1.072.47,3.678,3.678,0,0,1,.809.545,2.129,2.129,0,0,1,.514.7,2.254,2.254,0,0,1,.18.94,2.217,2.217,0,0,1-.294,1.16,2.523,2.523,0,0,1-.787.817,3.6,3.6,0,0,1-1.134.483,5.6,5.6,0,0,1-1.345.158A5.106,5.106,0,0,1,98.384,45.675ZM113.845,46H112.4V44.576h-.035a2.96,2.96,0,0,1-2.777,1.635q-3.217,0-3.217-3.832V37h1.433v5.15q0,2.848,2.18,2.848a2.205,2.205,0,0,0,1.736-.778,2.976,2.976,0,0,0,.681-2.035V37h1.441ZM121.2,33.941a1.92,1.92,0,0,0-.958-.237q-1.512,0-1.512,1.907V37h2.109v1.23h-2.109V46H117.3V38.23h-1.538V37H117.3V35.541a3.032,3.032,0,0,1,.817-2.237,2.759,2.759,0,0,1,2.039-.822,2.824,2.824,0,0,1,1.046.158Zm5.882,4.518a1.763,1.763,0,0,0-1.09-.29,1.839,1.839,0,0,0-1.542.87,4.023,4.023,0,0,0-.62,2.373V46h-1.441V37h1.441v1.854h.035a3.143,3.143,0,0,1,.94-1.481,2.144,2.144,0,0,1,1.415-.532,2.353,2.353,0,0,1,.861.123ZM135.929,46h-1.441V44.576h-.035a2.96,2.96,0,0,1-2.777,1.635q-3.217,0-3.217-3.832V37h1.433v5.15q0,2.848,2.18,2.848a2.205,2.205,0,0,0,1.736-.778,2.976,2.976,0,0,0,.681-2.035V37h1.441Zm9.046-.413a4.684,4.684,0,0,1-2.461.624,4.074,4.074,0,0,1-3.107-1.252,4.539,4.539,0,0,1-1.182-3.248,4.99,4.99,0,0,1,1.274-3.573,4.458,4.458,0,0,1,3.4-1.349,4.735,4.735,0,0,1,2.092.439v1.477a3.665,3.665,0,0,0-2.145-.7,2.9,2.9,0,0,0-2.263.989,3.752,3.752,0,0,0-.883,2.6,3.573,3.573,0,0,0,.831,2.5A2.863,2.863,0,0,0,142.76,45a3.613,3.613,0,0,0,2.215-.782Zm6.356.325a2.779,2.779,0,0,1-1.345.281q-2.364,0-2.364-2.637V38.23h-1.547V37h1.547V34.8l1.441-.466V37h2.268v1.23h-2.268V43.3a2.1,2.1,0,0,0,.308,1.292,1.228,1.228,0,0,0,1.02.387,1.515,1.515,0,0,0,.94-.3Zm5.688.3a4.175,4.175,0,0,1-3.186-1.261,4.672,4.672,0,0,1-1.191-3.344,4.867,4.867,0,0,1,1.239-3.542,4.455,4.455,0,0,1,3.349-1.274,4.037,4.037,0,0,1,3.142,1.239,4.914,4.914,0,0,1,1.129,3.437,4.835,4.835,0,0,1-1.217,3.45A4.265,4.265,0,0,1,157.019,46.211ZM157.125,38a2.742,2.742,0,0,0-2.2.945,3.88,3.88,0,0,0-.809,2.606,3.67,3.67,0,0,0,.817,2.522,2.778,2.778,0,0,0,2.188.923,2.635,2.635,0,0,0,2.149-.905,3.928,3.928,0,0,0,.751-2.575,4,4,0,0,0-.751-2.6A2.623,2.623,0,0,0,157.125,38Zm11.069,7.673V44.128a4.266,4.266,0,0,0,2.593.87q1.9,0,1.9-1.266a1.1,1.1,0,0,0-.163-.611,1.62,1.62,0,0,0-.439-.444,3.383,3.383,0,0,0-.65-.347q-.374-.154-.8-.321a10.357,10.357,0,0,1-1.05-.479,3.173,3.173,0,0,1-.756-.545,2.028,2.028,0,0,1-.457-.69,2.441,2.441,0,0,1-.154-.905,2.15,2.15,0,0,1,.29-1.121,2.572,2.572,0,0,1,.773-.817,3.607,3.607,0,0,1,1.1-.5,4.893,4.893,0,0,1,1.279-.167,5.164,5.164,0,0,1,2.092.4v1.459a4.077,4.077,0,0,0-2.285-.65,2.671,2.671,0,0,0-.729.092,1.786,1.786,0,0,0-.558.259,1.2,1.2,0,0,0-.36.4,1.053,1.053,0,0,0-.127.514,1.233,1.233,0,0,0,.127.589,1.3,1.3,0,0,0,.374.422,2.855,2.855,0,0,0,.6.334q.352.149.8.325a11.131,11.131,0,0,1,1.072.47,3.678,3.678,0,0,1,.809.545,2.129,2.129,0,0,1,.514.7,2.254,2.254,0,0,1,.18.94,2.217,2.217,0,0,1-.294,1.16,2.523,2.523,0,0,1-.787.817,3.6,3.6,0,0,1-1.134.483,5.6,5.6,0,0,1-1.345.158A5.106,5.106,0,0,1,168.194,45.675Zm15.418-3.814h-6.354a3.366,3.366,0,0,0,.809,2.32,2.788,2.788,0,0,0,2.127.817,4.422,4.422,0,0,0,2.795-1V45.35a5.224,5.224,0,0,1-3.138.861,3.8,3.8,0,0,1-3-1.226,5.018,5.018,0,0,1-1.09-3.45,4.921,4.921,0,0,1,1.191-3.423,3.819,3.819,0,0,1,2.958-1.323,3.384,3.384,0,0,1,2.733,1.143,4.764,4.764,0,0,1,.967,3.173Zm-1.477-1.222a2.933,2.933,0,0,0-.6-1.942A2.051,2.051,0,0,0,179.885,38a2.328,2.328,0,0,0-1.731.729,3.31,3.31,0,0,0-.879,1.907ZM8.692,68.86H2.338a3.366,3.366,0,0,0,.809,2.32A2.788,2.788,0,0,0,5.273,72a4.422,4.422,0,0,0,2.795-1V72.35a5.224,5.224,0,0,1-3.138.861,3.8,3.8,0,0,1-3-1.226,5.018,5.018,0,0,1-1.09-3.45,4.921,4.921,0,0,1,1.191-3.423,3.819,3.819,0,0,1,2.958-1.323,3.384,3.384,0,0,1,2.733,1.143A4.764,4.764,0,0,1,8.692,68.1ZM7.216,67.639a2.933,2.933,0,0,0-.6-1.942A2.051,2.051,0,0,0,4.966,65a2.328,2.328,0,0,0-1.731.729,3.31,3.31,0,0,0-.879,1.907ZM17.448,64l-3.023,4.553L17.4,73H15.717L13.95,70.082q-.167-.272-.4-.686h-.035q-.044.079-.413.686L11.3,73H9.643l3.067-4.412L9.775,64h1.679l1.74,3.076q.193.343.378.7h.035L15.857,64Zm5.864,8.912a2.779,2.779,0,0,1-1.345.281q-2.364,0-2.364-2.637V65.23H18.056V64H19.6V61.8l1.441-.466V64h2.268v1.23H21.045V70.3a2.1,2.1,0,0,0,.308,1.292,1.228,1.228,0,0,0,1.02.387,1.515,1.515,0,0,0,.94-.3Zm2.665-11.2a.913.913,0,0,1-.659-.264.89.89,0,0,1-.272-.668.923.923,0,0,1,.932-.94.931.931,0,0,1,.672.268.939.939,0,0,1,0,1.332A.923.923,0,0,1,25.977,61.715ZM26.68,73H25.239V64H26.68Zm10.39,0H35.629V67.867Q35.629,65,33.537,65a2.269,2.269,0,0,0-1.789.813,3.013,3.013,0,0,0-.708,2.052V73H29.6V64h1.441v1.494h.035a3.248,3.248,0,0,1,2.953-1.705,2.753,2.753,0,0,1,2.259.954,4.248,4.248,0,0,1,.782,2.755Zm10.4-.721q0,4.957-4.746,4.957a6.372,6.372,0,0,1-2.918-.633V75.162a5.993,5.993,0,0,0,2.9.844q3.322,0,3.322-3.533v-.984h-.035a3.641,3.641,0,0,1-5.8.523,4.8,4.8,0,0,1-1.024-3.221,5.6,5.6,0,0,1,1.1-3.647A3.685,3.685,0,0,1,43.3,63.789a2.934,2.934,0,0,1,2.7,1.459h.035V64H47.47Zm-1.441-3.349V67.6a2.575,2.575,0,0,0-.725-1.837A2.387,2.387,0,0,0,43.5,65a2.5,2.5,0,0,0-2.092.971,4.335,4.335,0,0,0-.756,2.72,3.721,3.721,0,0,0,.725,2.4,2.343,2.343,0,0,0,1.92.9,2.509,2.509,0,0,0,1.973-.861A3.21,3.21,0,0,0,46.029,68.931ZM57.667,73H56.226V71.576H56.19a2.96,2.96,0,0,1-2.777,1.635q-3.217,0-3.217-3.832V64h1.433v5.15q0,2.848,2.18,2.848a2.205,2.205,0,0,0,1.736-.778,2.976,2.976,0,0,0,.681-2.035V64h1.441Zm10.144-4.14H61.457a3.366,3.366,0,0,0,.809,2.32A2.788,2.788,0,0,0,64.392,72a4.422,4.422,0,0,0,2.795-1V72.35a5.224,5.224,0,0,1-3.138.861,3.8,3.8,0,0,1-3-1.226,5.018,5.018,0,0,1-1.09-3.45,4.921,4.921,0,0,1,1.191-3.423,3.819,3.819,0,0,1,2.958-1.323,3.384,3.384,0,0,1,2.733,1.143,4.764,4.764,0,0,1,.967,3.173Zm-1.477-1.222a2.933,2.933,0,0,0-.6-1.942A2.051,2.051,0,0,0,64.085,65a2.328,2.328,0,0,0-1.731.729,3.31,3.31,0,0,0-.879,1.907Zm4.159,5.555a.933.933,0,0,1-.69-.29.955.955,0,0,1-.286-.694.969.969,0,0,1,.286-.7.926.926,0,0,1,.69-.294.95.95,0,0,1,.7.294.962.962,0,0,1,.29.7.947.947,0,0,1-.29.694A.958.958,0,0,1,70.494,73.193ZM9,127H1.441V114.4H8.71v2.312H4.28v2.8H8.4v2.3H4.28V124.7H9Zm3.157-10.424a1.622,1.622,0,0,1-1.151-.417,1.345,1.345,0,0,1-.448-1.024,1.3,1.3,0,0,1,.448-1.02,1.676,1.676,0,0,1,1.151-.4,1.672,1.672,0,0,1,1.156.4,1.3,1.3,0,0,1,.444,1.02,1.34,1.34,0,0,1-.444,1.037A1.65,1.65,0,0,1,12.157,116.576Zm1.371,10.266a4.892,4.892,0,0,1-.976,3.19,3.421,3.421,0,0,1-2.813,1.2,3.889,3.889,0,0,1-1.327-.264v-2.18a2.163,2.163,0,0,0,1.028.325q1.31,0,1.31-2.057V118h2.777Zm10.426-3.551H18.083q.141,1.96,2.47,1.96a4.822,4.822,0,0,0,2.61-.7v2a6.858,6.858,0,0,1-3.243.668,4.565,4.565,0,0,1-3.384-1.208,4.566,4.566,0,0,1-1.2-3.371,4.816,4.816,0,0,1,1.3-3.551,4.334,4.334,0,0,1,3.2-1.31,3.933,3.933,0,0,1,3.045,1.169,4.5,4.5,0,0,1,1.077,3.173Zm-2.575-1.705q0-1.934-1.564-1.934a1.494,1.494,0,0,0-1.156.554,2.513,2.513,0,0,0-.593,1.38ZM39.9,127H37.13v-5.133q0-1.96-1.441-1.96a1.324,1.324,0,0,0-1.116.589,2.42,2.42,0,0,0-.431,1.468V127H31.365v-5.186q0-1.907-1.415-1.907a1.356,1.356,0,0,0-1.138.563A2.475,2.475,0,0,0,28.385,122v5H25.608v-9h2.777v1.406h.035a3.41,3.41,0,0,1,2.909-1.626,2.592,2.592,0,0,1,2.61,1.679,3.329,3.329,0,0,1,3.023-1.679q2.936,0,2.936,3.621Zm5.012-1.046h-.035v5.186H42.1V118h2.777v1.354h.035a3.534,3.534,0,0,1,5.594-.374,5.108,5.108,0,0,1,.954,3.265,5.537,5.537,0,0,1-1.112,3.612,3.625,3.625,0,0,1-2.958,1.362A2.8,2.8,0,0,1,44.911,125.954Zm-.079-3.691v.721a2.291,2.291,0,0,0,.492,1.521,1.6,1.6,0,0,0,1.292.589,1.7,1.7,0,0,0,1.472-.734,3.543,3.543,0,0,0,.523-2.079q0-2.373-1.846-2.373a1.733,1.733,0,0,0-1.393.646A2.576,2.576,0,0,0,44.831,122.263ZM56.039,127H53.262V113.676h2.777Zm6.629.22a4.838,4.838,0,0,1-3.538-1.261,5.216,5.216,0,0,1,.048-6.917,5.048,5.048,0,0,1,3.612-1.261,4.78,4.78,0,0,1,3.516,1.261,4.483,4.483,0,0,1,1.274,3.335,4.759,4.759,0,0,1-1.314,3.542A4.892,4.892,0,0,1,62.668,127.22Zm.07-7.312a1.852,1.852,0,0,0-1.529.677,2.984,2.984,0,0,0-.545,1.916q0,2.593,2.092,2.593,2,0,2-2.663Q64.751,119.907,62.738,119.907Zm7.886.879a1.63,1.63,0,0,1-1.143-.417,1.343,1.343,0,0,1-.457-1.033,1.306,1.306,0,0,1,.47-1.037,1.736,1.736,0,0,1,1.173-.4,1.671,1.671,0,0,1,1.165.409,1.41,1.41,0,0,1-.009,2.079A1.754,1.754,0,0,1,70.624,120.786Zm0,6.434a1.62,1.62,0,0,1-1.143-.422,1.356,1.356,0,0,1-.457-1.037,1.306,1.306,0,0,1,.47-1.037,1.736,1.736,0,0,1,1.173-.4,1.671,1.671,0,0,1,1.165.409,1.415,1.415,0,0,1-.009,2.083A1.742,1.742,0,0,1,70.624,127.22Zm16.14-.22H85.323v-1.424h-.035a2.96,2.96,0,0,1-2.777,1.635q-3.217,0-3.217-3.832V118h1.433v5.15q0,2.848,2.18,2.848a2.205,2.205,0,0,0,1.736-.778,2.976,2.976,0,0,0,.681-2.035V118h1.441Zm10.382,0H95.7v-5.133Q95.7,119,93.613,119a2.269,2.269,0,0,0-1.789.813,3.013,3.013,0,0,0-.708,2.052V127H89.675v-9h1.441v1.494h.035a3.248,3.248,0,0,1,2.953-1.705,2.753,2.753,0,0,1,2.259.954,4.248,4.248,0,0,1,.782,2.755Zm8.388-11.285a.913.913,0,0,1-.659-.264.89.89,0,0,1-.272-.668.923.923,0,0,1,.932-.94.931.931,0,0,1,.672.268.939.939,0,0,1,0,1.332A.923.923,0,0,1,105.534,115.715Zm.7,11.285H104.8v-9h1.441Zm10.39,0h-1.441v-5.133q0-2.865-2.092-2.865a2.269,2.269,0,0,0-1.789.813,3.013,3.013,0,0,0-.708,2.052V127h-1.441v-9H110.6v1.494h.035a3.248,3.248,0,0,1,2.953-1.705,2.753,2.753,0,0,1,2.259.954,4.248,4.248,0,0,1,.782,2.755Zm15.5,0h-1.441v-5.168a3.9,3.9,0,0,0-.461-2.162,1.75,1.75,0,0,0-1.551-.668,1.921,1.921,0,0,0-1.569.844,3.228,3.228,0,0,0-.646,2.021V127h-1.441v-5.344q0-2.654-2.048-2.654a1.9,1.9,0,0,0-1.564.8,3.288,3.288,0,0,0-.615,2.07V127h-1.441v-9h1.441v1.424h.035a3.058,3.058,0,0,1,2.795-1.635,2.6,2.6,0,0,1,2.549,1.863,3.212,3.212,0,0,1,2.988-1.863q2.971,0,2.971,3.665Zm10,0h-1.441v-1.424h-.035a2.96,2.96,0,0,1-2.777,1.635q-3.217,0-3.217-3.832V118h1.433v5.15q0,2.848,2.18,2.848a2.205,2.205,0,0,0,1.736-.778,2.976,2.976,0,0,0,.681-2.035V118h1.441Zm10.144-4.14h-6.354a3.366,3.366,0,0,0,.809,2.32,2.788,2.788,0,0,0,2.127.817,4.422,4.422,0,0,0,2.795-1v1.354a5.224,5.224,0,0,1-3.138.861,3.8,3.8,0,0,1-3-1.226,5.018,5.018,0,0,1-1.09-3.45,4.921,4.921,0,0,1,1.191-3.423,3.819,3.819,0,0,1,2.958-1.323,3.384,3.384,0,0,1,2.733,1.143,4.764,4.764,0,0,1,.967,3.173Zm-1.477-1.222a2.933,2.933,0,0,0-.6-1.942,2.051,2.051,0,0,0-1.648-.694,2.328,2.328,0,0,0-1.731.729,3.31,3.31,0,0,0-.879,1.907Zm5.135,4.061H155.9V127h-1.441V113.676H155.9v5.906h.035a3.408,3.408,0,0,1,3.111-1.793A3.3,3.3,0,0,1,161.754,119a4.99,4.99,0,0,1,.98,3.239,5.578,5.578,0,0,1-1.1,3.617,3.658,3.658,0,0,1-3.006,1.358A2.96,2.96,0,0,1,155.931,125.7Zm-.035-3.63v1.257a2.676,2.676,0,0,0,.725,1.894,2.587,2.587,0,0,0,3.894-.224,4.6,4.6,0,0,0,.743-2.786,3.629,3.629,0,0,0-.694-2.355,2.3,2.3,0,0,0-1.881-.853,2.554,2.554,0,0,0-2.021.875A3.211,3.211,0,0,0,155.9,122.069ZM166.48,127h-1.441V113.676h1.441Zm10.153-4.14h-6.354a3.366,3.366,0,0,0,.809,2.32,2.788,2.788,0,0,0,2.127.817,4.422,4.422,0,0,0,2.795-1v1.354a5.224,5.224,0,0,1-3.138.861,3.8,3.8,0,0,1-3-1.226,5.018,5.018,0,0,1-1.09-3.45,4.921,4.921,0,0,1,1.191-3.423,3.819,3.819,0,0,1,2.958-1.323,3.384,3.384,0,0,1,2.733,1.143,4.764,4.764,0,0,1,.967,3.173Zm-1.477-1.222a2.933,2.933,0,0,0-.6-1.942,2.051,2.051,0,0,0-1.648-.694,2.328,2.328,0,0,0-1.731.729,3.31,3.31,0,0,0-.879,1.907ZM191.428,127h-1.441v-1.529h-.035a3.327,3.327,0,0,1-3.094,1.74A3.362,3.362,0,0,1,184.147,126a4.958,4.958,0,0,1-1.015-3.292,5.394,5.394,0,0,1,1.125-3.577,3.71,3.71,0,0,1,3-1.345,2.885,2.885,0,0,1,2.7,1.459h.035v-5.572h1.441Zm-1.441-4.069V121.6a2.575,2.575,0,0,0-.721-1.846,2.417,2.417,0,0,0-1.828-.756,2.489,2.489,0,0,0-2.074.967,4.237,4.237,0,0,0-.756,2.672,3.81,3.81,0,0,0,.725,2.457,2.37,2.37,0,0,0,1.947.9,2.462,2.462,0,0,0,1.956-.87A3.242,3.242,0,0,0,189.987,122.931Zm11.595-.07h-6.354a3.366,3.366,0,0,0,.809,2.32,2.788,2.788,0,0,0,2.127.817,4.422,4.422,0,0,0,2.795-1v1.354a5.224,5.224,0,0,1-3.138.861,3.8,3.8,0,0,1-3-1.226,5.018,5.018,0,0,1-1.09-3.45,4.921,4.921,0,0,1,1.191-3.423,3.819,3.819,0,0,1,2.958-1.323,3.384,3.384,0,0,1,2.733,1.143,4.764,4.764,0,0,1,.967,3.173Zm-1.477-1.222a2.933,2.933,0,0,0-.6-1.942,2.051,2.051,0,0,0-1.648-.694,2.328,2.328,0,0,0-1.731.729,3.31,3.31,0,0,0-.879,1.907Zm3.113,5.036v-1.547a4.266,4.266,0,0,0,2.593.87q1.9,0,1.9-1.266a1.1,1.1,0,0,0-.163-.611,1.62,1.62,0,0,0-.439-.444,3.383,3.383,0,0,0-.65-.347q-.374-.154-.8-.321a10.357,10.357,0,0,1-1.05-.479,3.173,3.173,0,0,1-.756-.545,2.028,2.028,0,0,1-.457-.69,2.441,2.441,0,0,1-.154-.905,2.15,2.15,0,0,1,.29-1.121,2.572,2.572,0,0,1,.773-.817,3.607,3.607,0,0,1,1.1-.5,4.893,4.893,0,0,1,1.279-.167,5.164,5.164,0,0,1,2.092.4v1.459a4.077,4.077,0,0,0-2.285-.65,2.671,2.671,0,0,0-.729.092,1.786,1.786,0,0,0-.558.259,1.2,1.2,0,0,0-.36.4,1.053,1.053,0,0,0-.127.514,1.233,1.233,0,0,0,.127.589,1.3,1.3,0,0,0,.374.422,2.855,2.855,0,0,0,.6.334q.352.149.8.325a11.131,11.131,0,0,1,1.072.47,3.678,3.678,0,0,1,.809.545,2.129,2.129,0,0,1,.514.7,2.254,2.254,0,0,1,.18.94,2.217,2.217,0,0,1-.294,1.16,2.523,2.523,0,0,1-.787.817,3.6,3.6,0,0,1-1.134.483,5.6,5.6,0,0,1-1.345.158A5.106,5.106,0,0,1,203.218,126.675Zm12.359.237a2.779,2.779,0,0,1-1.345.281q-2.364,0-2.364-2.637V119.23h-1.547V118h1.547v-2.2l1.441-.466V118h2.268v1.23H213.31V124.3a2.1,2.1,0,0,0,.308,1.292,1.228,1.228,0,0,0,1.02.387,1.515,1.515,0,0,0,.94-.3Zm6.62-7.453a1.763,1.763,0,0,0-1.09-.29,1.839,1.839,0,0,0-1.542.87,4.023,4.023,0,0,0-.62,2.373V127H217.5v-9h1.441v1.854h.035a3.143,3.143,0,0,1,.94-1.481,2.144,2.144,0,0,1,1.415-.532,2.353,2.353,0,0,1,.861.123ZM231.041,127H229.6v-1.424h-.035a2.96,2.96,0,0,1-2.777,1.635q-3.217,0-3.217-3.832V118H225v5.15q0,2.848,2.18,2.848a2.205,2.205,0,0,0,1.736-.778,2.976,2.976,0,0,0,.681-2.035V118h1.441Zm3.649-11.285a.913.913,0,0,1-.659-.264.89.89,0,0,1-.272-.668.923.923,0,0,1,.932-.94.931.931,0,0,1,.672.268.939.939,0,0,1,0,1.332A.923.923,0,0,1,234.69,115.715Zm.7,11.285h-1.441v-9h1.441Zm10.6,0h-1.441v-1.529h-.035a3.327,3.327,0,0,1-3.094,1.74A3.362,3.362,0,0,1,238.713,126a4.958,4.958,0,0,1-1.015-3.292,5.394,5.394,0,0,1,1.125-3.577,3.71,3.71,0,0,1,3-1.345,2.885,2.885,0,0,1,2.7,1.459h.035v-5.572h1.441Zm-1.441-4.069V121.6a2.575,2.575,0,0,0-.721-1.846A2.417,2.417,0,0,0,242,119a2.489,2.489,0,0,0-2.074.967,4.237,4.237,0,0,0-.756,2.672,3.81,3.81,0,0,0,.725,2.457,2.37,2.37,0,0,0,1.947.9,2.462,2.462,0,0,0,1.956-.87A3.242,3.242,0,0,0,244.553,122.931Zm8.123,4.28a4.175,4.175,0,0,1-3.186-1.261,4.672,4.672,0,0,1-1.191-3.344,4.867,4.867,0,0,1,1.239-3.542,4.455,4.455,0,0,1,3.349-1.274,4.036,4.036,0,0,1,3.142,1.239,4.914,4.914,0,0,1,1.129,3.437,4.835,4.835,0,0,1-1.217,3.45A4.265,4.265,0,0,1,252.676,127.211Zm.105-8.209a2.742,2.742,0,0,0-2.2.945,3.88,3.88,0,0,0-.809,2.606,3.67,3.67,0,0,0,.817,2.522,2.778,2.778,0,0,0,2.188.923,2.635,2.635,0,0,0,2.149-.905,3.928,3.928,0,0,0,.751-2.575,4,4,0,0,0-.751-2.6A2.623,2.623,0,0,0,252.782,119ZM2.936,152.7H2.9v5.44H1.459V145H2.9v1.582h.035a3.408,3.408,0,0,1,3.111-1.793A3.3,3.3,0,0,1,8.763,146a5.005,5.005,0,0,1,.976,3.239,5.578,5.578,0,0,1-1.1,3.617,3.658,3.658,0,0,1-3.006,1.358A3.011,3.011,0,0,1,2.936,152.7Zm-.035-3.63v1.257a2.676,2.676,0,0,0,.725,1.894A2.408,2.408,0,0,0,5.467,153a2.413,2.413,0,0,0,2.052-1,4.6,4.6,0,0,0,.743-2.786,3.629,3.629,0,0,0-.694-2.355A2.3,2.3,0,0,0,5.687,146a2.554,2.554,0,0,0-2.021.875A3.211,3.211,0,0,0,2.9,149.069Zm12.9,5.142a4.175,4.175,0,0,1-3.186-1.261,4.672,4.672,0,0,1-1.191-3.344,4.867,4.867,0,0,1,1.239-3.542,4.455,4.455,0,0,1,3.349-1.274,4.037,4.037,0,0,1,3.142,1.239,4.914,4.914,0,0,1,1.129,3.437,4.835,4.835,0,0,1-1.217,3.45A4.265,4.265,0,0,1,15.8,154.211ZM15.91,146a2.742,2.742,0,0,0-2.2.945,3.88,3.88,0,0,0-.809,2.606,3.67,3.67,0,0,0,.817,2.522A2.778,2.778,0,0,0,15.91,153a2.635,2.635,0,0,0,2.149-.905,3.928,3.928,0,0,0,.751-2.575,4,4,0,0,0-.751-2.6A2.623,2.623,0,0,0,15.91,146Zm11.375.457a1.763,1.763,0,0,0-1.09-.29,1.839,1.839,0,0,0-1.542.87,4.023,4.023,0,0,0-.62,2.373V154H22.591v-9h1.441v1.854h.035a3.143,3.143,0,0,1,.94-1.481,2.144,2.144,0,0,1,1.415-.532,2.353,2.353,0,0,1,.861.123ZM41.061,154H39.62v-1.424h-.035a2.96,2.96,0,0,1-2.777,1.635q-3.217,0-3.217-3.832V145h1.433v5.15q0,2.848,2.18,2.848a2.205,2.205,0,0,0,1.736-.778,2.976,2.976,0,0,0,.681-2.035V145h1.441Zm10.382,0H50v-5.133Q50,146,47.909,146a2.269,2.269,0,0,0-1.789.813,3.013,3.013,0,0,0-.708,2.052V154H43.972v-9h1.441v1.494h.035a3.248,3.248,0,0,1,2.953-1.705,2.753,2.753,0,0,1,2.259.954,4.248,4.248,0,0,1,.782,2.755Zm8.388-11.285a.913.913,0,0,1-.659-.264.89.89,0,0,1-.272-.668.923.923,0,0,1,.932-.94.931.931,0,0,1,.672.268.939.939,0,0,1,0,1.332A.923.923,0,0,1,59.831,142.715Zm.7,11.285H59.093v-9h1.441Zm10.39,0H69.483v-5.133q0-2.865-2.092-2.865a2.269,2.269,0,0,0-1.789.813,3.013,3.013,0,0,0-.708,2.052V154H63.454v-9H64.9v1.494h.035a3.248,3.248,0,0,1,2.953-1.705,2.753,2.753,0,0,1,2.259.954,4.248,4.248,0,0,1,.782,2.755Zm8.852-.413a4.684,4.684,0,0,1-2.461.624,4.074,4.074,0,0,1-3.107-1.252,4.539,4.539,0,0,1-1.182-3.248,4.99,4.99,0,0,1,1.274-3.573,4.458,4.458,0,0,1,3.4-1.349,4.735,4.735,0,0,1,2.092.439v1.477a3.665,3.665,0,0,0-2.145-.7,2.9,2.9,0,0,0-2.263.989,3.752,3.752,0,0,0-.883,2.6,3.573,3.573,0,0,0,.831,2.5,2.863,2.863,0,0,0,2.228.914,3.613,3.613,0,0,0,2.215-.782Zm9.415-3.727H82.837a3.366,3.366,0,0,0,.809,2.32,2.788,2.788,0,0,0,2.127.817,4.422,4.422,0,0,0,2.795-1v1.354a5.224,5.224,0,0,1-3.138.861,3.8,3.8,0,0,1-3-1.226,5.018,5.018,0,0,1-1.09-3.45,4.921,4.921,0,0,1,1.191-3.423,3.819,3.819,0,0,1,2.958-1.323,3.384,3.384,0,0,1,2.733,1.143,4.764,4.764,0,0,1,.967,3.173Zm-1.477-1.222a2.933,2.933,0,0,0-.6-1.942A2.051,2.051,0,0,0,85.465,146a2.328,2.328,0,0,0-1.731.729,3.31,3.31,0,0,0-.879,1.907ZM98.844,154H97.4v-5.133Q97.4,146,95.311,146a2.269,2.269,0,0,0-1.789.813,3.013,3.013,0,0,0-.708,2.052V154H91.373v-9h1.441v1.494h.035a3.248,3.248,0,0,1,2.953-1.705,2.753,2.753,0,0,1,2.259.954,4.248,4.248,0,0,1,.782,2.755Zm10.4,0H107.8v-1.529h-.035a3.327,3.327,0,0,1-3.094,1.74A3.362,3.362,0,0,1,101.962,153a4.958,4.958,0,0,1-1.015-3.292,5.394,5.394,0,0,1,1.125-3.577,3.71,3.71,0,0,1,3-1.345,2.885,2.885,0,0,1,2.7,1.459h.035v-5.572h1.441Zm-1.441-4.069V148.6a2.575,2.575,0,0,0-.721-1.846,2.417,2.417,0,0,0-1.828-.756,2.489,2.489,0,0,0-2.074.967,4.237,4.237,0,0,0-.756,2.672,3.81,3.81,0,0,0,.725,2.457,2.37,2.37,0,0,0,1.947.9,2.462,2.462,0,0,0,1.956-.87A3.242,3.242,0,0,0,107.8,149.931Zm5.1-7.216a.913.913,0,0,1-.659-.264.89.89,0,0,1-.272-.668.923.923,0,0,1,.932-.94.931.931,0,0,1,.672.268.939.939,0,0,1,0,1.332A.923.923,0,0,1,112.9,142.715ZM113.6,154h-1.441v-9H113.6Zm6.681.211a4.175,4.175,0,0,1-3.186-1.261,4.672,4.672,0,0,1-1.191-3.344,4.867,4.867,0,0,1,1.239-3.542,4.455,4.455,0,0,1,3.349-1.274,4.037,4.037,0,0,1,3.142,1.239,4.914,4.914,0,0,1,1.129,3.437,4.835,4.835,0,0,1-1.217,3.45A4.265,4.265,0,0,1,120.286,154.211Zm.105-8.209a2.742,2.742,0,0,0-2.2.945,3.88,3.88,0,0,0-.809,2.606,3.67,3.67,0,0,0,.817,2.522,2.778,2.778,0,0,0,2.188.923,2.635,2.635,0,0,0,2.149-.905,3.928,3.928,0,0,0,.751-2.575,4,4,0,0,0-.751-2.6A2.623,2.623,0,0,0,120.391,146Zm8,5.994-1.406,4.324h-1.028L126.985,152Zm14.752-2.136h-6.354a3.366,3.366,0,0,0,.809,2.32,2.788,2.788,0,0,0,2.127.817,4.422,4.422,0,0,0,2.795-1v1.354a5.224,5.224,0,0,1-3.138.861,3.8,3.8,0,0,1-3-1.226,5.018,5.018,0,0,1-1.09-3.45,4.921,4.921,0,0,1,1.191-3.423,3.819,3.819,0,0,1,2.958-1.323,3.384,3.384,0,0,1,2.733,1.143,4.764,4.764,0,0,1,.967,3.173Zm-1.477-1.222a2.933,2.933,0,0,0-.6-1.942,2.051,2.051,0,0,0-1.648-.694,2.328,2.328,0,0,0-1.731.729,3.31,3.31,0,0,0-.879,1.907ZM151.9,145l-3.023,4.553L151.846,154h-1.679l-1.767-2.918q-.167-.272-.4-.686h-.035q-.044.079-.413.686l-1.8,2.918h-1.661l3.067-4.412L144.226,145H145.9l1.74,3.076q.193.343.378.7h.035l2.25-3.779Zm5.864,8.912a2.779,2.779,0,0,1-1.345.281q-2.364,0-2.364-2.637V146.23h-1.547V145h1.547v-2.2l1.441-.466V145h2.268v1.23H155.5V151.3a2.1,2.1,0,0,0,.308,1.292,1.228,1.228,0,0,0,1.02.387,1.515,1.515,0,0,0,.94-.3Zm2.665-11.2a.913.913,0,0,1-.659-.264.89.89,0,0,1-.272-.668.923.923,0,0,1,.932-.94.931.931,0,0,1,.672.268.939.939,0,0,1,0,1.332A.923.923,0,0,1,160.428,142.715Zm.7,11.285h-1.441v-9h1.441Zm10.39,0H170.08v-5.133q0-2.865-2.092-2.865a2.269,2.269,0,0,0-1.789.813,3.013,3.013,0,0,0-.708,2.052V154H164.05v-9h1.441v1.494h.035a3.248,3.248,0,0,1,2.953-1.705,2.753,2.753,0,0,1,2.259.954,4.248,4.248,0,0,1,.782,2.755Zm10.4-.721q0,4.957-4.746,4.957a6.372,6.372,0,0,1-2.918-.633v-1.441a5.993,5.993,0,0,0,2.9.844q3.322,0,3.322-3.533v-.984h-.035a3.641,3.641,0,0,1-5.8.523,4.8,4.8,0,0,1-1.024-3.221,5.6,5.6,0,0,1,1.1-3.647,3.685,3.685,0,0,1,3.019-1.354,2.934,2.934,0,0,1,2.7,1.459h.035V145h1.441Zm-1.441-3.349V148.6a2.575,2.575,0,0,0-.725-1.837,2.387,2.387,0,0,0-1.806-.765,2.5,2.5,0,0,0-2.092.971,4.335,4.335,0,0,0-.756,2.72,3.721,3.721,0,0,0,.725,2.4,2.343,2.343,0,0,0,1.92.9,2.509,2.509,0,0,0,1.973-.861A3.21,3.21,0,0,0,180.479,149.931ZM192.118,154h-1.441v-1.424h-.035a2.96,2.96,0,0,1-2.777,1.635q-3.217,0-3.217-3.832V145h1.433v5.15q0,2.848,2.18,2.848A2.205,2.205,0,0,0,190,152.22a2.976,2.976,0,0,0,.681-2.035V145h1.441Zm10.144-4.14h-6.354a3.366,3.366,0,0,0,.809,2.32,2.788,2.788,0,0,0,2.127.817,4.422,4.422,0,0,0,2.795-1v1.354a5.224,5.224,0,0,1-3.138.861,3.8,3.8,0,0,1-3-1.226,5.018,5.018,0,0,1-1.09-3.45,4.921,4.921,0,0,1,1.191-3.423,3.819,3.819,0,0,1,2.958-1.323,3.384,3.384,0,0,1,2.733,1.143,4.764,4.764,0,0,1,.967,3.173Zm-1.477-1.222a2.933,2.933,0,0,0-.6-1.942,2.051,2.051,0,0,0-1.648-.694,2.328,2.328,0,0,0-1.731.729,3.31,3.31,0,0,0-.879,1.907Zm15.824,1.222h-6.354a3.366,3.366,0,0,0,.809,2.32,2.788,2.788,0,0,0,2.127.817,4.422,4.422,0,0,0,2.795-1v1.354a5.224,5.224,0,0,1-3.138.861,3.8,3.8,0,0,1-3-1.226,5.018,5.018,0,0,1-1.09-3.45,4.921,4.921,0,0,1,1.191-3.423,3.819,3.819,0,0,1,2.958-1.323,3.384,3.384,0,0,1,2.733,1.143,4.764,4.764,0,0,1,.967,3.173Zm-1.477-1.222a2.933,2.933,0,0,0-.6-1.942,2.051,2.051,0,0,0-1.648-.694,2.328,2.328,0,0,0-1.731.729,3.31,3.31,0,0,0-.879,1.907Zm5.1,5.361h-1.441V140.676h1.441ZM8.736,181H7.295v-1.424H7.26a2.96,2.96,0,0,1-2.777,1.635q-3.217,0-3.217-3.832V172H2.7v5.15Q2.7,180,4.878,180a2.205,2.205,0,0,0,1.736-.778,2.976,2.976,0,0,0,.681-2.035V172H8.736Zm2.366-.325v-1.547A4.266,4.266,0,0,0,13.7,180q1.9,0,1.9-1.266a1.1,1.1,0,0,0-.163-.611,1.621,1.621,0,0,0-.439-.444,3.383,3.383,0,0,0-.65-.347q-.374-.154-.8-.321a10.357,10.357,0,0,1-1.05-.479,3.173,3.173,0,0,1-.756-.545,2.028,2.028,0,0,1-.457-.69,2.441,2.441,0,0,1-.154-.905,2.15,2.15,0,0,1,.29-1.121,2.572,2.572,0,0,1,.773-.817,3.607,3.607,0,0,1,1.1-.5,4.893,4.893,0,0,1,1.279-.167,5.164,5.164,0,0,1,2.092.4v1.459a4.077,4.077,0,0,0-2.285-.65,2.671,2.671,0,0,0-.729.092,1.786,1.786,0,0,0-.558.259,1.2,1.2,0,0,0-.36.4,1.053,1.053,0,0,0-.127.514,1.233,1.233,0,0,0,.127.589,1.3,1.3,0,0,0,.374.422,2.855,2.855,0,0,0,.6.334q.352.149.8.325a11.131,11.131,0,0,1,1.072.47,3.678,3.678,0,0,1,.809.545,2.129,2.129,0,0,1,.514.7,2.254,2.254,0,0,1,.18.94,2.217,2.217,0,0,1-.294,1.16,2.523,2.523,0,0,1-.787.817,3.6,3.6,0,0,1-1.134.483,5.6,5.6,0,0,1-1.345.158A5.106,5.106,0,0,1,11.1,180.675ZM26.564,181H25.123v-1.424h-.035a2.96,2.96,0,0,1-2.777,1.635q-3.217,0-3.217-3.832V172h1.433v5.15q0,2.848,2.18,2.848a2.205,2.205,0,0,0,1.736-.778,2.976,2.976,0,0,0,.681-2.035V172h1.441Zm7.358-12.059a1.92,1.92,0,0,0-.958-.237q-1.512,0-1.512,1.907V172h2.109v1.23H31.453V181H30.02v-7.77H28.482V172H30.02v-1.459a3.032,3.032,0,0,1,.817-2.237,2.759,2.759,0,0,1,2.039-.822,2.824,2.824,0,0,1,1.046.158Zm5.882,4.518a1.763,1.763,0,0,0-1.09-.29,1.839,1.839,0,0,0-1.542.87,4.023,4.023,0,0,0-.62,2.373V181H35.111v-9h1.441v1.854h.035a3.143,3.143,0,0,1,.94-1.481,2.144,2.144,0,0,1,1.415-.532,2.353,2.353,0,0,1,.861.123ZM48.648,181H47.206v-1.424h-.035a2.96,2.96,0,0,1-2.777,1.635q-3.217,0-3.217-3.832V172H42.61v5.15q0,2.848,2.18,2.848a2.205,2.205,0,0,0,1.736-.778,2.976,2.976,0,0,0,.681-2.035V172h1.441Zm9.046-.413a4.684,4.684,0,0,1-2.461.624,4.074,4.074,0,0,1-3.107-1.252,4.539,4.539,0,0,1-1.182-3.248,4.99,4.99,0,0,1,1.274-3.573,4.458,4.458,0,0,1,3.4-1.349,4.735,4.735,0,0,1,2.092.439v1.477a3.665,3.665,0,0,0-2.145-.7,2.9,2.9,0,0,0-2.263.989,3.752,3.752,0,0,0-.883,2.6,3.573,3.573,0,0,0,.831,2.5,2.863,2.863,0,0,0,2.228.914,3.613,3.613,0,0,0,2.215-.782Zm6.356.325a2.779,2.779,0,0,1-1.345.281q-2.364,0-2.364-2.637V173.23H58.794V172h1.547v-2.2l1.441-.466V172H64.05v1.23H61.782V178.3a2.1,2.1,0,0,0,.308,1.292,1.228,1.228,0,0,0,1.02.387,1.515,1.515,0,0,0,.94-.3Zm5.688.3a4.175,4.175,0,0,1-3.186-1.261,4.672,4.672,0,0,1-1.191-3.344,4.867,4.867,0,0,1,1.239-3.542,4.455,4.455,0,0,1,3.349-1.274,4.037,4.037,0,0,1,3.142,1.239,4.914,4.914,0,0,1,1.129,3.437A4.835,4.835,0,0,1,73,179.915,4.265,4.265,0,0,1,69.738,181.211ZM69.843,173a2.742,2.742,0,0,0-2.2.945,3.88,3.88,0,0,0-.809,2.606,3.67,3.67,0,0,0,.817,2.522,2.778,2.778,0,0,0,2.188.923,2.635,2.635,0,0,0,2.149-.905,3.928,3.928,0,0,0,.751-2.575,4,4,0,0,0-.751-2.6A2.623,2.623,0,0,0,69.843,173Zm11.069,7.673v-1.547a4.266,4.266,0,0,0,2.593.87q1.9,0,1.9-1.266a1.1,1.1,0,0,0-.163-.611,1.62,1.62,0,0,0-.439-.444,3.383,3.383,0,0,0-.65-.347q-.374-.154-.8-.321a10.357,10.357,0,0,1-1.05-.479,3.173,3.173,0,0,1-.756-.545,2.028,2.028,0,0,1-.457-.69,2.441,2.441,0,0,1-.154-.905,2.15,2.15,0,0,1,.29-1.121,2.572,2.572,0,0,1,.773-.817,3.607,3.607,0,0,1,1.1-.5,4.893,4.893,0,0,1,1.279-.167,5.164,5.164,0,0,1,2.092.4v1.459a4.077,4.077,0,0,0-2.285-.65,2.671,2.671,0,0,0-.729.092,1.786,1.786,0,0,0-.558.259,1.2,1.2,0,0,0-.36.4,1.053,1.053,0,0,0-.127.514,1.233,1.233,0,0,0,.127.589,1.3,1.3,0,0,0,.374.422,2.855,2.855,0,0,0,.6.334q.352.149.8.325a11.131,11.131,0,0,1,1.072.47,3.678,3.678,0,0,1,.809.545,2.129,2.129,0,0,1,.514.7,2.254,2.254,0,0,1,.18.94,2.217,2.217,0,0,1-.294,1.16,2.523,2.523,0,0,1-.787.817,3.6,3.6,0,0,1-1.134.483,5.6,5.6,0,0,1-1.345.158A5.106,5.106,0,0,1,80.913,180.675Zm11.946.536a4.175,4.175,0,0,1-3.186-1.261,4.672,4.672,0,0,1-1.191-3.344,4.867,4.867,0,0,1,1.239-3.542,4.455,4.455,0,0,1,3.349-1.274,4.037,4.037,0,0,1,3.142,1.239,4.914,4.914,0,0,1,1.129,3.437,4.835,4.835,0,0,1-1.217,3.45A4.265,4.265,0,0,1,92.859,181.211ZM92.964,173a2.742,2.742,0,0,0-2.2.945,3.88,3.88,0,0,0-.809,2.606,3.67,3.67,0,0,0,.817,2.522,2.778,2.778,0,0,0,2.188.923,2.635,2.635,0,0,0,2.149-.905,3.928,3.928,0,0,0,.751-2.575,4,4,0,0,0-.751-2.6A2.623,2.623,0,0,0,92.964,173Zm8.158,6.7h-.035V181H99.646V167.676h1.441v5.906h.035a3.408,3.408,0,0,1,3.111-1.793A3.3,3.3,0,0,1,106.945,173a4.99,4.99,0,0,1,.98,3.239,5.578,5.578,0,0,1-1.1,3.617,3.658,3.658,0,0,1-3.006,1.358A2.96,2.96,0,0,1,101.122,179.7Zm-.035-3.63v1.257a2.676,2.676,0,0,0,.725,1.894,2.587,2.587,0,0,0,3.894-.224,4.6,4.6,0,0,0,.743-2.786,3.629,3.629,0,0,0-.694-2.355,2.3,2.3,0,0,0-1.881-.853,2.554,2.554,0,0,0-2.021.875A3.211,3.211,0,0,0,101.087,176.069Zm13.836-2.61a1.763,1.763,0,0,0-1.09-.29,1.839,1.839,0,0,0-1.542.87,4.023,4.023,0,0,0-.62,2.373V181h-1.441v-9h1.441v1.854h.035a3.143,3.143,0,0,1,.94-1.481,2.144,2.144,0,0,1,1.415-.532,2.353,2.353,0,0,1,.861.123Zm8.8,3.4h-6.354a3.366,3.366,0,0,0,.809,2.32A2.788,2.788,0,0,0,120.3,180a4.422,4.422,0,0,0,2.795-1v1.354a5.224,5.224,0,0,1-3.138.861,3.8,3.8,0,0,1-3-1.226,5.018,5.018,0,0,1-1.09-3.45,4.921,4.921,0,0,1,1.191-3.423,3.819,3.819,0,0,1,2.958-1.323,3.384,3.384,0,0,1,2.733,1.143,4.764,4.764,0,0,1,.967,3.173Zm-1.477-1.222a2.933,2.933,0,0,0-.6-1.942A2.051,2.051,0,0,0,120,173a2.328,2.328,0,0,0-1.731.729,3.31,3.31,0,0,0-.879,1.907Zm15.824,1.222h-6.354a3.366,3.366,0,0,0,.809,2.32,2.788,2.788,0,0,0,2.127.817,4.422,4.422,0,0,0,2.795-1v1.354a5.224,5.224,0,0,1-3.138.861,3.8,3.8,0,0,1-3-1.226,5.018,5.018,0,0,1-1.09-3.45,4.921,4.921,0,0,1,1.191-3.423,3.819,3.819,0,0,1,2.958-1.323,3.384,3.384,0,0,1,2.733,1.143,4.764,4.764,0,0,1,.967,3.173Zm-1.477-1.222a2.933,2.933,0,0,0-.6-1.942,2.051,2.051,0,0,0-1.648-.694,2.328,2.328,0,0,0-1.731.729,3.31,3.31,0,0,0-.879,1.907Zm-.229-8.227-2.3,2.883h-1.116l1.96-2.883ZM141.693,181h-1.441V167.676h1.441Zm3.421.193a.933.933,0,0,1-.69-.29.955.955,0,0,1-.286-.694.969.969,0,0,1,.286-.7.926.926,0,0,1,.69-.294.95.95,0,0,1,.7.294.962.962,0,0,1,.29.7.947.947,0,0,1-.29.694A.958.958,0,0,1,145.113,181.193Z" transform="translate(826.688 2700.847)" fill="#212429"/>
    <path id="Trazado_978888" data-name="Trazado 978888" d="M250.944,250.945a147,147,0,1,1,0-207.889,147,147,0,0,1,0,207.889" transform="translate(1105 2371.352) rotate(90)" fill="#ba9c5a"/>
    <path id="Trazado_978891" data-name="Trazado 978891" d="M0,0V294a146.538,146.538,0,0,0,103.944-43.055,147,147,0,0,0,0-207.889A146.541,146.541,0,0,0,0,0" transform="translate(1105 2518.352) rotate(90)" fill="#372e1a"/>
    <path id="Trazado_979209" data-name="Trazado 979209" d="M18.439,28V9.795h6.449q9.7,0,9.7,8.874a8.973,8.973,0,0,1-2.647,6.792A9.761,9.761,0,0,1,24.888,28Zm4.1-14.866v11.54h2.031a5.489,5.489,0,0,0,4.183-1.6,6.069,6.069,0,0,0,1.517-4.354,5.506,5.506,0,0,0-1.5-4.094,5.735,5.735,0,0,0-4.221-1.492ZM48.9,22.643h-8.48q.2,2.831,3.567,2.831a6.965,6.965,0,0,0,3.771-1.016v2.895a9.9,9.9,0,0,1-4.685.965,6.594,6.594,0,0,1-4.888-1.746A6.6,6.6,0,0,1,36.441,21.7a6.957,6.957,0,0,1,1.879-5.129,6.26,6.26,0,0,1,4.621-1.892,5.681,5.681,0,0,1,4.4,1.688A6.5,6.5,0,0,1,48.9,20.954Zm-3.72-2.463q0-2.793-2.26-2.793a2.158,2.158,0,0,0-1.669.8,3.63,3.63,0,0,0-.857,1.993Zm5.256,7.478v-3.25a8.541,8.541,0,0,0,1.974.889,6.545,6.545,0,0,0,1.86.292,3.989,3.989,0,0,0,1.682-.292.943.943,0,0,0,.616-.889.822.822,0,0,0-.279-.635,2.6,2.6,0,0,0-.717-.444,8.14,8.14,0,0,0-.958-.343q-.521-.152-1-.343a9.609,9.609,0,0,1-1.365-.628,3.945,3.945,0,0,1-.99-.781,3.069,3.069,0,0,1-.609-1.028,4.1,4.1,0,0,1-.209-1.384,3.562,3.562,0,0,1,.476-1.879,3.889,3.889,0,0,1,1.27-1.289,5.8,5.8,0,0,1,1.815-.736,9.466,9.466,0,0,1,2.126-.235,11.8,11.8,0,0,1,1.752.133,13.076,13.076,0,0,1,1.752.387v3.1a6.33,6.33,0,0,0-1.631-.667,6.882,6.882,0,0,0-1.708-.222,3.783,3.783,0,0,0-.743.07,2.446,2.446,0,0,0-.616.2,1.131,1.131,0,0,0-.419.343.789.789,0,0,0-.152.476.879.879,0,0,0,.229.609,1.985,1.985,0,0,0,.6.438,5.89,5.89,0,0,0,.819.33q.451.146.9.3a11.636,11.636,0,0,1,1.447.609,4.627,4.627,0,0,1,1.111.774,3.041,3.041,0,0,1,.711,1.041,4.165,4.165,0,0,1-.254,3.4,4.015,4.015,0,0,1-1.333,1.333,6.045,6.045,0,0,1-1.917.749,10.627,10.627,0,0,1-2.253.235A11.617,11.617,0,0,1,50.431,27.657Zm20.147.19a5.93,5.93,0,0,1-2.679.47q-4.24,0-4.24-4.405V17.958H61.552V15H63.66V12.194l4-1.143V15h2.92v2.958h-2.92v5.256q0,2.031,1.612,2.031a2.718,2.718,0,0,0,1.308-.368Zm10.74-9.229a3.48,3.48,0,0,0-1.688-.394,2.433,2.433,0,0,0-2.044.958,4.182,4.182,0,0,0-.736,2.609V28H72.839V15H76.85v2.412H76.9a3.47,3.47,0,0,1,3.428-2.641,2.583,2.583,0,0,1,.99.152ZM95.614,28h-4V26.02h-.063a4.537,4.537,0,0,1-3.974,2.3q-4.52,0-4.52-5.472V15h4v7.49q0,2.755,2.184,2.755a2.16,2.16,0,0,0,1.727-.755,3.046,3.046,0,0,0,.647-2.05V15h4Zm13.229-.47a7.932,7.932,0,0,1-3.923.787,6.634,6.634,0,0,1-4.85-1.815,6.27,6.27,0,0,1-1.854-4.685,6.907,6.907,0,0,1,1.987-5.224,7.343,7.343,0,0,1,5.313-1.911,6.817,6.817,0,0,1,3.326.609v3.4a4.573,4.573,0,0,0-2.806-.939,3.7,3.7,0,0,0-2.736,1.009,3.766,3.766,0,0,0-1.009,2.787,3.7,3.7,0,0,0,.965,2.71,3.546,3.546,0,0,0,2.653.984,5.3,5.3,0,0,0,2.933-.939Zm12.479,0a7.932,7.932,0,0,1-3.923.787,6.634,6.634,0,0,1-4.85-1.815,6.27,6.27,0,0,1-1.854-4.685,6.907,6.907,0,0,1,1.987-5.224A7.343,7.343,0,0,1,118,14.683a6.817,6.817,0,0,1,3.326.609v3.4a4.573,4.573,0,0,0-2.806-.939,3.7,3.7,0,0,0-2.736,1.009,3.766,3.766,0,0,0-1.009,2.787,3.7,3.7,0,0,0,.965,2.71,3.546,3.546,0,0,0,2.653.984,5.3,5.3,0,0,0,2.933-.939Zm4.659-14.587a2.343,2.343,0,0,1-1.663-.6,1.943,1.943,0,0,1-.647-1.479,1.874,1.874,0,0,1,.647-1.473,2.716,2.716,0,0,1,3.333,0,1.882,1.882,0,0,1,.641,1.473,1.935,1.935,0,0,1-.641,1.5A2.383,2.383,0,0,1,125.981,12.943ZM127.962,28H123.95V15h4.012Zm9.572.317a6.988,6.988,0,0,1-5.11-1.822,6.6,6.6,0,0,1-1.86-4.945,6.6,6.6,0,0,1,1.93-5.046,7.291,7.291,0,0,1,5.218-1.822A6.9,6.9,0,0,1,142.79,16.5a6.476,6.476,0,0,1,1.841,4.818,6.874,6.874,0,0,1-1.9,5.116A7.066,7.066,0,0,1,137.534,28.317Zm.1-10.562a2.676,2.676,0,0,0-2.209.978,4.311,4.311,0,0,0-.787,2.768q0,3.745,3.021,3.745,2.882,0,2.882-3.847Q140.543,17.755,137.635,17.755Zm4.3-8.912-3.974,4.1h-2.895l3.3-4.1ZM159.776,28h-4V20.776q0-3.021-2.158-3.021a2.141,2.141,0,0,0-1.714.8,3.047,3.047,0,0,0-.673,2.031V28H147.22V15h4.012v2.057h.051a4.6,4.6,0,0,1,4.177-2.374q4.316,0,4.316,5.357ZM54.2,59H50.19V57.21h-.051a4.5,4.5,0,0,1-4.024,2.107,4.929,4.929,0,0,1-3.923-1.72,7.121,7.121,0,0,1-1.485-4.805,7.751,7.751,0,0,1,1.638-5.167,5.342,5.342,0,0,1,4.291-1.942,3.65,3.65,0,0,1,3.5,1.8h.051V39.754H54.2Zm-3.936-6.322V51.7a3.076,3.076,0,0,0-.736-2.107,2.6,2.6,0,0,0-4,.209,4.864,4.864,0,0,0-.749,2.875,4.209,4.209,0,0,0,.724,2.641,2.569,2.569,0,0,0,3.993-.051A4.075,4.075,0,0,0,50.266,52.678Zm18.992.965h-8.48q.2,2.831,3.567,2.831a6.965,6.965,0,0,0,3.771-1.016v2.895a9.9,9.9,0,0,1-4.685.965A6.051,6.051,0,0,1,56.8,52.7a6.957,6.957,0,0,1,1.879-5.129A6.26,6.26,0,0,1,63.3,45.683a5.681,5.681,0,0,1,4.4,1.688,6.5,6.5,0,0,1,1.555,4.583Zm-3.72-2.463q0-2.793-2.26-2.793a2.158,2.158,0,0,0-1.669.8,3.63,3.63,0,0,0-.857,1.993ZM75.657,59H71.645V39.754h4.012Zm14.612-1.511h-.051V59H86.207V39.754h4.012v8.2h.051A4.76,4.76,0,0,1,94.5,45.683a4.639,4.639,0,0,1,3.872,1.727,7.446,7.446,0,0,1,1.358,4.723A8.063,8.063,0,0,1,98.14,57.35a5.169,5.169,0,0,1-4.24,1.968A4.1,4.1,0,0,1,90.269,57.489ZM90.155,52v1.333a3.043,3.043,0,0,0,.724,2.082,2.354,2.354,0,0,0,1.854.825,2.46,2.46,0,0,0,2.126-1.06,5.118,5.118,0,0,0,.755-3,4.072,4.072,0,0,0-.692-2.52,2.335,2.335,0,0,0-1.974-.908,2.55,2.55,0,0,0-2,.9A3.424,3.424,0,0,0,90.155,52Zm14.206-8.062a2.343,2.343,0,0,1-1.663-.6,1.943,1.943,0,0,1-.647-1.479,1.874,1.874,0,0,1,.647-1.473,2.716,2.716,0,0,1,3.333,0,1.882,1.882,0,0,1,.641,1.473,1.935,1.935,0,0,1-.641,1.5A2.383,2.383,0,0,1,104.361,43.943ZM106.341,59H102.33V46h4.012ZM121.4,53.643h-8.48q.2,2.831,3.567,2.831a6.965,6.965,0,0,0,3.771-1.016v2.895a9.9,9.9,0,0,1-4.685.965,6.051,6.051,0,0,1-6.627-6.614,6.957,6.957,0,0,1,1.879-5.129,6.26,6.26,0,0,1,4.621-1.892,5.681,5.681,0,0,1,4.4,1.688,6.5,6.5,0,0,1,1.555,4.583Zm-3.72-2.463q0-2.793-2.26-2.793a2.158,2.158,0,0,0-1.669.8,3.63,3.63,0,0,0-.857,1.993ZM136.34,59h-4V51.776q0-3.021-2.158-3.021a2.141,2.141,0,0,0-1.714.8,3.047,3.047,0,0,0-.673,2.031V59h-4.012V46H127.8v2.057h.051a4.6,4.6,0,0,1,4.177-2.374q4.316,0,4.316,5.357Z" transform="translate(868.659 2559.412)" fill="#fff"/>
    <g id="Grupo_1151852" data-name="Grupo 1151852" transform="translate(915 2402.417)">
      <path id="Trazado_979099" data-name="Trazado 979099" d="M.875,30.665V41.641l42.333-29.79,42.334,29.79V30.665L43.207.875Z" transform="translate(0.668 0.669)" fill="#ef5350"/>
      <path id="Trazado_979100" data-name="Trazado 979100" d="M78.8,33.75,41.171,7.1,3.541,33.75v39.2H78.8Z" transform="translate(2.705 5.422)" fill="#e8eaf6"/>
      <path id="Trazado_979101" data-name="Trazado 979101" d="M3.542,33.75v6.1L41.17,13.368,78.8,39.849v-6.1L41.17,7.1Z" transform="translate(2.705 5.422)" fill="#c5cae9"/>
      <rect id="Rectángulo_408308" data-name="Rectángulo 408308" width="75.258" height="9.407" transform="translate(6.246 68.963)" fill="#c5cae9"/>
      <path id="Trazado_979102" data-name="Trazado 979102" d="M48.085,22.942V.876H35.542v13.24Z" transform="translate(27.149 0.669)" fill="#ef5350"/>
      <rect id="Rectángulo_408309" data-name="Rectángulo 408309" width="23.517" height="34.494" transform="translate(15.654 43.876)" fill="#c17b3f"/>
      <rect id="Rectángulo_408310" data-name="Rectángulo 408310" width="23.517" height="9.407" transform="translate(15.654 68.963)" fill="#a26535"/>
      <g id="Grupo_1151851" data-name="Grupo 1151851" transform="translate(0 0)">
        <g id="Grupo_1151850" data-name="Grupo 1151850" clip-path="url(#clip-path)">
          <path id="Trazado_979103" data-name="Trazado 979103" d="M82.012,44.431H4.4A3.527,3.527,0,0,0,.875,47.959V52.27H85.54V47.959a3.527,3.527,0,0,0-3.528-3.528" transform="translate(0.668 33.94)" fill="#7cb342"/>
          <path id="Trazado_979104" data-name="Trazado 979104" d="M47.732,27.685c2.75-1.535,6.584-1.757,10.419-1.21-5.59-5.586-13.876-6.364-19.468-.778L25.79,38.58a2.2,2.2,0,0,0-.413,2.54l.848,1.7H22.465a2.2,2.2,0,0,0-1.557.644l-4.027,4.023a2.2,2.2,0,0,0,0,3.113L27,60.709a2.2,2.2,0,0,0,3.115,0l4.027-4.023a2.2,2.2,0,0,0,.646-1.556V51.373l1.7.847a2.2,2.2,0,0,0,2.542-.413L50.366,40.48a3.3,3.3,0,0,0,0-4.667l-3.328-3.327a3.034,3.034,0,0,1,.695-4.8" transform="translate(12.401 16.711)" fill="#9fa8da"/>
          <path id="Trazado_979105" data-name="Trazado 979105" d="M16.881,45.05,27,55.165a2.2,2.2,0,0,0,3.115,0l4.027-4.025a2.193,2.193,0,0,0,.646-1.556V45.827l1.7.847a2.206,2.206,0,0,0,2.543-.413L50.366,34.936a3.3,3.3,0,0,0,0-4.669l-1.131-1.131L29.958,47.517a3.374,3.374,0,0,1-4.173.33L17.4,42.286l-.519-.347a2.2,2.2,0,0,0,0,3.111" transform="translate(12.401 22.256)" fill="#7986cb"/>
          <rect id="Rectángulo_408311" data-name="Rectángulo 408311" width="8.807" height="7.705" transform="translate(54.203 65.747) rotate(-44.976)" fill="#7986cb"/>
          <path id="Trazado_979106" data-name="Trazado 979106" d="M64.026,56.124,44.558,36.672a2.2,2.2,0,0,0-3.115,0l-7.787,7.78a2.2,2.2,0,0,0,0,3.113L53.124,67.017a7.706,7.706,0,1,0,10.9-10.894" transform="translate(25.216 27.521)" fill="#ffc23b"/>
          <path id="Trazado_979107" data-name="Trazado 979107" d="M65.868,60.439a7.715,7.715,0,0,1-10.9,0L35.5,40.987a2.17,2.17,0,0,1-.54-.919l-1.3,1.3a2.2,2.2,0,0,0,0,3.111L53.125,63.931A7.7,7.7,0,0,0,66.084,60.2c-.074.079-.139.162-.217.24" transform="translate(25.216 30.607)" fill="#ec9922"/>
          <path id="Trazado_979108" data-name="Trazado 979108" d="M31.327,27.878,26.67,32.535a1.544,1.544,0,0,0,2.184,2.184l4.657-4.657a1.544,1.544,0,0,0-2.184-2.184" transform="translate(20.028 20.95)" fill="#fff"/>
          <path id="Trazado_979109" data-name="Trazado 979109" d="M51.075,50.765l-6.329-6.329a1.544,1.544,0,0,0-2.184,2.184l6.329,6.329a1.544,1.544,0,0,0,2.184-2.184" transform="translate(32.167 33.598)" fill="#fff"/>
          <path id="Trazado_979110" data-name="Trazado 979110" d="M21.864,7.788l-8.509,5.988A1.543,1.543,0,0,0,15.131,16.3l8.509-5.987a1.544,1.544,0,0,0-1.776-2.526" transform="translate(9.701 5.735)" fill="#fff"/>
          <path id="Trazado_979111" data-name="Trazado 979111" d="M16.758,27H12.685a1.543,1.543,0,0,0,0,3.087h4.073a1.543,1.543,0,0,0,0-3.087" transform="translate(8.511 20.624)" fill="#fff"/>
          <path id="Trazado_979112" data-name="Trazado 979112" d="M86.208,43.853a1.541,1.541,0,0,1-.889-.282L43.876,14.407,2.431,43.571A1.543,1.543,0,0,1,0,42.309V31.333A1.545,1.545,0,0,1,.656,30.07L42.989.282a1.538,1.538,0,0,1,1.774,0L87.1,30.07a1.548,1.548,0,0,1,.654,1.263V42.309a1.546,1.546,0,0,1-1.543,1.543M43.876,10.976a1.538,1.538,0,0,1,.887.28l39.9,28.079v-7.2L43.876,3.432,3.087,32.134v7.2l39.9-28.079a1.538,1.538,0,0,1,.887-.28" transform="translate(0 0.001)" fill="#1a237e"/>
          <path id="Trazado_979113" data-name="Trazado 979113" d="M46.876,53.33a1.544,1.544,0,0,1-1.543-1.543V22.875a1.543,1.543,0,1,1,3.087,0V51.787a1.544,1.544,0,0,1-1.543,1.543" transform="translate(34.628 16.295)" fill="#1a237e"/>
          <path id="Trazado_979114" data-name="Trazado 979114" d="M4.21,60.976a1.544,1.544,0,0,1-1.543-1.543v-33.1a1.543,1.543,0,1,1,3.087,0v33.1A1.545,1.545,0,0,1,4.21,60.976" transform="translate(2.037 18.937)" fill="#1a237e"/>
          <path id="Trazado_979115" data-name="Trazado 979115" d="M36.21,16.326a1.544,1.544,0,0,1-1.543-1.543V1.543A1.544,1.544,0,0,1,36.21,0H48.751a1.543,1.543,0,0,1,0,3.087h-11v11.7a1.544,1.544,0,0,1-1.543,1.543" transform="translate(26.481 0.001)" fill="#1a237e"/>
          <path id="Trazado_979116" data-name="Trazado 979116" d="M43.32,21.759a1.544,1.544,0,0,1-1.543-1.543V5.988a1.543,1.543,0,0,1,3.087,0V20.216a1.544,1.544,0,0,1-1.543,1.543" transform="translate(31.912 3.396)" fill="#1a237e"/>
          <path id="Trazado_979117" data-name="Trazado 979117" d="M9.543,61.581A1.544,1.544,0,0,1,8,60.037V25.543A1.544,1.544,0,0,1,9.543,24H33.061A1.543,1.543,0,0,1,34.6,25.543V35.975a1.543,1.543,0,1,1-3.087,0V27.087H11.087V60.037a1.544,1.544,0,0,1-1.543,1.543" transform="translate(6.111 18.333)" fill="#1a237e"/>
          <path id="Trazado_979118" data-name="Trazado 979118" d="M60.43,54.482H1.543A1.544,1.544,0,0,1,0,52.939v-4.7a4.683,4.683,0,0,1,4.68-4.678H62.16a1.543,1.543,0,0,1,0,3.087H4.68a1.594,1.594,0,0,0-1.593,1.591V51.4H60.43a1.543,1.543,0,1,1,0,3.087" transform="translate(0 33.272)" fill="#1a237e"/>
          <path id="Trazado_979119" data-name="Trazado 979119" d="M29.228,63.52a3.74,3.74,0,0,1-2.648-1.094L16.456,52.313a3.753,3.753,0,0,1,0-5.3l4.027-4.025a3.73,3.73,0,0,1,2.649-1.1h1.312a3.737,3.737,0,0,1,.923-3.782L38.261,25.229a15.219,15.219,0,0,1,2.713-2.161,1.544,1.544,0,0,1,1.63,2.623,12.1,12.1,0,0,0-2.162,1.722L27.549,40.3a.654.654,0,0,0-.123.758l.847,1.693a1.543,1.543,0,0,1-1.379,2.233H23.132a.649.649,0,0,0-.466.194L18.639,49.2a.654.654,0,0,0,0,.928L28.762,60.243a.66.66,0,0,0,.933,0l4.027-4.025a.654.654,0,0,0,.192-.464V52a1.543,1.543,0,0,1,2.233-1.379l1.7.847a.657.657,0,0,0,.758-.123l11.34-11.327a1.756,1.756,0,0,0,0-2.485L46.612,34.2a4.517,4.517,0,0,1-1.293-3.847,4.585,4.585,0,0,1,2.327-3.4,14.482,14.482,0,0,1,6.1-1.632,12.613,12.613,0,0,0-3.96-1.2,1.543,1.543,0,0,1,.383-3.062,16.942,16.942,0,0,1,9.745,4.937A1.544,1.544,0,0,1,58.6,28.628c-3.9-.559-7.257-.194-9.449,1.03a1.518,1.518,0,0,0-.774,1.122,1.444,1.444,0,0,0,.418,1.24l3.328,3.323a4.844,4.844,0,0,1,0,6.854L40.786,53.524A3.743,3.743,0,0,1,37,54.443v1.311A3.72,3.72,0,0,1,35.9,58.4l-4.027,4.023a3.741,3.741,0,0,1-2.649,1.094" transform="translate(11.734 16.085)" fill="#1a237e"/>
          <path id="Trazado_979120" data-name="Trazado 979120" d="M31.133,44.516a1.531,1.531,0,0,1-1.09-.452l-8.567-8.556a1.544,1.544,0,0,1,2.182-2.185l8.565,8.558a1.543,1.543,0,0,1-1.09,2.635" transform="translate(16.059 25.11)" fill="#1a237e"/>
          <path id="Trazado_979121" data-name="Trazado 979121" d="M36.847,44.934a1.534,1.534,0,0,1-1.09-.452l-5.45-5.447a1.543,1.543,0,0,1,2.18-2.184l5.45,5.447a1.543,1.543,0,0,1-1.09,2.635" transform="translate(22.803 27.805)" fill="#1a237e"/>
          <path id="Trazado_979122" data-name="Trazado 979122" d="M40.38,41.406a1.534,1.534,0,0,1-1.09-.452l-5.452-5.447a1.543,1.543,0,0,1,2.18-2.184l5.452,5.447a1.543,1.543,0,0,1-1.09,2.635" transform="translate(25.501 25.11)" fill="#1a237e"/>
          <path id="Trazado_979123" data-name="Trazado 979123" d="M59.243,71.464a9.227,9.227,0,0,1-6.542-2.7,1.543,1.543,0,0,1,2.18-2.185A6.163,6.163,0,1,0,63.6,57.868L44.136,38.418a.657.657,0,0,0-.933,0L35.414,46.2a.658.658,0,0,0,0,.928L48.835,60.535a1.543,1.543,0,1,1-2.182,2.184L33.233,49.31a3.751,3.751,0,0,1,0-5.3l7.789-7.78a3.843,3.843,0,0,1,5.3,0L65.784,55.684a9.241,9.241,0,0,1-6.54,15.779" transform="translate(24.549 26.869)" fill="#1a237e"/>
          <path id="Trazado_979124" data-name="Trazado 979124" d="M22.221,25.174A1.543,1.543,0,0,1,21.11,22.56L26,17.488a1.545,1.545,0,0,1,.836-.448l7.045-1.27,3.247-4.754a1.543,1.543,0,1,1,2.549,1.739l-3.612,5.288a1.55,1.55,0,0,1-1,.649l-7.189,1.3L23.332,24.7a1.542,1.542,0,0,1-1.111.473" transform="translate(15.795 7.9)" fill="#1a237e"/>
          <path id="Trazado_979125" data-name="Trazado 979125" d="M27.043,22.566A1.544,1.544,0,0,1,25.5,21.023V15.3a1.543,1.543,0,1,1,3.087,0v5.724a1.544,1.544,0,0,1-1.543,1.543" transform="translate(19.478 10.508)" fill="#1a237e"/>
          <path id="Trazado_979126" data-name="Trazado 979126" d="M43.265,34.952H40.282a1.543,1.543,0,1,1,0-3.087h2.053l1.573-2.977a1.529,1.529,0,0,1,1.538-.811l6.641.753A1.543,1.543,0,0,1,51.74,31.9l-5.595-.637-1.517,2.87a1.544,1.544,0,0,1-1.363.822" transform="translate(29.591 21.439)" fill="#1a237e"/>
        </g>
      </g>
    </g>
  </g>
</svg>
