<svg xmlns="http://www.w3.org/2000/svg" xmlns:xlink="http://www.w3.org/1999/xlink" width="295" height="674.596" viewBox="0 0 295 674.596">
  <defs>
    <clipPath id="clip-path">
      <rect id="Rectángulo_408316" data-name="Rectángulo 408316" width="91.574" height="91.572" fill="none"/>
    </clipPath>
  </defs>
  <g id="Grupo_1151866" data-name="Grupo 1151866" transform="translate(-1125.001 -2370.949)">
    <path id="Trazado_979210" data-name="Trazado 979210" d="M0,0H295V528H0Z" transform="translate(1125.001 2517.545)" fill="#eef0f3"/>
    <path id="Trazado_979211" data-name="Trazado 979211" d="M8.332,19H1.652V6.4h6.4V7.732H3.129v4.192H7.682v1.327H3.129v4.412h5.2Zm3.676,0H10.566V5.676h1.441Zm15.13,0H25.7V17.576h-.035a2.96,2.96,0,0,1-2.777,1.635q-3.217,0-3.217-3.832V10H21.1v5.15Q21.1,18,23.279,18a2.205,2.205,0,0,0,1.736-.778,2.976,2.976,0,0,0,.681-2.035V10h1.441Zm2.366-.325V17.128A4.266,4.266,0,0,0,32.1,18q1.9,0,1.9-1.266a1.1,1.1,0,0,0-.163-.611,1.62,1.62,0,0,0-.439-.444,3.383,3.383,0,0,0-.65-.347q-.374-.154-.8-.321a10.357,10.357,0,0,1-1.05-.479,3.173,3.173,0,0,1-.756-.545,2.028,2.028,0,0,1-.457-.69,2.441,2.441,0,0,1-.154-.905,2.15,2.15,0,0,1,.29-1.121,2.572,2.572,0,0,1,.773-.817,3.607,3.607,0,0,1,1.1-.5,4.893,4.893,0,0,1,1.279-.167,5.164,5.164,0,0,1,2.092.4v1.459A4.077,4.077,0,0,0,32.773,11a2.671,2.671,0,0,0-.729.092,1.786,1.786,0,0,0-.558.259,1.2,1.2,0,0,0-.36.4,1.053,1.053,0,0,0-.127.514,1.233,1.233,0,0,0,.127.589,1.3,1.3,0,0,0,.374.422,2.855,2.855,0,0,0,.6.334q.352.149.8.325a11.131,11.131,0,0,1,1.072.47,3.678,3.678,0,0,1,.809.545,2.129,2.129,0,0,1,.514.7,2.254,2.254,0,0,1,.18.94,2.217,2.217,0,0,1-.294,1.16,2.523,2.523,0,0,1-.787.817,3.6,3.6,0,0,1-1.134.483,5.6,5.6,0,0,1-1.345.158A5.106,5.106,0,0,1,29.5,18.675ZM44.965,19H43.524V17.576h-.035a2.96,2.96,0,0,1-2.777,1.635q-3.217,0-3.217-3.832V10h1.433v5.15q0,2.848,2.18,2.848a2.205,2.205,0,0,0,1.736-.778,2.976,2.976,0,0,0,.681-2.035V10h1.441ZM52.323,6.941a1.92,1.92,0,0,0-.958-.237q-1.512,0-1.512,1.907V10h2.109v1.23H49.854V19H48.421V11.23H46.883V10h1.538V8.541A3.032,3.032,0,0,1,49.238,6.3a2.759,2.759,0,0,1,2.039-.822,2.824,2.824,0,0,1,1.046.158ZM58.2,11.459a1.763,1.763,0,0,0-1.09-.29,1.839,1.839,0,0,0-1.542.87,4.023,4.023,0,0,0-.62,2.373V19H53.512V10h1.441v1.854h.035a3.143,3.143,0,0,1,.94-1.481,2.144,2.144,0,0,1,1.415-.532,2.353,2.353,0,0,1,.861.123ZM67.049,19H65.607V17.576h-.035a2.96,2.96,0,0,1-2.777,1.635q-3.217,0-3.217-3.832V10H61.01v5.15Q61.01,18,63.19,18a2.205,2.205,0,0,0,1.736-.778,2.976,2.976,0,0,0,.681-2.035V10h1.441Zm9.046-.413a4.684,4.684,0,0,1-2.461.624,4.074,4.074,0,0,1-3.107-1.252,4.539,4.539,0,0,1-1.182-3.248,4.99,4.99,0,0,1,1.274-3.573,4.458,4.458,0,0,1,3.4-1.349,4.735,4.735,0,0,1,2.092.439v1.477a3.665,3.665,0,0,0-2.145-.7,2.9,2.9,0,0,0-2.263.989,3.752,3.752,0,0,0-.883,2.6,3.573,3.573,0,0,0,.831,2.5A2.863,2.863,0,0,0,73.879,18a3.613,3.613,0,0,0,2.215-.782Zm6.356.325a2.779,2.779,0,0,1-1.345.281q-2.364,0-2.364-2.637V11.23H77.195V10h1.547V7.8l1.441-.466V10h2.268v1.23H80.183V16.3a2.1,2.1,0,0,0,.308,1.292,1.228,1.228,0,0,0,1.02.387,1.515,1.515,0,0,0,.94-.3Zm9.2.088H90.213V17.576h-.035A2.96,2.96,0,0,1,87.4,19.211q-3.217,0-3.217-3.832V10h1.433v5.15Q85.616,18,87.8,18a2.205,2.205,0,0,0,1.736-.778,2.976,2.976,0,0,0,.681-2.035V10h1.441Zm9.353,0H99.567V17.594h-.035a3.018,3.018,0,0,1-2.769,1.617,2.959,2.959,0,0,1-2.1-.712,2.466,2.466,0,0,1-.76-1.89q0-2.522,2.971-2.936l2.7-.378Q99.567,11,97.712,11a4.431,4.431,0,0,0-2.936,1.107V10.633a5.577,5.577,0,0,1,3.059-.844q3.173,0,3.173,3.357Zm-1.441-4.553-2.171.3a3.525,3.525,0,0,0-1.512.5,1.432,1.432,0,0,0-.51,1.261,1.374,1.374,0,0,0,.47,1.077A1.817,1.817,0,0,0,97.1,18a2.314,2.314,0,0,0,1.771-.751,2.685,2.685,0,0,0,.7-1.9Zm8.852-2.988a1.763,1.763,0,0,0-1.09-.29,1.839,1.839,0,0,0-1.542.87,4.023,4.023,0,0,0-.62,2.373V19h-1.441V10h1.441v1.854h.035a3.143,3.143,0,0,1,.94-1.481,2.144,2.144,0,0,1,1.415-.532,2.353,2.353,0,0,1,.861.123Zm2.3-3.744a.913.913,0,0,1-.659-.264.89.89,0,0,1-.272-.668.923.923,0,0,1,.932-.94.931.931,0,0,1,.672.268.939.939,0,0,1,0,1.332A.923.923,0,0,1,110.723,7.715Zm.7,11.285h-1.441V10h1.441Zm6.681.211a4.175,4.175,0,0,1-3.186-1.261,4.672,4.672,0,0,1-1.191-3.344,4.867,4.867,0,0,1,1.239-3.542,4.455,4.455,0,0,1,3.349-1.274,4.037,4.037,0,0,1,3.142,1.239,4.914,4.914,0,0,1,1.129,3.437,4.835,4.835,0,0,1-1.217,3.45A4.265,4.265,0,0,1,118.108,19.211ZM118.214,11a2.742,2.742,0,0,0-2.2.945,3.88,3.88,0,0,0-.809,2.606,3.67,3.67,0,0,0,.817,2.522,2.778,2.778,0,0,0,2.188.923,2.635,2.635,0,0,0,2.149-.905,3.928,3.928,0,0,0,.751-2.575,4,4,0,0,0-.751-2.6A2.623,2.623,0,0,0,118.214,11ZM131.3,17.7h-.035v5.44h-1.441V10h1.441v1.582h.035a3.408,3.408,0,0,1,3.111-1.793A3.3,3.3,0,0,1,137.131,11a5.005,5.005,0,0,1,.976,3.239,5.578,5.578,0,0,1-1.1,3.617A3.658,3.658,0,0,1,134,19.211,3.011,3.011,0,0,1,131.3,17.7Zm-.035-3.63v1.257a2.676,2.676,0,0,0,.725,1.894A2.587,2.587,0,0,0,135.888,17a4.6,4.6,0,0,0,.743-2.786,3.629,3.629,0,0,0-.694-2.355A2.3,2.3,0,0,0,134.055,11a2.554,2.554,0,0,0-2.021.875A3.211,3.211,0,0,0,131.269,14.069ZM147.689,19h-1.441V17.576h-.035a2.96,2.96,0,0,1-2.777,1.635q-3.217,0-3.217-3.832V10h1.433v5.15q0,2.848,2.18,2.848a2.205,2.205,0,0,0,1.736-.778,2.976,2.976,0,0,0,.681-2.035V10h1.441Zm10.144-4.14h-6.354a3.366,3.366,0,0,0,.809,2.32,2.788,2.788,0,0,0,2.127.817,4.422,4.422,0,0,0,2.795-1V18.35a5.224,5.224,0,0,1-3.138.861,3.8,3.8,0,0,1-3-1.226,5.018,5.018,0,0,1-1.09-3.45,4.921,4.921,0,0,1,1.191-3.423,3.819,3.819,0,0,1,2.958-1.323,3.384,3.384,0,0,1,2.733,1.143,4.764,4.764,0,0,1,.967,3.173Zm-1.477-1.222a2.933,2.933,0,0,0-.6-1.942A2.051,2.051,0,0,0,154.106,11a2.328,2.328,0,0,0-1.731.729,3.31,3.31,0,0,0-.879,1.907ZM167.7,19h-1.441V17.471h-.035a3.327,3.327,0,0,1-3.094,1.74A3.362,3.362,0,0,1,160.414,18a4.958,4.958,0,0,1-1.015-3.292,5.394,5.394,0,0,1,1.125-3.577,3.71,3.71,0,0,1,3-1.345,2.885,2.885,0,0,1,2.7,1.459h.035V5.676H167.7Zm-1.441-4.069V13.6a2.575,2.575,0,0,0-.721-1.846A2.417,2.417,0,0,0,163.706,11a2.489,2.489,0,0,0-2.074.967,4.237,4.237,0,0,0-.756,2.672A3.81,3.81,0,0,0,161.6,17.1a2.37,2.37,0,0,0,1.947.9,2.462,2.462,0,0,0,1.956-.87A3.242,3.242,0,0,0,166.255,14.931Zm11.595-.07h-6.354a3.366,3.366,0,0,0,.809,2.32A2.788,2.788,0,0,0,174.43,18a4.422,4.422,0,0,0,2.795-1V18.35a5.224,5.224,0,0,1-3.138.861,3.8,3.8,0,0,1-3-1.226,5.018,5.018,0,0,1-1.09-3.45,4.921,4.921,0,0,1,1.191-3.423,3.819,3.819,0,0,1,2.958-1.323,3.384,3.384,0,0,1,2.733,1.143,4.764,4.764,0,0,1,.967,3.173Zm-1.477-1.222a2.933,2.933,0,0,0-.6-1.942A2.051,2.051,0,0,0,174.123,11a2.328,2.328,0,0,0-1.731.729,3.31,3.31,0,0,0-.879,1.907Zm13.284-2.18a1.763,1.763,0,0,0-1.09-.29,1.839,1.839,0,0,0-1.542.87,4.023,4.023,0,0,0-.62,2.373V19h-1.441V10H186.4v1.854h.035a3.143,3.143,0,0,1,.94-1.481,2.144,2.144,0,0,1,1.415-.532,2.353,2.353,0,0,1,.861.123Zm8.8,3.4H192.1a3.366,3.366,0,0,0,.809,2.32,2.788,2.788,0,0,0,2.127.817,4.422,4.422,0,0,0,2.795-1V18.35a5.224,5.224,0,0,1-3.138.861,3.8,3.8,0,0,1-3-1.226,5.018,5.018,0,0,1-1.09-3.45,4.921,4.921,0,0,1,1.191-3.423,3.819,3.819,0,0,1,2.958-1.323,3.384,3.384,0,0,1,2.733,1.143,4.764,4.764,0,0,1,.967,3.173Zm-1.477-1.222a2.933,2.933,0,0,0-.6-1.942A2.051,2.051,0,0,0,194.73,11a2.328,2.328,0,0,0-1.731.729,3.31,3.31,0,0,0-.879,1.907ZM208.108,19h-1.441V13.867q0-2.865-2.092-2.865a2.269,2.269,0,0,0-1.789.813,3.013,3.013,0,0,0-.708,2.052V19h-1.441V10h1.441v1.494h.035a3.248,3.248,0,0,1,2.953-1.705,2.753,2.753,0,0,1,2.259.954,4.248,4.248,0,0,1,.782,2.755Zm9.995,0h-1.441V17.576h-.035a2.96,2.96,0,0,1-2.777,1.635q-3.217,0-3.217-3.832V10h1.433v5.15q0,2.848,2.18,2.848a2.205,2.205,0,0,0,1.736-.778,2.976,2.976,0,0,0,.681-2.035V10H218.1Zm10.382,0h-1.441V13.867q0-2.865-2.092-2.865a2.269,2.269,0,0,0-1.789.813,3.013,3.013,0,0,0-.708,2.052V19h-1.441V10h1.441v1.494h.035a3.248,3.248,0,0,1,2.953-1.705,2.753,2.753,0,0,1,2.259.954,4.248,4.248,0,0,1,.782,2.755Zm8.852-.413a4.684,4.684,0,0,1-2.461.624,4.074,4.074,0,0,1-3.107-1.252,4.539,4.539,0,0,1-1.182-3.248,4.99,4.99,0,0,1,1.274-3.573,4.458,4.458,0,0,1,3.4-1.349,4.735,4.735,0,0,1,2.092.439v1.477a3.665,3.665,0,0,0-2.145-.7,2.9,2.9,0,0,0-2.263.989,3.752,3.752,0,0,0-.883,2.6,3.573,3.573,0,0,0,.831,2.5,2.863,2.863,0,0,0,2.228.914,3.613,3.613,0,0,0,2.215-.782Zm2.92-10.872a.913.913,0,0,1-.659-.264.89.89,0,0,1-.272-.668.923.923,0,0,1,.932-.94.931.931,0,0,1,.672.268.939.939,0,0,1,0,1.332A.923.923,0,0,1,240.257,7.715ZM240.96,19h-1.441V10h1.441Zm9.362,0h-1.441V17.594h-.035a3.018,3.018,0,0,1-2.769,1.617,2.959,2.959,0,0,1-2.1-.712,2.466,2.466,0,0,1-.76-1.89q0-2.522,2.971-2.936l2.7-.378q0-2.294-1.854-2.294a4.431,4.431,0,0,0-2.936,1.107V10.633a5.577,5.577,0,0,1,3.059-.844q3.173,0,3.173,3.357Zm-1.441-4.553-2.171.3a3.525,3.525,0,0,0-1.512.5,1.432,1.432,0,0,0-.51,1.261,1.374,1.374,0,0,0,.47,1.077,1.817,1.817,0,0,0,1.252.417,2.314,2.314,0,0,0,1.771-.751,2.685,2.685,0,0,0,.7-1.9Zm8.852-2.988a1.763,1.763,0,0,0-1.09-.29,1.839,1.839,0,0,0-1.542.87,4.023,4.023,0,0,0-.62,2.373V19H253.04V10h1.441v1.854h.035a3.143,3.143,0,0,1,.94-1.481,2.144,2.144,0,0,1,1.415-.532,2.353,2.353,0,0,1,.861.123ZM7.9,46H6.46V44.594H6.425a3.018,3.018,0,0,1-2.769,1.617,2.959,2.959,0,0,1-2.1-.712,2.466,2.466,0,0,1-.76-1.89q0-2.522,2.971-2.936l2.7-.378Q6.46,38,4.605,38A4.431,4.431,0,0,0,1.67,39.109V37.633a5.577,5.577,0,0,1,3.059-.844q3.173,0,3.173,3.357ZM6.46,41.447l-2.171.3a3.525,3.525,0,0,0-1.512.5,1.432,1.432,0,0,0-.51,1.261,1.374,1.374,0,0,0,.47,1.077A1.817,1.817,0,0,0,3.99,45a2.314,2.314,0,0,0,1.771-.751,2.685,2.685,0,0,0,.7-1.9Zm8.547,4.228V44.128A4.266,4.266,0,0,0,17.6,45q1.9,0,1.9-1.266a1.1,1.1,0,0,0-.163-.611,1.62,1.62,0,0,0-.439-.444,3.383,3.383,0,0,0-.65-.347q-.374-.154-.8-.321a10.357,10.357,0,0,1-1.05-.479,3.173,3.173,0,0,1-.756-.545,2.028,2.028,0,0,1-.457-.69,2.441,2.441,0,0,1-.154-.905,2.15,2.15,0,0,1,.29-1.121,2.572,2.572,0,0,1,.773-.817,3.607,3.607,0,0,1,1.1-.5,4.893,4.893,0,0,1,1.279-.167,5.164,5.164,0,0,1,2.092.4v1.459A4.077,4.077,0,0,0,18.276,38a2.671,2.671,0,0,0-.729.092,1.786,1.786,0,0,0-.558.259,1.2,1.2,0,0,0-.36.4,1.053,1.053,0,0,0-.127.514,1.233,1.233,0,0,0,.127.589,1.3,1.3,0,0,0,.374.422,2.855,2.855,0,0,0,.6.334q.352.149.8.325a11.131,11.131,0,0,1,1.072.47,3.678,3.678,0,0,1,.809.545,2.129,2.129,0,0,1,.514.7,2.254,2.254,0,0,1,.18.94,2.217,2.217,0,0,1-.294,1.16,2.523,2.523,0,0,1-.787.817,3.6,3.6,0,0,1-1.134.483,5.6,5.6,0,0,1-1.345.158A5.106,5.106,0,0,1,15.007,45.675ZM30.468,46H29.027V44.576h-.035a2.96,2.96,0,0,1-2.777,1.635Q23,46.211,23,42.379V37H24.43v5.15Q24.43,45,26.61,45a2.205,2.205,0,0,0,1.736-.778,2.976,2.976,0,0,0,.681-2.035V37h1.441Zm15.525,0H44.552V44.471h-.035a3.327,3.327,0,0,1-3.094,1.74A3.362,3.362,0,0,1,38.712,45,4.958,4.958,0,0,1,37.7,41.711a5.394,5.394,0,0,1,1.125-3.577,3.71,3.71,0,0,1,3-1.345,2.885,2.885,0,0,1,2.7,1.459h.035V32.676h1.441Zm-1.441-4.069V40.6a2.575,2.575,0,0,0-.721-1.846A2.417,2.417,0,0,0,42,38a2.489,2.489,0,0,0-2.074.967,4.237,4.237,0,0,0-.756,2.672A3.81,3.81,0,0,0,39.9,44.1a2.37,2.37,0,0,0,1.947.9,2.462,2.462,0,0,0,1.956-.87A3.242,3.242,0,0,0,44.552,41.931Zm11.595-.07H49.792a3.366,3.366,0,0,0,.809,2.32A2.788,2.788,0,0,0,52.728,45a4.422,4.422,0,0,0,2.795-1V45.35a5.224,5.224,0,0,1-3.138.861,3.8,3.8,0,0,1-3-1.226,5.018,5.018,0,0,1-1.09-3.45,4.921,4.921,0,0,1,1.191-3.423,3.819,3.819,0,0,1,2.958-1.323,3.384,3.384,0,0,1,2.733,1.143,4.764,4.764,0,0,1,.967,3.173ZM54.67,40.639a2.933,2.933,0,0,0-.6-1.942A2.051,2.051,0,0,0,52.42,38a2.328,2.328,0,0,0-1.731.729,3.31,3.31,0,0,0-.879,1.907Zm8.351-2.18a1.763,1.763,0,0,0-1.09-.29,1.839,1.839,0,0,0-1.542.87,4.023,4.023,0,0,0-.62,2.373V46H58.328V37h1.441v1.854H59.8a3.143,3.143,0,0,1,.94-1.481,2.144,2.144,0,0,1,1.415-.532,2.353,2.353,0,0,1,.861.123Zm8.8,3.4H65.467a3.366,3.366,0,0,0,.809,2.32A2.788,2.788,0,0,0,68.4,45,4.422,4.422,0,0,0,71.2,44V45.35a5.224,5.224,0,0,1-3.138.861,3.8,3.8,0,0,1-3-1.226,5.018,5.018,0,0,1-1.09-3.45,4.921,4.921,0,0,1,1.191-3.423,3.819,3.819,0,0,1,2.958-1.323,3.384,3.384,0,0,1,2.733,1.143,4.764,4.764,0,0,1,.967,3.173Zm-1.477-1.222a2.933,2.933,0,0,0-.6-1.942A2.051,2.051,0,0,0,68.094,38a2.328,2.328,0,0,0-1.731.729,3.31,3.31,0,0,0-.879,1.907Zm9.793,4.948a4.684,4.684,0,0,1-2.461.624,4.074,4.074,0,0,1-3.107-1.252,4.539,4.539,0,0,1-1.182-3.248,4.99,4.99,0,0,1,1.274-3.573,4.458,4.458,0,0,1,3.4-1.349,4.735,4.735,0,0,1,2.092.439v1.477A3.665,3.665,0,0,0,78.01,38a2.9,2.9,0,0,0-2.263.989,3.752,3.752,0,0,0-.883,2.6,3.573,3.573,0,0,0,.831,2.5A2.863,2.863,0,0,0,77.922,45a3.613,3.613,0,0,0,2.215-.782ZM89.789,46H88.348V40.814Q88.348,38,86.256,38a2.28,2.28,0,0,0-1.775.813A3.03,3.03,0,0,0,83.76,40.9V46H82.319V32.676H83.76v5.818H83.8a3.273,3.273,0,0,1,2.953-1.705q3.041,0,3.041,3.665Zm6.479.211a4.175,4.175,0,0,1-3.186-1.261,4.672,4.672,0,0,1-1.191-3.344,4.867,4.867,0,0,1,1.239-3.542,4.455,4.455,0,0,1,3.349-1.274,4.037,4.037,0,0,1,3.142,1.239,4.914,4.914,0,0,1,1.129,3.437,4.835,4.835,0,0,1-1.217,3.45A4.265,4.265,0,0,1,96.269,46.211ZM96.374,38a2.742,2.742,0,0,0-2.2.945,3.88,3.88,0,0,0-.809,2.606,3.67,3.67,0,0,0,.817,2.522A2.778,2.778,0,0,0,96.374,45a2.635,2.635,0,0,0,2.149-.905,3.928,3.928,0,0,0,.751-2.575,4,4,0,0,0-.751-2.6A2.623,2.623,0,0,0,96.374,38Zm8,5.994-1.406,4.324H101.94L102.968,44Zm14.989,2h-1.441V40.814q0-2.812-2.092-2.812a2.28,2.28,0,0,0-1.775.813,3.03,3.03,0,0,0-.721,2.087V46h-1.441V32.676h1.441v5.818h.035a3.273,3.273,0,0,1,2.953-1.705q3.041,0,3.041,3.665Zm9.16,0h-1.441V44.594h-.035a3.018,3.018,0,0,1-2.769,1.617,2.959,2.959,0,0,1-2.1-.712,2.466,2.466,0,0,1-.76-1.89q0-2.522,2.971-2.936l2.7-.378q0-2.294-1.854-2.294a4.431,4.431,0,0,0-2.936,1.107V37.633a5.577,5.577,0,0,1,3.059-.844q3.173,0,3.173,3.357Zm-1.441-4.553-2.171.3a3.525,3.525,0,0,0-1.512.5,1.432,1.432,0,0,0-.51,1.261,1.374,1.374,0,0,0,.47,1.077,1.817,1.817,0,0,0,1.252.417,2.314,2.314,0,0,0,1.771-.751,2.685,2.685,0,0,0,.7-1.9Zm10.294,4.14a4.684,4.684,0,0,1-2.461.624,4.074,4.074,0,0,1-3.107-1.252,4.539,4.539,0,0,1-1.182-3.248,4.99,4.99,0,0,1,1.274-3.573,4.458,4.458,0,0,1,3.4-1.349,4.735,4.735,0,0,1,2.092.439v1.477a3.665,3.665,0,0,0-2.145-.7,2.9,2.9,0,0,0-2.263.989,3.752,3.752,0,0,0-.883,2.6,3.573,3.573,0,0,0,.831,2.5,2.863,2.863,0,0,0,2.228.914,3.613,3.613,0,0,0,2.215-.782Zm2.92-10.872a.913.913,0,0,1-.659-.264.89.89,0,0,1-.272-.668.923.923,0,0,1,.932-.94.931.931,0,0,1,.672.268.939.939,0,0,1,0,1.332A.923.923,0,0,1,140.3,34.715ZM141,46h-1.441V37H141Zm10.153-4.14H144.8a3.366,3.366,0,0,0,.809,2.32,2.788,2.788,0,0,0,2.127.817,4.422,4.422,0,0,0,2.795-1V45.35a5.224,5.224,0,0,1-3.138.861,3.8,3.8,0,0,1-3-1.226,5.018,5.018,0,0,1-1.09-3.45,4.921,4.921,0,0,1,1.191-3.423,3.819,3.819,0,0,1,2.958-1.323,3.384,3.384,0,0,1,2.733,1.143,4.764,4.764,0,0,1,.967,3.173Zm-1.477-1.222a2.933,2.933,0,0,0-.6-1.942A2.051,2.051,0,0,0,147.425,38a2.328,2.328,0,0,0-1.731.729,3.31,3.31,0,0,0-.879,1.907ZM160.8,46h-1.441V40.867q0-2.865-2.092-2.865a2.269,2.269,0,0,0-1.789.813,3.013,3.013,0,0,0-.708,2.052V46h-1.441V37h1.441v1.494h.035a3.248,3.248,0,0,1,2.953-1.705,2.753,2.753,0,0,1,2.259.954A4.248,4.248,0,0,1,160.8,40.5Zm10.4,0h-1.441V44.471h-.035a3.327,3.327,0,0,1-3.094,1.74A3.362,3.362,0,0,1,163.921,45a4.958,4.958,0,0,1-1.015-3.292,5.394,5.394,0,0,1,1.125-3.577,3.71,3.71,0,0,1,3-1.345,2.885,2.885,0,0,1,2.7,1.459h.035V32.676H171.2Zm-1.441-4.069V40.6a2.575,2.575,0,0,0-.721-1.846A2.417,2.417,0,0,0,167.213,38a2.489,2.489,0,0,0-2.074.967,4.237,4.237,0,0,0-.756,2.672,3.81,3.81,0,0,0,.725,2.457,2.37,2.37,0,0,0,1.947.9,2.462,2.462,0,0,0,1.956-.87A3.242,3.242,0,0,0,169.762,41.931Zm8.123,4.28A4.175,4.175,0,0,1,174.7,44.95a4.672,4.672,0,0,1-1.191-3.344,4.867,4.867,0,0,1,1.239-3.542,4.455,4.455,0,0,1,3.349-1.274,4.037,4.037,0,0,1,3.142,1.239,4.914,4.914,0,0,1,1.129,3.437,4.835,4.835,0,0,1-1.217,3.45A4.265,4.265,0,0,1,177.884,46.211ZM177.99,38a2.742,2.742,0,0,0-2.2.945,3.88,3.88,0,0,0-.809,2.606,3.67,3.67,0,0,0,.817,2.522A2.778,2.778,0,0,0,177.99,45a2.635,2.635,0,0,0,2.149-.905,3.928,3.928,0,0,0,.751-2.575,4,4,0,0,0-.751-2.6A2.623,2.623,0,0,0,177.99,38Zm19.3,12.138h-1.441V44.453h-.035a3.225,3.225,0,0,1-3.076,1.758A3.387,3.387,0,0,1,190.013,45a4.929,4.929,0,0,1-1.024-3.292,5.39,5.39,0,0,1,1.125-3.582,3.744,3.744,0,0,1,3.023-1.34,2.838,2.838,0,0,1,2.672,1.459h.035V37h1.441Zm-1.441-8.191v-1.31a2.619,2.619,0,0,0-.725-1.872A2.428,2.428,0,0,0,193.278,38a2.475,2.475,0,0,0-2.057.962,4.3,4.3,0,0,0-.756,2.711,3.721,3.721,0,0,0,.729,2.439,2.328,2.328,0,0,0,1.881.883,2.536,2.536,0,0,0,2.017-.866A3.212,3.212,0,0,0,195.844,41.948ZM207.483,46h-1.441V44.576h-.035a2.96,2.96,0,0,1-2.777,1.635q-3.217,0-3.217-3.832V37h1.433v5.15q0,2.848,2.18,2.848a2.205,2.205,0,0,0,1.736-.778,2.976,2.976,0,0,0,.681-2.035V37h1.441Zm10.144-4.14h-6.354a3.366,3.366,0,0,0,.809,2.32,2.788,2.788,0,0,0,2.127.817A4.422,4.422,0,0,0,217,44V45.35a5.224,5.224,0,0,1-3.138.861,3.8,3.8,0,0,1-3-1.226,5.018,5.018,0,0,1-1.09-3.45,4.921,4.921,0,0,1,1.191-3.423,3.819,3.819,0,0,1,2.958-1.323,3.384,3.384,0,0,1,2.733,1.143,4.764,4.764,0,0,1,.967,3.173Zm-1.477-1.222a2.933,2.933,0,0,0-.6-1.942A2.051,2.051,0,0,0,213.9,38a2.328,2.328,0,0,0-1.731.729,3.31,3.31,0,0,0-.879,1.907Zm15.824,1.222H225.62a3.366,3.366,0,0,0,.809,2.32,2.788,2.788,0,0,0,2.127.817,4.422,4.422,0,0,0,2.795-1V45.35a5.224,5.224,0,0,1-3.138.861,3.8,3.8,0,0,1-3-1.226,5.018,5.018,0,0,1-1.09-3.45,4.921,4.921,0,0,1,1.191-3.423,3.819,3.819,0,0,1,2.958-1.323,3.384,3.384,0,0,1,2.733,1.143,4.764,4.764,0,0,1,.967,3.173ZM230.5,40.639a2.933,2.933,0,0,0-.6-1.942A2.051,2.051,0,0,0,228.248,38a2.328,2.328,0,0,0-1.731.729,3.31,3.31,0,0,0-.879,1.907ZM235.6,46h-1.441V32.676H235.6ZM2.936,71.7H2.9V73H1.459V59.676H2.9v5.906h.035a3.408,3.408,0,0,1,3.111-1.793A3.3,3.3,0,0,1,8.758,65a4.99,4.99,0,0,1,.98,3.239,5.578,5.578,0,0,1-1.1,3.617,3.658,3.658,0,0,1-3.006,1.358A2.96,2.96,0,0,1,2.936,71.7ZM2.9,68.069v1.257a2.676,2.676,0,0,0,.725,1.894A2.408,2.408,0,0,0,5.467,72a2.413,2.413,0,0,0,2.052-1,4.6,4.6,0,0,0,.743-2.786,3.629,3.629,0,0,0-.694-2.355A2.3,2.3,0,0,0,5.687,65a2.554,2.554,0,0,0-2.021.875A3.211,3.211,0,0,0,2.9,68.069Zm9.881-6.354a.913.913,0,0,1-.659-.264.89.89,0,0,1-.272-.668.923.923,0,0,1,.932-.94.931.931,0,0,1,.672.268.939.939,0,0,1,0,1.332A.923.923,0,0,1,12.781,61.715ZM13.484,73H12.043V64h1.441Zm10.153-4.14H17.283a3.366,3.366,0,0,0,.809,2.32A2.788,2.788,0,0,0,20.218,72a4.422,4.422,0,0,0,2.795-1V72.35a5.224,5.224,0,0,1-3.138.861,3.8,3.8,0,0,1-3-1.226,5.018,5.018,0,0,1-1.09-3.45,4.921,4.921,0,0,1,1.191-3.423,3.819,3.819,0,0,1,2.958-1.323,3.384,3.384,0,0,1,2.733,1.143,4.764,4.764,0,0,1,.967,3.173Zm-1.477-1.222a2.933,2.933,0,0,0-.6-1.942A2.051,2.051,0,0,0,19.911,65a2.328,2.328,0,0,0-1.731.729,3.31,3.31,0,0,0-.879,1.907ZM33.29,73H31.848V67.867Q31.848,65,29.756,65a2.269,2.269,0,0,0-1.789.813,3.013,3.013,0,0,0-.708,2.052V73H25.819V64H27.26v1.494H27.3a3.248,3.248,0,0,1,2.953-1.705,2.753,2.753,0,0,1,2.259.954A4.248,4.248,0,0,1,33.29,67.5Zm12.343-7.541a1.763,1.763,0,0,0-1.09-.29,1.839,1.839,0,0,0-1.542.87,4.023,4.023,0,0,0-.62,2.373V73H40.94V64h1.441v1.854h.035a3.143,3.143,0,0,1,.94-1.481,2.144,2.144,0,0,1,1.415-.532,2.353,2.353,0,0,1,.861.123Zm8.8,3.4H48.078a3.366,3.366,0,0,0,.809,2.32A2.788,2.788,0,0,0,51.014,72a4.422,4.422,0,0,0,2.795-1V72.35a5.224,5.224,0,0,1-3.138.861,3.8,3.8,0,0,1-3-1.226,5.018,5.018,0,0,1-1.09-3.45,4.921,4.921,0,0,1,1.191-3.423,3.819,3.819,0,0,1,2.958-1.323,3.384,3.384,0,0,1,2.733,1.143,4.764,4.764,0,0,1,.967,3.173Zm-1.477-1.222a2.933,2.933,0,0,0-.6-1.942A2.051,2.051,0,0,0,50.706,65a2.328,2.328,0,0,0-1.731.729,3.31,3.31,0,0,0-.879,1.907ZM64.3,72.279q0,4.957-4.746,4.957a6.372,6.372,0,0,1-2.918-.633V75.162a5.993,5.993,0,0,0,2.9.844q3.322,0,3.322-3.533v-.984h-.035a3.641,3.641,0,0,1-5.8.523A4.8,4.8,0,0,1,56,68.79a5.6,5.6,0,0,1,1.1-3.647,3.685,3.685,0,0,1,3.019-1.354,2.934,2.934,0,0,1,2.7,1.459h.035V64H64.3Zm-1.441-3.349V67.6a2.575,2.575,0,0,0-.725-1.837A2.387,2.387,0,0,0,60.323,65a2.5,2.5,0,0,0-2.092.971,4.335,4.335,0,0,0-.756,2.72,3.721,3.721,0,0,0,.725,2.4,2.343,2.343,0,0,0,1.92.9,2.509,2.509,0,0,0,1.973-.861A3.21,3.21,0,0,0,62.854,68.931Zm9.055-3.472a1.763,1.763,0,0,0-1.09-.29,1.839,1.839,0,0,0-1.542.87,4.023,4.023,0,0,0-.62,2.373V73H67.216V64h1.441v1.854h.035a3.143,3.143,0,0,1,.94-1.481,2.144,2.144,0,0,1,1.415-.532,2.353,2.353,0,0,1,.861.123Zm8.8,3.4H74.354a3.366,3.366,0,0,0,.809,2.32A2.788,2.788,0,0,0,77.29,72a4.422,4.422,0,0,0,2.795-1V72.35a5.224,5.224,0,0,1-3.138.861,3.8,3.8,0,0,1-3-1.226,5.018,5.018,0,0,1-1.09-3.45,4.921,4.921,0,0,1,1.191-3.423,3.819,3.819,0,0,1,2.958-1.323,3.384,3.384,0,0,1,2.733,1.143,4.764,4.764,0,0,1,.967,3.173Zm-1.477-1.222a2.933,2.933,0,0,0-.6-1.942A2.051,2.051,0,0,0,76.982,65a2.328,2.328,0,0,0-1.731.729,3.31,3.31,0,0,0-.879,1.907Zm3.113,5.036V71.128a4.266,4.266,0,0,0,2.593.87q1.9,0,1.9-1.266a1.1,1.1,0,0,0-.163-.611,1.62,1.62,0,0,0-.439-.444,3.383,3.383,0,0,0-.65-.347q-.374-.154-.8-.321a10.357,10.357,0,0,1-1.05-.479,3.173,3.173,0,0,1-.756-.545,2.028,2.028,0,0,1-.457-.69,2.441,2.441,0,0,1-.154-.905,2.15,2.15,0,0,1,.29-1.121,2.572,2.572,0,0,1,.773-.817,3.607,3.607,0,0,1,1.1-.5,4.893,4.893,0,0,1,1.279-.167,5.164,5.164,0,0,1,2.092.4v1.459A4.077,4.077,0,0,0,85.615,65a2.671,2.671,0,0,0-.729.092,1.786,1.786,0,0,0-.558.259,1.2,1.2,0,0,0-.36.4,1.053,1.053,0,0,0-.127.514,1.233,1.233,0,0,0,.127.589,1.3,1.3,0,0,0,.374.422,2.855,2.855,0,0,0,.6.334q.352.149.8.325a11.131,11.131,0,0,1,1.072.47,3.678,3.678,0,0,1,.809.545,2.129,2.129,0,0,1,.514.7,2.254,2.254,0,0,1,.18.94,2.217,2.217,0,0,1-.294,1.16,2.523,2.523,0,0,1-.787.817,3.6,3.6,0,0,1-1.134.483,5.6,5.6,0,0,1-1.345.158A5.106,5.106,0,0,1,82.345,72.675ZM97.763,68.86H91.408a3.366,3.366,0,0,0,.809,2.32A2.788,2.788,0,0,0,94.344,72a4.422,4.422,0,0,0,2.795-1V72.35A5.224,5.224,0,0,1,94,73.211a3.8,3.8,0,0,1-3-1.226,5.018,5.018,0,0,1-1.09-3.45,4.921,4.921,0,0,1,1.191-3.423,3.819,3.819,0,0,1,2.958-1.323A3.384,3.384,0,0,1,96.8,64.932a4.764,4.764,0,0,1,.967,3.173Zm-1.477-1.222a2.933,2.933,0,0,0-.6-1.942A2.051,2.051,0,0,0,94.036,65a2.328,2.328,0,0,0-1.731.729,3.31,3.31,0,0,0-.879,1.907Zm9.329-5.924a.913.913,0,0,1-.659-.264.89.89,0,0,1-.272-.668.923.923,0,0,1,.932-.94.931.931,0,0,1,.672.268.939.939,0,0,1,0,1.332A.923.923,0,0,1,105.615,61.715Zm.7,11.285h-1.441V64h1.441Zm10.39,0h-1.441V67.867q0-2.865-2.092-2.865a2.269,2.269,0,0,0-1.789.813,3.013,3.013,0,0,0-.708,2.052V73h-1.441V64h1.441v1.494h.035a3.248,3.248,0,0,1,2.953-1.705,2.753,2.753,0,0,1,2.259.954,4.248,4.248,0,0,1,.782,2.755Zm15.5,0h-1.441V67.832a3.9,3.9,0,0,0-.461-2.162A1.75,1.75,0,0,0,128.752,65a1.921,1.921,0,0,0-1.569.844,3.228,3.228,0,0,0-.646,2.021V73H125.1V67.656Q125.1,65,123.048,65a1.9,1.9,0,0,0-1.564.8,3.288,3.288,0,0,0-.615,2.07V73h-1.441V64h1.441v1.424h.035a3.058,3.058,0,0,1,2.795-1.635,2.6,2.6,0,0,1,2.549,1.863,3.212,3.212,0,0,1,2.988-1.863q2.971,0,2.971,3.665Zm9.96-4.14h-6.354a3.366,3.366,0,0,0,.809,2.32,2.788,2.788,0,0,0,2.127.817,4.422,4.422,0,0,0,2.795-1V72.35a5.224,5.224,0,0,1-3.138.861,3.8,3.8,0,0,1-3-1.226,5.018,5.018,0,0,1-1.09-3.45,4.921,4.921,0,0,1,1.191-3.423,3.819,3.819,0,0,1,2.958-1.323,3.384,3.384,0,0,1,2.733,1.143,4.764,4.764,0,0,1,.967,3.173Zm-1.477-1.222a2.933,2.933,0,0,0-.6-1.942A2.051,2.051,0,0,0,138.439,65a2.328,2.328,0,0,0-1.731.729,3.31,3.31,0,0,0-.879,1.907ZM152.029,73h-1.441V71.471h-.035a3.327,3.327,0,0,1-3.094,1.74A3.362,3.362,0,0,1,144.747,72a4.958,4.958,0,0,1-1.015-3.292,5.394,5.394,0,0,1,1.125-3.577,3.71,3.71,0,0,1,3-1.345,2.885,2.885,0,0,1,2.7,1.459h.035V59.676h1.441Zm-1.441-4.069V67.6a2.575,2.575,0,0,0-.721-1.846A2.417,2.417,0,0,0,148.038,65a2.489,2.489,0,0,0-2.074.967,4.237,4.237,0,0,0-.756,2.672,3.81,3.81,0,0,0,.725,2.457,2.37,2.37,0,0,0,1.947.9,2.462,2.462,0,0,0,1.956-.87A3.242,3.242,0,0,0,150.587,68.931Zm5.1-7.216a.913.913,0,0,1-.659-.264.89.89,0,0,1-.272-.668.923.923,0,0,1,.932-.94.931.931,0,0,1,.672.268.939.939,0,0,1,0,1.332A.923.923,0,0,1,155.687,61.715ZM156.39,73h-1.441V64h1.441Zm9.362,0h-1.441V71.594h-.035a3.018,3.018,0,0,1-2.769,1.617,2.959,2.959,0,0,1-2.1-.712,2.466,2.466,0,0,1-.76-1.89q0-2.522,2.971-2.936l2.7-.378q0-2.294-1.854-2.294a4.431,4.431,0,0,0-2.936,1.107V64.633a5.577,5.577,0,0,1,3.059-.844q3.173,0,3.173,3.357Zm-1.441-4.553-2.171.3a3.525,3.525,0,0,0-1.512.5,1.432,1.432,0,0,0-.51,1.261,1.374,1.374,0,0,0,.47,1.077,1.817,1.817,0,0,0,1.252.417,2.314,2.314,0,0,0,1.771-.751,2.685,2.685,0,0,0,.7-1.9Zm8.334,4.465a2.779,2.779,0,0,1-1.345.281q-2.364,0-2.364-2.637V65.23h-1.547V64h1.547V61.8l1.441-.466V64h2.268v1.23h-2.268V70.3a2.1,2.1,0,0,0,.308,1.292,1.228,1.228,0,0,0,1.02.387,1.515,1.515,0,0,0,.94-.3Zm8.369.088h-1.441V71.594h-.035a3.018,3.018,0,0,1-2.769,1.617,2.959,2.959,0,0,1-2.1-.712,2.466,2.466,0,0,1-.76-1.89q0-2.522,2.971-2.936l2.7-.378q0-2.294-1.854-2.294a4.431,4.431,0,0,0-2.936,1.107V64.633a5.577,5.577,0,0,1,3.059-.844q3.173,0,3.173,3.357Zm-1.441-4.553-2.171.3a3.525,3.525,0,0,0-1.512.5,1.432,1.432,0,0,0-.51,1.261,1.374,1.374,0,0,0,.47,1.077A1.817,1.817,0,0,0,177.1,72a2.314,2.314,0,0,0,1.771-.751,2.685,2.685,0,0,0,.7-1.9ZM196.51,73h-1.441V67.832a3.9,3.9,0,0,0-.461-2.162A1.75,1.75,0,0,0,193.056,65a1.921,1.921,0,0,0-1.569.844,3.228,3.228,0,0,0-.646,2.021V73H189.4V67.656Q189.4,65,187.352,65a1.9,1.9,0,0,0-1.564.8,3.288,3.288,0,0,0-.615,2.07V73h-1.441V64h1.441v1.424h.035A3.058,3.058,0,0,1,188,63.789a2.6,2.6,0,0,1,2.549,1.863,3.212,3.212,0,0,1,2.988-1.863q2.971,0,2.971,3.665Zm9.96-4.14h-6.354a3.366,3.366,0,0,0,.809,2.32,2.788,2.788,0,0,0,2.127.817,4.422,4.422,0,0,0,2.795-1V72.35a5.224,5.224,0,0,1-3.138.861,3.8,3.8,0,0,1-3-1.226,5.018,5.018,0,0,1-1.09-3.45,4.921,4.921,0,0,1,1.191-3.423,3.819,3.819,0,0,1,2.958-1.323,3.384,3.384,0,0,1,2.733,1.143,4.764,4.764,0,0,1,.967,3.173Zm-1.477-1.222a2.933,2.933,0,0,0-.6-1.942A2.051,2.051,0,0,0,202.744,65a2.328,2.328,0,0,0-1.731.729,3.31,3.31,0,0,0-.879,1.907ZM216.122,73h-1.441V67.867q0-2.865-2.092-2.865a2.269,2.269,0,0,0-1.789.813,3.013,3.013,0,0,0-.708,2.052V73h-1.441V64h1.441v1.494h.035a3.248,3.248,0,0,1,2.953-1.705,2.753,2.753,0,0,1,2.259.954,4.248,4.248,0,0,1,.782,2.755Zm6.892-.088a2.779,2.779,0,0,1-1.345.281q-2.364,0-2.364-2.637V65.23h-1.547V64h1.547V61.8l1.441-.466V64h2.268v1.23h-2.268V70.3a2.1,2.1,0,0,0,.308,1.292,1.228,1.228,0,0,0,1.02.387,1.515,1.515,0,0,0,.94-.3Zm9.16-4.052H225.82a3.366,3.366,0,0,0,.809,2.32,2.788,2.788,0,0,0,2.127.817,4.422,4.422,0,0,0,2.795-1V72.35a5.224,5.224,0,0,1-3.138.861,3.8,3.8,0,0,1-3-1.226,5.018,5.018,0,0,1-1.09-3.45,4.921,4.921,0,0,1,1.191-3.423,3.819,3.819,0,0,1,2.958-1.323,3.384,3.384,0,0,1,2.733,1.143,4.764,4.764,0,0,1,.967,3.173ZM230.7,67.639a2.933,2.933,0,0,0-.6-1.942A2.051,2.051,0,0,0,228.448,65a2.328,2.328,0,0,0-1.731.729,3.31,3.31,0,0,0-.879,1.907ZM245.731,73H244.29V71.594h-.035a3.018,3.018,0,0,1-2.769,1.617,2.959,2.959,0,0,1-2.1-.712,2.466,2.466,0,0,1-.76-1.89q0-2.522,2.971-2.936l2.7-.378q0-2.294-1.854-2.294a4.431,4.431,0,0,0-2.936,1.107V64.633a5.577,5.577,0,0,1,3.059-.844q3.173,0,3.173,3.357Zm-1.441-4.553-2.171.3a3.525,3.525,0,0,0-1.512.5,1.432,1.432,0,0,0-.51,1.261,1.374,1.374,0,0,0,.47,1.077A1.817,1.817,0,0,0,241.82,72a2.314,2.314,0,0,0,1.771-.751,2.685,2.685,0,0,0,.7-1.9ZM249.89,73h-1.441V59.676h1.441ZM8.93,100H7.488V94.867Q7.488,92,5.4,92a2.269,2.269,0,0,0-1.789.813A3.013,3.013,0,0,0,2.9,94.867V100H1.459V91H2.9v1.494h.035a3.248,3.248,0,0,1,2.953-1.705,2.753,2.753,0,0,1,2.259.954A4.248,4.248,0,0,1,8.93,94.5Zm9.995,0H17.483V98.576h-.035a2.96,2.96,0,0,1-2.777,1.635q-3.217,0-3.217-3.832V91h1.433v5.15q0,2.848,2.18,2.848A2.205,2.205,0,0,0,16.8,98.22a2.976,2.976,0,0,0,.681-2.035V91h1.441Zm10.593,0H28.076V98.471h-.035a3.327,3.327,0,0,1-3.094,1.74A3.362,3.362,0,0,1,22.236,99a4.958,4.958,0,0,1-1.015-3.292,5.394,5.394,0,0,1,1.125-3.577,3.71,3.71,0,0,1,3-1.345,2.885,2.885,0,0,1,2.7,1.459h.035V86.676h1.441Zm-1.441-4.069V94.6a2.575,2.575,0,0,0-.721-1.846A2.417,2.417,0,0,0,25.527,92a2.489,2.489,0,0,0-2.074.967,4.237,4.237,0,0,0-.756,2.672,3.81,3.81,0,0,0,.725,2.457,2.37,2.37,0,0,0,1.947.9,2.462,2.462,0,0,0,1.956-.87A3.242,3.242,0,0,0,28.076,95.931Zm8.123,4.28a4.175,4.175,0,0,1-3.186-1.261,4.672,4.672,0,0,1-1.191-3.344,4.867,4.867,0,0,1,1.239-3.542,4.455,4.455,0,0,1,3.349-1.274,4.037,4.037,0,0,1,3.142,1.239,4.914,4.914,0,0,1,1.129,3.437,4.835,4.835,0,0,1-1.217,3.45A4.265,4.265,0,0,1,36.2,100.211ZM36.3,92a2.742,2.742,0,0,0-2.2.945,3.88,3.88,0,0,0-.809,2.606,3.67,3.67,0,0,0,.817,2.522A2.778,2.778,0,0,0,36.3,99a2.635,2.635,0,0,0,2.149-.905,3.928,3.928,0,0,0,.751-2.575,4,4,0,0,0-.751-2.6A2.623,2.623,0,0,0,36.3,92Zm13.091,6.7H49.36v5.44H47.918V91H49.36v1.582h.035a3.408,3.408,0,0,1,3.111-1.793A3.3,3.3,0,0,1,55.222,92a5.005,5.005,0,0,1,.976,3.239,5.578,5.578,0,0,1-1.1,3.617,3.658,3.658,0,0,1-3.006,1.358A3.011,3.011,0,0,1,49.395,98.7Zm-.035-3.63v1.257a2.676,2.676,0,0,0,.725,1.894A2.587,2.587,0,0,0,53.978,98a4.6,4.6,0,0,0,.743-2.786,3.629,3.629,0,0,0-.694-2.355A2.3,2.3,0,0,0,52.146,92a2.554,2.554,0,0,0-2.021.875A3.211,3.211,0,0,0,49.36,95.069ZM63.2,92.459a1.763,1.763,0,0,0-1.09-.29,1.839,1.839,0,0,0-1.542.87,4.023,4.023,0,0,0-.62,2.373V100H58.5V91h1.441v1.854h.035a3.143,3.143,0,0,1,.94-1.481,2.144,2.144,0,0,1,1.415-.532,2.353,2.353,0,0,1,.861.123Zm5.328,7.752a4.175,4.175,0,0,1-3.186-1.261,4.672,4.672,0,0,1-1.191-3.344,4.867,4.867,0,0,1,1.239-3.542,4.455,4.455,0,0,1,3.349-1.274,4.037,4.037,0,0,1,3.142,1.239,4.914,4.914,0,0,1,1.129,3.437,4.835,4.835,0,0,1-1.217,3.45A4.265,4.265,0,0,1,68.523,100.211ZM68.629,92a2.742,2.742,0,0,0-2.2.945,3.88,3.88,0,0,0-.809,2.606,3.67,3.67,0,0,0,.817,2.522A2.778,2.778,0,0,0,68.629,99a2.635,2.635,0,0,0,2.149-.905,3.929,3.929,0,0,0,.751-2.575,4,4,0,0,0-.751-2.6A2.623,2.623,0,0,0,68.629,92Zm8.158,6.7h-.035v5.44H75.31V91h1.441v1.582h.035A3.408,3.408,0,0,1,79.9,90.789,3.3,3.3,0,0,1,82.614,92a5.005,5.005,0,0,1,.976,3.239,5.578,5.578,0,0,1-1.1,3.617,3.658,3.658,0,0,1-3.006,1.358A3.011,3.011,0,0,1,76.787,98.7Zm-.035-3.63v1.257a2.676,2.676,0,0,0,.725,1.894A2.587,2.587,0,0,0,81.37,98a4.6,4.6,0,0,0,.743-2.786,3.629,3.629,0,0,0-.694-2.355A2.3,2.3,0,0,0,79.538,92a2.554,2.554,0,0,0-2.021.875A3.211,3.211,0,0,0,76.752,95.069Zm9.881-6.354a.913.913,0,0,1-.659-.264.89.89,0,0,1-.272-.668.923.923,0,0,1,.932-.94.931.931,0,0,1,.672.268.939.939,0,0,1,0,1.332A.923.923,0,0,1,86.632,88.715Zm.7,11.285H85.894V91h1.441Zm10.153-4.14H91.134a3.366,3.366,0,0,0,.809,2.32A2.788,2.788,0,0,0,94.07,99a4.422,4.422,0,0,0,2.795-1V99.35a5.224,5.224,0,0,1-3.138.861,3.8,3.8,0,0,1-3-1.226,5.018,5.018,0,0,1-1.09-3.45,4.921,4.921,0,0,1,1.191-3.423,3.819,3.819,0,0,1,2.958-1.323,3.384,3.384,0,0,1,2.733,1.143,4.764,4.764,0,0,1,.967,3.173Zm-1.477-1.222a2.933,2.933,0,0,0-.6-1.942A2.051,2.051,0,0,0,93.762,92a2.328,2.328,0,0,0-1.731.729,3.31,3.31,0,0,0-.879,1.907Zm7.833,5.273a2.779,2.779,0,0,1-1.345.281q-2.364,0-2.364-2.637V92.23H98.589V91h1.547V88.8l1.441-.466V91h2.268v1.23h-2.268V97.3a2.1,2.1,0,0,0,.308,1.292,1.228,1.228,0,0,0,1.02.387,1.515,1.515,0,0,0,.94-.3Zm8.369.088h-1.441V98.594h-.035a3.018,3.018,0,0,1-2.769,1.617,2.959,2.959,0,0,1-2.1-.712,2.466,2.466,0,0,1-.76-1.89q0-2.522,2.971-2.936l2.7-.378q0-2.294-1.854-2.294a4.431,4.431,0,0,0-2.936,1.107V91.633a5.577,5.577,0,0,1,3.059-.844q3.173,0,3.173,3.357Zm-1.441-4.553-2.171.3a3.525,3.525,0,0,0-1.512.5,1.432,1.432,0,0,0-.51,1.261,1.374,1.374,0,0,0,.47,1.077A1.817,1.817,0,0,0,108.3,99a2.314,2.314,0,0,0,1.771-.751,2.685,2.685,0,0,0,.7-1.9Zm8.852-2.988a1.763,1.763,0,0,0-1.09-.29,1.839,1.839,0,0,0-1.542.87,4.023,4.023,0,0,0-.62,2.373V100h-1.441V91h1.441v1.854h.035a3.143,3.143,0,0,1,.94-1.481,2.144,2.144,0,0,1,1.415-.532,2.353,2.353,0,0,1,.861.123Zm2.3-3.744a.913.913,0,0,1-.659-.264.89.89,0,0,1-.272-.668.923.923,0,0,1,.932-.94.931.931,0,0,1,.672.268.939.939,0,0,1,0,1.332A.923.923,0,0,1,121.929,88.715Zm.7,11.285h-1.441V91h1.441Zm6.681.211a4.175,4.175,0,0,1-3.186-1.261,4.672,4.672,0,0,1-1.191-3.344,4.867,4.867,0,0,1,1.239-3.542,4.455,4.455,0,0,1,3.349-1.274,4.037,4.037,0,0,1,3.142,1.239,4.914,4.914,0,0,1,1.129,3.437,4.835,4.835,0,0,1-1.217,3.45A4.265,4.265,0,0,1,129.314,100.211ZM129.42,92a2.742,2.742,0,0,0-2.2.945,3.88,3.88,0,0,0-.809,2.606,3.67,3.67,0,0,0,.817,2.522A2.778,2.778,0,0,0,129.42,99a2.635,2.635,0,0,0,2.149-.905,3.929,3.929,0,0,0,.751-2.575,4,4,0,0,0-.751-2.6A2.623,2.623,0,0,0,129.42,92Zm7.182,8.191a.933.933,0,0,1-.69-.29.955.955,0,0,1-.286-.694.969.969,0,0,1,.286-.7.926.926,0,0,1,.69-.294.95.95,0,0,1,.7.294.962.962,0,0,1,.29.7.947.947,0,0,1-.29.694A.958.958,0,0,1,136.6,100.193ZM9,154H1.441V141.4H8.71v2.312H4.28v2.8H8.4v2.3H4.28V151.7H9Zm3.157-10.424a1.622,1.622,0,0,1-1.151-.417,1.345,1.345,0,0,1-.448-1.024,1.3,1.3,0,0,1,.448-1.02,1.676,1.676,0,0,1,1.151-.4,1.672,1.672,0,0,1,1.156.4,1.3,1.3,0,0,1,.444,1.02,1.34,1.34,0,0,1-.444,1.037A1.65,1.65,0,0,1,12.157,143.576Zm1.371,10.266a4.892,4.892,0,0,1-.976,3.19,3.421,3.421,0,0,1-2.813,1.2,3.889,3.889,0,0,1-1.327-.264v-2.18a2.163,2.163,0,0,0,1.028.325q1.31,0,1.31-2.057V145h2.777Zm10.426-3.551H18.083q.141,1.96,2.47,1.96a4.822,4.822,0,0,0,2.61-.7v2a6.858,6.858,0,0,1-3.243.668,4.565,4.565,0,0,1-3.384-1.208,4.566,4.566,0,0,1-1.2-3.371,4.816,4.816,0,0,1,1.3-3.551,4.334,4.334,0,0,1,3.2-1.31,3.933,3.933,0,0,1,3.045,1.169,4.5,4.5,0,0,1,1.077,3.173Zm-2.575-1.705q0-1.934-1.564-1.934a1.494,1.494,0,0,0-1.156.554,2.513,2.513,0,0,0-.593,1.38ZM39.9,154H37.13v-5.133q0-1.96-1.441-1.96a1.324,1.324,0,0,0-1.116.589,2.42,2.42,0,0,0-.431,1.468V154H31.365v-5.186q0-1.907-1.415-1.907a1.356,1.356,0,0,0-1.138.563A2.475,2.475,0,0,0,28.385,149v5H25.608v-9h2.777v1.406h.035a3.41,3.41,0,0,1,2.909-1.626,2.592,2.592,0,0,1,2.61,1.679,3.329,3.329,0,0,1,3.023-1.679q2.936,0,2.936,3.621Zm5.012-1.046h-.035v5.186H42.1V145h2.777v1.354h.035a3.534,3.534,0,0,1,5.594-.374,5.108,5.108,0,0,1,.954,3.265,5.537,5.537,0,0,1-1.112,3.612,3.625,3.625,0,0,1-2.958,1.362A2.8,2.8,0,0,1,44.911,152.954Zm-.079-3.691v.721a2.291,2.291,0,0,0,.492,1.521,1.6,1.6,0,0,0,1.292.589,1.7,1.7,0,0,0,1.472-.734,3.543,3.543,0,0,0,.523-2.079q0-2.373-1.846-2.373a1.733,1.733,0,0,0-1.393.646A2.576,2.576,0,0,0,44.831,149.263ZM56.039,154H53.262V140.676h2.777Zm6.629.22a4.838,4.838,0,0,1-3.538-1.261,5.216,5.216,0,0,1,.048-6.917,5.048,5.048,0,0,1,3.612-1.261,4.78,4.78,0,0,1,3.516,1.261,4.483,4.483,0,0,1,1.274,3.335,4.759,4.759,0,0,1-1.314,3.542A4.892,4.892,0,0,1,62.668,154.22Zm.07-7.312a1.852,1.852,0,0,0-1.529.677,2.984,2.984,0,0,0-.545,1.916q0,2.593,2.092,2.593,2,0,2-2.663Q64.751,146.907,62.738,146.907Zm7.886.879a1.63,1.63,0,0,1-1.143-.417,1.343,1.343,0,0,1-.457-1.033,1.306,1.306,0,0,1,.47-1.037,1.736,1.736,0,0,1,1.173-.4,1.671,1.671,0,0,1,1.165.409,1.41,1.41,0,0,1-.009,2.079A1.754,1.754,0,0,1,70.624,147.786Zm0,6.434a1.62,1.62,0,0,1-1.143-.422,1.356,1.356,0,0,1-.457-1.037,1.306,1.306,0,0,1,.47-1.037,1.736,1.736,0,0,1,1.173-.4,1.671,1.671,0,0,1,1.165.409,1.415,1.415,0,0,1-.009,2.083A1.742,1.742,0,0,1,70.624,154.22Zm16.14-.22H85.323v-1.424h-.035a2.96,2.96,0,0,1-2.777,1.635q-3.217,0-3.217-3.832V145h1.433v5.15q0,2.848,2.18,2.848a2.205,2.205,0,0,0,1.736-.778,2.976,2.976,0,0,0,.681-2.035V145h1.441Zm10.382,0H95.7v-5.133Q95.7,146,93.613,146a2.269,2.269,0,0,0-1.789.813,3.013,3.013,0,0,0-.708,2.052V154H89.675v-9h1.441v1.494h.035a3.248,3.248,0,0,1,2.953-1.705,2.753,2.753,0,0,1,2.259.954,4.248,4.248,0,0,1,.782,2.755Zm14.927,0h-1.441v-1.424H110.6a2.96,2.96,0,0,1-2.777,1.635q-3.217,0-3.217-3.832V145h1.433v5.15q0,2.848,2.18,2.848a2.205,2.205,0,0,0,1.736-.778,2.976,2.976,0,0,0,.681-2.035V145h1.441Zm2.366-.325v-1.547a4.266,4.266,0,0,0,2.593.87q1.9,0,1.9-1.266a1.1,1.1,0,0,0-.163-.611,1.62,1.62,0,0,0-.439-.444,3.383,3.383,0,0,0-.65-.347q-.374-.154-.8-.321a10.357,10.357,0,0,1-1.05-.479,3.173,3.173,0,0,1-.756-.545,2.028,2.028,0,0,1-.457-.69,2.441,2.441,0,0,1-.154-.905,2.15,2.15,0,0,1,.29-1.121,2.572,2.572,0,0,1,.773-.817,3.607,3.607,0,0,1,1.1-.5,4.893,4.893,0,0,1,1.279-.167,5.164,5.164,0,0,1,2.092.4v1.459a4.077,4.077,0,0,0-2.285-.65,2.671,2.671,0,0,0-.729.092,1.786,1.786,0,0,0-.558.259,1.2,1.2,0,0,0-.36.4,1.053,1.053,0,0,0-.127.514,1.233,1.233,0,0,0,.127.589,1.3,1.3,0,0,0,.374.422,2.855,2.855,0,0,0,.6.334q.352.149.8.325a11.131,11.131,0,0,1,1.072.47,3.678,3.678,0,0,1,.809.545,2.129,2.129,0,0,1,.514.7,2.254,2.254,0,0,1,.18.94,2.217,2.217,0,0,1-.294,1.16,2.523,2.523,0,0,1-.787.817,3.6,3.6,0,0,1-1.134.483,5.6,5.6,0,0,1-1.345.158A5.106,5.106,0,0,1,114.439,153.675ZM129.9,154H128.46v-1.424h-.035a2.96,2.96,0,0,1-2.777,1.635q-3.217,0-3.217-3.832V145h1.433v5.15q0,2.848,2.18,2.848a2.205,2.205,0,0,0,1.736-.778,2.976,2.976,0,0,0,.681-2.035V145H129.9Zm7.358-12.059a1.92,1.92,0,0,0-.958-.237q-1.512,0-1.512,1.907V145H136.9v1.23H134.79V154h-1.433v-7.77h-1.538V145h1.538v-1.459a3.032,3.032,0,0,1,.817-2.237,2.759,2.759,0,0,1,2.039-.822,2.824,2.824,0,0,1,1.046.158Zm5.882,4.518a1.763,1.763,0,0,0-1.09-.29,1.839,1.839,0,0,0-1.542.87,4.023,4.023,0,0,0-.62,2.373V154h-1.441v-9h1.441v1.854h.035a3.143,3.143,0,0,1,.94-1.481,2.144,2.144,0,0,1,1.415-.532,2.353,2.353,0,0,1,.861.123ZM151.985,154h-1.441v-1.424h-.035a2.96,2.96,0,0,1-2.777,1.635q-3.217,0-3.217-3.832V145h1.433v5.15q0,2.848,2.18,2.848a2.205,2.205,0,0,0,1.736-.778,2.976,2.976,0,0,0,.681-2.035V145h1.441Zm9.046-.413a4.684,4.684,0,0,1-2.461.624,4.074,4.074,0,0,1-3.107-1.252,4.539,4.539,0,0,1-1.182-3.248,4.99,4.99,0,0,1,1.274-3.573,4.458,4.458,0,0,1,3.4-1.349,4.735,4.735,0,0,1,2.092.439v1.477a3.665,3.665,0,0,0-2.145-.7,2.9,2.9,0,0,0-2.263.989,3.752,3.752,0,0,0-.883,2.6,3.573,3.573,0,0,0,.831,2.5,2.863,2.863,0,0,0,2.228.914,3.613,3.613,0,0,0,2.215-.782Zm6.356.325a2.779,2.779,0,0,1-1.345.281q-2.364,0-2.364-2.637V146.23h-1.547V145h1.547v-2.2l1.441-.466V145h2.268v1.23h-2.268V151.3a2.1,2.1,0,0,0,.308,1.292,1.228,1.228,0,0,0,1.02.387,1.515,1.515,0,0,0,.94-.3Zm9.2.088h-1.441v-1.424h-.035a2.96,2.96,0,0,1-2.777,1.635q-3.217,0-3.217-3.832V145h1.433v5.15q0,2.848,2.18,2.848a2.205,2.205,0,0,0,1.736-.778,2.976,2.976,0,0,0,.681-2.035V145h1.441Zm9.353,0H184.5v-1.406h-.035a3.018,3.018,0,0,1-2.769,1.617,2.959,2.959,0,0,1-2.1-.712,2.466,2.466,0,0,1-.76-1.89q0-2.522,2.971-2.936l2.7-.378q0-2.294-1.854-2.294a4.431,4.431,0,0,0-2.936,1.107v-1.477a5.577,5.577,0,0,1,3.059-.844q3.173,0,3.173,3.357Zm-1.441-4.553-2.171.3a3.525,3.525,0,0,0-1.512.5,1.432,1.432,0,0,0-.51,1.261,1.374,1.374,0,0,0,.47,1.077,1.817,1.817,0,0,0,1.252.417,2.314,2.314,0,0,0,1.771-.751,2.685,2.685,0,0,0,.7-1.9Zm8.852-2.988a1.763,1.763,0,0,0-1.09-.29,1.839,1.839,0,0,0-1.542.87,4.023,4.023,0,0,0-.62,2.373V154h-1.441v-9H190.1v1.854h.035a3.143,3.143,0,0,1,.94-1.481,2.144,2.144,0,0,1,1.415-.532,2.353,2.353,0,0,1,.861.123Zm2.3-3.744a.913.913,0,0,1-.659-.264.89.89,0,0,1-.272-.668.923.923,0,0,1,.932-.94.931.931,0,0,1,.672.268.939.939,0,0,1,0,1.332A.923.923,0,0,1,195.66,142.715Zm.7,11.285h-1.441v-9h1.441Zm6.681.211a4.175,4.175,0,0,1-3.186-1.261,4.672,4.672,0,0,1-1.191-3.344,4.867,4.867,0,0,1,1.239-3.542,4.455,4.455,0,0,1,3.349-1.274,4.037,4.037,0,0,1,3.142,1.239,4.914,4.914,0,0,1,1.129,3.437,4.835,4.835,0,0,1-1.217,3.45A4.265,4.265,0,0,1,203.044,154.211ZM203.15,146a2.742,2.742,0,0,0-2.2.945,3.88,3.88,0,0,0-.809,2.606,3.67,3.67,0,0,0,.817,2.522,2.778,2.778,0,0,0,2.188.923,2.635,2.635,0,0,0,2.149-.905,3.928,3.928,0,0,0,.751-2.575,4,4,0,0,0-.751-2.6A2.623,2.623,0,0,0,203.15,146Zm-197,27.457a1.763,1.763,0,0,0-1.09-.29,1.839,1.839,0,0,0-1.542.87,4.023,4.023,0,0,0-.62,2.373V181H1.459v-9H2.9v1.854h.035a3.143,3.143,0,0,1,.94-1.481,2.144,2.144,0,0,1,1.415-.532,2.353,2.353,0,0,1,.861.123Zm8.8,3.4H8.6a3.366,3.366,0,0,0,.809,2.32,2.788,2.788,0,0,0,2.127.817,4.422,4.422,0,0,0,2.795-1v1.354a5.224,5.224,0,0,1-3.138.861,3.8,3.8,0,0,1-3-1.226,5.018,5.018,0,0,1-1.09-3.45,4.921,4.921,0,0,1,1.191-3.423,3.819,3.819,0,0,1,2.958-1.323,3.384,3.384,0,0,1,2.733,1.143,4.764,4.764,0,0,1,.967,3.173Zm-1.477-1.222a2.933,2.933,0,0,0-.6-1.942A2.051,2.051,0,0,0,11.225,173a2.328,2.328,0,0,0-1.731.729,3.31,3.31,0,0,0-.879,1.907ZM24.6,181H23.163v-5.133q0-2.865-2.092-2.865a2.269,2.269,0,0,0-1.789.813,3.013,3.013,0,0,0-.708,2.052V181H17.133v-9h1.441v1.494h.035a3.248,3.248,0,0,1,2.953-1.705,2.753,2.753,0,0,1,2.259.954A4.248,4.248,0,0,1,24.6,175.5Zm9.995,0H33.158v-1.424h-.035a2.96,2.96,0,0,1-2.777,1.635q-3.217,0-3.217-3.832V172h1.433v5.15q0,2.848,2.18,2.848a2.205,2.205,0,0,0,1.736-.778,2.976,2.976,0,0,0,.681-2.035V172H34.6Zm10.382,0H43.539v-5.133q0-2.865-2.092-2.865a2.269,2.269,0,0,0-1.789.813,3.013,3.013,0,0,0-.708,2.052V181H37.51v-9h1.441v1.494h.035a3.248,3.248,0,0,1,2.953-1.705,2.753,2.753,0,0,1,2.259.954,4.248,4.248,0,0,1,.782,2.755Zm8.852-.413a4.684,4.684,0,0,1-2.461.624,4.074,4.074,0,0,1-3.107-1.252,4.539,4.539,0,0,1-1.182-3.248,4.99,4.99,0,0,1,1.274-3.573,4.458,4.458,0,0,1,3.4-1.349,4.735,4.735,0,0,1,2.092.439v1.477a3.665,3.665,0,0,0-2.145-.7,2.9,2.9,0,0,0-2.263.989,3.752,3.752,0,0,0-.883,2.6,3.573,3.573,0,0,0,.831,2.5,2.863,2.863,0,0,0,2.228.914,3.613,3.613,0,0,0,2.215-.782Zm2.92-10.872a.913.913,0,0,1-.659-.264.89.89,0,0,1-.272-.668.923.923,0,0,1,.932-.94.931.931,0,0,1,.672.268.939.939,0,0,1,0,1.332A.923.923,0,0,1,56.753,169.715Zm.7,11.285H56.015v-9h1.441Zm9.362,0H65.377v-1.406h-.035a3.018,3.018,0,0,1-2.769,1.617,2.959,2.959,0,0,1-2.1-.712,2.466,2.466,0,0,1-.76-1.89q0-2.522,2.971-2.936l2.7-.378q0-2.294-1.854-2.294a4.431,4.431,0,0,0-2.936,1.107v-1.477a5.577,5.577,0,0,1,3.059-.844q3.173,0,3.173,3.357Zm-1.441-4.553-2.171.3a3.525,3.525,0,0,0-1.512.5,1.432,1.432,0,0,0-.51,1.261,1.374,1.374,0,0,0,.47,1.077,1.817,1.817,0,0,0,1.252.417,2.314,2.314,0,0,0,1.771-.751,2.685,2.685,0,0,0,.7-1.9ZM80.911,181H79.469v-1.406h-.035a3.018,3.018,0,0,1-2.769,1.617,2.959,2.959,0,0,1-2.1-.712,2.466,2.466,0,0,1-.76-1.89q0-2.522,2.971-2.936l2.7-.378q0-2.294-1.854-2.294a4.431,4.431,0,0,0-2.936,1.107v-1.477a5.577,5.577,0,0,1,3.059-.844q3.173,0,3.173,3.357Zm-1.441-4.553-2.171.3a3.525,3.525,0,0,0-1.512.5,1.432,1.432,0,0,0-.51,1.261,1.374,1.374,0,0,0,.47,1.077A1.817,1.817,0,0,0,77,180a2.314,2.314,0,0,0,1.771-.751,2.685,2.685,0,0,0,.7-1.9Zm8.547,4.228v-1.547a4.266,4.266,0,0,0,2.593.87q1.9,0,1.9-1.266a1.1,1.1,0,0,0-.163-.611,1.62,1.62,0,0,0-.439-.444,3.383,3.383,0,0,0-.65-.347q-.374-.154-.8-.321a10.357,10.357,0,0,1-1.05-.479,3.173,3.173,0,0,1-.756-.545,2.028,2.028,0,0,1-.457-.69,2.441,2.441,0,0,1-.154-.905,2.15,2.15,0,0,1,.29-1.121,2.572,2.572,0,0,1,.773-.817,3.607,3.607,0,0,1,1.1-.5,4.893,4.893,0,0,1,1.279-.167,5.164,5.164,0,0,1,2.092.4v1.459a4.077,4.077,0,0,0-2.285-.65,2.671,2.671,0,0,0-.729.092,1.786,1.786,0,0,0-.558.259,1.2,1.2,0,0,0-.36.4,1.053,1.053,0,0,0-.127.514,1.233,1.233,0,0,0,.127.589,1.3,1.3,0,0,0,.374.422,2.855,2.855,0,0,0,.6.334q.352.149.8.325a11.131,11.131,0,0,1,1.072.47,3.678,3.678,0,0,1,.809.545,2.129,2.129,0,0,1,.514.7,2.254,2.254,0,0,1,.18.94,2.217,2.217,0,0,1-.294,1.16,2.523,2.523,0,0,1-.787.817,3.6,3.6,0,0,1-1.134.483,5.6,5.6,0,0,1-1.345.158A5.106,5.106,0,0,1,88.016,180.675Zm15.462.325h-1.441v-1.424H102a2.96,2.96,0,0,1-2.777,1.635q-3.217,0-3.217-3.832V172H97.44v5.15q0,2.848,2.18,2.848a2.205,2.205,0,0,0,1.736-.778,2.976,2.976,0,0,0,.681-2.035V172h1.441ZM119,181h-1.441v-1.529h-.035a3.327,3.327,0,0,1-3.094,1.74A3.362,3.362,0,0,1,111.721,180a4.958,4.958,0,0,1-1.015-3.292,5.394,5.394,0,0,1,1.125-3.577,3.71,3.71,0,0,1,3-1.345,2.885,2.885,0,0,1,2.7,1.459h.035v-5.572H119Zm-1.441-4.069V175.6a2.575,2.575,0,0,0-.721-1.846,2.417,2.417,0,0,0-1.828-.756,2.489,2.489,0,0,0-2.074.967,4.237,4.237,0,0,0-.756,2.672,3.81,3.81,0,0,0,.725,2.457,2.37,2.37,0,0,0,1.947.9,2.462,2.462,0,0,0,1.956-.87A3.242,3.242,0,0,0,117.561,176.931Zm11.595-.07H122.8a3.366,3.366,0,0,0,.809,2.32,2.788,2.788,0,0,0,2.127.817,4.422,4.422,0,0,0,2.795-1v1.354a5.224,5.224,0,0,1-3.138.861,3.8,3.8,0,0,1-3-1.226,5.018,5.018,0,0,1-1.09-3.45,4.921,4.921,0,0,1,1.191-3.423,3.819,3.819,0,0,1,2.958-1.323,3.384,3.384,0,0,1,2.733,1.143,4.764,4.764,0,0,1,.967,3.173Zm-1.477-1.222a2.933,2.933,0,0,0-.6-1.942,2.051,2.051,0,0,0-1.648-.694,2.328,2.328,0,0,0-1.731.729,3.31,3.31,0,0,0-.879,1.907Zm8.351-2.18a1.763,1.763,0,0,0-1.09-.29,1.839,1.839,0,0,0-1.542.87,4.023,4.023,0,0,0-.62,2.373V181h-1.441v-9h1.441v1.854h.035a3.143,3.143,0,0,1,.94-1.481,2.144,2.144,0,0,1,1.415-.532,2.353,2.353,0,0,1,.861.123Zm8.8,3.4h-6.354a3.366,3.366,0,0,0,.809,2.32,2.788,2.788,0,0,0,2.127.817,4.422,4.422,0,0,0,2.795-1v1.354a5.224,5.224,0,0,1-3.138.861,3.8,3.8,0,0,1-3-1.226,5.018,5.018,0,0,1-1.09-3.45,4.921,4.921,0,0,1,1.191-3.423,3.819,3.819,0,0,1,2.958-1.323,3.384,3.384,0,0,1,2.733,1.143,4.764,4.764,0,0,1,.967,3.173Zm-1.477-1.222a2.933,2.933,0,0,0-.6-1.942A2.051,2.051,0,0,0,141.1,173a2.328,2.328,0,0,0-1.731.729,3.31,3.31,0,0,0-.879,1.907Zm9.793,4.948a4.684,4.684,0,0,1-2.461.624,4.074,4.074,0,0,1-3.107-1.252,4.539,4.539,0,0,1-1.182-3.248,4.99,4.99,0,0,1,1.274-3.573,4.458,4.458,0,0,1,3.4-1.349,4.735,4.735,0,0,1,2.092.439v1.477a3.665,3.665,0,0,0-2.145-.7,2.9,2.9,0,0,0-2.263.989,3.752,3.752,0,0,0-.883,2.6,3.573,3.573,0,0,0,.831,2.5,2.863,2.863,0,0,0,2.228.914,3.613,3.613,0,0,0,2.215-.782ZM162.8,181h-1.441v-5.186q0-2.812-2.092-2.812a2.28,2.28,0,0,0-1.775.813,3.03,3.03,0,0,0-.721,2.087V181h-1.441V167.676h1.441v5.818h.035a3.273,3.273,0,0,1,2.953-1.705q3.041,0,3.041,3.665Zm6.479.211a4.175,4.175,0,0,1-3.186-1.261,4.672,4.672,0,0,1-1.191-3.344,4.867,4.867,0,0,1,1.239-3.542,4.455,4.455,0,0,1,3.349-1.274,4.037,4.037,0,0,1,3.142,1.239,4.914,4.914,0,0,1,1.129,3.437,4.835,4.835,0,0,1-1.217,3.45A4.265,4.265,0,0,1,169.278,181.211Zm.105-8.209a2.742,2.742,0,0,0-2.2.945,3.88,3.88,0,0,0-.809,2.606,3.67,3.67,0,0,0,.817,2.522,2.778,2.778,0,0,0,2.188.923,2.635,2.635,0,0,0,2.149-.905,3.928,3.928,0,0,0,.751-2.575,4,4,0,0,0-.751-2.6A2.623,2.623,0,0,0,169.384,173Zm11.069,7.673v-1.547a4.266,4.266,0,0,0,2.593.87q1.9,0,1.9-1.266a1.1,1.1,0,0,0-.163-.611,1.62,1.62,0,0,0-.439-.444,3.383,3.383,0,0,0-.65-.347q-.374-.154-.8-.321a10.357,10.357,0,0,1-1.05-.479,3.173,3.173,0,0,1-.756-.545,2.028,2.028,0,0,1-.457-.69,2.441,2.441,0,0,1-.154-.905,2.15,2.15,0,0,1,.29-1.121,2.572,2.572,0,0,1,.773-.817,3.607,3.607,0,0,1,1.1-.5,4.893,4.893,0,0,1,1.279-.167,5.164,5.164,0,0,1,2.092.4v1.459a4.077,4.077,0,0,0-2.285-.65,2.671,2.671,0,0,0-.729.092,1.786,1.786,0,0,0-.558.259,1.2,1.2,0,0,0-.36.4,1.053,1.053,0,0,0-.127.514,1.233,1.233,0,0,0,.127.589,1.3,1.3,0,0,0,.374.422,2.855,2.855,0,0,0,.6.334q.352.149.8.325a11.131,11.131,0,0,1,1.072.47,3.678,3.678,0,0,1,.809.545,2.129,2.129,0,0,1,.514.7,2.254,2.254,0,0,1,.18.94,2.217,2.217,0,0,1-.294,1.16,2.523,2.523,0,0,1-.787.817,3.6,3.6,0,0,1-1.134.483,5.6,5.6,0,0,1-1.345.158A5.106,5.106,0,0,1,180.453,180.675Zm11.946.536a4.175,4.175,0,0,1-3.186-1.261,4.672,4.672,0,0,1-1.191-3.344,4.867,4.867,0,0,1,1.239-3.542,4.455,4.455,0,0,1,3.349-1.274,4.037,4.037,0,0,1,3.142,1.239,4.914,4.914,0,0,1,1.129,3.437,4.835,4.835,0,0,1-1.217,3.45A4.265,4.265,0,0,1,192.4,181.211ZM192.5,173a2.742,2.742,0,0,0-2.2.945,3.88,3.88,0,0,0-.809,2.606,3.67,3.67,0,0,0,.817,2.522A2.778,2.778,0,0,0,192.5,180a2.635,2.635,0,0,0,2.149-.905,3.928,3.928,0,0,0,.751-2.575,4,4,0,0,0-.751-2.6A2.623,2.623,0,0,0,192.5,173Zm8.158,6.7h-.035V181h-1.441V167.676h1.441v5.906h.035a3.408,3.408,0,0,1,3.111-1.793A3.3,3.3,0,0,1,206.485,173a4.99,4.99,0,0,1,.98,3.239,5.578,5.578,0,0,1-1.1,3.617,3.658,3.658,0,0,1-3.006,1.358A2.96,2.96,0,0,1,200.662,179.7Zm-.035-3.63v1.257a2.676,2.676,0,0,0,.725,1.894,2.587,2.587,0,0,0,3.894-.224,4.6,4.6,0,0,0,.743-2.786,3.629,3.629,0,0,0-.694-2.355,2.3,2.3,0,0,0-1.881-.853,2.554,2.554,0,0,0-2.021.875A3.211,3.211,0,0,0,200.627,176.069Zm13.836-2.61a1.763,1.763,0,0,0-1.09-.29,1.839,1.839,0,0,0-1.542.87,4.023,4.023,0,0,0-.62,2.373V181H209.77v-9h1.441v1.854h.035a3.143,3.143,0,0,1,.94-1.481,2.144,2.144,0,0,1,1.415-.532,2.353,2.353,0,0,1,.861.123Zm8.8,3.4h-6.354a3.366,3.366,0,0,0,.809,2.32,2.788,2.788,0,0,0,2.127.817,4.422,4.422,0,0,0,2.795-1v1.354a5.224,5.224,0,0,1-3.138.861,3.8,3.8,0,0,1-3-1.226,5.018,5.018,0,0,1-1.09-3.45,4.921,4.921,0,0,1,1.191-3.423,3.819,3.819,0,0,1,2.958-1.323,3.384,3.384,0,0,1,2.733,1.143,4.764,4.764,0,0,1,.967,3.173Zm-1.477-1.222a2.933,2.933,0,0,0-.6-1.942,2.051,2.051,0,0,0-1.648-.694,2.328,2.328,0,0,0-1.731.729,3.31,3.31,0,0,0-.879,1.907ZM237.654,181h-1.441v-1.424h-.035a2.96,2.96,0,0,1-2.777,1.635q-3.217,0-3.217-3.832V172h1.433v5.15q0,2.848,2.18,2.848a2.205,2.205,0,0,0,1.736-.778,2.976,2.976,0,0,0,.681-2.035V172h1.441Zm10.382,0h-1.441v-5.133q0-2.865-2.092-2.865a2.269,2.269,0,0,0-1.789.813,3.013,3.013,0,0,0-.708,2.052V181h-1.441v-9h1.441v1.494h.035a3.248,3.248,0,0,1,2.953-1.705,2.753,2.753,0,0,1,2.259.954,4.248,4.248,0,0,1,.782,2.755ZM2.9,208H1.459V194.676H2.9Zm6.681.211A4.175,4.175,0,0,1,6.4,206.95,4.672,4.672,0,0,1,5.2,203.605a4.867,4.867,0,0,1,1.239-3.542,4.455,4.455,0,0,1,3.349-1.274,4.037,4.037,0,0,1,3.142,1.239,4.914,4.914,0,0,1,1.129,3.437,4.835,4.835,0,0,1-1.217,3.45A4.265,4.265,0,0,1,9.582,208.211ZM9.687,200a2.742,2.742,0,0,0-2.2.945,3.88,3.88,0,0,0-.809,2.606,3.67,3.67,0,0,0,.817,2.522A2.778,2.778,0,0,0,9.687,207a2.635,2.635,0,0,0,2.149-.905,3.928,3.928,0,0,0,.751-2.575,4,4,0,0,0-.751-2.6A2.623,2.623,0,0,0,9.687,200ZM22.5,207.587a4.684,4.684,0,0,1-2.461.624,4.074,4.074,0,0,1-3.107-1.252,4.539,4.539,0,0,1-1.182-3.248,4.99,4.99,0,0,1,1.274-3.573,4.458,4.458,0,0,1,3.4-1.349,4.735,4.735,0,0,1,2.092.439v1.477a3.665,3.665,0,0,0-2.145-.7,2.9,2.9,0,0,0-2.263.989,3.752,3.752,0,0,0-.883,2.6,3.573,3.573,0,0,0,.831,2.5,2.863,2.863,0,0,0,2.228.914,3.613,3.613,0,0,0,2.215-.782Zm8.624.413H29.686v-1.406h-.035a3.018,3.018,0,0,1-2.769,1.617,2.959,2.959,0,0,1-2.1-.712,2.466,2.466,0,0,1-.76-1.89q0-2.522,2.971-2.936l2.7-.378q0-2.294-1.854-2.294a4.431,4.431,0,0,0-2.936,1.107v-1.477a5.577,5.577,0,0,1,3.059-.844q3.173,0,3.173,3.357Zm-1.441-4.553-2.171.3a3.525,3.525,0,0,0-1.512.5,1.432,1.432,0,0,0-.51,1.261,1.374,1.374,0,0,0,.47,1.077,1.817,1.817,0,0,0,1.252.417,2.314,2.314,0,0,0,1.771-.751,2.685,2.685,0,0,0,.7-1.9Zm5.6,4.553H33.845V194.676h1.441Zm13.987-.413a4.684,4.684,0,0,1-2.461.624,4.074,4.074,0,0,1-3.107-1.252,4.539,4.539,0,0,1-1.182-3.248,4.99,4.99,0,0,1,1.274-3.573,4.458,4.458,0,0,1,3.4-1.349,4.735,4.735,0,0,1,2.092.439v1.477a3.665,3.665,0,0,0-2.145-.7,2.9,2.9,0,0,0-2.263.989,3.752,3.752,0,0,0-.883,2.6,3.573,3.573,0,0,0,.831,2.5,2.863,2.863,0,0,0,2.228.914,3.613,3.613,0,0,0,2.215-.782Zm5.943.624a4.175,4.175,0,0,1-3.186-1.261,4.672,4.672,0,0,1-1.191-3.344,4.867,4.867,0,0,1,1.239-3.542,4.455,4.455,0,0,1,3.349-1.274,4.037,4.037,0,0,1,3.142,1.239,4.914,4.914,0,0,1,1.129,3.437,4.835,4.835,0,0,1-1.217,3.45A4.265,4.265,0,0,1,55.217,208.211ZM55.322,200a2.742,2.742,0,0,0-2.2.945,3.88,3.88,0,0,0-.809,2.606,3.67,3.67,0,0,0,.817,2.522,2.778,2.778,0,0,0,2.188.923,2.635,2.635,0,0,0,2.149-.905,3.928,3.928,0,0,0,.751-2.575,4,4,0,0,0-.751-2.6A2.623,2.623,0,0,0,55.322,200Zm19.461,8H73.342v-5.168a3.9,3.9,0,0,0-.461-2.162A1.75,1.75,0,0,0,71.329,200a1.921,1.921,0,0,0-1.569.844,3.228,3.228,0,0,0-.646,2.021V208H67.673v-5.344q0-2.654-2.048-2.654a1.9,1.9,0,0,0-1.564.8,3.288,3.288,0,0,0-.615,2.07V208H62v-9h1.441v1.424h.035a3.058,3.058,0,0,1,2.795-1.635,2.6,2.6,0,0,1,2.549,1.863,3.212,3.212,0,0,1,2.988-1.863q2.971,0,2.971,3.665Zm9.96-4.14H78.388a3.366,3.366,0,0,0,.809,2.32,2.788,2.788,0,0,0,2.127.817,4.422,4.422,0,0,0,2.795-1v1.354a5.224,5.224,0,0,1-3.138.861,3.8,3.8,0,0,1-3-1.226,5.018,5.018,0,0,1-1.09-3.45,4.921,4.921,0,0,1,1.191-3.423,3.819,3.819,0,0,1,2.958-1.323,3.384,3.384,0,0,1,2.733,1.143,4.764,4.764,0,0,1,.967,3.173Zm-1.477-1.222a2.933,2.933,0,0,0-.6-1.942A2.051,2.051,0,0,0,81.016,200a2.328,2.328,0,0,0-1.731.729,3.31,3.31,0,0,0-.879,1.907Zm8.351-2.18a1.763,1.763,0,0,0-1.09-.29,1.839,1.839,0,0,0-1.542.87,4.023,4.023,0,0,0-.62,2.373V208H86.924v-9h1.441v1.854H88.4a3.143,3.143,0,0,1,.94-1.481,2.144,2.144,0,0,1,1.415-.532,2.353,2.353,0,0,1,.861.123Zm7.7,7.128a4.684,4.684,0,0,1-2.461.624,4.074,4.074,0,0,1-3.107-1.252,4.539,4.539,0,0,1-1.182-3.248,4.99,4.99,0,0,1,1.274-3.573,4.458,4.458,0,0,1,3.4-1.349,4.735,4.735,0,0,1,2.092.439v1.477a3.665,3.665,0,0,0-2.145-.7,2.9,2.9,0,0,0-2.263.989,3.752,3.752,0,0,0-.883,2.6,3.573,3.573,0,0,0,.831,2.5A2.863,2.863,0,0,0,97.1,207a3.613,3.613,0,0,0,2.215-.782Zm2.92-10.872a.913.913,0,0,1-.659-.264.89.89,0,0,1-.272-.668.923.923,0,0,1,.932-.94.931.931,0,0,1,.672.268.939.939,0,0,1,0,1.332A.923.923,0,0,1,102.238,196.715Zm.7,11.285H101.5v-9h1.441Zm9.362,0h-1.441v-1.406h-.035a3.018,3.018,0,0,1-2.769,1.617,2.959,2.959,0,0,1-2.1-.712,2.466,2.466,0,0,1-.76-1.89q0-2.522,2.971-2.936l2.7-.378q0-2.294-1.854-2.294a4.431,4.431,0,0,0-2.936,1.107v-1.477a5.577,5.577,0,0,1,3.059-.844q3.173,0,3.173,3.357Zm-1.441-4.553-2.171.3a3.525,3.525,0,0,0-1.512.5,1.432,1.432,0,0,0-.51,1.261,1.374,1.374,0,0,0,.47,1.077,1.817,1.817,0,0,0,1.252.417,2.314,2.314,0,0,0,1.771-.751,2.685,2.685,0,0,0,.7-1.9Zm5.6,4.553h-1.441V194.676h1.441Zm4.238-2-1.406,4.324h-1.028L119.295,206Zm8.995.7h-.035v5.44h-1.441V199h1.441v1.582h.035a3.408,3.408,0,0,1,3.111-1.793A3.3,3.3,0,0,1,135.523,200a5.005,5.005,0,0,1,.976,3.239,5.578,5.578,0,0,1-1.1,3.617,3.658,3.658,0,0,1-3.006,1.358A3.011,3.011,0,0,1,129.7,206.7Zm-.035-3.63v1.257a2.676,2.676,0,0,0,.725,1.894,2.587,2.587,0,0,0,3.894-.224,4.6,4.6,0,0,0,.743-2.786,3.629,3.629,0,0,0-.694-2.355,2.3,2.3,0,0,0-1.881-.853,2.554,2.554,0,0,0-2.021.875A3.211,3.211,0,0,0,129.66,203.069Zm16.376.791h-6.354a3.366,3.366,0,0,0,.809,2.32,2.788,2.788,0,0,0,2.127.817,4.422,4.422,0,0,0,2.795-1v1.354a5.224,5.224,0,0,1-3.138.861,3.8,3.8,0,0,1-3-1.226,5.018,5.018,0,0,1-1.09-3.45,4.921,4.921,0,0,1,1.191-3.423,3.819,3.819,0,0,1,2.958-1.323,3.384,3.384,0,0,1,2.733,1.143,4.764,4.764,0,0,1,.967,3.173Zm-1.477-1.222a2.933,2.933,0,0,0-.6-1.942A2.051,2.051,0,0,0,142.31,200a2.328,2.328,0,0,0-1.731.729,3.31,3.31,0,0,0-.879,1.907Zm8.351-2.18a1.763,1.763,0,0,0-1.09-.29,1.839,1.839,0,0,0-1.542.87,4.023,4.023,0,0,0-.62,2.373V208h-1.441v-9h1.441v1.854h.035a3.143,3.143,0,0,1,.94-1.481,2.144,2.144,0,0,1,1.415-.532,2.353,2.353,0,0,1,.861.123ZM167.257,208h-1.441v-5.168a3.9,3.9,0,0,0-.461-2.162A1.75,1.75,0,0,0,163.8,200a1.921,1.921,0,0,0-1.569.844,3.228,3.228,0,0,0-.646,2.021V208h-1.441v-5.344q0-2.654-2.048-2.654a1.9,1.9,0,0,0-1.564.8,3.288,3.288,0,0,0-.615,2.07V208h-1.441v-9h1.441v1.424h.035a3.058,3.058,0,0,1,2.795-1.635,2.6,2.6,0,0,1,2.549,1.863,3.212,3.212,0,0,1,2.988-1.863q2.971,0,2.971,3.665Zm3.465-11.285a.913.913,0,0,1-.659-.264.89.89,0,0,1-.272-.668.923.923,0,0,1,.932-.94.931.931,0,0,1,.672.268.939.939,0,0,1,0,1.332A.923.923,0,0,1,170.721,196.715Zm.7,11.285h-1.441v-9h1.441Zm7.095-.088a2.779,2.779,0,0,1-1.345.281q-2.364,0-2.364-2.637V200.23h-1.547V199h1.547v-2.2l1.441-.466V199h2.268v1.23h-2.268V205.3a2.1,2.1,0,0,0,.308,1.292,1.228,1.228,0,0,0,1.02.387,1.515,1.515,0,0,0,.94-.3Zm2.665-11.2a.913.913,0,0,1-.659-.264.89.89,0,0,1-.272-.668.923.923,0,0,1,.932-.94.931.931,0,0,1,.672.268.939.939,0,0,1,0,1.332A.923.923,0,0,1,181.184,196.715Zm.7,11.285h-1.441v-9h1.441Zm10.153-4.14h-6.354a3.366,3.366,0,0,0,.809,2.32,2.788,2.788,0,0,0,2.127.817,4.422,4.422,0,0,0,2.795-1v1.354a5.224,5.224,0,0,1-3.138.861,3.8,3.8,0,0,1-3-1.226,5.018,5.018,0,0,1-1.09-3.45,4.921,4.921,0,0,1,1.191-3.423,3.819,3.819,0,0,1,2.958-1.323,3.384,3.384,0,0,1,2.733,1.143,4.764,4.764,0,0,1,.967,3.173Zm-1.477-1.222a2.933,2.933,0,0,0-.6-1.942,2.051,2.051,0,0,0-1.648-.694,2.328,2.328,0,0,0-1.731.729,3.31,3.31,0,0,0-.879,1.907ZM201.692,208h-1.441v-5.133q0-2.865-2.092-2.865a2.269,2.269,0,0,0-1.789.813,3.013,3.013,0,0,0-.708,2.052V208h-1.441v-9h1.441v1.494h.035a3.248,3.248,0,0,1,2.953-1.705,2.753,2.753,0,0,1,2.259.954,4.248,4.248,0,0,1,.782,2.755Zm10.4,0H210.65v-1.529h-.035a3.327,3.327,0,0,1-3.094,1.74A3.362,3.362,0,0,1,204.81,207a4.958,4.958,0,0,1-1.015-3.292,5.394,5.394,0,0,1,1.125-3.577,3.71,3.71,0,0,1,3-1.345,2.885,2.885,0,0,1,2.7,1.459h.035v-5.572h1.441Zm-1.441-4.069V202.6a2.575,2.575,0,0,0-.721-1.846A2.417,2.417,0,0,0,208.1,200a2.489,2.489,0,0,0-2.074.967,4.237,4.237,0,0,0-.756,2.672A3.81,3.81,0,0,0,206,206.1a2.37,2.37,0,0,0,1.947.9,2.462,2.462,0,0,0,1.956-.87A3.242,3.242,0,0,0,210.65,203.931Zm8.123,4.28a4.175,4.175,0,0,1-3.186-1.261,4.672,4.672,0,0,1-1.191-3.344,4.867,4.867,0,0,1,1.239-3.542,4.455,4.455,0,0,1,3.349-1.274,4.037,4.037,0,0,1,3.142,1.239,4.914,4.914,0,0,1,1.129,3.437,4.835,4.835,0,0,1-1.217,3.45A4.265,4.265,0,0,1,218.773,208.211Zm.105-8.209a2.742,2.742,0,0,0-2.2.945,3.88,3.88,0,0,0-.809,2.606,3.67,3.67,0,0,0,.817,2.522,2.778,2.778,0,0,0,2.188.923,2.635,2.635,0,0,0,2.149-.905,3.928,3.928,0,0,0,.751-2.575,4,4,0,0,0-.751-2.6A2.623,2.623,0,0,0,218.879,200Zm19.3,12.138h-1.441v-5.687H236.7a3.225,3.225,0,0,1-3.076,1.758A3.387,3.387,0,0,1,230.9,207a4.929,4.929,0,0,1-1.024-3.292A5.39,5.39,0,0,1,231,200.129a3.744,3.744,0,0,1,3.023-1.34,2.838,2.838,0,0,1,2.672,1.459h.035V199h1.441Zm-1.441-8.191v-1.31a2.619,2.619,0,0,0-.725-1.872,2.428,2.428,0,0,0-1.841-.765,2.475,2.475,0,0,0-2.057.962,4.3,4.3,0,0,0-.756,2.711,3.721,3.721,0,0,0,.729,2.439,2.328,2.328,0,0,0,1.881.883,2.536,2.536,0,0,0,2.017-.866A3.212,3.212,0,0,0,236.733,203.948ZM248.371,208H246.93v-1.424h-.035a2.96,2.96,0,0,1-2.777,1.635q-3.217,0-3.217-3.832V199h1.433v5.15q0,2.848,2.18,2.848a2.205,2.205,0,0,0,1.736-.778,2.976,2.976,0,0,0,.681-2.035V199h1.441Zm10.144-4.14h-6.354a3.366,3.366,0,0,0,.809,2.32A2.788,2.788,0,0,0,255.1,207a4.422,4.422,0,0,0,2.795-1v1.354a5.224,5.224,0,0,1-3.138.861,3.8,3.8,0,0,1-3-1.226,5.018,5.018,0,0,1-1.09-3.45,4.921,4.921,0,0,1,1.191-3.423,3.819,3.819,0,0,1,2.958-1.323,3.384,3.384,0,0,1,2.733,1.143,4.764,4.764,0,0,1,.967,3.173Zm-1.477-1.222a2.933,2.933,0,0,0-.6-1.942,2.051,2.051,0,0,0-1.648-.694,2.328,2.328,0,0,0-1.731.729,3.31,3.31,0,0,0-.879,1.907ZM8.692,230.86H2.338a3.366,3.366,0,0,0,.809,2.32A2.788,2.788,0,0,0,5.273,234a4.422,4.422,0,0,0,2.795-1v1.354a5.224,5.224,0,0,1-3.138.861,3.8,3.8,0,0,1-3-1.226,5.018,5.018,0,0,1-1.09-3.45,4.921,4.921,0,0,1,1.191-3.423,3.819,3.819,0,0,1,2.958-1.323,3.384,3.384,0,0,1,2.733,1.143,4.764,4.764,0,0,1,.967,3.173Zm-1.477-1.222a2.933,2.933,0,0,0-.6-1.942A2.051,2.051,0,0,0,4.966,227a2.328,2.328,0,0,0-1.731.729,3.31,3.31,0,0,0-.879,1.907Zm5.1,5.361H10.874V221.676h1.441Zm9.329-1.3h-.035v5.44H20.168V226h1.441v1.582h.035a3.408,3.408,0,0,1,3.111-1.793A3.3,3.3,0,0,1,27.471,227a5.005,5.005,0,0,1,.976,3.239,5.578,5.578,0,0,1-1.1,3.617,3.658,3.658,0,0,1-3.006,1.358A3.011,3.011,0,0,1,21.644,233.7Zm-.035-3.63v1.257a2.676,2.676,0,0,0,.725,1.894A2.587,2.587,0,0,0,26.228,233a4.6,4.6,0,0,0,.743-2.786,3.629,3.629,0,0,0-.694-2.355A2.3,2.3,0,0,0,24.4,227a2.554,2.554,0,0,0-2.021.875A3.211,3.211,0,0,0,21.609,230.069Zm13.836-2.61a1.763,1.763,0,0,0-1.09-.29,1.839,1.839,0,0,0-1.542.87,4.023,4.023,0,0,0-.62,2.373V235H30.751v-9h1.441v1.854h.035a3.143,3.143,0,0,1,.94-1.481,2.144,2.144,0,0,1,1.415-.532,2.353,2.353,0,0,1,.861.123Zm5.328,7.752a4.175,4.175,0,0,1-3.186-1.261,4.672,4.672,0,0,1-1.191-3.344,4.867,4.867,0,0,1,1.239-3.542,4.455,4.455,0,0,1,3.349-1.274,4.037,4.037,0,0,1,3.142,1.239,4.914,4.914,0,0,1,1.129,3.437,4.835,4.835,0,0,1-1.217,3.45A4.265,4.265,0,0,1,40.773,235.211ZM40.878,227a2.742,2.742,0,0,0-2.2.945,3.88,3.88,0,0,0-.809,2.606,3.67,3.67,0,0,0,.817,2.522,2.778,2.778,0,0,0,2.188.923,2.635,2.635,0,0,0,2.149-.905,3.928,3.928,0,0,0,.751-2.575,4,4,0,0,0-.751-2.6A2.623,2.623,0,0,0,40.878,227Zm8.158,6.7H49v5.44H47.56V226H49v1.582h.035a3.408,3.408,0,0,1,3.111-1.793A3.3,3.3,0,0,1,54.863,227a5.005,5.005,0,0,1,.976,3.239,5.578,5.578,0,0,1-1.1,3.617,3.658,3.658,0,0,1-3.006,1.358A3.011,3.011,0,0,1,49.036,233.7ZM49,230.069v1.257a2.676,2.676,0,0,0,.725,1.894A2.587,2.587,0,0,0,53.62,233a4.6,4.6,0,0,0,.743-2.786,3.629,3.629,0,0,0-.694-2.355A2.3,2.3,0,0,0,51.787,227a2.554,2.554,0,0,0-2.021.875A3.211,3.211,0,0,0,49,230.069Zm9.881-6.354a.913.913,0,0,1-.659-.264.89.89,0,0,1-.272-.668.923.923,0,0,1,.932-.94.931.931,0,0,1,.672.268.939.939,0,0,1,0,1.332A.923.923,0,0,1,58.882,223.715Zm.7,11.285H58.143v-9h1.441Zm10.153-4.14H63.384a3.366,3.366,0,0,0,.809,2.32,2.788,2.788,0,0,0,2.127.817,4.422,4.422,0,0,0,2.795-1v1.354a5.224,5.224,0,0,1-3.138.861,3.8,3.8,0,0,1-3-1.226,5.018,5.018,0,0,1-1.09-3.45,4.921,4.921,0,0,1,1.191-3.423,3.819,3.819,0,0,1,2.958-1.323,3.384,3.384,0,0,1,2.733,1.143,4.764,4.764,0,0,1,.967,3.173Zm-1.477-1.222a2.933,2.933,0,0,0-.6-1.942A2.051,2.051,0,0,0,66.011,227a2.328,2.328,0,0,0-1.731.729,3.31,3.31,0,0,0-.879,1.907Zm7.833,5.273a2.779,2.779,0,0,1-1.345.281q-2.364,0-2.364-2.637V227.23H70.838V226h1.547v-2.2l1.441-.466V226h2.268v1.23H73.827V232.3a2.1,2.1,0,0,0,.308,1.292,1.228,1.228,0,0,0,1.02.387,1.515,1.515,0,0,0,.94-.3Zm8.369.088H83.022v-1.406h-.035a3.018,3.018,0,0,1-2.769,1.617,2.959,2.959,0,0,1-2.1-.712,2.466,2.466,0,0,1-.76-1.89q0-2.522,2.971-2.936l2.7-.378q0-2.294-1.854-2.294a4.431,4.431,0,0,0-2.936,1.107v-1.477a5.577,5.577,0,0,1,3.059-.844q3.173,0,3.173,3.357Zm-1.441-4.553-2.171.3a3.525,3.525,0,0,0-1.512.5,1.432,1.432,0,0,0-.51,1.261,1.374,1.374,0,0,0,.47,1.077,1.817,1.817,0,0,0,1.252.417,2.314,2.314,0,0,0,1.771-.751,2.685,2.685,0,0,0,.7-1.9Zm8.852-2.988a1.763,1.763,0,0,0-1.09-.29,1.839,1.839,0,0,0-1.542.87,4.023,4.023,0,0,0-.62,2.373V235H87.181v-9h1.441v1.854h.035a3.143,3.143,0,0,1,.94-1.481,2.144,2.144,0,0,1,1.415-.532,2.353,2.353,0,0,1,.861.123Zm2.3-3.744a.913.913,0,0,1-.659-.264.89.89,0,0,1-.272-.668.923.923,0,0,1,.932-.94.931.931,0,0,1,.672.268.939.939,0,0,1,0,1.332A.923.923,0,0,1,94.179,223.715Zm.7,11.285H93.441v-9h1.441Zm6.681.211a4.175,4.175,0,0,1-3.186-1.261,4.672,4.672,0,0,1-1.191-3.344,4.867,4.867,0,0,1,1.239-3.542,4.455,4.455,0,0,1,3.349-1.274,4.037,4.037,0,0,1,3.142,1.239,4.914,4.914,0,0,1,1.129,3.437,4.835,4.835,0,0,1-1.217,3.45A4.265,4.265,0,0,1,101.563,235.211Zm.105-8.209a2.742,2.742,0,0,0-2.2.945,3.88,3.88,0,0,0-.809,2.606,3.67,3.67,0,0,0,.817,2.522,2.778,2.778,0,0,0,2.188.923,2.635,2.635,0,0,0,2.149-.905,3.928,3.928,0,0,0,.751-2.575,4,4,0,0,0-.751-2.6A2.623,2.623,0,0,0,101.669,227Zm16.307.457a1.763,1.763,0,0,0-1.09-.29,1.839,1.839,0,0,0-1.542.87,4.023,4.023,0,0,0-.62,2.373V235h-1.441v-9h1.441v1.854h.035a3.143,3.143,0,0,1,.94-1.481,2.144,2.144,0,0,1,1.415-.532,2.353,2.353,0,0,1,.861.123Zm8.8,3.4h-6.354a3.366,3.366,0,0,0,.809,2.32,2.788,2.788,0,0,0,2.127.817,4.422,4.422,0,0,0,2.795-1v1.354a5.224,5.224,0,0,1-3.138.861,3.8,3.8,0,0,1-3-1.226,5.018,5.018,0,0,1-1.09-3.45,4.921,4.921,0,0,1,1.191-3.423,3.819,3.819,0,0,1,2.958-1.323,3.384,3.384,0,0,1,2.733,1.143,4.764,4.764,0,0,1,.967,3.173Zm-1.477-1.222a2.933,2.933,0,0,0-.6-1.942,2.051,2.051,0,0,0-1.648-.694,2.328,2.328,0,0,0-1.731.729,3.31,3.31,0,0,0-.879,1.907Zm9.793,4.948a4.684,4.684,0,0,1-2.461.624,4.074,4.074,0,0,1-3.107-1.252,4.539,4.539,0,0,1-1.182-3.248,4.99,4.99,0,0,1,1.274-3.573,4.458,4.458,0,0,1,3.4-1.349,4.735,4.735,0,0,1,2.092.439v1.477a3.665,3.665,0,0,0-2.145-.7,2.9,2.9,0,0,0-2.263.989,3.752,3.752,0,0,0-.883,2.6,3.573,3.573,0,0,0,.831,2.5,2.863,2.863,0,0,0,2.228.914,3.613,3.613,0,0,0,2.215-.782Zm9.459.413H143.11v-1.424h-.035a2.96,2.96,0,0,1-2.777,1.635q-3.217,0-3.217-3.832V226h1.433v5.15q0,2.848,2.18,2.848a2.205,2.205,0,0,0,1.736-.778,2.976,2.976,0,0,0,.681-2.035V226h1.441Zm4.388-1.3H148.9v5.44h-1.441V226H148.9v1.582h.035a3.408,3.408,0,0,1,3.111-1.793A3.3,3.3,0,0,1,154.766,227a5.005,5.005,0,0,1,.976,3.239,5.578,5.578,0,0,1-1.1,3.617,3.658,3.658,0,0,1-3.006,1.358A3.011,3.011,0,0,1,148.938,233.7Zm-.035-3.63v1.257a2.676,2.676,0,0,0,.725,1.894,2.587,2.587,0,0,0,3.894-.224,4.6,4.6,0,0,0,.743-2.786,3.629,3.629,0,0,0-.694-2.355,2.3,2.3,0,0,0-1.881-.853,2.554,2.554,0,0,0-2.021.875A3.211,3.211,0,0,0,148.9,230.069Zm16.376.791h-6.354a3.366,3.366,0,0,0,.809,2.32,2.788,2.788,0,0,0,2.127.817,4.422,4.422,0,0,0,2.795-1v1.354a5.224,5.224,0,0,1-3.138.861,3.8,3.8,0,0,1-3-1.226,5.018,5.018,0,0,1-1.09-3.45,4.921,4.921,0,0,1,1.191-3.423,3.819,3.819,0,0,1,2.958-1.323,3.384,3.384,0,0,1,2.733,1.143,4.764,4.764,0,0,1,.967,3.173Zm-1.477-1.222a2.933,2.933,0,0,0-.6-1.942,2.051,2.051,0,0,0-1.648-.694,2.328,2.328,0,0,0-1.731.729,3.31,3.31,0,0,0-.879,1.907Zm8.351-2.18a1.763,1.763,0,0,0-1.09-.29,1.839,1.839,0,0,0-1.542.87,4.023,4.023,0,0,0-.62,2.373V235h-1.441v-9H168.9v1.854h.035a3.143,3.143,0,0,1,.94-1.481,2.144,2.144,0,0,1,1.415-.532,2.353,2.353,0,0,1,.861.123Zm8.8,3.4H174.6a3.366,3.366,0,0,0,.809,2.32,2.788,2.788,0,0,0,2.127.817,4.422,4.422,0,0,0,2.795-1v1.354a5.224,5.224,0,0,1-3.138.861,3.8,3.8,0,0,1-3-1.226,5.018,5.018,0,0,1-1.09-3.45,4.921,4.921,0,0,1,1.191-3.423,3.819,3.819,0,0,1,2.958-1.323,3.384,3.384,0,0,1,2.733,1.143,4.764,4.764,0,0,1,.967,3.173Zm-1.477-1.222a2.933,2.933,0,0,0-.6-1.942,2.051,2.051,0,0,0-1.648-.694,2.328,2.328,0,0,0-1.731.729,3.31,3.31,0,0,0-.879,1.907ZM195.3,230.86h-6.354a3.366,3.366,0,0,0,.809,2.32,2.788,2.788,0,0,0,2.127.817,4.422,4.422,0,0,0,2.795-1v1.354a5.224,5.224,0,0,1-3.138.861,3.8,3.8,0,0,1-3-1.226,5.018,5.018,0,0,1-1.09-3.45,4.921,4.921,0,0,1,1.191-3.423,3.819,3.819,0,0,1,2.958-1.323,3.384,3.384,0,0,1,2.733,1.143,4.764,4.764,0,0,1,.967,3.173Zm-1.477-1.222a2.933,2.933,0,0,0-.6-1.942,2.051,2.051,0,0,0-1.648-.694,2.328,2.328,0,0,0-1.731.729,3.31,3.31,0,0,0-.879,1.907Zm5.1,5.361h-1.441V221.676h1.441Zm9.329-1.3h-.035V235h-1.441V221.676h1.441v5.906h.035a3.408,3.408,0,0,1,3.111-1.793A3.3,3.3,0,0,1,214.075,227a4.99,4.99,0,0,1,.98,3.239,5.578,5.578,0,0,1-1.1,3.617,3.658,3.658,0,0,1-3.006,1.358A2.96,2.96,0,0,1,208.253,233.7Zm-.035-3.63v1.257a2.676,2.676,0,0,0,.725,1.894,2.587,2.587,0,0,0,3.894-.224,4.6,4.6,0,0,0,.743-2.786,3.629,3.629,0,0,0-.694-2.355A2.3,2.3,0,0,0,211,227a2.554,2.554,0,0,0-2.021.875A3.211,3.211,0,0,0,208.218,230.069Zm9.881-6.354a.913.913,0,0,1-.659-.264.89.89,0,0,1-.272-.668.923.923,0,0,1,.932-.94.931.931,0,0,1,.672.268.939.939,0,0,1,0,1.332A.923.923,0,0,1,218.1,223.715ZM218.8,235H217.36v-9H218.8Zm10.153-4.14H222.6a3.366,3.366,0,0,0,.809,2.32,2.788,2.788,0,0,0,2.127.817,4.422,4.422,0,0,0,2.795-1v1.354a5.224,5.224,0,0,1-3.138.861,3.8,3.8,0,0,1-3-1.226,5.018,5.018,0,0,1-1.09-3.45,4.921,4.921,0,0,1,1.191-3.423,3.819,3.819,0,0,1,2.958-1.323,3.384,3.384,0,0,1,2.733,1.143,4.764,4.764,0,0,1,.967,3.173Zm-1.477-1.222a2.933,2.933,0,0,0-.6-1.942,2.051,2.051,0,0,0-1.648-.694,2.328,2.328,0,0,0-1.731.729,3.31,3.31,0,0,0-.879,1.907ZM238.607,235h-1.441v-5.133q0-2.865-2.092-2.865a2.269,2.269,0,0,0-1.789.813,3.013,3.013,0,0,0-.708,2.052V235h-1.441v-9h1.441v1.494h.035a3.248,3.248,0,0,1,2.953-1.705,2.753,2.753,0,0,1,2.259.954,4.248,4.248,0,0,1,.782,2.755ZM7.9,262H6.46v-1.406H6.425a3.018,3.018,0,0,1-2.769,1.617,2.959,2.959,0,0,1-2.1-.712,2.466,2.466,0,0,1-.76-1.89q0-2.522,2.971-2.936l2.7-.378Q6.46,254,4.605,254a4.431,4.431,0,0,0-2.936,1.107v-1.477a5.577,5.577,0,0,1,3.059-.844q3.173,0,3.173,3.357ZM6.46,257.447l-2.171.3a3.525,3.525,0,0,0-1.512.5,1.432,1.432,0,0,0-.51,1.261,1.374,1.374,0,0,0,.47,1.077A1.817,1.817,0,0,0,3.99,261a2.314,2.314,0,0,0,1.771-.751,2.685,2.685,0,0,0,.7-1.9ZM18.09,262H16.648v-5.133q0-2.865-2.092-2.865a2.269,2.269,0,0,0-1.789.813,3.013,3.013,0,0,0-.708,2.052V262H10.619v-9H12.06v1.494H12.1a3.248,3.248,0,0,1,2.953-1.705,2.753,2.753,0,0,1,2.259.954,4.248,4.248,0,0,1,.782,2.755Zm6.892-.088a2.779,2.779,0,0,1-1.345.281q-2.364,0-2.364-2.637V254.23H19.726V253h1.547v-2.2l1.441-.466V253h2.268v1.23H22.715V259.3a2.1,2.1,0,0,0,.308,1.292,1.228,1.228,0,0,0,1.02.387,1.515,1.515,0,0,0,.94-.3Zm9.16-4.052H27.788a3.366,3.366,0,0,0,.809,2.32,2.788,2.788,0,0,0,2.127.817,4.422,4.422,0,0,0,2.795-1v1.354a5.224,5.224,0,0,1-3.138.861,3.8,3.8,0,0,1-3-1.226,5.018,5.018,0,0,1-1.09-3.45,4.921,4.921,0,0,1,1.191-3.423,3.819,3.819,0,0,1,2.958-1.323,3.384,3.384,0,0,1,2.733,1.143,4.764,4.764,0,0,1,.967,3.173Zm-1.477-1.222a2.933,2.933,0,0,0-.6-1.942A2.051,2.051,0,0,0,30.416,254a2.328,2.328,0,0,0-1.731.729,3.31,3.31,0,0,0-.879,1.907Zm3.113,5.036v-1.547a4.266,4.266,0,0,0,2.593.87q1.9,0,1.9-1.266a1.1,1.1,0,0,0-.163-.611,1.62,1.62,0,0,0-.439-.444,3.383,3.383,0,0,0-.65-.347q-.374-.154-.8-.321a10.357,10.357,0,0,1-1.05-.479,3.173,3.173,0,0,1-.756-.545,2.028,2.028,0,0,1-.457-.69,2.441,2.441,0,0,1-.154-.905,2.15,2.15,0,0,1,.29-1.121,2.572,2.572,0,0,1,.773-.817,3.607,3.607,0,0,1,1.1-.5,4.893,4.893,0,0,1,1.279-.167,5.164,5.164,0,0,1,2.092.4v1.459a4.077,4.077,0,0,0-2.285-.65,2.671,2.671,0,0,0-.729.092,1.786,1.786,0,0,0-.558.259,1.2,1.2,0,0,0-.36.4,1.053,1.053,0,0,0-.127.514,1.233,1.233,0,0,0,.127.589,1.3,1.3,0,0,0,.374.422,2.855,2.855,0,0,0,.6.334q.352.149.8.325a11.131,11.131,0,0,1,1.072.47,3.678,3.678,0,0,1,.809.545,2.129,2.129,0,0,1,.514.7,2.254,2.254,0,0,1,.18.94,2.217,2.217,0,0,1-.294,1.16,2.523,2.523,0,0,1-.787.817,3.6,3.6,0,0,1-1.134.483,5.6,5.6,0,0,1-1.345.158A5.106,5.106,0,0,1,35.779,261.675Zm20.8.325H55.136v-1.529H55.1a3.327,3.327,0,0,1-3.094,1.74A3.362,3.362,0,0,1,49.3,261a4.958,4.958,0,0,1-1.015-3.292,5.394,5.394,0,0,1,1.125-3.577,3.71,3.71,0,0,1,3-1.345,2.885,2.885,0,0,1,2.7,1.459h.035v-5.572h1.441Zm-1.441-4.069V256.6a2.575,2.575,0,0,0-.721-1.846A2.417,2.417,0,0,0,52.587,254a2.489,2.489,0,0,0-2.074.967,4.237,4.237,0,0,0-.756,2.672,3.81,3.81,0,0,0,.725,2.457,2.37,2.37,0,0,0,1.947.9,2.462,2.462,0,0,0,1.956-.87A3.242,3.242,0,0,0,55.136,257.931Zm11.595-.07H60.376a3.366,3.366,0,0,0,.809,2.32,2.788,2.788,0,0,0,2.127.817,4.422,4.422,0,0,0,2.795-1v1.354a5.224,5.224,0,0,1-3.138.861,3.8,3.8,0,0,1-3-1.226,5.018,5.018,0,0,1-1.09-3.45,4.921,4.921,0,0,1,1.191-3.423,3.819,3.819,0,0,1,2.958-1.323,3.384,3.384,0,0,1,2.733,1.143,4.764,4.764,0,0,1,.967,3.173Zm-1.477-1.222a2.933,2.933,0,0,0-.6-1.942A2.051,2.051,0,0,0,63,254a2.328,2.328,0,0,0-1.731.729,3.31,3.31,0,0,0-.879,1.907Zm5.1,5.361H68.912V248.676h1.441Zm9.329-1.3h-.035v5.44H78.205V253h1.441v1.582h.035a3.408,3.408,0,0,1,3.111-1.793A3.3,3.3,0,0,1,85.509,254a5.005,5.005,0,0,1,.976,3.239,5.578,5.578,0,0,1-1.1,3.617,3.658,3.658,0,0,1-3.006,1.358A3.011,3.011,0,0,1,79.682,260.7Zm-.035-3.63v1.257a2.676,2.676,0,0,0,.725,1.894A2.587,2.587,0,0,0,84.266,260a4.6,4.6,0,0,0,.743-2.786,3.629,3.629,0,0,0-.694-2.355A2.3,2.3,0,0,0,82.433,254a2.554,2.554,0,0,0-2.021.875A3.211,3.211,0,0,0,79.647,257.069ZM90.231,262H88.789V248.676h1.441Zm9.362,0H98.151v-1.406h-.035a3.018,3.018,0,0,1-2.769,1.617,2.959,2.959,0,0,1-2.1-.712,2.466,2.466,0,0,1-.76-1.89q0-2.522,2.971-2.936l2.7-.378Q98.151,254,96.3,254a4.431,4.431,0,0,0-2.936,1.107v-1.477a5.577,5.577,0,0,1,3.059-.844q3.173,0,3.173,3.357Zm-1.441-4.553-2.171.3a3.525,3.525,0,0,0-1.512.5,1.432,1.432,0,0,0-.51,1.261,1.374,1.374,0,0,0,.47,1.077,1.817,1.817,0,0,0,1.252.417,2.314,2.314,0,0,0,1.771-.751,2.685,2.685,0,0,0,.7-1.9Zm10.434-4.034-5.326,7.356h5.273V262h-7.392v-.448l5.326-7.321h-4.825V253h6.943Zm5.627,8.8a4.175,4.175,0,0,1-3.186-1.261,4.672,4.672,0,0,1-1.191-3.344,4.867,4.867,0,0,1,1.239-3.542,4.455,4.455,0,0,1,3.349-1.274,4.037,4.037,0,0,1,3.142,1.239,4.914,4.914,0,0,1,1.129,3.437,4.835,4.835,0,0,1-1.217,3.45A4.265,4.265,0,0,1,114.213,262.211Zm.105-8.209a2.742,2.742,0,0,0-2.2.945,3.88,3.88,0,0,0-.809,2.606,3.67,3.67,0,0,0,.817,2.522,2.778,2.778,0,0,0,2.188.923,2.635,2.635,0,0,0,2.149-.905,3.928,3.928,0,0,0,.751-2.575,4,4,0,0,0-.751-2.6A2.623,2.623,0,0,0,114.318,254Zm18.847,3.858h-6.354a3.366,3.366,0,0,0,.809,2.32,2.788,2.788,0,0,0,2.127.817,4.422,4.422,0,0,0,2.795-1v1.354a5.224,5.224,0,0,1-3.138.861,3.8,3.8,0,0,1-3-1.226,5.018,5.018,0,0,1-1.09-3.45,4.921,4.921,0,0,1,1.191-3.423,3.819,3.819,0,0,1,2.958-1.323,3.384,3.384,0,0,1,2.733,1.143,4.764,4.764,0,0,1,.967,3.173Zm-1.477-1.222a2.933,2.933,0,0,0-.6-1.942,2.051,2.051,0,0,0-1.648-.694,2.328,2.328,0,0,0-1.731.729,3.31,3.31,0,0,0-.879,1.907Zm3.113,5.036v-1.547a4.266,4.266,0,0,0,2.593.87q1.9,0,1.9-1.266a1.1,1.1,0,0,0-.163-.611,1.62,1.62,0,0,0-.439-.444,3.383,3.383,0,0,0-.65-.347q-.374-.154-.8-.321a10.357,10.357,0,0,1-1.05-.479,3.173,3.173,0,0,1-.756-.545,2.028,2.028,0,0,1-.457-.69,2.441,2.441,0,0,1-.154-.905,2.15,2.15,0,0,1,.29-1.121,2.572,2.572,0,0,1,.773-.817,3.607,3.607,0,0,1,1.1-.5,4.893,4.893,0,0,1,1.279-.167,5.164,5.164,0,0,1,2.092.4v1.459a4.077,4.077,0,0,0-2.285-.65,2.671,2.671,0,0,0-.729.092,1.786,1.786,0,0,0-.558.259,1.2,1.2,0,0,0-.36.4,1.053,1.053,0,0,0-.127.514,1.233,1.233,0,0,0,.127.589,1.3,1.3,0,0,0,.374.422,2.855,2.855,0,0,0,.6.334q.352.149.8.325a11.131,11.131,0,0,1,1.072.47,3.678,3.678,0,0,1,.809.545,2.129,2.129,0,0,1,.514.7,2.254,2.254,0,0,1,.18.94,2.217,2.217,0,0,1-.294,1.16,2.523,2.523,0,0,1-.787.817,3.6,3.6,0,0,1-1.134.483,5.6,5.6,0,0,1-1.345.158A5.106,5.106,0,0,1,134.8,261.675Zm12.359.237a2.779,2.779,0,0,1-1.345.281q-2.364,0-2.364-2.637V254.23h-1.547V253h1.547v-2.2l1.441-.466V253h2.268v1.23h-2.268V259.3a2.1,2.1,0,0,0,.308,1.292,1.228,1.228,0,0,0,1.02.387,1.515,1.515,0,0,0,.94-.3Zm2.665-11.2a.913.913,0,0,1-.659-.264.89.89,0,0,1-.272-.668.923.923,0,0,1,.932-.94.931.931,0,0,1,.672.268.939.939,0,0,1,0,1.332A.923.923,0,0,1,149.826,250.715Zm.7,11.285h-1.441v-9h1.441Zm4.4-1.3h-.035v5.44h-1.441V253h1.441v1.582h.035a3.408,3.408,0,0,1,3.111-1.793A3.3,3.3,0,0,1,160.753,254a5.005,5.005,0,0,1,.976,3.239,5.578,5.578,0,0,1-1.1,3.617,3.658,3.658,0,0,1-3.006,1.358A3.011,3.011,0,0,1,154.926,260.7Zm-.035-3.63v1.257a2.676,2.676,0,0,0,.725,1.894,2.587,2.587,0,0,0,3.894-.224,4.6,4.6,0,0,0,.743-2.786,3.629,3.629,0,0,0-.694-2.355,2.3,2.3,0,0,0-1.881-.853,2.554,2.554,0,0,0-2.021.875A3.211,3.211,0,0,0,154.89,257.069ZM171.31,262h-1.441v-1.424h-.035a2.96,2.96,0,0,1-2.777,1.635q-3.217,0-3.217-3.832V253h1.433v5.15q0,2.848,2.18,2.848a2.205,2.205,0,0,0,1.736-.778,2.976,2.976,0,0,0,.681-2.035V253h1.441Zm4.352,0h-1.441V248.676h1.441Zm9.362,0h-1.441v-1.406h-.035a3.018,3.018,0,0,1-2.769,1.617,2.959,2.959,0,0,1-2.1-.712,2.466,2.466,0,0,1-.76-1.89q0-2.522,2.971-2.936l2.7-.378q0-2.294-1.854-2.294a4.431,4.431,0,0,0-2.936,1.107v-1.477a5.577,5.577,0,0,1,3.059-.844q3.173,0,3.173,3.357Zm-1.441-4.553-2.171.3a3.525,3.525,0,0,0-1.512.5,1.432,1.432,0,0,0-.51,1.261,1.374,1.374,0,0,0,.47,1.077,1.817,1.817,0,0,0,1.252.417,2.314,2.314,0,0,0,1.771-.751,2.685,2.685,0,0,0,.7-1.9ZM195.424,262h-1.441v-1.529h-.035a3.327,3.327,0,0,1-3.094,1.74A3.362,3.362,0,0,1,188.142,261a4.958,4.958,0,0,1-1.015-3.292,5.394,5.394,0,0,1,1.125-3.577,3.71,3.71,0,0,1,3-1.345,2.885,2.885,0,0,1,2.7,1.459h.035v-5.572h1.441Zm-1.441-4.069V256.6a2.575,2.575,0,0,0-.721-1.846,2.417,2.417,0,0,0-1.828-.756,2.489,2.489,0,0,0-2.074.967,4.237,4.237,0,0,0-.756,2.672,3.81,3.81,0,0,0,.725,2.457,2.37,2.37,0,0,0,1.947.9,2.462,2.462,0,0,0,1.956-.87A3.242,3.242,0,0,0,193.983,257.931Zm8.123,4.28a4.175,4.175,0,0,1-3.186-1.261,4.672,4.672,0,0,1-1.191-3.344,4.867,4.867,0,0,1,1.239-3.542,4.455,4.455,0,0,1,3.349-1.274,4.037,4.037,0,0,1,3.142,1.239,4.914,4.914,0,0,1,1.129,3.437,4.835,4.835,0,0,1-1.217,3.45A4.265,4.265,0,0,1,202.106,262.211Zm.105-8.209a2.742,2.742,0,0,0-2.2.945,3.88,3.88,0,0,0-.809,2.606,3.67,3.67,0,0,0,.817,2.522,2.778,2.778,0,0,0,2.188.923,2.635,2.635,0,0,0,2.149-.905,3.928,3.928,0,0,0,.751-2.575,4,4,0,0,0-.751-2.6A2.623,2.623,0,0,0,202.211,254Zm7.182,8.191a.933.933,0,0,1-.69-.29.955.955,0,0,1-.286-.694.969.969,0,0,1,.286-.7.926.926,0,0,1,.69-.294.95.95,0,0,1,.7.294.962.962,0,0,1,.29.7.947.947,0,0,1-.29.694A.958.958,0,0,1,209.393,262.193Z" transform="translate(1141.688 2700.847)" fill="#212429"/>
    <path id="Trazado_978887" data-name="Trazado 978887" d="M43.056,43.055a147,147,0,1,1,0,207.89,147,147,0,0,1,0-207.89" transform="translate(1126 2664.949) rotate(-90)" fill="#627295"/>
    <path id="Trazado_978892" data-name="Trazado 978892" d="M147.736,293.984V0a146.993,146.993,0,1,0,0,293.982" transform="translate(1126.006 2664.949) rotate(-90)" fill="#1d212c"/>
    <path id="Trazado_979212" data-name="Trazado 979212" d="M28.081,28h-4.71L20.54,23.315q-.317-.533-.609-.952a5.29,5.29,0,0,0-.59-.717,2.348,2.348,0,0,0-.622-.457,1.579,1.579,0,0,0-.7-.159h-1.1V28h-4.1V9.795h6.5q6.627,0,6.627,4.951a5.127,5.127,0,0,1-.292,1.758,4.885,4.885,0,0,1-.825,1.454,5.231,5.231,0,0,1-1.289,1.117,6.645,6.645,0,0,1-1.682.736v.051a2.609,2.609,0,0,1,.787.413,5.636,5.636,0,0,1,.736.667,9.3,9.3,0,0,1,.679.819q.324.438.59.857ZM16.909,12.867v5.065h1.777a2.947,2.947,0,0,0,2.12-.762,2.542,2.542,0,0,0,.813-1.917q0-2.387-2.856-2.387Zm23.512,9.775h-8.48q.2,2.831,3.567,2.831a6.965,6.965,0,0,0,3.771-1.016v2.895a9.9,9.9,0,0,1-4.685.965,6.594,6.594,0,0,1-4.888-1.746A6.6,6.6,0,0,1,27.967,21.7a6.957,6.957,0,0,1,1.879-5.129,6.26,6.26,0,0,1,4.621-1.892,5.681,5.681,0,0,1,4.4,1.688,6.5,6.5,0,0,1,1.555,4.583ZM36.7,20.18q0-2.793-2.26-2.793a2.158,2.158,0,0,0-1.669.8,3.63,3.63,0,0,0-.857,1.993ZM55.364,28h-4V20.776q0-3.021-2.158-3.021a2.141,2.141,0,0,0-1.714.8,3.047,3.047,0,0,0-.673,2.031V28H42.808V15H46.82v2.057h.051a4.6,4.6,0,0,1,4.177-2.374q4.316,0,4.316,5.357ZM70.89,28h-4V26.02h-.063a4.537,4.537,0,0,1-3.974,2.3q-4.52,0-4.52-5.472V15h4v7.49q0,2.755,2.184,2.755a2.16,2.16,0,0,0,1.727-.755,3.046,3.046,0,0,0,.647-2.05V15h4Zm15.933,0h-4V20.776q0-3.021-2.158-3.021a2.141,2.141,0,0,0-1.714.8,3.047,3.047,0,0,0-.673,2.031V28H74.267V15h4.012v2.057h.051a4.6,4.6,0,0,1,4.177-2.374q4.316,0,4.316,5.357Zm13.025-.47a7.932,7.932,0,0,1-3.923.787,6.634,6.634,0,0,1-4.85-1.815,6.27,6.27,0,0,1-1.854-4.685,6.907,6.907,0,0,1,1.987-5.224,7.343,7.343,0,0,1,5.313-1.911,6.817,6.817,0,0,1,3.326.609v3.4a4.573,4.573,0,0,0-2.806-.939,3.7,3.7,0,0,0-2.736,1.009A3.766,3.766,0,0,0,93.3,21.551a3.7,3.7,0,0,0,.965,2.71,3.546,3.546,0,0,0,2.653.984,5.3,5.3,0,0,0,2.933-.939Zm4.659-14.587a2.343,2.343,0,0,1-1.663-.6,1.943,1.943,0,0,1-.647-1.479,1.874,1.874,0,0,1,.647-1.473,2.716,2.716,0,0,1,3.333,0,1.882,1.882,0,0,1,.641,1.473,1.935,1.935,0,0,1-.641,1.5A2.383,2.383,0,0,1,104.507,12.943ZM106.488,28h-4.012V15h4.012Zm14.193,0h-3.8V26.134h-.051a4.237,4.237,0,0,1-3.872,2.184,4.05,4.05,0,0,1-2.977-1.073,3.844,3.844,0,0,1-1.085-2.863q0-3.783,4.481-4.367l3.529-.47q0-2.133-2.311-2.133a7.887,7.887,0,0,0-4.418,1.384V15.774a9.939,9.939,0,0,1,2.292-.762,12.046,12.046,0,0,1,2.647-.33q5.561,0,5.561,5.548Zm-3.771-5.281v-.876l-2.361.3q-1.955.254-1.955,1.765a1.458,1.458,0,0,0,.476,1.124,1.829,1.829,0,0,0,1.289.438,2.375,2.375,0,0,0,1.841-.781A2.82,2.82,0,0,0,116.91,22.719ZM143.748,28h-4.012V26.21h-.051a4.5,4.5,0,0,1-4.024,2.107,4.929,4.929,0,0,1-3.923-1.72,7.121,7.121,0,0,1-1.485-4.805,7.751,7.751,0,0,1,1.638-5.167,5.342,5.342,0,0,1,4.291-1.942,3.65,3.65,0,0,1,3.5,1.8h.051V8.754h4.012Zm-3.936-6.322V20.7a3.076,3.076,0,0,0-.736-2.107,2.6,2.6,0,0,0-4,.209,4.864,4.864,0,0,0-.749,2.875,4.209,4.209,0,0,0,.724,2.641,2.569,2.569,0,0,0,3.993-.051A4.075,4.075,0,0,0,139.813,21.678Zm18.992.965h-8.48q.2,2.831,3.567,2.831a6.965,6.965,0,0,0,3.771-1.016v2.895a9.9,9.9,0,0,1-4.685.965,6.594,6.594,0,0,1-4.888-1.746,6.6,6.6,0,0,1-1.739-4.869,6.957,6.957,0,0,1,1.879-5.129,6.26,6.26,0,0,1,4.621-1.892,5.681,5.681,0,0,1,4.4,1.688,6.5,6.5,0,0,1,1.555,4.583Zm-3.72-2.463q0-2.793-2.26-2.793a2.158,2.158,0,0,0-1.669.8,3.63,3.63,0,0,0-.857,1.993ZM165.2,28h-4.012V8.754H165.2ZM20.318,59h-4V57.02h-.063a4.537,4.537,0,0,1-3.974,2.3q-4.52,0-4.52-5.472V46h4v7.49q0,2.755,2.184,2.755a2.16,2.16,0,0,0,1.727-.755,3.046,3.046,0,0,0,.647-2.05V46h4Zm2.526-.343v-3.25a8.541,8.541,0,0,0,1.974.889,6.546,6.546,0,0,0,1.86.292,3.989,3.989,0,0,0,1.682-.292.943.943,0,0,0,.616-.889.822.822,0,0,0-.279-.635,2.6,2.6,0,0,0-.717-.444,8.14,8.14,0,0,0-.958-.343q-.521-.152-1-.343a9.609,9.609,0,0,1-1.365-.628,3.945,3.945,0,0,1-.99-.781,3.069,3.069,0,0,1-.609-1.028,4.1,4.1,0,0,1-.209-1.384,3.562,3.562,0,0,1,.476-1.879,3.889,3.889,0,0,1,1.27-1.289,5.8,5.8,0,0,1,1.815-.736,9.466,9.466,0,0,1,2.126-.235,11.8,11.8,0,0,1,1.752.133,13.076,13.076,0,0,1,1.752.387v3.1a6.331,6.331,0,0,0-1.631-.667,6.881,6.881,0,0,0-1.708-.222,3.783,3.783,0,0,0-.743.07,2.446,2.446,0,0,0-.616.2,1.131,1.131,0,0,0-.419.343.789.789,0,0,0-.152.476.879.879,0,0,0,.229.609,1.985,1.985,0,0,0,.6.438,5.89,5.89,0,0,0,.819.33q.451.146.9.3a11.637,11.637,0,0,1,1.447.609,4.627,4.627,0,0,1,1.111.774,3.041,3.041,0,0,1,.711,1.041,4.165,4.165,0,0,1-.254,3.4,4.015,4.015,0,0,1-1.333,1.333,6.045,6.045,0,0,1-1.917.749,10.627,10.627,0,0,1-2.253.235A11.617,11.617,0,0,1,22.845,58.657ZM47.486,59h-4V57.02h-.063a4.537,4.537,0,0,1-3.974,2.3q-4.52,0-4.52-5.472V46h4v7.49q0,2.755,2.184,2.755a2.16,2.16,0,0,0,1.727-.755,3.046,3.046,0,0,0,.647-2.05V46h4ZM59.344,42.826a4.053,4.053,0,0,0-1.485-.3q-1.93,0-1.93,2.095V46H58.9v2.958H55.929V59h-4V48.958H49.746V46h2.184V44.388a4.681,4.681,0,0,1,1.447-3.58,5.52,5.52,0,0,1,3.936-1.358,6.912,6.912,0,0,1,2.031.254Zm9.966,6.792a3.48,3.48,0,0,0-1.688-.394,2.433,2.433,0,0,0-2.044.958,4.181,4.181,0,0,0-.736,2.609V59H60.829V46h4.012v2.412h.051a3.47,3.47,0,0,1,3.428-2.641,2.583,2.583,0,0,1,.99.152ZM83.6,59h-4V57.02h-.063a4.537,4.537,0,0,1-3.974,2.3q-4.52,0-4.52-5.472V46h4v7.49q0,2.755,2.184,2.755a2.16,2.16,0,0,0,1.727-.755,3.046,3.046,0,0,0,.647-2.05V46h4Zm13.229-.47a7.932,7.932,0,0,1-3.923.787A6.634,6.634,0,0,1,88.06,57.5a6.27,6.27,0,0,1-1.854-4.685,6.907,6.907,0,0,1,1.987-5.224,7.343,7.343,0,0,1,5.313-1.911,6.817,6.817,0,0,1,3.326.609v3.4a4.573,4.573,0,0,0-2.806-.939,3.7,3.7,0,0,0-2.736,1.009,3.766,3.766,0,0,0-1.009,2.787,3.7,3.7,0,0,0,.965,2.71,3.546,3.546,0,0,0,2.653.984,5.3,5.3,0,0,0,2.933-.939Zm10.486.317a5.93,5.93,0,0,1-2.679.47q-4.24,0-4.24-4.405V48.958H98.293V46H100.4V43.194l4-1.143V46h2.92v2.958H104.4v5.256q0,2.031,1.612,2.031a2.718,2.718,0,0,0,1.308-.368ZM121.931,59h-4V57.02h-.063a4.537,4.537,0,0,1-3.974,2.3q-4.52,0-4.52-5.472V46h4v7.49q0,2.755,2.184,2.755a2.16,2.16,0,0,0,1.727-.755,3.046,3.046,0,0,0,.647-2.05V46h4Zm14.193,0h-3.8V57.134h-.051a4.237,4.237,0,0,1-3.872,2.184,4.05,4.05,0,0,1-2.977-1.073,3.844,3.844,0,0,1-1.085-2.863q0-3.783,4.481-4.367l3.529-.47q0-2.133-2.311-2.133a7.887,7.887,0,0,0-4.418,1.384V46.774a9.939,9.939,0,0,1,2.292-.762,12.046,12.046,0,0,1,2.647-.33q5.561,0,5.561,5.548Zm-3.771-5.281v-.876l-2.361.3q-1.955.254-1.955,1.765a1.458,1.458,0,0,0,.476,1.124,1.829,1.829,0,0,0,1.289.438,2.375,2.375,0,0,0,1.841-.781A2.82,2.82,0,0,0,132.354,53.719Zm15.425-4.1a3.48,3.48,0,0,0-1.688-.394,2.433,2.433,0,0,0-2.044.958,4.181,4.181,0,0,0-.736,2.609V59H139.3V46h4.012v2.412h.051a3.47,3.47,0,0,1,3.428-2.641,2.583,2.583,0,0,1,.99.152Zm4-5.675a2.343,2.343,0,0,1-1.663-.6,1.943,1.943,0,0,1-.647-1.479,1.874,1.874,0,0,1,.647-1.473,2.716,2.716,0,0,1,3.333,0,1.882,1.882,0,0,1,.641,1.473,1.935,1.935,0,0,1-.641,1.5A2.383,2.383,0,0,1,151.778,43.943ZM153.759,59h-4.012V46h4.012Zm9.572.317a6.988,6.988,0,0,1-5.11-1.822,6.6,6.6,0,0,1-1.86-4.945,6.6,6.6,0,0,1,1.93-5.046,7.291,7.291,0,0,1,5.218-1.822,6.9,6.9,0,0,1,5.078,1.822,6.476,6.476,0,0,1,1.841,4.818,6.874,6.874,0,0,1-1.9,5.116A7.066,7.066,0,0,1,163.331,59.317Zm.1-10.562a2.676,2.676,0,0,0-2.209.978,4.311,4.311,0,0,0-.787,2.768q0,3.745,3.021,3.745,2.882,0,2.882-3.847Q166.34,48.755,163.432,48.755Z" transform="translate(1184.267 2559.356)" fill="#fff"/>
    <g id="Grupo_1151855" data-name="Grupo 1151855" transform="translate(1229.427 2402.51)">
      <path id="Trazado_979127" data-name="Trazado 979127" d="M44.875,29.73,49.8,54.368l11.5-3.285V19.875Z" transform="translate(28.834 12.771)" fill="#7cb342"/>
      <path id="Trazado_979128" data-name="Trazado 979128" d="M.876,51.083l11.5,3.285L17.3,29.73.876,19.875Z" transform="translate(0.563 12.771)" fill="#64b5f6"/>
      <path id="Trazado_979129" data-name="Trazado 979129" d="M.876,42.73l11.5,3.285,1.434-7.171L.876,32.875Z" transform="translate(0.563 21.124)" fill="#1e88e5"/>
      <path id="Trazado_979130" data-name="Trazado 979130" d="M59.934,32.875V42.73l-11.5,3.285L47,38.844Z" transform="translate(30.201 21.124)" fill="#558b2f"/>
      <g id="Grupo_1151854" data-name="Grupo 1151854" transform="translate(0 0)">
        <g id="Grupo_1151853" data-name="Grupo 1151853" clip-path="url(#clip-path)">
          <path id="Trazado_979131" data-name="Trazado 979131" d="M73.577,50.514,68.649,25.876H40.726v0l0,0H12.8L7.875,50.514,37.507,72.343a5.95,5.95,0,0,0,3.531,1.166,6.106,6.106,0,0,0,2.53-.558L66.087,62.34a3.258,3.258,0,0,0,.92-5.256Z" transform="translate(5.06 16.626)" fill="#fbbb9f"/>
          <path id="Trazado_979132" data-name="Trazado 979132" d="M43.4,36.758C31.659,47.434,23.4,39.238,23.085,38.926a8.193,8.193,0,0,0,8.016-.953l8.246-6.028Z" transform="translate(14.833 20.527)" fill="#f58e81"/>
          <path id="Trazado_979133" data-name="Trazado 979133" d="M66.722,18.813,38.8.875,10.875,18.813H16.46V41.939H61.137V18.813Z" transform="translate(6.988 0.563)" fill="#e8eaf6"/>
          <rect id="Rectángulo_408313" data-name="Rectángulo 408313" width="44.677" height="5.866" transform="translate(23.447 36.635)" fill="#c5cae9"/>
          <rect id="Rectángulo_408314" data-name="Rectángulo 408314" width="13.178" height="14.98" transform="translate(39.198 27.521)" fill="#c17b3f"/>
          <rect id="Rectángulo_408315" data-name="Rectángulo 408315" width="13.178" height="5.866" transform="translate(39.198 36.635)" fill="#a26535"/>
          <path id="Trazado_979134" data-name="Trazado 979134" d="M10.875,18.813H66.722L38.8.875Z" transform="translate(6.988 0.563)" fill="#ef5350"/>
          <path id="Trazado_979135" data-name="Trazado 979135" d="M39.673,84.555a7.41,7.41,0,0,1-4.387-1.449l-24.7-18.2a1.438,1.438,0,0,1,1.7-2.316l24.7,18.2a4.609,4.609,0,0,0,4.611.46l22.5-10.6a1.789,1.789,0,0,0,1.023-1.326,1.807,1.807,0,0,0-.508-1.615l-17.105-20.3-7.161,5.238a9.575,9.575,0,0,1-9.415,1.119,1.143,1.143,0,0,1-.143-.069A9.638,9.638,0,0,1,28.635,52.4l-.439-.343a4.735,4.735,0,0,1-.4-7.045L38.344,34.467a1.438,1.438,0,0,1,1.017-.42H60.108l.154-21.7A1.439,1.439,0,0,1,61.7,10.921h.011a1.438,1.438,0,0,1,1.426,1.449l-.164,23.124a1.438,1.438,0,0,1-1.437,1.427H39.955L29.832,47.046a1.858,1.858,0,0,0,.149,2.759l.422.328a6.692,6.692,0,0,0,1.611.953,1.189,1.189,0,0,1,.146.069,6.718,6.718,0,0,0,6.495-.829L46.9,44.293a1.442,1.442,0,0,1,1.948.235L66.74,65.767a4.689,4.689,0,0,1-1.414,7.485L42.815,83.86a7.6,7.6,0,0,1-3.142.695" transform="translate(6.425 7.018)" fill="#1a237e"/>
          <path id="Trazado_979136" data-name="Trazado 979136" d="M42.727,38.3c-6.023,0-10.072-4.632-10.271-4.862a1.438,1.438,0,0,1,2.183-1.872c.212.245,4.612,5.2,10.612,3.5a1.437,1.437,0,0,1,.783,2.766,12.111,12.111,0,0,1-3.308.466" transform="translate(20.632 19.964)" fill="#1a237e"/>
          <path id="Trazado_979137" data-name="Trazado 979137" d="M46.333,57.347a1.433,1.433,0,0,1-1.105-.517L32.333,41.357a1.437,1.437,0,0,1,2.209-1.84L47.436,54.99a1.437,1.437,0,0,1-1.1,2.357" transform="translate(20.562 25.06)" fill="#1a237e"/>
          <path id="Trazado_979138" data-name="Trazado 979138" d="M40.247,58.851a1.433,1.433,0,0,1-1.105-.517L28.333,45.357a1.437,1.437,0,0,1,2.209-1.84L41.35,56.494a1.437,1.437,0,0,1-1.1,2.357" transform="translate(17.992 27.63)" fill="#1a237e"/>
          <path id="Trazado_979139" data-name="Trazado 979139" d="M35.209,59.869a1.431,1.431,0,0,1-1.027-.432l-9.772-10a1.436,1.436,0,1,1,2.053-2.009l9.772,9.995a1.437,1.437,0,0,1-1.027,2.442" transform="translate(15.421 30.2)" fill="#1a237e"/>
          <path id="Trazado_979140" data-name="Trazado 979140" d="M44.437,50.73a1.437,1.437,0,0,1-1.017-2.454l6.57-6.57a1.442,1.442,0,0,1,.623-.365l11.5-3.285a1.437,1.437,0,0,1,.788,2.763L51.76,44l-6.306,6.307a1.433,1.433,0,0,1-1.017.42" transform="translate(27.63 24.417)" fill="#1a237e"/>
          <path id="Trazado_979141" data-name="Trazado 979141" d="M50.363,56.368a1.437,1.437,0,0,1-1.408-1.156L44.028,30.573a1.435,1.435,0,0,1,.67-1.513l16.425-9.855A1.437,1.437,0,0,1,62.6,21.669L47.045,31,51.774,54.65a1.437,1.437,0,0,1-1.128,1.69,1.373,1.373,0,0,1-.283.028" transform="translate(28.272 12.209)" fill="#1a237e"/>
          <path id="Trazado_979142" data-name="Trazado 979142" d="M12.935,52.513a1.394,1.394,0,0,1-.394-.056l-11.5-3.285a1.437,1.437,0,1,1,.788-2.763l10,2.856,4.622-23.109a1.437,1.437,0,1,1,2.819.562L14.344,51.357a1.436,1.436,0,0,1-1.409,1.156" transform="translate(0 16.064)" fill="#1a237e"/>
          <path id="Trazado_979143" data-name="Trazado 979143" d="M45.786,31.73H17.863a1.429,1.429,0,0,1-.739-.205L.7,21.669a1.437,1.437,0,1,1,1.478-2.464l16.084,9.65H45.786a1.437,1.437,0,1,1,0,2.874" transform="translate(0 12.209)" fill="#1a237e"/>
          <path id="Trazado_979144" data-name="Trazado 979144" d="M37.6,33.734A1.438,1.438,0,0,1,36.167,32.3V18.754h-10.3V32.3a1.437,1.437,0,1,1-2.874,0V17.317a1.438,1.438,0,0,1,1.437-1.437H37.6a1.438,1.438,0,0,1,1.437,1.437V32.3A1.438,1.438,0,0,1,37.6,33.734" transform="translate(14.771 10.204)" fill="#1a237e"/>
          <path id="Trazado_979145" data-name="Trazado 979145" d="M67.284,20.813H11.437a1.437,1.437,0,0,1-.777-2.646L38.583.227a1.445,1.445,0,0,1,1.554,0l27.923,17.94a1.437,1.437,0,0,1-.777,2.646m-50.95-2.874H62.387L39.36,3.145Z" transform="translate(6.426 0.001)" fill="#1a237e"/>
          <path id="Trazado_979146" data-name="Trazado 979146" d="M15,34.357a1.438,1.438,0,0,1-1.437-1.422L13.4,16.362a1.436,1.436,0,0,1,1.422-1.45,1.371,1.371,0,0,1,1.452,1.422l.164,16.572a1.437,1.437,0,0,1-1.422,1.452Z" transform="translate(8.61 9.58)" fill="#1a237e"/>
          <path id="Trazado_979147" data-name="Trazado 979147" d="M54.4,28.019a1.44,1.44,0,0,0-1.743-1.046l-3.175.793A1.437,1.437,0,0,0,49.83,30.6a1.413,1.413,0,0,0,.348-.043l3.175-.793A1.437,1.437,0,0,0,54.4,28.019" transform="translate(31.095 17.305)" fill="#fff"/>
          <path id="Trazado_979148" data-name="Trazado 979148" d="M19.751,28.842H14.858a1.437,1.437,0,1,0,0,2.874h4.893a1.437,1.437,0,1,0,0-2.874" transform="translate(8.624 18.533)" fill="#fff"/>
          <path id="Trazado_979149" data-name="Trazado 979149" d="M30.916,5.184a1.437,1.437,0,0,0-1.595,2.392l2.553,1.7a1.437,1.437,0,1,0,1.595-2.392Z" transform="translate(18.429 3.176)" fill="#fff"/>
        </g>
      </g>
    </g>
  </g>
</svg>
