<svg xmlns="http://www.w3.org/2000/svg" xmlns:xlink="http://www.w3.org/1999/xlink" width="108" height="108" viewBox="0 0 108 108">
  <defs>
    <filter id="Fondo" x="0" y="0" width="108" height="108" filterUnits="userSpaceOnUse">
      <feOffset dy="3" input="SourceAlpha"/>
      <feGaussianBlur stdDeviation="3" result="blur"/>
      <feFlood flood-opacity="0.161"/>
      <feComposite operator="in" in2="blur"/>
      <feComposite in="SourceGraphic"/>
    </filter>
  </defs>
  <g id="Icono" transform="translate(-325.719 -689)">
    <g transform="matrix(1, 0, 0, 1, 325.72, 689)" filter="url(#Fondo)">
      <g id="Fondo-2" data-name="Fondo" transform="translate(9 6)" fill="#ba9c5a">
        <path d="M 45 88.5 C 39.12687683105469 88.5 33.43022537231445 87.35007476806641 28.06830024719238 85.08217620849609 C 22.88852500915527 82.89131164550781 18.23629951477051 79.75458526611328 14.2408504486084 75.75914764404297 C 10.24541282653809 71.76370239257812 7.108687400817871 67.11147308349609 4.917825222015381 61.93170166015625 C 2.649924993515015 56.56977462768555 1.5 50.87312316894531 1.5 45 C 1.5 39.12687683105469 2.649924993515015 33.43022537231445 4.917825222015381 28.06830024719238 C 7.108687400817871 22.88852500915527 10.24541282653809 18.23629951477051 14.2408504486084 14.2408504486084 C 18.23629951477051 10.24541282653809 22.88852500915527 7.108687400817871 28.06830024719238 4.917825222015381 C 33.43022537231445 2.649924993515015 39.12687683105469 1.5 45 1.5 C 50.87312316894531 1.5 56.56977462768555 2.649924993515015 61.93170166015625 4.917825222015381 C 67.11147308349609 7.108687400817871 71.76370239257812 10.24541282653809 75.75914764404297 14.2408504486084 C 79.75458526611328 18.23629951477051 82.89131164550781 22.88852500915527 85.08217620849609 28.06830024719238 C 87.35007476806641 33.43022537231445 88.5 39.12687683105469 88.5 45 C 88.5 50.87312316894531 87.35007476806641 56.56977462768555 85.08217620849609 61.93170166015625 C 82.89131164550781 67.11147308349609 79.75458526611328 71.76370239257812 75.75914764404297 75.75914764404297 C 71.76370239257812 79.75458526611328 67.11147308349609 82.89131164550781 61.93170166015625 85.08217620849609 C 56.56977462768555 87.35007476806641 50.87312316894531 88.5 45 88.5 Z" stroke="none"/>
        <path d="M 45 3 C 39.32871246337891 3 33.82865524291992 4.110054016113281 28.65262985229492 6.299339294433594 C 23.65165710449219 8.414573669433594 19.15968322753906 11.44334411621094 15.301513671875 15.301513671875 C 11.44334411621094 19.15968322753906 8.414573669433594 23.65165710449219 6.299339294433594 28.65262985229492 C 4.110054016113281 33.82865524291992 3 39.32871246337891 3 45 C 3 50.67128753662109 4.110054016113281 56.17134475708008 6.299339294433594 61.34737396240234 C 8.414573669433594 66.34834289550781 11.44334411621094 70.84031677246094 15.301513671875 74.698486328125 C 19.15968322753906 78.55665588378906 23.65165710449219 81.58542633056641 28.65262985229492 83.70066070556641 C 33.82865524291992 85.88994598388672 39.32871246337891 87 45 87 C 50.67128753662109 87 56.17134475708008 85.88994598388672 61.34737396240234 83.70066070556641 C 66.34834289550781 81.58542633056641 70.84031677246094 78.55665588378906 74.698486328125 74.698486328125 C 78.55665588378906 70.84031677246094 81.58542633056641 66.34834289550781 83.70066070556641 61.34737396240234 C 85.88994598388672 56.17134475708008 87 50.67128753662109 87 45 C 87 39.32871246337891 85.88994598388672 33.82865524291992 83.70066070556641 28.65262985229492 C 81.58542633056641 23.65165710449219 78.55665588378906 19.15968322753906 74.698486328125 15.301513671875 C 70.84031677246094 11.44334411621094 66.34834289550781 8.414573669433594 61.34737396240234 6.299339294433594 C 56.17134475708008 4.110054016113281 50.67128753662109 3 45 3 M 45 0 C 69.85281372070312 0 90 20.14718627929688 90 45 C 90 69.85281372070312 69.85281372070312 90 45 90 C 20.14718627929688 90 0 69.85281372070312 0 45 C 0 20.14718627929688 20.14718627929688 0 45 0 Z" stroke="none" fill="#372e1a"/>
      </g>
    </g>
    <g id="_001-gavel" data-name="001-gavel" transform="translate(351.983 709.776)">
      <g id="Grupo_1151821" data-name="Grupo 1151821" transform="translate(0.813 0.812)">
        <g id="Grupo_1151816" data-name="Grupo 1151816" transform="translate(0 44.097)">
          <path id="Trazado_979006" data-name="Trazado 979006" d="M142.892,419.917v3.25h-9.184c-4.23-1.36-6.3-4.13-4.93-8.668h8.7A5.418,5.418,0,0,1,142.892,419.917Z" transform="translate(-115.264 -414.5)" fill="#ffbe73"/>
          <path id="Trazado_979007" data-name="Trazado 979007" d="M48.236,423.168H32.5v-3.25a5.418,5.418,0,0,1,5.417-5.417h5.389C43.407,418.528,45.074,421.439,48.236,423.168Z" transform="translate(-29.791 -414.5)" fill="#ffb25a"/>
          <path id="Trazado_979008" data-name="Trazado 979008" d="M160.823,466.667a2.166,2.166,0,0,1-2.167,2.167h-7.041c-4.589-.64-6.389-2.179-6.166-4.334h13.208a2.168,2.168,0,0,1,2.167,2.167Z" transform="translate(-130.486 -459.083)" fill="#ffb25a"/>
          <path id="Trazado_979009" data-name="Trazado 979009" d="M28.629,468.834H9.667a2.167,2.167,0,1,1,0-4.334h12.8A10.135,10.135,0,0,0,28.629,468.834Z" transform="translate(-7.5 -459.083)" fill="#ffa93f"/>
        </g>
        <g id="Grupo_1151820" data-name="Grupo 1151820" transform="translate(5.406)">
          <path id="Trazado_979010" data-name="Trazado 979010" d="M160.986,111.091a2.709,2.709,0,0,1,3.831,0l3.448,3.448-3.831,3.831-3.448-3.448a2.709,2.709,0,0,1,0-3.831Z" transform="translate(-149.055 -99.16)" fill="#f9ee80"/>
          <path id="Trazado_979011" data-name="Trazado 979011" d="M0,0H5.417V22.753H0Z" transform="translate(21.864 25.702) rotate(-45)" fill="#f9ee80"/>
          <path id="Trazado_979012" data-name="Trazado 979012" d="M341.68,296.382l4.6-4.6a1.084,1.084,0,0,1,1.532,0l9.96,9.96a4.334,4.334,0,0,1-6.129,6.129l-9.96-9.96A1.084,1.084,0,0,1,341.68,296.382Z" transform="translate(-310.596 -260.701)" fill="#ffbe73"/>
          <g id="Grupo_1151817" data-name="Grupo 1151817" transform="translate(6.185 6.186)">
            <path id="Trazado_979013" data-name="Trazado 979013" d="M207.767,76.847,199.011,85.6c-10.816.068-13.242-4.244-10.867-13.649l7.364-7.364Z" transform="translate(-179.42 -64.59)" fill="#ffbe73"/>
            <path id="Trazado_979014" data-name="Trazado 979014" d="M134.072,146.209l-7.333,7.334L114.48,141.284l8.724-8.724c.2,7.317,2.679,11.583,10.868,13.649Z" transform="translate(-114.48 -125.196)" fill="#ffb25a"/>
          </g>
          <g id="Grupo_1151818" data-name="Grupo 1151818" transform="translate(0 21.378)">
            <path id="Trazado_979015" data-name="Trazado 979015" d="M84.466,207.427l2.3-2.3a1.084,1.084,0,0,1,1.532,0l12.258,12.258a1.084,1.084,0,0,1,0,1.532l-2.3,2.3Z" transform="translate(-81.533 -204.811)" fill="#f4e74d"/>
            <path id="Trazado_979016" data-name="Trazado 979016" d="M58.03,216.658a2.167,2.167,0,0,1,3.064,0l13.79,13.79a2.167,2.167,0,0,1-3.064,3.064l-13.79-13.79a2.167,2.167,0,0,1,0-3.064Z" transform="translate(-57.396 -214.809)" fill="#ffb25a"/>
          </g>
          <g id="Grupo_1151819" data-name="Grupo 1151819" transform="translate(21.378)">
            <path id="Trazado_979017" data-name="Trazado 979017" d="M257.322,34.571l-2.3,2.3a1.084,1.084,0,0,0,0,1.532L267.282,50.66a1.083,1.083,0,0,0,1.532,0l2.3-2.3Z" transform="translate(-254.706 -31.638)" fill="#f9ee80"/>
            <path id="Trazado_979018" data-name="Trazado 979018" d="M266.553,8.134a2.167,2.167,0,0,0,0,3.064l13.79,13.79a2.167,2.167,0,1,0,3.065-3.064l-13.79-13.79a2.167,2.167,0,0,0-3.065,0Z" transform="translate(-264.704 -7.5)" fill="#ffbe73"/>
          </g>
        </g>
      </g>
      <g id="Grupo_1151824" data-name="Grupo 1151824" transform="translate(0 0)">
        <g id="Grupo_1151823" data-name="Grupo 1151823" transform="translate(5.408 0)">
          <path id="Trazado_979019" data-name="Trazado 979019" d="M98.468,41.28l-9.96-9.96a1.9,1.9,0,0,0-2.477-.178l-5.76-5.76,4.53-4.53a1.9,1.9,0,0,0,.638.11h0a1.881,1.881,0,0,0,1.339-.555l1.037-1.037a2.98,2.98,0,0,0,3.56-4.709L77.587.871A2.979,2.979,0,0,0,72.879,4.43L71.84,5.468A1.9,1.9,0,0,0,71.4,7.445l-4.538,4.538a3.521,3.521,0,0,0-4.965,4.965l-4.537,4.537a1.9,1.9,0,0,0-1.978.446l-1.037,1.037a2.98,2.98,0,0,0-3.56,4.709l13.79,13.79a2.98,2.98,0,0,0,4.709-3.559l1.038-1.038a1.9,1.9,0,0,0,.444-1.976l4.531-4.531,5.759,5.759A1.9,1.9,0,0,0,81.23,38.6l9.96,9.96a5.147,5.147,0,0,0,7.278-7.278ZM72.99,6.617l.959-.958,7.3,7.3A.813.813,0,0,0,82.4,11.808L74.523,3.935A1.354,1.354,0,1,1,76.438,2.02l13.79,13.791a1.354,1.354,0,0,1-1.915,1.915l-3.236-3.236a.813.813,0,1,0-1.149,1.149L86.589,18.3l-.959.958a.267.267,0,0,1-.19.079h0a.27.27,0,0,1-.192-.08L72.991,7a.273.273,0,0,1,0-.385Zm-9.763,6.7a1.9,1.9,0,0,1,2.476-.178l-2.654,2.654a1.9,1.9,0,0,1,.178-2.476Zm4.409,27a1.354,1.354,0,0,1-1.915,0L51.93,26.528a1.354,1.354,0,1,1,1.915-1.915L67.635,38.4A1.356,1.356,0,0,1,67.635,40.319Zm2.107-6.7L63.23,27.1a.813.813,0,0,0-1.149,1.149l7.087,7.087a.272.272,0,0,1,0,.383l-.958.958L55.569,24.038l.958-.958a.27.27,0,0,1,.382,0l2.49,2.49a.813.813,0,0,0,1.149-1.149l-1.915-1.915L72.415,8.724,83.524,19.832Zm6.7-4.4,2.681-2.681,5.746,5.746L82.188,34.96Zm20.877,18.2a3.525,3.525,0,0,1-4.98,0l-9.96-9.96a.271.271,0,0,1,0-.383l4.6-4.6a.271.271,0,0,1,.383,0l9.96,9.96a3.521,3.521,0,0,1,0,4.98Z" transform="translate(-49.909 0)"/>
          <g id="Grupo_1151822" data-name="Grupo 1151822" transform="translate(14.839 14.839)">
            <path id="Trazado_979020" data-name="Trazado 979020" d="M188.6,227.821a.81.81,0,0,1-.575-.238l-.919-.919a.813.813,0,1,1,1.149-1.149l.919.919a.813.813,0,0,1-.575,1.387Z" transform="translate(-186.871 -215.707)"/>
            <path id="Trazado_979021" data-name="Trazado 979021" d="M276.919,139.5a.81.81,0,0,1-.575-.238l-.919-.919a.813.813,0,1,1,1.149-1.149l.919.919a.813.813,0,0,1-.575,1.387Z" transform="translate(-265.618 -136.96)"/>
            <path id="Trazado_979022" data-name="Trazado 979022" d="M228.595,181.863q-.109,0-.219-.007a.813.813,0,1,1,.111-1.621,1.552,1.552,0,0,0,1.656-1.656.813.813,0,0,1,1.621-.111,3.177,3.177,0,0,1-3.17,3.4Z" transform="translate(-223.204 -173.294)"/>
          </g>
        </g>
        <path id="Trazado_979023" data-name="Trazado 979023" d="M31.09,413.29a2.958,2.958,0,0,0-1.888-.865A6.239,6.239,0,0,0,23.024,407H8.939a6.239,6.239,0,0,0-6.178,5.425,2.98,2.98,0,0,0,.219,5.951h26a2.979,2.979,0,0,0,2.107-5.086Zm-2.107,3.461h-26a1.354,1.354,0,1,1,0-2.709h11.11a.813.813,0,0,0,0-1.625H4.406a4.612,4.612,0,0,1,4.533-3.792H23.024a4.612,4.612,0,0,1,4.533,3.792H17.882a.813.813,0,0,0,0,1.625h11.1a1.354,1.354,0,1,1,0,2.709Z" transform="translate(0 -362.903)"/>
      </g>
    </g>
  </g>
</svg>
