<svg xmlns="http://www.w3.org/2000/svg" xmlns:xlink="http://www.w3.org/1999/xlink" width="108" height="108" viewBox="0 0 108 108">
  <defs>
    <filter id="Fondo" x="0" y="0" width="108" height="108" filterUnits="userSpaceOnUse">
      <feOffset dy="3" input="SourceAlpha"/>
      <feGaussianBlur stdDeviation="3" result="blur"/>
      <feFlood flood-opacity="0.161"/>
      <feComposite operator="in" in2="blur"/>
      <feComposite in="SourceGraphic"/>
    </filter>
  </defs>
  <g id="Icono" transform="translate(-325.719 -689)">
    <g transform="matrix(1, 0, 0, 1, 325.72, 689)" filter="url(#Fondo)">
      <g id="Fondo-2" data-name="Fondo" transform="translate(9 6)" fill="#ba9c5a">
        <path d="M 45 88.5 C 39.12687683105469 88.5 33.43022537231445 87.35007476806641 28.06830024719238 85.08217620849609 C 22.88852500915527 82.89131164550781 18.23629951477051 79.75458526611328 14.2408504486084 75.75914764404297 C 10.24541282653809 71.76370239257812 7.108687400817871 67.11147308349609 4.917825222015381 61.93170166015625 C 2.649924993515015 56.56977462768555 1.5 50.87312316894531 1.5 45 C 1.5 39.12687683105469 2.649924993515015 33.43022537231445 4.917825222015381 28.06830024719238 C 7.108687400817871 22.88852500915527 10.24541282653809 18.23629951477051 14.2408504486084 14.2408504486084 C 18.23629951477051 10.24541282653809 22.88852500915527 7.108687400817871 28.06830024719238 4.917825222015381 C 33.43022537231445 2.649924993515015 39.12687683105469 1.5 45 1.5 C 50.87312316894531 1.5 56.56977462768555 2.649924993515015 61.93170166015625 4.917825222015381 C 67.11147308349609 7.108687400817871 71.76370239257812 10.24541282653809 75.75914764404297 14.2408504486084 C 79.75458526611328 18.23629951477051 82.89131164550781 22.88852500915527 85.08217620849609 28.06830024719238 C 87.35007476806641 33.43022537231445 88.5 39.12687683105469 88.5 45 C 88.5 50.87312316894531 87.35007476806641 56.56977462768555 85.08217620849609 61.93170166015625 C 82.89131164550781 67.11147308349609 79.75458526611328 71.76370239257812 75.75914764404297 75.75914764404297 C 71.76370239257812 79.75458526611328 67.11147308349609 82.89131164550781 61.93170166015625 85.08217620849609 C 56.56977462768555 87.35007476806641 50.87312316894531 88.5 45 88.5 Z" stroke="none"/>
        <path d="M 45 3 C 39.32871246337891 3 33.82865524291992 4.110054016113281 28.65262985229492 6.299339294433594 C 23.65165710449219 8.414573669433594 19.15968322753906 11.44334411621094 15.301513671875 15.301513671875 C 11.44334411621094 19.15968322753906 8.414573669433594 23.65165710449219 6.299339294433594 28.65262985229492 C 4.110054016113281 33.82865524291992 3 39.32871246337891 3 45 C 3 50.67128753662109 4.110054016113281 56.17134475708008 6.299339294433594 61.34737396240234 C 8.414573669433594 66.34834289550781 11.44334411621094 70.84031677246094 15.301513671875 74.698486328125 C 19.15968322753906 78.55665588378906 23.65165710449219 81.58542633056641 28.65262985229492 83.70066070556641 C 33.82865524291992 85.88994598388672 39.32871246337891 87 45 87 C 50.67128753662109 87 56.17134475708008 85.88994598388672 61.34737396240234 83.70066070556641 C 66.34834289550781 81.58542633056641 70.84031677246094 78.55665588378906 74.698486328125 74.698486328125 C 78.55665588378906 70.84031677246094 81.58542633056641 66.34834289550781 83.70066070556641 61.34737396240234 C 85.88994598388672 56.17134475708008 87 50.67128753662109 87 45 C 87 39.32871246337891 85.88994598388672 33.82865524291992 83.70066070556641 28.65262985229492 C 81.58542633056641 23.65165710449219 78.55665588378906 19.15968322753906 74.698486328125 15.301513671875 C 70.84031677246094 11.44334411621094 66.34834289550781 8.414573669433594 61.34737396240234 6.299339294433594 C 56.17134475708008 4.110054016113281 50.67128753662109 3 45 3 M 45 0 C 69.85281372070312 0 90 20.14718627929688 90 45 C 90 69.85281372070312 69.85281372070312 90 45 90 C 20.14718627929688 90 0 69.85281372070312 0 45 C 0 20.14718627929688 20.14718627929688 0 45 0 Z" stroke="none" fill="#372e1a"/>
      </g>
    </g>
    <g id="_005-lawyer" data-name="005-lawyer" transform="translate(355.721 712.001)">
      <g id="Grupo_1151836" data-name="Grupo 1151836" transform="translate(0.747 0.747)">
        <g id="Grupo_1151833" data-name="Grupo 1151833">
          <path id="Trazado_979024" data-name="Trazado 979024" d="M22.6,272.026h7.969l1-14.526H19.616v11.538A2.988,2.988,0,0,0,22.6,272.026Z" transform="translate(-18.409 -232.598)" fill="#ffb25a"/>
          <path id="Trazado_979025" data-name="Trazado 979025" d="M251.576,272.026H240.619l-1-14.526h11.953Z" transform="translate(-216.502 -232.598)" fill="#ffbe73"/>
          <g id="Grupo_1151827" data-name="Grupo 1151827" transform="translate(0 31.078)">
            <path id="Trazado_979026" data-name="Trazado 979026" d="M136.086,320.74a73.3,73.3,0,0,1-1.46,9.219,13.285,13.285,0,0,1-10.338,0,59.5,59.5,0,0,1-1.519-9.219,18.5,18.5,0,0,1,13.318,0Z" transform="translate(-111.286 -319.5)" fill="#ffddcf"/>
            <path id="Trazado_979027" data-name="Trazado 979027" d="M266.556,370.639h-8.29a25.311,25.311,0,0,1,4.109-14.808h0a18.431,18.431,0,0,1,7.115,11.251,2.987,2.987,0,0,1-2.933,3.558Z" transform="translate(-233.265 -352.211)" fill="#8697a6"/>
            <g id="Grupo_1151825" data-name="Grupo 1151825" transform="translate(12.662 10.459)">
              <path id="Trazado_979028" data-name="Trazado 979028" d="M145.575,424.5l-2.789,7.969h-.1a10.126,10.126,0,0,1-6.641-3.883h0l-1.429-4.085Z" transform="translate(-134.618 -424.5)" fill="#fff8e6"/>
              <path id="Trazado_979029" data-name="Trazado 979029" d="M155.61,469.394h-5.282l-1.36-3.884A15.412,15.412,0,0,0,155.61,469.394Z" transform="translate(-147.539 -461.425)" fill="#fff1cf"/>
            </g>
            <path id="Trazado_979030" data-name="Trazado 979030" d="M223.294,341.7l1.172,1.419a1,1,0,0,1,.02,1.244l-3.7,4.779h-4.171l3.969-17.187a18.417,18.417,0,0,1,4.31,2.379h0l.065,4.665a1,1,0,0,1-.707.967l-.482.146A1,1,0,0,0,223.294,341.7Z" transform="translate(-195.788 -330.71)" fill="#a5b0bd"/>
            <path id="Trazado_979031" data-name="Trazado 979031" d="M10.49,370.639h8.29a25.311,25.311,0,0,0-4.109-14.808h0a18.43,18.43,0,0,0-7.115,11.251,2.987,2.987,0,0,0,2.933,3.558Z" transform="translate(-7.5 -352.211)" fill="#77899b"/>
            <g id="Grupo_1151826" data-name="Grupo 1151826" transform="translate(7.107 1.24)">
              <path id="Trazado_979032" data-name="Trazado 979032" d="M105.458,345.815a12.006,12.006,0,0,1-5.173-12.964,18.335,18.335,0,0,1,1.97-.9Z" transform="translate(-97.881 -331.95)" fill="#a5b0bd"/>
              <path id="Trazado_979033" data-name="Trazado 979033" d="M87.191,357.286H83.02l-3.7-4.779a1,1,0,0,1,.02-1.243l1.172-1.419a1,1,0,0,0-.479-1.588l-.483-.146a1,1,0,0,1-.706-.967l.065-4.665h0A18.477,18.477,0,0,1,81.251,341c-.028,5.543,1.867,10,5.173,12.964Z" transform="translate(-78.847 -340.099)" fill="#97a4b2"/>
            </g>
          </g>
          <g id="Grupo_1151828" data-name="Grupo 1151828" transform="translate(0.71)">
            <path id="Trazado_979034" data-name="Trazado 979034" d="M131.964,29H111.731c-4.87-4.55-7.232-10.9-4.062-20.062A17.013,17.013,0,0,1,114.532,7.5h0a17.084,17.084,0,0,1,17.042,15.9Z" transform="translate(-97.102 -7.5)" fill="#ffbe73"/>
            <path id="Trazado_979035" data-name="Trazado 979035" d="M29.257,41.982H14.628l.388-5.6A17.084,17.084,0,0,1,25.2,21.92c-.8,7.862.7,14.684,4.062,20.062Z" transform="translate(-14.628 -20.484)" fill="#ffb25a"/>
          </g>
          <ellipse id="Elipse_11634" data-name="Elipse 11634" cx="3.711" cy="4.708" rx="3.711" ry="4.708" transform="translate(28.497 17.56)" fill="#ffddcf"/>
          <ellipse id="Elipse_11635" data-name="Elipse 11635" cx="3.711" cy="4.708" rx="3.711" ry="4.708" transform="translate(0.363 17.56)" fill="#ffcbbe"/>
          <g id="Grupo_1151829" data-name="Grupo 1151829" transform="translate(4.225 7.447)">
            <path id="Trazado_979036" data-name="Trazado 979036" d="M138.942,96.733A14.735,14.735,0,0,1,135,106.823c-12.037-2.286-18.572-10.053-16.85-22.677a13.432,13.432,0,0,1,6.874-1.887C132.711,82.26,138.942,88.74,138.942,96.733Z" transform="translate(-111.11 -82.26)" fill="#ffddcf"/>
            <path id="Trazado_979037" data-name="Trazado 979037" d="M73.81,123.877a13.625,13.625,0,0,1-9.976,4.382c-7.686,0-13.916-6.479-13.916-14.472A14.574,14.574,0,0,1,56.96,101.2C58.121,111.966,64.249,120,73.81,123.877Z" transform="translate(-49.918 -99.313)" fill="#ffcbbe"/>
          </g>
          <g id="Grupo_1151831" data-name="Grupo 1151831" transform="translate(7.293 23.548)">
            <g id="Grupo_1151830" data-name="Grupo 1151830">
              <ellipse id="Elipse_11636" data-name="Elipse 11636" cx="2.924" cy="2.329" rx="2.924" ry="2.329" fill="#ffa1ac"/>
              <ellipse id="Elipse_11637" data-name="Elipse 11637" cx="2.924" cy="2.329" rx="2.924" ry="2.329" transform="translate(15.849)" fill="#ffa1ac"/>
            </g>
          </g>
          <g id="Grupo_1151832" data-name="Grupo 1151832" transform="translate(1.706 5.998)">
            <path id="Trazado_979038" data-name="Trazado 979038" d="M126.259,78.4,124.75,82.76a1,1,0,0,1-1.937-.326V79.867a.5.5,0,0,0-.564-.494c-4.485.629-10.625-.641-14.038-4.364a.992.992,0,0,0-1.528.064,11.368,11.368,0,0,1-2.384,2.308c-3.025-2.531-4.847-5.444-1.542-9.268.262-.044.528-.079.8-.1a66.212,66.212,0,0,1,12.582.008,10.943,10.943,0,0,1,9.532,8.129Z" transform="translate(-93.388 -67.712)" fill="#ffbe73"/>
            <path id="Trazado_979039" data-name="Trazado 979039" d="M35.539,81A15.842,15.842,0,0,1,28.514,83.9a.5.5,0,0,0-.44.494v1.653a1,1,0,0,1-1.937.326l-1.508-4.361.591-2.258A10.962,10.962,0,0,1,34,71.73,31.953,31.953,0,0,0,35.539,81Z" transform="translate(-24.628 -71.33)" fill="#ffb25a"/>
          </g>
        </g>
        <g id="Grupo_1151835" data-name="Grupo 1151835" transform="translate(32.173 29.583)">
          <g id="Grupo_1151834" data-name="Grupo 1151834">
            <path id="Trazado_979040" data-name="Trazado 979040" d="M411.378,307.488v13.945c0,.09,0,.179-.012.267-7.617-2.435-11.968-8.216-9.68-17.2h6.7A2.988,2.988,0,0,1,411.378,307.488Z" transform="translate(-394.047 -304.5)" fill="#fff8e6"/>
            <path id="Trazado_979041" data-name="Trazado 979041" d="M347.82,321.7a2.988,2.988,0,0,1-2.976,2.721H333.488a2.988,2.988,0,0,1-2.988-2.988V307.488a2.988,2.988,0,0,1,2.988-2.988h4.652C337.868,312.516,341.513,318.637,347.82,321.7Z" transform="translate(-330.5 -304.5)" fill="#fff1cf"/>
          </g>
          <path id="Trazado_979042" data-name="Trazado 979042" d="M383.724,447.488h-4.98a1.494,1.494,0,1,1,0-2.988h4.98a1.494,1.494,0,0,1,0,2.988Z" transform="translate(-372.593 -430.555)" fill="#ffbe73"/>
        </g>
      </g>
      <g id="Grupo_1151838" data-name="Grupo 1151838" transform="translate(0 0)">
        <g id="Grupo_1151837" data-name="Grupo 1151837" transform="translate(11.921 22.44)">
          <path id="Trazado_979043" data-name="Trazado 979043" d="M120.423,227.974a.747.747,0,0,1-.747-.747v-1.2a.747.747,0,0,1,1.494,0v1.2A.747.747,0,0,1,120.423,227.974Z" transform="translate(-119.676 -225.285)"/>
          <path id="Trazado_979044" data-name="Trazado 979044" d="M245.321,227.974a.747.747,0,0,1-.747-.747v-1.2a.747.747,0,0,1,1.494,0v1.2A.747.747,0,0,1,245.321,227.974Z" transform="translate(-232.133 -225.285)"/>
          <path id="Trazado_979045" data-name="Trazado 979045" d="M168.047,239.169a2.922,2.922,0,0,1-2.2-1,.747.747,0,1,1,1.126-.982,1.426,1.426,0,0,0,2.154,0,.747.747,0,1,1,1.126.982A2.922,2.922,0,0,1,168.047,239.169Z" transform="translate(-161.08 -235.768)"/>
        </g>
        <path id="Trazado_979046" data-name="Trazado 979046" d="M366.7,335.065h-.428v-3.607l.127.049a.747.747,0,0,0,.546-1.391,15.778,15.778,0,0,0-4.977-1.1v-1.268a.747.747,0,0,0-1.494,0v1.267a15.774,15.774,0,0,0-5,1.1.747.747,0,1,0,.547,1.391l.154-.06v3.617h-.428a.747.747,0,1,0,0,1.494h2.186a.747.747,0,0,0,0-1.494h-.264v-4.1a13.814,13.814,0,0,1,2.81-.452v7.444h-1.768a2.241,2.241,0,0,0,0,4.482h4.98a2.241,2.241,0,0,0,0-4.482H361.97v-7.442a13.83,13.83,0,0,1,2.81.457v4.093h-.264a.747.747,0,1,0,0,1.494H366.7a.747.747,0,1,0,0-1.494Zm-2.266,5.132a.748.748,0,0,1-.747.747h-4.98a.747.747,0,1,1,0-1.494h4.98A.748.748,0,0,1,364.435,340.2Z" transform="translate(-319.637 -294.428)"/>
        <path id="Trazado_979047" data-name="Trazado 979047" d="M47.264,29.583H36.569V26.2a6.28,6.28,0,0,0,.844-3.19,6.488,6.488,0,0,0-.457-2.4l-.279-4.018A17.837,17.837,0,0,0,31.628,5.356.747.747,0,1,0,30.561,6.4a16.342,16.342,0,0,1,4.624,10.3l.116,1.674-.041-.031a.747.747,0,0,0-1.161.348l-.99,2.86a.249.249,0,0,1-.484-.081V18.9a1.246,1.246,0,0,0-1.415-1.234,17.875,17.875,0,0,1-7.117-.53,13.252,13.252,0,0,1-6.268-3.6,1.755,1.755,0,0,0-1.383-.568,1.72,1.72,0,0,0-1.294.69,14.329,14.329,0,0,1-8.275,4.821c-.21.039-.422.072-.627.1a1.248,1.248,0,0,0-1.1,1.236v1.653a.249.249,0,0,1-.484.082l-.989-2.861a.748.748,0,0,0-1.164-.347l-.04.03L2.591,16.7A16.338,16.338,0,0,1,28,4.268a.747.747,0,0,0,.834-1.24A17.832,17.832,0,0,0,1.1,16.594L.822,20.606a6.486,6.486,0,0,0-.459,2.408,6.279,6.279,0,0,0,.845,3.192v10.98a3.758,3.758,0,0,0,1.408,2.92A19.213,19.213,0,0,0,.07,46.55,3.734,3.734,0,0,0,3.737,51h30.3a3.748,3.748,0,0,0,.937-.118,3.73,3.73,0,0,0,.934.118H47.264A3.739,3.739,0,0,0,51,47.264V33.319a3.739,3.739,0,0,0-3.735-3.735ZM1.857,23.014a4.742,4.742,0,0,1,.8-2.7l.6,1.723a1.743,1.743,0,0,0,3.39-.57V20.031c.166-.024.334-.052.5-.082a15.709,15.709,0,0,0,9.2-5.4.224.224,0,0,1,.173-.092.26.26,0,0,1,.206.086c3.1,3.381,8.14,4.758,12.32,4.757a17.441,17.441,0,0,0,2.085-.121v2.284a1.717,1.717,0,0,0,1.454,1.719,1.84,1.84,0,0,0,.3.026,1.713,1.713,0,0,0,1.632-1.175l.6-1.721a4.745,4.745,0,0,1,.8,2.7c0,2.184-1.329,3.961-2.963,3.961a2.241,2.241,0,0,1-.726-.122.747.747,0,0,0-.948.463,13.243,13.243,0,0,1-12.392,9.075A13.243,13.243,0,0,1,6.5,27.317a.747.747,0,0,0-.948-.463,2.241,2.241,0,0,1-.726.122c-1.635,0-2.965-1.777-2.965-3.961Zm33.218,4.8v1.865a3.742,3.742,0,0,0-2.9,3.641v3.107a19.084,19.084,0,0,0-3.347-2.575,15.189,15.189,0,0,0,3.633-5.414,3.7,3.7,0,0,0,.5.033,3.809,3.809,0,0,0,2.12-.657Zm-11.2,9.162-1.054,4.562H14.952L13.9,36.973a14.1,14.1,0,0,0,9.978,0ZM8.95,33.851a19.4,19.4,0,0,0-5.435,4.939l-.056.075A2.254,2.254,0,0,1,2.7,37.186V27.813a3.81,3.81,0,0,0,2.12.657,3.7,3.7,0,0,0,.5-.033A15.187,15.187,0,0,0,8.95,33.851ZM3.737,49.5a2.24,2.24,0,0,1-2.2-2.668,17.647,17.647,0,0,1,5.613-9.8L7.107,40.1a1.749,1.749,0,0,0,1.236,1.694l.483.147a.25.25,0,0,1,.12.4L7.774,43.753a1.731,1.731,0,0,0-.035,2.177L10.5,49.5Zm17.246,0h-4.19l-.379-1.641a.747.747,0,0,0-1.456.336l.3,1.305H12.394L8.92,45.015a.249.249,0,0,1,.005-.31l1.173-1.42a1.744,1.744,0,0,0-.839-2.778l-.483-.147a.249.249,0,0,1-.176-.242l.06-4.29a17.644,17.644,0,0,1,1.487-.951A14.688,14.688,0,0,0,12.185,36.2L14.173,44.8a.747.747,0,0,0,1.456-.336L15.3,43.03h7.181Zm1.533,0L25.589,36.2a14.69,14.69,0,0,0,2.038-1.318q.769.438,1.487.947l.06,4.294a.248.248,0,0,1-.176.241l-.483.146a1.744,1.744,0,0,0-.838,2.778l1.173,1.42a.249.249,0,0,1,0,.31L25.381,49.5ZM49.5,47.264A2.244,2.244,0,0,1,47.264,49.5H35.908a2.244,2.244,0,0,1-2.241-2.241v-1.57a.747.747,0,1,0-1.494,0v1.57a3.716,3.716,0,0,0,.749,2.241H27.27l2.766-3.575A1.731,1.731,0,0,0,30,43.754l-1.172-1.419a.25.25,0,0,1,.119-.4l.483-.146A1.748,1.748,0,0,0,30.668,40.1l-.043-3.07a17.8,17.8,0,0,1,1.548,1.559v3.62a.747.747,0,1,0,1.494,0V33.319a2.244,2.244,0,0,1,2.241-2.241H47.264A2.244,2.244,0,0,1,49.5,33.319V47.264Z" transform="translate(0 0)"/>
      </g>
    </g>
  </g>
</svg>
