<svg xmlns="http://www.w3.org/2000/svg" xmlns:xlink="http://www.w3.org/1999/xlink" width="108" height="108" viewBox="0 0 108 108">
  <defs>
    <filter id="Fondo" x="0" y="0" width="108" height="108" filterUnits="userSpaceOnUse">
      <feOffset dy="3" input="SourceAlpha"/>
      <feGaussianBlur stdDeviation="3" result="blur"/>
      <feFlood flood-opacity="0.161"/>
      <feComposite operator="in" in2="blur"/>
      <feComposite in="SourceGraphic"/>
    </filter>
  </defs>
  <g id="Icono" transform="translate(-325.719 -689)">
    <g transform="matrix(1, 0, 0, 1, 325.72, 689)" filter="url(#Fondo)">
      <g id="Fondo-2" data-name="Fondo" transform="translate(9 6)" fill="#ba9c5a">
        <path d="M 45 88.5 C 39.12687683105469 88.5 33.43022537231445 87.35007476806641 28.06830024719238 85.08217620849609 C 22.88852500915527 82.89131164550781 18.23629951477051 79.75458526611328 14.2408504486084 75.75914764404297 C 10.24541282653809 71.76370239257812 7.108687400817871 67.11147308349609 4.917825222015381 61.93170166015625 C 2.649924993515015 56.56977462768555 1.5 50.87312316894531 1.5 45 C 1.5 39.12687683105469 2.649924993515015 33.43022537231445 4.917825222015381 28.06830024719238 C 7.108687400817871 22.88852500915527 10.24541282653809 18.23629951477051 14.2408504486084 14.2408504486084 C 18.23629951477051 10.24541282653809 22.88852500915527 7.108687400817871 28.06830024719238 4.917825222015381 C 33.43022537231445 2.649924993515015 39.12687683105469 1.5 45 1.5 C 50.87312316894531 1.5 56.56977462768555 2.649924993515015 61.93170166015625 4.917825222015381 C 67.11147308349609 7.108687400817871 71.76370239257812 10.24541282653809 75.75914764404297 14.2408504486084 C 79.75458526611328 18.23629951477051 82.89131164550781 22.88852500915527 85.08217620849609 28.06830024719238 C 87.35007476806641 33.43022537231445 88.5 39.12687683105469 88.5 45 C 88.5 50.87312316894531 87.35007476806641 56.56977462768555 85.08217620849609 61.93170166015625 C 82.89131164550781 67.11147308349609 79.75458526611328 71.76370239257812 75.75914764404297 75.75914764404297 C 71.76370239257812 79.75458526611328 67.11147308349609 82.89131164550781 61.93170166015625 85.08217620849609 C 56.56977462768555 87.35007476806641 50.87312316894531 88.5 45 88.5 Z" stroke="none"/>
        <path d="M 45 3 C 39.32871246337891 3 33.82865524291992 4.110054016113281 28.65262985229492 6.299339294433594 C 23.65165710449219 8.414573669433594 19.15968322753906 11.44334411621094 15.301513671875 15.301513671875 C 11.44334411621094 19.15968322753906 8.414573669433594 23.65165710449219 6.299339294433594 28.65262985229492 C 4.110054016113281 33.82865524291992 3 39.32871246337891 3 45 C 3 50.67128753662109 4.110054016113281 56.17134475708008 6.299339294433594 61.34737396240234 C 8.414573669433594 66.34834289550781 11.44334411621094 70.84031677246094 15.301513671875 74.698486328125 C 19.15968322753906 78.55665588378906 23.65165710449219 81.58542633056641 28.65262985229492 83.70066070556641 C 33.82865524291992 85.88994598388672 39.32871246337891 87 45 87 C 50.67128753662109 87 56.17134475708008 85.88994598388672 61.34737396240234 83.70066070556641 C 66.34834289550781 81.58542633056641 70.84031677246094 78.55665588378906 74.698486328125 74.698486328125 C 78.55665588378906 70.84031677246094 81.58542633056641 66.34834289550781 83.70066070556641 61.34737396240234 C 85.88994598388672 56.17134475708008 87 50.67128753662109 87 45 C 87 39.32871246337891 85.88994598388672 33.82865524291992 83.70066070556641 28.65262985229492 C 81.58542633056641 23.65165710449219 78.55665588378906 19.15968322753906 74.698486328125 15.301513671875 C 70.84031677246094 11.44334411621094 66.34834289550781 8.414573669433594 61.34737396240234 6.299339294433594 C 56.17134475708008 4.110054016113281 50.67128753662109 3 45 3 M 45 0 C 69.85281372070312 0 90 20.14718627929688 90 45 C 90 69.85281372070312 69.85281372070312 90 45 90 C 20.14718627929688 90 0 69.85281372070312 0 45 C 0 20.14718627929688 20.14718627929688 0 45 0 Z" stroke="none" fill="#372e1a"/>
      </g>
    </g>
    <g id="_008-oath" data-name="008-oath" transform="translate(357.03 715.621)">
      <g id="Grupo_1151844" data-name="Grupo 1151844" transform="translate(0.723 0.723)">
        <g id="Grupo_1151841" data-name="Grupo 1151841">
          <path id="Trazado_979048" data-name="Trazado 979048" d="M13.287,47.717l1.929-17.763L13.287,7.5A5.787,5.787,0,0,0,7.5,13.287V51.574Z" transform="translate(-7.5 -7.5)" fill="#77899b"/>
          <g id="Grupo_1151839" data-name="Grupo 1151839" transform="translate(5.787 0)">
            <path id="Trazado_979049" data-name="Trazado 979049" d="M153.251,10.393V45.788a92.064,92.064,0,0,1-14.4,3.066S119.737,30.887,125.161,7.5h7.451l3.327,5.835c.362-.31,3.424-5.835,3.424-5.835h10.995A2.893,2.893,0,0,1,153.251,10.393Z" transform="translate(-118.725 -7.5)" fill="#9ec6e0"/>
            <path id="Trazado_979050" data-name="Trazado 979050" d="M100.594,43.137,87.628,48.854A50.2,50.2,0,0,1,67.5,47.717V7.5h6.437C73.937,25.072,82.961,37.14,100.594,43.137Z" transform="translate(-67.5 -7.5)" fill="#cee2ef"/>
          </g>
          <g id="Grupo_1151840" data-name="Grupo 1151840" transform="translate(0 40.217)">
            <path id="Trazado_979051" data-name="Trazado 979051" d="M164.317,424.5l-1.736,4.822a2.893,2.893,0,0,1-2.893,2.893H143.169c-5.94-1.519-8.3-4.1-5.653-7.715Z" transform="translate(-124.003 -424.5)" fill="#fff8e6"/>
            <path id="Trazado_979052" data-name="Trazado 979052" d="M26.666,432.215H11.358a3.858,3.858,0,0,1,0-7.715h9.656C21.125,427.979,23.031,430.579,26.666,432.215Z" transform="translate(-7.5 -424.5)" fill="#fff1cf"/>
          </g>
          <path id="Trazado_979053" data-name="Trazado 979053" d="M216.659,15.3l-1.156-.991a.964.964,0,0,0-1.255,0l-1.156.991a.964.964,0,0,1-1.592-.732V7.5h6.751v7.065A.964.964,0,0,1,216.659,15.3Z" transform="translate(-191.826 -7.5)" fill="#f9ee80"/>
        </g>
        <g id="Grupo_1151843" data-name="Grupo 1151843" transform="translate(22.092 10.32)">
          <g id="Grupo_1151842" data-name="Grupo 1151842" transform="translate(3.222)">
            <path id="Trazado_979054" data-name="Trazado 979054" d="M292.593,214.307V227.8a9.641,9.641,0,0,1-.479,3l-1.065,3.253a5.8,5.8,0,0,0-.287,1.8v1.063a2.892,2.892,0,0,1-2.282,2.828c-13.793-2.149-19.971-9.679-18.212-22.279a2.761,2.761,0,0,1,.862.426H287.1v-3.529a2.785,2.785,0,0,1,2.671-2.8A2.748,2.748,0,0,1,292.593,214.307Z" transform="translate(-269.975 -202.199)" fill="#ffddcf"/>
            <path id="Trazado_979055" data-name="Trazado 979055" d="M336.3,114.5a2.748,2.748,0,0,1,2.748,2.748v14.105h-5.5V117.25A2.748,2.748,0,0,1,336.3,114.5Z" transform="translate(-327.424 -114.502)" fill="#ffddcf"/>
            <path id="Trazado_979056" data-name="Trazado 979056" d="M279.323,137.295a2.748,2.748,0,0,1,2.748,2.748v12.64h-5.5v-12.64A2.748,2.748,0,0,1,279.323,137.295Z" transform="translate(-275.938 -135.097)" fill="#ffddcf"/>
            <path id="Trazado_979057" data-name="Trazado 979057" d="M393.287,189.7a2.748,2.748,0,0,1,2.748,2.748v12.64h-5.5v-12.64A2.748,2.748,0,0,1,393.287,189.7Z" transform="translate(-378.911 -182.445)" fill="#ffddcf"/>
          </g>
          <path id="Trazado_979058" data-name="Trazado 979058" d="M258.3,294.077a2.835,2.835,0,0,1-.611.066H243.321a2.893,2.893,0,0,1-2.893-2.893v-1.641a1.933,1.933,0,0,0-.433-1.218l-2.126-2.612a5.788,5.788,0,0,1-1.3-3.653v-7.688a2.751,2.751,0,0,1,3.514-2.64C240.424,283.5,246.6,291.028,258.3,294.077Z" transform="translate(-236.57 -256.53)" fill="#ffcbbe"/>
        </g>
      </g>
      <g id="Grupo_1151846" data-name="Grupo 1151846">
        <path id="Trazado_979059" data-name="Trazado 979059" d="M112.3,146.468H100.723a.723.723,0,1,1,0-1.447H112.3a.723.723,0,0,1,0,1.447Z" transform="translate(-90.356 -131.035)"/>
        <path id="Trazado_979060" data-name="Trazado 979060" d="M110.368,186.468h-9.644a.723.723,0,1,1,0-1.447h9.644a.723.723,0,0,1,0,1.447Z" transform="translate(-90.356 -167.177)"/>
        <path id="Trazado_979061" data-name="Trazado 979061" d="M107.474,226.468h-6.751a.723.723,0,1,1,0-1.447h6.751a.723.723,0,0,1,0,1.447Z" transform="translate(-90.356 -203.319)"/>
        <g id="Grupo_1151845" data-name="Grupo 1151845" transform="translate(6.952 43.151)">
          <path id="Trazado_979062" data-name="Trazado 979062" d="M72.812,450.032a.723.723,0,0,1-.723-.723v-1.157a.723.723,0,1,1,1.447,0v1.157A.723.723,0,0,1,72.812,450.032Z" transform="translate(-72.089 -447.428)"/>
          <path id="Trazado_979063" data-name="Trazado 979063" d="M197.709,450.032a.723.723,0,0,1-.723-.723v-1.157a.723.723,0,0,1,1.447,0v1.157A.723.723,0,0,1,197.709,450.032Z" transform="translate(-184.941 -447.428)"/>
          <path id="Trazado_979064" data-name="Trazado 979064" d="M120.385,461.241a2.829,2.829,0,0,1-2.133-.971.723.723,0,0,1,1.091-.95,1.381,1.381,0,0,0,2.085,0,.723.723,0,0,1,1.091.951A2.831,2.831,0,0,1,120.385,461.241Z" transform="translate(-113.639 -457.948)"/>
        </g>
        <path id="Trazado_979065" data-name="Trazado 979065" d="M48.656,30.219a.723.723,0,0,0,.723-.723V23.151a3.471,3.471,0,0,0-3.568-3.47,3.4,3.4,0,0,0-1.936.677.719.719,0,0,0-.143-.331,3.488,3.488,0,0,0-1.972-2.183V3.617A3.621,3.621,0,0,0,38.143,0H6.51A6.517,6.517,0,0,0,0,6.51V22.664a.723.723,0,1,0,1.447,0V6.51A5.071,5.071,0,0,1,5.787,1.5V40.217H4.581a4.548,4.548,0,0,0-3.134,1.241V26.04A.723.723,0,1,0,0,26.04V44.8a4.586,4.586,0,0,0,4.581,4.581h39.35a3.621,3.621,0,0,0,3.617-3.617V44.7a5.067,5.067,0,0,1,.252-1.576l1.065-3.253a10.346,10.346,0,0,0,.515-3.227V32.871a.723.723,0,0,0-1.447,0v3.774a8.9,8.9,0,0,1-.443,2.776l-1.065,3.253A6.51,6.51,0,0,0,46.1,44.7v1.063a2.172,2.172,0,0,1-2.17,2.17H29.567a2.172,2.172,0,0,1-2.17-2.17v-1.64a2.664,2.664,0,0,0-.6-1.675l-2.126-2.612a5.078,5.078,0,0,1-1.137-3.2V28.95a2.026,2.026,0,0,1,2.412-1.987v4.559a.723.723,0,0,0,1.447,0V15.989a2.024,2.024,0,1,1,4.049,0V27.9a.723.723,0,0,0,1.447,0v-14.1a2.024,2.024,0,1,1,4.049,0V27.9a.723.723,0,1,0,1.447,0V21.043a2.024,2.024,0,1,1,4.049,0V28.53a.723.723,0,0,0,1.447,0V23.208a2.068,2.068,0,0,1,1.967-2.081,2.025,2.025,0,0,1,2.082,2.024V29.5a.723.723,0,0,0,.723.723ZM21.121,1.447h5.3V7.789a.241.241,0,0,1-.4.183l-1.156-.991a1.679,1.679,0,0,0-2.2,0l-1.156.991a.241.241,0,0,1-.4-.183ZM38.388,18.225V13.791a3.471,3.471,0,0,0-6.893-.584,3.469,3.469,0,0,0-5.545,2.782V25.5a3.51,3.51,0,0,0-.387-.021,3.471,3.471,0,0,0-3.471,3.471v7.688a6.532,6.532,0,0,0,1.072,3.578H16.01a.723.723,0,1,0,0,1.447H24.3l1.381,1.7a1.213,1.213,0,0,1,.271.762v1.64a3.6,3.6,0,0,0,.725,2.17H4.581a3.134,3.134,0,0,1,0-6.269h8.053a.723.723,0,0,0,0-1.447h-5.4V1.447H19.674V7.789A1.688,1.688,0,0,0,22.461,9.07l1.156-.991a.24.24,0,0,1,.314,0l1.156.991a1.675,1.675,0,0,0,1.093.409,1.7,1.7,0,0,0,.71-.157,1.671,1.671,0,0,0,.983-1.533V1.447H38.143a2.172,2.172,0,0,1,2.17,2.17V17.573a3.451,3.451,0,0,0-1.925.652Z"/>
      </g>
    </g>
  </g>
</svg>
