<svg xmlns="http://www.w3.org/2000/svg" xmlns:xlink="http://www.w3.org/1999/xlink" width="108" height="108" viewBox="0 0 108 108">
  <defs>
    <filter id="Fondo" x="0" y="0" width="108" height="108" filterUnits="userSpaceOnUse">
      <feOffset dy="3" input="SourceAlpha"/>
      <feGaussianBlur stdDeviation="3" result="blur"/>
      <feFlood flood-opacity="0.161"/>
      <feComposite operator="in" in2="blur"/>
      <feComposite in="SourceGraphic"/>
    </filter>
    <clipPath id="clip-path">
      <rect id="Rectángulo_408318" data-name="Rectángulo 408318" width="56" height="57" transform="translate(0 0.204)" fill="none"/>
    </clipPath>
  </defs>
  <g id="Grupo_1151905" data-name="Grupo 1151905" transform="translate(-431 -7551)">
    <g id="Icono" transform="translate(440 6862)">
      <g transform="matrix(1, 0, 0, 1, -9, 689)" filter="url(#Fondo)">
        <g id="Fondo-2" data-name="Fondo" transform="translate(9 6)" fill="#f5e9a1" stroke="#48452f" stroke-width="3">
          <circle cx="45" cy="45" r="45" stroke="none"/>
          <circle cx="45" cy="45" r="43.5" fill="none"/>
        </g>
      </g>
    </g>
    <g id="Grupo_1151854" data-name="Grupo 1151854" transform="translate(457 7570.972)">
      <g id="Grupo_1151853" data-name="Grupo 1151853" transform="translate(0 -0.175)" clip-path="url(#clip-path)">
        <path id="Trazado_978935" data-name="Trazado 978935" d="M400.58,344.11a.709.709,0,0,0-.169.085l-.14.112a.949.949,0,0,0,0,1.329l.14.112a.714.714,0,0,0,.169.085.577.577,0,0,0,.177.056.854.854,0,0,0,.356,0,.582.582,0,0,0,.178-.056.523.523,0,0,0,.159-.085c.056-.037.1-.075.15-.112a.949.949,0,0,0,0-1.329c-.047-.038-.094-.075-.15-.112a.52.52,0,0,0-.159-.085.571.571,0,0,0-.178-.056,1.132,1.132,0,0,0-.356,0,.567.567,0,0,0-.177.056" transform="translate(-353.197 -303.635)"/>
        <rect id="Rectángulo_408315" data-name="Rectángulo 408315" width="6" height="7" transform="translate(1 21.204)" fill="#d63909"/>
        <rect id="Rectángulo_408316" data-name="Rectángulo 408316" width="12" height="4" transform="translate(42 21.204)" fill="#fbc250"/>
        <path id="Trazado_978936" data-name="Trazado 978936" d="M377.872,321.361h3.744l1.872-5.616L379.744,312,376,315.744Z" transform="translate(-332.005 -275.344)" fill="#da9d41"/>
        <rect id="Rectángulo_408317" data-name="Rectángulo 408317" width="11" height="4" transform="translate(16 52.204)" fill="#d63909"/>
        <path id="Trazado_978937" data-name="Trazado 978937" d="M136,107.233h11.233v-3.744A7.488,7.488,0,0,0,139.744,96H136Z" transform="translate(-120.087 -84.618)" fill="#fbc250"/>
        <path id="Trazado_978938" data-name="Trazado 978938" d="M175.488,103.488H168V96A7.489,7.489,0,0,1,175.488,103.488Z" transform="translate(-148.343 -84.618)" fill="#5fd1d0"/>
        <path id="Trazado_978939" data-name="Trazado 978939" d="M400.58,344.11a.709.709,0,0,0-.169.085l-.14.112a.949.949,0,0,0,0,1.329l.14.112a.714.714,0,0,0,.169.085.577.577,0,0,0,.177.056.854.854,0,0,0,.356,0,.582.582,0,0,0,.178-.056.523.523,0,0,0,.159-.085c.056-.037.1-.075.15-.112a.949.949,0,0,0,0-1.329c-.047-.038-.094-.075-.15-.112a.52.52,0,0,0-.159-.085.571.571,0,0,0-.178-.056,1.132,1.132,0,0,0-.356,0,.567.567,0,0,0-.177.056" transform="translate(-353.197 -303.635)"/>
        <path id="Trazado_978940" data-name="Trazado 978940" d="M53.355,25.274a.936.936,0,0,0,.936-.936V21.529h.936a.936.936,0,0,0,.936-.936V13.1a.927.927,0,0,0-.629-.874l0-.009L20.908.055H20.9A.935.935,0,0,0,20.593,0c-.021,0-.039.009-.06.01a.9.9,0,0,0-.11.019.907.907,0,0,0-.261.09c-.02.01-.043.01-.062.021L.443,12.309l.009.014A.921.921,0,0,0,0,13.1V28.082a.936.936,0,0,0,.936.936H6.552a.936.936,0,0,0,.936-.936V21.529h7.488v.936a.936.936,0,0,0,.936.936h.936V51.483h-.936a.936.936,0,0,0-.936.936v2.808H0V57.1H56.164V55.227H28.082V52.419a.936.936,0,0,0-.936-.936H26.21V23.4h.936a.936.936,0,0,0,.936-.936v-.936h13.1v2.808a.936.936,0,0,0,.936.936h1.872V38.927l-.662.662a.936.936,0,0,0-.226.958l1.872,5.616a.935.935,0,0,0,.888.64H46.8v1.1a2.808,2.808,0,1,0,3.744,2.648H48.675a.936.936,0,1,1-.936-.936.936.936,0,0,0,.936-.936V46.8h.936a.935.935,0,0,0,.888-.64l1.872-5.616a.936.936,0,0,0-.226-.958l-.662-.662V25.274Zm0-5.616H50l4.293-4.293v4.293Zm-10.845,0L46.8,15.365v4.293Zm-35.958,0H3.2l4.293-4.293v4.293Zm-4.68-1.324V14.041H6.165Zm7.488-4.293h4.293L9.361,18.334Zm5.616-2.808v.936H4.226l14.95-9.254-1.7,7.382h-1.56a.936.936,0,0,0-.936.936m26.21,2.808h4.293l-4.293,4.293Zm7.488,0h4.293l-4.293,4.293ZM24.941,12.169a8.437,8.437,0,0,0-.946-.656l-2.106-9.13L49.74,12.169ZM19.394,10.3l1.2-5.2,1.269,5.5a8.39,8.39,0,0,0-2.2-.3Zm1.2,1.947.106.016a6.536,6.536,0,0,1,.926.212l.054.02a6.514,6.514,0,0,1,.835.342c.051.025.1.048.153.074a6.534,6.534,0,0,1,.77.471c.05.035.1.073.146.109a6.605,6.605,0,0,1,.7.6l.005.005a6.618,6.618,0,0,1,.6.7c.037.048.074.1.109.146a6.567,6.567,0,0,1,.47.768c.027.051.05.1.075.156a6.5,6.5,0,0,1,.341.833c.006.018.014.036.02.054a6.522,6.522,0,0,1,.212.926c.006.035.011.07.016.106H20.593Zm7.237,4.47a8.381,8.381,0,0,0-1.173-2.672H30.5ZM33.7,14.041h4.293L33.7,18.334Zm5.616,1.324v4.293H35.022ZM5.616,27.146H1.872V21.529H5.616Zm5.068-7.488,4.293-4.293v4.293ZM24.338,36.506H20.045l4.293-4.293Zm-5.616,1.872h4.293l-4.293,4.293Zm0-3.2V30.89h4.293Zm0,10.684h4.293L18.721,50.16Zm1.324-1.872L24.338,39.7v4.293Zm4.293-14.977H20.045l4.293-4.293Zm-5.616-1.323V23.4h4.293ZM16.849,55.227V53.355H26.21v1.872Zm3.2-3.744,4.293-4.293v4.293Zm5.229-29.954H16.849V12.169h1.872v6.552a.936.936,0,0,0,.936.936H26.21v1.872Zm2.808-2.421,3.744-3.744v4.293H28.082Zm14.977,2.421h9.361V23.4H43.059Zm5.878,23.4H46.542L45.066,40.5l2.673-2.673L50.412,40.5Zm.675-7.876-1.21-1.21a.936.936,0,0,0-1.324,0l-1.21,1.21V25.274h3.744Z" transform="translate(0 0.15)"/>
      </g>
    </g>
  </g>
</svg>
